<svg width="33" height="32" viewBox="0 0 33 32" fill="none" xmlns="http://www.w3.org/2000/svg">
<path d="M17.1994 27.2989C18.0314 25.0109 19.3734 22.8582 21.2241 21.0167L21.2579 20.9833C23.1114 19.1491 25.2766 17.8182 27.58 16.9876C29.0146 16.4713 30.5022 16.1484 32 16.0218C30.5066 15.9404 29.0234 15.6625 27.5932 15.1913C25.1928 14.4029 22.9439 13.0662 21.0389 11.1811C19.1353 9.29745 17.783 7.06909 16.9863 4.69527C16.4748 3.17382 16.1911 1.59127 16.1338 0L16.072 0.0610909C15.9618 1.64073 15.6281 3.20873 15.0725 4.71709C14.2361 6.98618 12.8941 9.12145 11.0508 10.9513L11.0376 10.9644C9.19577 12.7869 7.04382 14.1149 4.75517 14.9455C3.22058 15.5025 1.62572 15.8356 0.0191089 15.9462L0 15.9651C1.60514 16.0218 3.2 16.3025 4.73459 16.8058C7.13643 17.5956 9.39127 18.9324 11.2977 20.8204C13.2057 22.7084 14.5551 24.9367 15.3532 27.3149C15.8633 28.8335 16.147 30.4116 16.2043 32L16.2146 31.9898C16.316 30.4 16.6438 28.8189 17.1965 27.2975L17.1994 27.2989Z" fill="white"/>
</svg>
