<svg width="2560" height="1920" viewBox="0 0 2560 1920" fill="none" xmlns="http://www.w3.org/2000/svg">
<path d="M589.59 622.67C561.43 623.44 534.21 632.14 531.41 634.14C519.71 642.5 544.97 1016.47 544.97 1016.47L910.75 1021.41C910.75 1021.41 864.91 629.46 858.3 624.75C853.27 621.18 679.15 620.21 589.59 622.67Z" fill="#A0C157"/>
<path d="M578.65 624.76C566.95 633.12 587.43 1016.48 587.43 1016.48L953.21 1021.42C953.21 1021.42 907.37 629.47 900.76 624.76C894.15 620.05 590.35 616.4 578.65 624.76Z" fill="#A0C157"/>
<path d="M910.67 1020.84L953.2 1021.41C953.2 1021.41 907.36 629.46 900.75 624.75C894.78 620.5 645.96 617.1 589.58 622.66C584.55 622.8 579.55 623.19 574.71 623.75C571.62 630.35 568.67 659.67 574.87 823.88C578.49 919.69 583.6 1015.7 583.65 1016.66L583.67 1016.98L910.74 1021.4C910.74 1021.41 910.72 1021.21 910.67 1020.84ZM582.6 828.09C576.31 663.66 579.36 632.89 581.23 627.72C588.87 625.24 640.28 623.07 740.5 623.63C824.61 624.1 887.73 626.18 898.06 627.92C904.27 648.06 931.47 868.36 948.95 1017.57L591.02 1012.73C590.08 994.85 585.8 911.94 582.6 828.09Z" fill="#B1D15A"/>
<path d="M793.25 592.2C795.89 585.77 793.29 493.75 793.29 493.75L881.22 552.13C881.22 552.13 869.57 617.63 914.3 621.17C927.18 622.19 914.26 736.73 869.97 733.26C830.05 730.13 764.97 612.33 764.97 612.33C764.97 612.33 790.6 598.63 793.25 592.2Z" fill="#F99976"/>
<path d="M885.23 600.38C869.84 601.15 840.31 597.93 824.01 588.59C811.2 581.25 800.18 537.81 793.99 526.38C793.99 526.38 792.62 503.95 792.57 496.21C793.83 498.29 799.23 494.3 800.94 498.16C808.53 515.3 818.47 549.67 831.76 555.28C847.85 562.08 867.11 564.63 880.07 563.26C879.45 574.16 880.06 586.79 885.23 600.38Z" fill="#C5735B"/>
<path d="M933.62 352.33C960.77 390.24 947.34 530.74 918.29 559.29C893.65 583.51 848.74 571.77 838.9 565C812.05 546.55 802.64 519.99 802.64 519.99C802.64 519.99 769.87 374.01 782.57 351.39C795.27 328.77 913.04 323.59 933.62 352.33Z" fill="#F99976"/>
<path d="M927.97 454.11C927.78 459.05 929.32 463.03 931.41 462.99C933.5 462.95 935.34 458.91 935.53 453.97C935.72 449.03 934.18 445.05 932.09 445.09C930.01 445.13 928.16 449.17 927.97 454.11Z" fill="#25303D"/>
<path d="M852.53 455.6C852.33 460.87 853.85 465.11 855.94 465.06C858.03 465.01 859.89 460.7 860.09 455.42C860.29 450.15 858.77 445.91 856.68 445.96C854.6 446.02 852.74 450.33 852.53 455.6Z" fill="#25303D"/>
<path d="M804.355 451.037L804.3 455.867L841.697 456.29L841.751 451.46L804.355 451.037Z" fill="#FAF0EE"/>
<path d="M935.43 339.87C988.03 391.67 996.76 514.98 980.02 529.51C976.39 532.66 972.01 535.47 967.37 537.93C966.36 538.46 966.61 511.72 965.83 512.55C964.37 514.09 964.35 539.33 958.5 542.23C944.02 549.41 924.64 550.94 924.64 550.94C924.64 550.94 956.88 474.84 943.09 421.22C934.71 388.63 871.42 364.65 871.42 364.65C871.42 364.65 865.27 415.27 849.13 438.48C832.99 461.68 798.07 455.44 798.07 455.44L788.93 456.09L800.98 563.14C800.98 563.14 752.62 562.91 742.13 548.35C731.64 533.79 728.63 354.76 779.41 334.5C830.18 314.24 919.86 324.54 935.43 339.87Z" fill="#314056"/>
<path d="M948.03 386.77C968.63 408.58 963.04 502.25 958.5 527.69C957.31 534.36 955.5 539.78 953.45 544.17C951.1 545.07 948.81 545.89 946.63 546.62C949.43 542.05 952.16 535.65 953.73 526.84C958.62 499.38 963.05 409.72 944.5 390.09C925.34 369.8 874.3 358.18 873.79 358.07L874.85 353.35C877.02 353.83 927.85 365.41 948.03 386.77Z" fill="#2C3A4C"/>
<path d="M962.78 458.43L963.14 453.61L946.49 453.44L946.35 458.29L962.78 458.43Z" fill="#EDDBD9"/>
<path d="M921.86 423.32C926.06 423.14 930.26 422.97 934.46 422.79C940.66 422.53 941.37 432.17 935.14 432.43C930.94 432.61 926.74 432.78 922.54 432.96C916.34 433.22 915.63 423.58 921.86 423.32Z" fill="#2C3A4C"/>
<path d="M860.99 425.26C865.19 425.08 869.39 424.91 873.59 424.73C879.79 424.47 880.5 434.11 874.27 434.37C870.07 434.55 865.87 434.72 861.67 434.9C855.47 435.17 854.76 425.52 860.99 425.26Z" fill="#2C3A4C"/>
<path d="M936.98 495.13C931.71 495.44 926.69 493.51 922.47 489.55C916.32 483.77 912.63 474.15 912.61 463.82C912.56 446 923.18 430.86 936.32 429.93C936.39 429.93 936.46 429.92 936.53 429.92C941.8 429.61 946.82 431.54 951.04 435.5C957.19 441.28 960.88 450.9 960.9 461.23C960.95 479.05 950.33 494.19 937.19 495.12C937.12 495.13 937.05 495.13 936.98 495.13ZM917.44 463.8C917.46 472.83 920.58 481.14 925.78 486.02C929.01 489.05 932.78 490.53 936.69 490.3C947.39 489.7 956.11 476.63 956.07 461.23C956.05 452.2 952.93 443.89 947.73 439.01C944.5 435.98 940.73 434.5 936.82 434.73C936.77 434.73 936.71 434.74 936.66 434.74C926.01 435.5 917.4 448.49 917.44 463.8Z" fill="#FAF0EE"/>
<path d="M862.09 496.74C856.82 497.05 851.8 495.12 847.58 491.15C841.43 485.37 837.74 475.75 837.72 465.42C837.67 447.51 848.36 432.29 861.64 431.52C866.91 431.21 871.93 433.14 876.15 437.1C882.3 442.88 885.99 452.5 886.01 462.83C886.06 480.65 875.44 495.79 862.3 496.72C862.24 496.73 862.16 496.73 862.09 496.74ZM842.56 465.41C842.58 474.44 845.7 482.75 850.9 487.63C854.13 490.66 857.9 492.14 861.81 491.91C861.86 491.91 861.92 491.9 861.97 491.9C872.62 491.14 881.23 478.16 881.18 462.84C881.16 453.81 878.04 445.5 872.84 440.62C869.61 437.59 865.84 436.11 861.93 436.34C861.88 436.34 861.82 436.35 861.77 436.35C851.12 437.11 842.52 450.09 842.56 465.41Z" fill="#FAF0EE"/>
<path d="M901.07 501.25C908.66 500.71 916 498.5 918.77 492.46C924.63 479.66 903.49 452.11 899.2 446.71L894.47 450.47C903.52 461.84 916.63 482.61 913.28 489.94C909.71 497.74 888.39 495.2 881.21 493.69L879.97 499.6C881.8 499.99 891.62 501.92 901.07 501.25Z" fill="#C5735B"/>
<path d="M913.19 460.78L917.27 458.19C917.02 457.8 911.04 448.59 899.73 447.54C888.12 446.47 881.58 456.76 881.3 457.2L885.4 459.75C885.61 459.42 890.67 451.55 899.28 452.35C908.27 453.18 913.15 460.7 913.19 460.78Z" fill="#FAF0EE"/>
<path d="M840.82 323.41C842.84 324.16 845.07 325.03 847.43 326C861.68 331.85 870.33 337.11 873.13 341.63C877.36 348.47 877.13 359.66 876.44 366.71C874.07 365.7 872.42 365.05 871.75 364.79C872.27 358.4 872.26 349.42 869.02 344.18C864.62 337.08 837.18 326.88 828.2 324.16C832.38 323.81 836.6 323.56 840.82 323.41Z" fill="#2C3A4C"/>
<path d="M809.19 401.5C812.22 392.74 813.7 381.99 815.01 372.51C816.78 359.73 818.3 348.69 823.1 343.87C829 337.94 843.81 333.05 851.58 330.79C853.54 331.82 855.53 332.78 857.54 333.7L857.65 334.14C850.98 335.81 832.38 341.41 826.53 347.29C822.87 350.96 821.38 361.76 819.8 373.18C818.46 382.88 816.94 393.87 813.76 403.08C808.03 419.67 790.49 439.82 783.43 447.49L786.35 448.13C790.35 446.84 813.51 439.14 828.42 428.74C835.01 424.14 838.89 406.33 842.65 389.1C847.96 364.74 853.45 339.55 868.41 338.49C868.46 338.49 868.51 338.48 868.56 338.48L868.85 343.31C868.82 343.31 868.79 343.31 868.76 343.32C857.4 344.13 852.08 368.57 847.37 390.14C843.23 409.11 839.33 427.03 831.18 432.71C814.27 444.5 788.27 452.61 787.17 452.95L786.56 453.14L773.97 450.39L777.01 447.27C777.27 446.99 802.47 420.97 809.19 401.5Z" fill="#2C3A4C"/>
<path d="M836.43 325.27C837.2 325.22 837.99 325.18 838.19 325.15C838.15 325.16 837.84 325.21 837.47 325.43L844.44 328.41C843.81 328.79 838.96 329.96 836.72 330.09C795.62 332.54 779.82 348.34 773.82 361.16C758.44 394.02 756.79 511.52 761.9 529.69C764.79 539.96 773.32 551.88 780.61 560.72C778.07 560.21 775.47 559.6 772.91 558.85C766.42 550.41 759.85 540.23 757.25 530.99C751.92 512.04 753.26 393.7 769.45 359.1C776 345.1 792.95 327.84 836.43 325.27Z" fill="#2C3A4C"/>
<path d="M789.78 562.2C783.13 552.12 776.37 538.84 777.2 527.36C778.48 509.52 781.54 489.82 781.57 489.63L786.35 490.38C786.32 490.57 783.29 510.07 782.02 527.71C781.37 536.77 786.33 549.1 796.06 562.85C794.31 562.7 792.17 562.5 789.78 562.2Z" fill="#2C3A4C"/>
<path d="M954.45 365.51C955.69 367.04 956.86 368.74 957.98 370.59C959.27 372.95 960.52 375.35 961.71 377.79C979.88 418.45 978.27 505.05 977.29 531.7C975.72 532.89 974.05 534.02 972.31 535.09C973.23 512.12 976.29 400 950.7 368.57C922.64 334.11 870.67 343.46 870.15 343.56L869.25 338.81C871.49 338.37 924.56 328.79 954.45 365.51Z" fill="#2C3A4C"/>
<path d="M794.3 498.76C793.35 515.82 801.65 544.83 817.55 561.32C818.35 562.15 814.48 564.14 812.19 563.37C796.37 558.06 787.96 524.81 789 500.93C790.03 477.05 794.3 498.76 794.3 498.76Z" fill="#314056"/>
<path d="M803.158 502.921C816.136 496.266 820.069 478.023 811.941 462.174C803.814 446.326 786.705 438.873 773.726 445.529C760.748 452.184 756.815 470.427 764.942 486.276C773.069 502.124 790.179 509.577 803.158 502.921Z" fill="#F99976"/>
<path d="M792.36 493.91C792.31 494.19 792.28 494.39 792.26 494.56C794.29 494.61 796.32 494.67 798.35 494.75C802.34 470.9 796.65 455.1 782.71 451.38L781.15 457.22C796.19 461.23 794 484.21 792.36 493.91Z" fill="#C5735B"/>
<path d="M776.505 470.636L774.927 476.465L795.698 482.089L797.277 476.259L776.505 470.636Z" fill="#C5735B"/>
<g opacity="0.11">
<path d="M935.43 339.87C936.66 341.08 937.85 342.34 939.03 343.62C938.86 344.54 938.64 345.47 938.34 346.41C935.46 355.46 927.86 362.98 920.75 368.92C915.38 373.41 909.66 377.24 903.67 380.46C886.96 370.55 871.4 364.65 871.4 364.65C871.4 364.65 869.89 377.11 866.39 392.5C828.27 397.87 786.79 385.26 757.24 360.51C762.03 349.14 768.27 340.47 776.28 336.01C789.81 343.7 804.22 349.81 819.18 354.14C846.35 362 885.43 365.12 906.7 342.21C910.06 338.59 912.54 334.6 914.28 330.4C924.34 333.08 931.85 336.34 935.43 339.87Z" fill="white"/>
</g>
<path d="M1166.54 921.02C1166.54 921.02 1192.28 892.03 1205.31 887.52C1218.34 883.01 1226.89 889.96 1226.89 889.96C1226.89 889.96 1237.83 888.7 1243.71 888.89C1249.58 889.08 1286.71 905.64 1291.37 926.79C1293.23 935.23 1219.58 933.24 1219.58 933.24C1219.58 933.24 1221.75 940.83 1207.42 943.38C1193.09 945.92 1169.88 940.71 1166.89 933.55C1163.91 926.38 1166.54 921.02 1166.54 921.02Z" fill="#FEA177"/>
<path d="M1049.49 866.84C1045.82 865.62 1013.39 651.53 999.12 632.35C984.85 613.17 899.86 604.31 899.86 604.31C899.86 604.31 902.26 589.66 899.86 586.92C897.46 584.18 883.09 582.83 881.03 582.83L854.92 688.74C854.92 688.74 840.17 607.5 833.31 602.36C826.45 597.21 799.51 577.01 792.09 574.72C784.94 572.51 773.64 604.76 773.64 604.76C773.64 604.76 687.48 607.29 663.83 619.12C640.18 630.95 571.69 935.05 603.19 952.3C614.83 958.68 1196.98 937.87 1196.98 937.87C1196.98 937.87 1200.02 905.41 1192.68 891.33C1185.34 877.24 1053.16 868.07 1049.49 866.84Z" fill="white"/>
<path d="M1143.27 913.72C1145.7 896.52 1159.62 884.94 1164.87 881.14C1162.6 880.68 1160.22 880.24 1157.78 879.8C1150.78 885.69 1140.17 897.01 1137.92 912.97C1135.97 926.75 1138.22 935.13 1140.57 939.83C1142.67 939.76 1144.72 939.69 1146.72 939.62C1144.85 937.07 1141.01 929.68 1143.27 913.72Z" fill="#DDDFED"/>
<path d="M814.61 896.42C812.7 894.78 814.25 894.72 744.15 890.14C721.94 888.69 697.12 887.07 689.68 886.21C690.67 874.61 699.69 819.54 716.54 722.25C717.77 715.11 718.58 710.47 718.76 709.38L712.68 708.39C712.5 709.48 711.7 714.1 710.47 721.21C706.98 741.34 699.73 783.23 693.68 819.68C682.14 889.16 682.73 889.63 684.7 891.21C686.07 892.31 686.4 892.57 743.75 896.31C772.99 898.22 803.5 899.75 811.05 901.13C811.76 905.74 812.98 922.15 811.04 936.68H817.38C818.17 912 815.87 897.5 814.61 896.42Z" fill="#DDDFED"/>
<path d="M637.81 895.49L639.29 901.47C639.63 901.39 673.43 893.07 686.91 891.85L686.35 885.71C672.4 886.98 639.21 895.15 637.81 895.49Z" fill="#DDDFED"/>
<path d="M987.28 801.94C992.2 780 971.17 749.23 958.2 732.83C958.88 729.4 962.72 717.72 966.39 707.42L960.58 705.35C950.77 732.92 951.54 734.07 952.51 735.53C952.59 735.65 952.88 736.03 953.36 736.64C974.27 763.07 984.44 786.38 981.26 800.58C977.63 816.77 972.95 826.94 970.15 833.02C968.21 837.24 967.23 839.36 967.52 841.36C967.87 843.78 976.71 921.43 981.34 962.16L987.46 961.46C986.92 956.71 974.38 846.37 973.64 840.65C973.77 839.89 974.77 837.71 975.75 835.59C978.65 829.32 983.51 818.77 987.28 801.94Z" fill="#DDDFED"/>
<path d="M1171.43 895.49C1155.12 910.9 1155.58 931.43 1160.21 933.58C1164.84 935.73 1226.07 933.58 1226.07 933.58C1226.07 933.58 1228.2 900.02 1226.07 898.14C1223.94 896.26 1171.43 895.49 1171.43 895.49Z" fill="#FEA177"/>
<path d="M1234.44 899.75C1227.82 891.07 1209.65 889.13 1208.88 889.05L1208.48 894.15C1213.22 894.64 1226.52 897.19 1231.03 903.11C1235.53 909.01 1240.53 926.29 1242.46 933.44C1244 933.43 1245.57 933.41 1247.16 933.39C1245.53 927.19 1239.91 906.93 1234.44 899.75Z" fill="#C5735B"/>
<path d="M1225.6 928.46C1220.78 917.44 1216 907.45 1210.41 906.25C1207.19 905.56 1203.94 906.49 1201.03 908.94C1196.94 912.38 1194.43 918.04 1194.06 921.86C1193.93 923.18 1194.26 924.41 1195.02 925.42C1197.1 928.21 1201.81 928.68 1209.3 929.12C1212.42 929.3 1215.65 929.5 1217.66 930.04C1218.99 930.4 1219.62 930.89 1219.77 931.23C1220 931.75 1219.53 932.94 1219.31 933.51C1219.03 934.23 1218.71 935.04 1218.96 936.05L1219.48 935.88C1219.72 934.99 1219.72 934.24 1219.67 933.77C1223.62 933.65 1226.07 933.56 1226.07 933.56C1226.07 933.56 1226.08 933.47 1226.08 933.35C1226.63 933.36 1227.21 933.37 1227.82 933.37C1227.21 932.14 1226.34 930.16 1225.6 928.46ZM1218.69 925.07C1216.28 924.42 1213 924.23 1209.53 924.02C1206.11 923.82 1199.84 923.44 1198.56 922.24C1198.9 919.55 1200.87 915.45 1203.71 913.07C1205.62 911.47 1207.59 910.87 1209.57 911.29C1212.44 911.91 1216.23 919.07 1219.07 925.18C1218.94 925.14 1218.82 925.1 1218.69 925.07Z" fill="#C5735B"/>
<path d="M1253.5 898.25C1249.9 893.68 1245.91 890.77 1242.44 888.87C1239.05 888.87 1234.58 889.21 1231.3 889.51L1231.29 889.53C1231.86 890 1232.56 890.23 1233.85 890.67C1237.22 891.8 1244.23 894.16 1250.14 901.66C1255.72 908.75 1257.8 925.64 1258.58 933.1C1260.1 933.05 1261.61 932.98 1263.1 932.91C1262.26 924.78 1260.13 906.67 1253.5 898.25Z" fill="#C5735B"/>
<path d="M1276.17 905.87C1273.34 903.58 1270.34 901.47 1267.34 899.57C1274.25 907.82 1276.8 924.8 1277.59 931.81C1279.19 931.62 1280.69 931.42 1282.07 931.19C1281.48 925.81 1279.91 915.06 1276.17 905.87Z" fill="#C5735B"/>
<path d="M1187.45 937.09V931.97C1184.15 931.97 1181.18 929.02 1180.05 924.64C1178.73 919.49 1180 912.06 1187.51 906.66L1185.1 902.34C1175.49 909.26 1173.96 919.14 1175.73 926.07C1177.41 932.66 1182.12 937.09 1187.45 937.09Z" fill="#C5735B"/>
<path d="M936.08 949.93L1334.72 946.17V927.91L936.08 932.87V949.93Z" fill="#403947"/>
<path d="M772.08 919.42C765.32 941.19 780.08 952.09 780.24 952.19L786.93 951.83C786.81 951.75 772.57 938.64 777.97 921.24C783.69 902.82 795.56 899.12 795.68 899.1C795.67 899.1 794.75 897.59 794.4 897.56L795.68 893.35C792.6 893.05 778.41 899.05 772.08 919.42Z" fill="#DDDFED"/>
<path d="M833.19 606.59C830.82 606.84 828.47 609.06 823.39 614.07C820.17 617.25 813.47 623.85 811.31 623.86C809.85 623.69 803.46 620.91 775.76 599.14C774.45 602.45 773.64 604.75 773.64 604.75C773.64 604.75 773.4 604.76 772.96 604.77C801.19 626.9 808.07 630.01 811.24 630.01C815.67 630.01 820.64 625.43 827.72 618.45C829.5 616.7 831.78 614.44 833.2 613.31C835.36 616.21 839.52 624.55 843.53 633.46C841.03 622.9 838.48 613.37 836.26 607.66C834.85 606.42 833.95 606.51 833.19 606.59Z" fill="#DDDFED"/>
<path d="M894.9 619.62C893.66 618.09 892.06 615.75 890.96 614.14C887.07 608.47 884.92 605.48 882.32 605.01C880.87 604.75 879.06 604.43 873.62 612.96L867.91 636.12C873.15 625.87 878.97 615.48 881.76 611.94C882.96 613.36 884.65 615.83 885.88 617.63C890.42 624.25 893.7 629.04 897.61 626.4C898.44 625.84 900.91 624.16 906.19 605.05C902.68 604.61 900.45 604.37 899.99 604.32C898.26 610.33 896.27 616.49 894.9 619.62Z" fill="#DDDFED"/>
<path d="M748.08 730.95C748.08 730.95 747.13 778.59 749.15 780.06C751.32 781.63 829.07 778.85 829.94 777.98C830.81 777.11 831.97 730.38 829.94 729.21C827.91 728.04 750.12 729.49 748.08 730.95Z" fill="#DDDFED"/>
<path d="M1047.87 861.75C1029.67 865.11 1016.58 877.6 1015.98 878.17L1020.27 882.59C1020.41 882.45 1034.41 869.07 1052.65 867.28C1050.88 867.09 1049.78 866.94 1049.49 866.84C1049.17 866.73 1048.61 864.92 1047.87 861.75Z" fill="#DDDFED"/>
<path d="M914.41 769.19L860.48 910.6C860.48 910.6 1001.09 916.88 1010.34 910.45C1019.59 904.03 1089.32 802.29 1089.32 801.68C1089.32 801.07 1086.27 796.03 1086.27 796.03C1086.27 796.03 1045.95 796.15 1004.41 791.42C962.87 786.69 918.12 767.03 917.63 767.03C917.13 767.03 914.41 769.19 914.41 769.19Z" fill="#DDDFED"/>
<path d="M803.15 908.29C805.76 906.52 813.57 909.04 815.63 906.47C817.68 903.9 823.42 880.15 833.85 878.64C844.28 877.13 896.92 883.09 913.1 888.22C928.31 893.04 922.45 905.52 909.43 904.34C909.43 904.34 913.44 909.6 908.56 913.8C903.68 918.01 895.52 920.28 895.52 920.28C895.52 920.28 890.38 945.96 886.5 949.5C882.63 953.03 803.4 952.58 799.15 951.1C794.92 949.6 792.85 915.29 803.15 908.29Z" fill="#FEA177"/>
<path d="M895.52 920.28C895.52 920.28 898.92 919.33 902.64 917.53C892.45 918.05 871.74 919 856.85 919.66L857.09 925.06C875.23 924.25 887.09 923.71 894.88 923.33C895.29 921.45 895.52 920.28 895.52 920.28Z" fill="#C5735B"/>
<path d="M919.9 901.44C918.69 900.47 915.31 899.11 886.55 897.93C871.75 897.32 857.16 897.06 857.02 897.06L856.93 902.46C876.99 902.81 898.64 903.69 909.71 904.76C909.55 904.5 909.43 904.34 909.43 904.34C914.01 904.75 917.7 903.47 919.9 901.44Z" fill="#C5735B"/>
<path d="M892.23 934.47C887.27 935.16 871.65 936.17 857.44 936.85L857.7 942.25C876.26 941.37 885.72 940.65 890.65 940.08C891.2 938.28 891.73 936.37 892.23 934.47Z" fill="#C5735B"/>
<path d="M825.35 938.93C821.42 922.28 827.69 890.13 829.75 880.47C826.77 882.72 824.26 886.68 822.22 890.87C819.71 905.19 816.94 926.82 820.1 940.18L825.35 938.93Z" fill="#C5735B"/>
<path d="M1088.21 799.37C1072.83 799.51 1035.35 799.24 996.59 794.35C952.31 788.77 923.7 774 915.18 768.6C914.74 768.94 914.41 769.2 914.41 769.2L913.57 771.4C917.82 774.1 925.19 777.9 933.59 781.38C946.69 786.82 968.19 794.04 996.18 797.57C1030.89 801.95 1064.6 802.64 1082.47 802.64C1084.86 802.64 1086.96 802.63 1088.74 802.61C1089.11 802.04 1089.31 801.71 1089.31 801.68C1089.31 801.43 1088.81 800.45 1088.21 799.37Z" fill="#E4E7F7"/>
<path d="M1366.84 1680.06H255.88V1726.64H1366.84V1680.06Z" fill="url(#paint0_linear_39_242)"/>
<path d="M2304.12 1680.06H1254.77V1726.64H2304.12V1680.06Z" fill="url(#paint1_linear_39_242)"/>
<path d="M2193.41 988.67H370.28V1701.97H2193.41V988.67Z" fill="#6680C6"/>
<path d="M2193.41 988.67H370.28V1039.35H988.01L980.32 1701.98H2193.41V988.67Z" fill="#5573B5"/>
<path d="M1964.38 474.71H1787.94C1779.11 474.71 1771.73 481.41 1770.88 490.2L1740.48 804.64C1739.88 810.86 1744.77 816.24 1751.02 816.24H1928.73C1938.05 816.24 1945.85 809.16 1946.74 799.88L1976.85 488.43C1977.56 481.08 1971.77 474.71 1964.38 474.71Z" fill="#314056"/>
<path d="M1832.24 677.93L1852.67 918.58L1730.44 929.87V948.13H1938.01L1909.17 677.93H1832.24Z" fill="#314056"/>
<path d="M1827.93 921.06L1845.73 919.22L1827.91 920.87L1827.93 921.06Z" fill="#4A565E"/>
<path d="M1824.03 673.59L1837.25 816.24H1843.44L1830.79 679.75H1837.83L1859.83 911.57L1852.14 912.36L1852.66 918.51L1866.55 917.08L1843.44 673.59H1824.03Z" fill="#3C5068"/>
<path d="M1759.22 816.24H1765.41L1798.51 474.71H1792.32L1759.22 816.24Z" fill="#3C5068"/>
<path d="M2246.63 945.71H341.47V1006.16H2246.63V945.71Z" fill="#F2F2F2"/>
<path d="M2246.63 961.87H341.47V977.18H2246.63V961.87Z" fill="white"/>
<path d="M1189.57 625.15C1189.57 625.15 1192.91 597.25 1201.19 596.71C1209.47 596.18 1206.4 631.96 1206.4 631.96C1206.4 631.96 1215.21 598.18 1222.29 598.85C1229.37 599.52 1228.7 609.13 1228.7 609.13C1228.7 609.13 1234.44 606.59 1236.98 612.47C1239.52 618.34 1235.38 637.44 1235.38 637.44C1235.38 637.44 1271.56 635.44 1284.91 647.32C1298.26 659.2 1307.81 708.7 1307.81 708.7L1260.32 724.42C1260.32 724.42 1251.6 691.97 1248.69 688.09C1245.79 684.2 1216.04 684.88 1197.46 674.23C1178.87 663.58 1173.57 639.76 1172.53 636.59C1169.96 628.75 1165.85 605.62 1171.89 603.95C1177.92 602.27 1189.57 625.15 1189.57 625.15Z" fill="#FF9E78"/>
<path d="M1538.84 487.41C1538.84 487.41 1537.72 498.2 1539.74 499.32C1541.76 500.44 1563 498.53 1563 498.2C1563 497.87 1563.11 485.95 1560.86 485.16C1558.62 484.38 1538.84 487.41 1538.84 487.41Z" fill="white"/>
<path d="M1710.38 568.16L1662.19 405.11L1564.26 353.22C1564.26 354.33 1538.21 428.04 1533.51 486.08C1533.33 488.29 1535.29 490.08 1537.48 489.68C1545.04 488.28 1554.08 487.55 1556.22 489.52C1560.09 493.09 1558.92 505.12 1556.11 507C1554.59 508.01 1547.62 509.66 1539.7 511.06C1537.11 511.52 1535.34 513.91 1535.61 516.52C1536.49 525.21 1539.44 533.95 1542.49 540.13C1565.96 587.7 1604.3 577.55 1605.55 579.74C1606.8 581.93 1604.61 614.16 1605.55 615.73C1606.49 617.29 1712.89 620.42 1712.89 620.42L1710.38 568.16Z" fill="#FF9E78"/>
<path d="M1566.15 391.39C1561.85 389.19 1557.35 387.42 1552.67 386.18C1546.4 384.52 1543.75 394.22 1550 395.87C1553.86 396.89 1557.52 398.25 1561.07 400.06C1566.83 403.02 1571.91 394.34 1566.15 391.39Z" fill="#2C3B4C"/>
<path d="M1518.29 447.37C1515.59 465.16 1542.74 475.05 1542.74 475.05L1549.57 428.5C1548.13 429.04 1520.99 429.58 1518.29 447.37Z" fill="#FF9E78"/>
<path d="M1831.51 662.94C1810.98 645.05 1731.79 624.9 1731.79 624.9C1731.79 624.9 1734.13 606.73 1717.52 596.61C1700.91 586.49 1593.46 587.79 1587.75 593.76C1582.04 599.73 1583.34 623.35 1583.34 623.35C1583.34 623.35 1530.2 630.11 1490.76 647.51C1463.36 659.6 1389.52 822.67 1383.03 823.43C1374.17 824.47 1329.12 716.92 1327.02 712.18C1320.86 698.28 1251.7 721.06 1257.41 748.75C1257.77 750.48 1323.31 956.98 1398.38 948.4C1438.83 943.78 1480.73 841.5 1480.75 841.36C1480.75 841.36 1448.18 1079.32 1451.99 1091.12C1457.71 1108.84 1487.32 1120.85 1487.32 1120.85C1487.32 1120.85 1594.53 1118.41 1670.91 1120.85C1755.93 1123.56 1806.41 1120.99 1806.41 1120.99C1806.41 1120.99 1823.18 1117.19 1827.39 1102.98C1831.6 1088.77 1816.67 843.84 1816.67 843.84C1816.67 843.84 1877.2 838.46 1881.93 833.52C1886.67 828.56 1852.03 680.84 1831.51 662.94Z" fill="#FFC422"/>
<path d="M1731.88 621.38C1709.24 619.7 1636.29 614.95 1583.22 618.98C1583.24 621.38 1583.32 623.02 1583.34 623.29C1640.44 618.92 1720.98 624.82 1736.03 626.01C1733.33 625.29 1731.8 624.9 1731.8 624.9C1731.8 624.9 1731.96 623.55 1731.88 621.38Z" fill="#C5CEDD"/>
<path d="M1582.42 623.36C1582.64 623.34 1582.86 623.33 1583.08 623.31C1582.93 623.29 1582.7 623.26 1582.41 623.23L1582.42 623.36Z" fill="#5DAFAF"/>
<path d="M1250.38 1552.15C1250.38 1552.15 1239.53 1638.92 1238.59 1640.33C1237.65 1641.74 1211.24 1659.66 1211.24 1659.66L1306.49 1662.02C1306.49 1662.02 1319.69 1558.75 1317.34 1556.86C1314.98 1554.98 1250.38 1552.15 1250.38 1552.15Z" fill="#36465E"/>
<path d="M1621.16 494.75C1620.52 494.75 1620.02 494.98 1619.54 495.21C1618.31 495.79 1615.42 497.14 1607.22 495.92L1606.58 500.18C1609.18 500.57 1611.34 500.72 1613.15 500.72C1617.94 500.72 1620.22 499.65 1621.37 499.11C1621.48 499.06 1621.58 499.01 1621.65 498.98C1621.63 498.99 1621.44 499.06 1621.16 499.06V494.75Z" fill="#C5735B"/>
<path d="M1491.04 1552.15C1491.04 1552.15 1480.19 1638.92 1479.25 1640.33C1478.31 1641.74 1451.9 1659.66 1451.9 1659.66L1547.15 1662.02C1547.15 1662.02 1560.35 1558.75 1558 1556.86C1555.65 1554.98 1491.04 1552.15 1491.04 1552.15Z" fill="#36465E"/>
<path d="M1764.23 375.45C1760.16 371.72 1750 378.16 1750 378.16C1750 378.16 1759.83 361.55 1747.63 346.3C1735.43 331.05 1686.29 324.27 1679.17 316.14C1672.05 308.01 1676.12 272.76 1625.96 264.96C1575.8 257.16 1532.08 278.18 1543.26 321.9C1554.44 365.62 1588.34 376.47 1588.34 379.18C1588.34 381.89 1583.59 445.71 1589.77 453.02C1595.95 460.33 1619 468.2 1619 468.2C1619 468.2 1613.1 548.87 1624.62 560.95C1636.14 573.04 1733.11 581.75 1737.33 569.1C1741.55 556.45 1735.92 526.38 1739.58 505.02C1743.23 483.66 1767.41 464.55 1767.69 437.84C1767.97 411.14 1755.43 390.36 1755.43 390.36C1755.43 390.36 1768.3 379.18 1764.23 375.45Z" fill="#314056"/>
<path d="M1755.64 403.54C1737.1 421.91 1709.8 427.14 1685.22 420.14C1674.41 417.06 1656.85 410.71 1652.24 399.32C1651.8 398.24 1651.7 395.42 1650.98 394.67C1649.44 393.08 1645.13 392.72 1643.05 391.71C1637.45 389 1633.51 383.92 1632.37 377.8C1631.5 373.13 1634.12 364.76 1631.32 360.79C1631.86 361.56 1627.95 359.83 1627.01 359.61C1622.96 358.68 1618.77 358.3 1614.65 357.76C1599.87 355.82 1586.81 351.58 1574.36 343.27C1562.7 335.48 1551.54 325.28 1545.84 312.22C1543.9 307.77 1542.86 303.36 1542.62 299.04C1541 305.78 1541.08 313.4 1543.25 321.9C1554.43 365.62 1588.33 376.47 1588.33 379.18C1588.33 381.89 1583.58 445.71 1589.76 453.02C1595.94 460.33 1618.99 468.2 1618.99 468.2C1618.99 468.2 1613.09 548.87 1624.61 560.95C1636.13 573.04 1733.1 581.75 1737.32 569.1C1741.54 556.45 1735.91 526.38 1739.57 505.02C1743.23 483.66 1767.4 464.55 1767.68 437.84C1767.85 421.58 1763.27 407.53 1759.66 399.02C1758.45 400.57 1757.11 402.08 1755.64 403.54Z" fill="#2C3B4C"/>
<path d="M1638.79 472.193C1643.4 455.791 1636.99 439.642 1624.47 436.124C1611.96 432.606 1598.07 443.051 1593.46 459.454C1588.85 475.856 1595.26 492.005 1607.78 495.523C1620.29 499.041 1634.17 488.596 1638.79 472.193Z" fill="#FF9E78"/>
<path d="M1278.29 1076.82C1257.88 1092.39 1211.38 1550.71 1219.38 1557.72C1227.38 1564.73 1338.13 1582.97 1347.13 1581.97C1356.13 1580.97 1407.44 1198.6 1410.44 1197.6C1413.44 1196.6 1565.07 1192.6 1565.07 1192.6L1570.5 1066.56H1470.8C1470.81 1066.55 1292.08 1066.3 1278.29 1076.82Z" fill="#293549"/>
<path d="M1519.68 1076.82C1508.74 1090.28 1452.77 1550.71 1460.77 1557.72C1468.77 1564.72 1584.81 1564.72 1593.81 1563.72C1602.81 1562.72 1648.83 1198.6 1651.83 1197.6C1654.83 1196.6 1806.46 1192.6 1806.46 1192.6L1811.89 1066.56H1712.19C1712.19 1066.55 1530.61 1063.36 1519.68 1076.82Z" fill="#293549"/>
<path d="M1615.64 448.27C1605.86 456.33 1604.79 478.84 1604.75 479.79L1609.05 479.97C1609.05 479.85 1609.37 473.37 1611.02 466.42C1614.41 466.03 1618.02 465.7 1620.15 465.62C1620.31 464.18 1620.45 462.74 1620.58 461.3C1618.88 461.31 1616.27 461.49 1612.27 461.93C1613.65 457.75 1615.6 453.86 1618.37 451.58C1620.33 449.96 1622.52 449.36 1625.04 449.74L1625.68 445.48C1621.94 444.93 1618.56 445.86 1615.64 448.27Z" fill="#C5735B"/>
<path d="M1557.95 416.34C1556.33 416.33 1553.76 421.76 1552.2 428.47C1550.65 435.18 1550.7 440.63 1552.32 440.64C1553.94 440.65 1556.51 435.22 1558.07 428.51C1559.63 421.81 1559.57 416.36 1557.95 416.34Z" fill="#422E2C"/>
<path d="M1717.52 338.33C1714.96 338.7 1713.35 340.49 1712.14 342.64C1711.89 343.08 1711.58 344.03 1711.14 344.31C1711.08 344.28 1711 344.23 1710.9 344.13C1710.63 343.86 1710.36 343.57 1710.12 343.27C1708.65 341.39 1707.62 339.27 1705.92 337.55C1704.1 335.71 1701.9 334.27 1699.47 333.37C1696.88 332.42 1693.86 332.21 1691.33 333.43C1688.91 334.6 1687.23 337.16 1687.45 339.88C1687.74 343.55 1693.48 343.57 1693.19 339.88C1692.99 337.38 1697 338.49 1698.26 339.05C1700.48 340.03 1702.34 341.81 1703.65 343.82C1704.98 345.85 1706.2 348.08 1708.38 349.33C1710.65 350.62 1713.48 350.12 1715.28 348.28C1716.05 347.49 1716.58 346.51 1717.11 345.55C1717.44 344.97 1717.74 344.14 1718.43 343.99C1719.44 343.77 1720.88 344.89 1721.6 345.42C1722.69 346.23 1723.71 347.2 1724.67 348.16C1726.68 350.15 1728.46 352.34 1729.94 354.75C1731.33 357.01 1732.6 359.58 1731.82 362.27C1730.79 365.83 1736.33 367.34 1737.36 363.8C1739.21 357.42 1734.97 351.21 1731.02 346.57C1727.87 342.87 1722.9 337.55 1717.52 338.33Z" fill="#3B4F66"/>
<path d="M1332.01 1684.7C1332.01 1684.7 1326.79 1619.05 1303.94 1619.43C1281.08 1619.81 1254.68 1644.62 1252.68 1643.86C1250.68 1643.1 1244.41 1614.12 1244.41 1614.12C1244.41 1614.12 1125.59 1659.89 1111.35 1693.86C1111.35 1693.86 1107.96 1696.21 1107.49 1696.68C1107.02 1697.15 1108.76 1707.22 1108.76 1707.22L1336.8 1708.49C1336.8 1708.49 1338.05 1690.43 1337.01 1688.14C1335.96 1685.84 1332.01 1684.7 1332.01 1684.7Z" fill="#293549"/>
<path d="M1334.51 1685.77L1111.43 1693.7C1111.41 1693.76 1111.38 1693.81 1111.35 1693.87C1111.35 1693.87 1107.96 1696.22 1107.49 1696.69C1107.38 1696.8 1107.39 1697.47 1107.48 1698.42L1337.41 1692.07C1337.38 1690.17 1337.26 1688.7 1337.01 1688.15C1336.54 1687.12 1335.51 1686.33 1334.51 1685.77Z" fill="#36465E"/>
<path d="M1572.67 1684.7C1572.67 1684.7 1567.45 1619.05 1544.6 1619.43C1521.74 1619.81 1495.34 1644.62 1493.34 1643.86C1491.34 1643.1 1485.07 1614.12 1485.07 1614.12C1485.07 1614.12 1366.25 1659.89 1352.01 1693.86C1352.01 1693.86 1348.62 1696.21 1348.15 1696.68C1347.68 1697.15 1349.42 1707.22 1349.42 1707.22L1577.46 1708.49C1577.46 1708.49 1578.71 1690.43 1577.67 1688.14C1576.62 1685.84 1572.67 1684.7 1572.67 1684.7Z" fill="#293549"/>
<path d="M1575.17 1685.77L1352.09 1693.7C1352.07 1693.76 1352.04 1693.81 1352.01 1693.87C1352.01 1693.87 1348.62 1696.22 1348.15 1696.69C1348.04 1696.8 1348.05 1697.47 1348.14 1698.42L1578.07 1692.07C1578.04 1690.17 1577.92 1688.7 1577.67 1688.15C1577.2 1687.12 1576.17 1686.33 1575.17 1685.77Z" fill="#36465E"/>
<path d="M1618.33 276.99C1608.14 275.02 1596.92 273.97 1587.23 278.53C1582.98 280.53 1579.57 284.41 1580 289.36C1580.28 292.57 1581.75 295.62 1583.44 298.53C1577.13 297.08 1570.27 296.38 1565.81 301.45C1559.98 308.07 1563.79 316.96 1568.9 322.61C1571.39 325.36 1575.44 321.28 1572.96 318.55C1569.97 315.25 1565.97 308.49 1570.65 304.74C1572.85 302.98 1576.01 303.04 1578.63 303.46C1582.03 304.01 1585.39 304.99 1588.73 305.79C1591.15 306.37 1593.25 303.79 1591.97 301.57C1590.72 299.39 1589.47 297.22 1588.23 295.04C1587.21 293.26 1586.03 291.36 1585.75 289.29C1585.27 285.82 1588.68 283.95 1591.48 282.96C1599.63 280.06 1608.48 280.92 1616.8 282.54C1620.42 283.23 1621.96 277.69 1618.33 276.99Z" fill="#3B4F66"/>
<path d="M1701.41 397.52C1694.88 400.59 1686.81 401.29 1680 398.71C1677.19 397.65 1674.26 395.51 1673.79 392.32C1673.32 389.12 1676.16 386.65 1678.24 384.68C1680.17 382.84 1678.55 379.98 1676.21 379.78C1669.9 379.24 1662.61 377.97 1657.16 374.56C1655.01 373.21 1652.93 370.96 1653 368.25C1653.07 365.57 1655.1 363.35 1657.22 361.96C1660.31 359.94 1657.42 354.97 1654.32 357C1651.01 359.16 1648.12 362.4 1647.44 366.42C1646.75 370.5 1648.41 374.5 1651.37 377.31C1654.43 380.22 1658.51 381.75 1662.48 382.96C1665.08 383.75 1667.74 384.34 1670.41 384.78C1668.84 386.98 1667.79 389.46 1668.03 392.32C1668.43 397.01 1671.57 400.91 1675.67 403.04C1684.45 407.61 1695.59 406.59 1704.3 402.48C1707.66 400.9 1704.74 395.95 1701.41 397.52Z" fill="#3B4F66"/>
<path d="M1612.38 329.45C1612.14 329.34 1611.93 329.2 1611.71 329.06C1611.55 328.91 1611.39 328.76 1611.25 328.59C1611.1 328.37 1610.97 328.14 1610.85 327.9C1610.78 327.7 1610.73 327.49 1610.69 327.28C1610.68 327.1 1610.68 326.93 1610.68 326.75C1610.73 326.5 1610.78 326.25 1610.87 326.01C1611.13 325.29 1610.92 324.45 1610.58 323.8C1610.23 323.14 1609.56 322.7 1608.86 322.48C1608.17 322.26 1607.26 322.41 1606.65 322.77C1605.97 323.17 1605.59 323.77 1605.33 324.49C1604.65 326.35 1604.86 328.45 1605.62 330.24C1606.02 331.19 1606.55 332.03 1607.26 332.79C1607.88 333.45 1608.65 334.04 1609.48 334.41C1609.93 334.67 1610.41 334.8 1610.93 334.8C1611.18 334.77 1611.44 334.73 1611.69 334.7C1612.42 334.53 1613.01 333.99 1613.41 333.38C1613.8 332.77 1613.89 331.85 1613.7 331.17C1613.52 330.55 1612.99 329.72 1612.38 329.45Z" fill="#3B4F66"/>
<path d="M1914.74 735.51H1625.12C1572.11 735.51 1527.5 775.23 1521.38 827.89L1480.67 1177.99L1288.99 1178.98C1279.58 1179.03 1271.88 1186.5 1271.56 1195.91L1271.02 1211.69C1270.68 1221.6 1278.62 1229.82 1288.54 1229.82H1934.7L1981.57 810.56C1986.22 770.59 1954.98 735.51 1914.74 735.51Z" fill="#A0C157"/>
<path d="M1266.32 1711.66L1332.47 1157.45C1335.13 1135.23 1354.65 1117.82 1376.92 1117.82H1821.9C1833.35 1117.82 1843.85 1122.31 1851.47 1130.46C1859.11 1138.64 1862.9 1149.47 1862.12 1160.97L1825.12 1711.67H1845.2L1882.11 1162.32C1883.26 1145.23 1877.58 1129.06 1866.11 1116.79C1854.66 1104.55 1838.96 1097.8 1821.9 1097.8H1376.92C1344.68 1097.8 1316.42 1122.96 1312.58 1155.09L1246.15 1711.68H1266.32V1711.66Z" fill="white"/>
<path d="M1970.38 735.51H1680.76C1627.75 735.51 1583.14 775.23 1577.02 827.89L1534.74 1198.2C1532.75 1215.59 1518.28 1228.87 1500.78 1229.34L1483.47 1229.81H1954C1974.7 1229.81 1992.08 1214.26 1994.38 1193.69L2037.21 810.55C2041.85 770.59 2010.61 735.51 1970.38 735.51Z" fill="#A0C157"/>
<path d="M1970.38 735.51H1914.75H1680.76H1651.53C1610.06 747.1 1578.24 782.78 1573.05 827.43L1530.77 1197.74C1529.02 1213.05 1516.09 1224.92 1500.68 1225.34L1483.37 1225.81L1483.42 1229.81H1483.47H1934.71H1954C1974.7 1229.81 1992.09 1214.26 1994.38 1193.69L2037.21 810.55C2041.85 770.59 2010.61 735.51 1970.38 735.51ZM2033.23 810.11L1990.4 1193.25C1988.32 1211.82 1972.67 1225.82 1953.99 1225.82H1522.82C1531.42 1219.53 1537.43 1209.83 1538.7 1198.66L1580.98 828.36C1586.87 777.71 1629.76 739.52 1680.75 739.52H1970.37C1988.41 739.52 2005.63 747.25 2017.62 760.72C2029.63 774.17 2035.31 792.17 2033.23 810.11Z" fill="#B1D15A"/>
<path d="M1496.04 1711.66H1516.08L1501.6 1161.38C1501.31 1149.83 1505.59 1138.91 1513.65 1130.64C1521.71 1122.37 1532.52 1117.81 1544.07 1117.81H1989.05C2011.1 1117.81 2029.71 1135.03 2031.41 1157.02L2074.06 1711.66H2094.15L2051.38 1155.48C2048.88 1123.12 2021.5 1097.78 1989.05 1097.78H1544.07C1527.07 1097.78 1511.17 1104.48 1499.31 1116.66C1487.44 1128.83 1481.14 1144.89 1481.57 1161.9L1496.04 1711.66Z" fill="white"/>
<path d="M1250.5 697.35C1250.5 697.35 1251.37 685.85 1272.97 678.36C1294.57 670.87 1301.37 674 1301.37 674L1306.07 690.38C1306.07 690.38 1305.92 692.73 1304.33 692.88C1303.91 692.92 1303.22 690.6 1302.7 690.66C1297.87 691.21 1287.97 691.41 1278.28 696.12C1263.49 703.32 1256.89 712.16 1256.89 712.16L1257.27 713.47C1257.27 713.47 1255.38 713.76 1254.96 713.47C1254.53 713.19 1249.71 700.58 1250.5 697.35Z" fill="#293549"/>
<path d="M1265.21 745.26C1265.21 745.26 1255.6 722.06 1255.95 715.99C1256.3 709.92 1290.17 690.43 1306.82 693.48C1311.77 694.39 1318.06 716.33 1318.06 716.33L1265.21 745.26Z" fill="white"/>
<path d="M1214.97 642.59C1214.9 642.59 1214.83 642.6 1214.76 642.6C1214.77 642.6 1214.84 642.6 1214.97 642.59Z" fill="#E56142"/>
<path d="M1224.54 642.21C1226.47 635.93 1231.92 617.51 1232.13 608.62C1230.27 608.44 1228.69 609.13 1228.69 609.13C1228.69 609.13 1228.88 606.27 1227.91 603.56C1228.71 609.83 1222.54 634.07 1219.97 642.34C1217.89 642.42 1216.29 642.5 1215.44 642.55C1214.46 641.78 1212.05 639.25 1209.9 636.99C1209.29 636.35 1208.68 635.71 1208.07 635.08L1211.1 616.74C1208.32 624.55 1206.39 631.95 1206.39 631.95C1206.39 631.95 1207.08 623.91 1206.92 615.51L1204.32 631.23C1199.62 626.49 1194.93 622.16 1190.52 619.06C1190.15 621.08 1189.89 622.76 1189.74 623.84C1195.9 628.55 1202.46 635.44 1206.77 639.96C1212.48 645.96 1213.61 647.08 1215.3 646.87C1219.14 646.39 1248.93 645.51 1255.06 649.16L1257.27 645.45C1251.78 642.2 1235.3 641.97 1224.54 642.21Z" fill="#C5735B"/>
<path d="M1200.86 667.43C1201.95 666.48 1203.02 665.52 1204.08 664.55C1172.43 630.94 1174.02 622.09 1176.2 619.85C1176.97 619.06 1177.87 618.69 1179.05 618.69H1179.08C1181.64 618.7 1184.88 620.35 1188.31 622.81C1187.3 620.96 1185.75 618.24 1183.95 615.42C1182.26 614.76 1180.63 614.38 1179.09 614.37H1179.04C1176.68 614.37 1174.68 615.2 1173.09 616.84C1166.22 623.93 1175.05 640.02 1200.86 667.43Z" fill="#C5735B"/>
<path d="M1496.24 759L1490.92 758.05L1473.03 858.61C1477.92 848.31 1480.75 841.39 1480.75 841.35C1480.75 841.35 1479.74 848.74 1478.1 860.96L1496.24 759Z" fill="#C5CEDD"/>
<path d="M1383.03 823.43C1382.13 823.54 1380.85 822.51 1379.29 820.59L1367.52 840.64L1372.18 843.38L1385.23 821.15C1384.21 822.57 1383.46 823.38 1383.03 823.43Z" fill="#C5CEDD"/>
<path d="M1317.85 708.1V708.03C1317.05 707.99 1316.21 707.97 1315.33 708C1314.74 706.37 1314.08 704.65 1313.38 702.99C1283.61 705.53 1266.84 719.44 1258.93 728.5C1259.57 730.43 1260.27 732.39 1260.95 734.25C1260.48 734.94 1260.06 735.64 1259.66 736.34C1264.7 729.24 1281.73 709.78 1317.85 708.1Z" fill="#C5CEDD"/>
<path d="M1436.08 502.08H1257.5C1238.8 502.08 1223.65 486.92 1223.65 468.23V421.75C1223.65 403.05 1238.81 387.9 1257.5 387.9H1436.08C1454.78 387.9 1469.93 403.06 1469.93 421.75V468.23C1469.93 486.92 1454.77 502.08 1436.08 502.08Z" fill="white"/>
<path d="M1143.15 556.95H1068.2C1049.5 556.95 1034.35 541.79 1034.35 523.1V460.07C1034.35 441.37 1049.51 426.22 1068.2 426.22H1143.15C1161.85 426.22 1177 441.38 1177 460.07V523.1C1177.01 541.8 1161.85 556.95 1143.15 556.95Z" fill="white"/>
<path d="M904.29 517.04C890.48 520.36 876.46 519.39 863.17 514.43C859.26 512.97 857.56 519.23 861.45 520.68C875.8 526.04 891.14 526.87 906.02 523.29C910.07 522.32 908.36 516.07 904.29 517.04Z" fill="#C5735B"/>
<path d="M887.6 532.09C885.29 532.27 883.04 532.15 880.78 531.63C876.72 530.7 874.98 536.95 879.06 537.88C881.87 538.52 884.73 538.79 887.6 538.57C889.35 538.44 890.84 537.18 890.84 535.33C890.84 533.68 889.36 531.95 887.6 532.09Z" fill="#C5735B"/>
<path d="M875.86 447.66C875.56 447.06 875.17 446.47 874.73 445.9C874 444.19 872.53 442.64 871.21 441.57C869.46 440.15 867.09 438.87 864.75 439.27C861.37 439.85 860.79 443.56 862.18 446.21C863.24 448.23 864.93 450.11 866.59 451.66C868.43 453.38 870.67 455.36 873.39 454.58C876.36 453.74 877.12 450.16 875.86 447.66Z" fill="white"/>
<path d="M951.84 445.87C949.98 443.02 947.46 440.54 944.34 439.1C942.5 438.25 940.33 437.92 938.6 439.22C936.62 440.71 936.79 443.03 937.94 444.98C939.45 447.52 942.27 450.07 945.37 450.15C945.66 450.35 945.99 450.52 946.4 450.63C947.63 450.96 948.69 450.96 949.91 450.63C951.85 450.11 952.98 447.63 951.84 445.87Z" fill="white"/>
<path d="M758.52 739.8C757.54 740.41 758.61 769.58 759.33 770.16C760.05 770.74 783.32 770.14 783.89 769.43C784.47 768.71 784.85 740.21 783.84 739.49C782.84 738.76 759.67 739.08 758.52 739.8Z" fill="#88A4E2"/>
<path d="M788.31 739.37C788.31 739.37 788.31 747.65 788.6 747.87C788.89 748.09 822.37 748.16 822.51 747.5C822.66 746.84 822.88 738.83 822.51 738.92C822.15 739.01 788.82 739.08 788.31 739.37Z" fill="#88A4E2"/>
<path d="M789.04 751.02C789.04 751.02 789.04 768.67 789.41 769.04C789.78 769.41 822.23 768.67 822.3 768.31C822.37 767.94 822.53 751.76 822.31 751.02C822.08 750.29 789.04 751.02 789.04 751.02Z" fill="#C7CBDD"/>
<path d="M1074.28 352.45H1045.99C1039.56 352.45 1034.35 357.66 1034.35 364.09V392.38C1034.35 398.81 1039.56 404.02 1045.99 404.02H1074.28C1080.71 404.02 1085.92 398.81 1085.92 392.38V364.09C1085.92 357.66 1080.71 352.45 1074.28 352.45Z" fill="white"/>
<path d="M1074.28 276.11H1045.99C1039.56 276.11 1034.35 281.32 1034.35 287.75V316.04C1034.35 322.47 1039.56 327.68 1045.99 327.68H1074.28C1080.71 327.68 1085.92 322.47 1085.92 316.04V287.75C1085.92 281.32 1080.71 276.11 1074.28 276.11Z" fill="white"/>
<path d="M1044.87 297.11C1044.87 297.11 1054.52 306.58 1055.22 306.58C1055.92 306.58 1072.76 284.65 1073.99 285C1075.22 285.35 1080.66 290.96 1080.66 290.96C1080.66 290.96 1057.33 320.04 1055.57 320.15C1053.82 320.26 1039.61 302.57 1039.61 302.57L1044.87 297.11Z" fill="#A0C157"/>
<path d="M1044.87 372.76C1044.87 372.76 1054.52 382.23 1055.22 382.23C1055.92 382.23 1072.76 360.3 1073.99 360.65C1075.22 361 1080.66 366.61 1080.66 366.61C1080.66 366.61 1057.33 395.69 1055.57 395.8C1053.82 395.91 1039.61 378.22 1039.61 378.22L1044.87 372.76Z" fill="#A0C157"/>
<path d="M1301.04 447.157C1302.05 440.904 1297.81 435.013 1291.55 433.998C1285.3 432.983 1279.41 437.229 1278.4 443.482C1277.38 449.735 1281.63 455.627 1287.88 456.642C1294.13 457.657 1300.02 453.41 1301.04 447.157Z" fill="#88A4E2"/>
<path d="M1357.99 448.051C1359.45 441.886 1355.63 435.709 1349.47 434.253C1343.3 432.797 1337.12 436.615 1335.67 442.78C1334.21 448.945 1338.03 455.122 1344.19 456.578C1350.36 458.034 1356.54 454.216 1357.99 448.051Z" fill="#88A4E2"/>
<path d="M1415.24 447.156C1416.26 440.903 1412.01 435.011 1405.76 433.996C1399.5 432.981 1393.61 437.228 1392.6 443.481C1391.58 449.734 1395.83 455.625 1402.08 456.64C1408.33 457.655 1414.23 453.409 1415.24 447.156Z" fill="#88A4E2"/>
<path d="M1443.78 492.35C1443.78 492.35 1441.37 502.19 1446.19 507.52C1451 512.85 1467.67 511.13 1467.67 511.13C1467.67 511.13 1451.52 527.97 1436.92 520.06C1422.32 512.16 1425.41 492.35 1425.41 492.35H1443.78Z" fill="white"/>
<path d="M1060.21 549.82C1060.21 549.82 1062.62 559.66 1057.8 564.99C1052.99 570.32 1036.32 568.6 1036.32 568.6C1036.32 568.6 1052.47 585.44 1067.07 577.53C1081.67 569.63 1078.58 549.82 1078.58 549.82H1060.21Z" fill="white"/>
<path d="M1072.29 471.01C1072.68 472.44 1089.68 477.61 1090.36 477.16C1091.04 476.71 1095.57 464.62 1106.68 463.63C1117.79 462.64 1121.79 469 1120.58 472.4C1119.37 475.8 1103.5 485.4 1097.46 491.07C1091.41 496.74 1092.93 506.03 1093.53 506.64C1094.13 507.24 1112.57 506.87 1113.33 506.64C1114.09 506.41 1112.65 500.14 1114.92 497.87C1117.19 495.6 1139.63 486.31 1141.67 474.82C1143.71 463.33 1136.62 449.44 1107.6 449.59C1078.58 449.74 1071.61 468.52 1072.29 471.01Z" fill="#88A4E2"/>
<path d="M1094.17 513.92C1093.49 514.44 1093.45 527.78 1093.9 528.45C1094.35 529.12 1113.27 529.09 1113.9 528.45C1114.53 527.81 1114.4 514.69 1113.9 514.15C1113.4 513.61 1094.94 513.34 1094.17 513.92Z" fill="#88A4E2"/>
<path d="M937.01 795.04C936.3 795.04 935.58 794.92 934.88 794.67C933.04 794.03 931.65 792.65 931.04 790.83C930.54 789.34 930.72 787.7 931.37 786.22L934.23 779.66C934.83 778.29 936.45 777.6 937.85 778.13C939.25 778.65 939.9 780.18 939.3 781.55L936.34 788.33C936.18 788.69 936.27 788.99 936.34 789.14C936.4 789.29 936.57 789.56 936.94 789.68C937.49 789.87 938.12 789.59 938.34 789.06L943.76 776.1C944 775.53 943.99 774.92 943.74 774.37C943.38 773.6 942.61 773.1 941.64 773.1C940.48 773.1 939.45 773.89 939.01 774.94L938.93 775.14L933.83 773.33L933.9 773.17C935.39 769.63 939.19 767.31 943.04 767.88C945.83 768.3 948.02 770.02 948.98 772.49C949.68 774.29 949.53 776.32 948.77 778.15L943.45 790.86C942.35 793.45 939.72 795.06 937.01 795.04Z" fill="#FFB164"/>
<defs>
<linearGradient id="paint0_linear_39_242" x1="257.853" y1="1703.35" x2="351.54" y2="1703.35" gradientUnits="userSpaceOnUse">
<stop stop-color="#C5D6EF"/>
<stop offset="1" stop-color="#96B4D6"/>
</linearGradient>
<linearGradient id="paint1_linear_39_242" x1="2302.26" y1="1703.35" x2="2213.77" y2="1703.35" gradientUnits="userSpaceOnUse">
<stop stop-color="#C5D6EF"/>
<stop offset="1" stop-color="#96B4D6"/>
</linearGradient>
</defs>
</svg>
