<svg width="2443" height="2022" viewBox="0 0 2443 2022" fill="none" xmlns="http://www.w3.org/2000/svg">
<path d="M1699.09 1129.25C1699.09 1129.25 1697.54 496.233 1787.67 472.548C1877.81 448.864 2007.47 541.461 1995.46 619.052C1983.45 696.644 1912.48 667.2 1924.47 733.738C1936.46 800.276 2010.9 843.512 1944.85 870.771C1878.81 898.03 1804.98 925.853 1834.79 974.69C1864.59 1023.53 1699.09 1129.25 1699.09 1129.25Z" fill="url(#paint0_linear_40_572)"/>
<path d="M1723.2 1069.15C1723.26 1067.97 1729.4 949.196 1749.93 820.301C1762 744.557 1776.6 680.174 1793.33 628.943C1814.34 564.643 1838.84 520.881 1866.17 498.87L1869.03 502.042C1821.05 540.695 1781.37 650.951 1754.3 820.889C1733.8 949.577 1727.67 1068.17 1727.61 1069.35L1723.2 1069.15Z" fill="#F3F3F3"/>
<path d="M1734.16 970.531L1730.09 968.933C1730.24 968.58 1745.88 933.192 1769.86 894.201C1802.18 841.659 1833.44 807.923 1862.76 793.931L1864.76 797.652C1796.49 830.221 1734.78 969.131 1734.16 970.531Z" fill="#F3F3F3"/>
<path d="M1777.04 703.858L1773.02 702.149C1773.16 701.855 1787.32 672.314 1811.23 643.025C1843.09 603.996 1877.77 583.082 1911.52 582.548L1911.6 586.717C1870.74 587.364 1836.39 619.044 1814.78 645.507C1791.17 674.41 1777.18 703.567 1777.04 703.858Z" fill="#F3F3F3"/>
<path d="M1604.34 1341.13C1604.34 1341.13 1819.21 677.182 2055.71 691.355C2292.2 705.527 1604.34 1341.13 1604.34 1341.13Z" fill="url(#paint1_linear_40_572)"/>
<path d="M1605.86 1342.39L1600.37 1339.08C1601.07 1337.85 1671.08 1214.54 1756.72 1080.49C1871.9 900.224 1958.96 787.432 2015.5 745.247L2018.71 751.161C1885.58 850.495 1608.64 1337.48 1605.86 1342.39Z" fill="white"/>
<path d="M701.19 1405C701.19 1405 750.951 804.028 667.168 775.41C583.386 746.792 453.208 825.899 458.689 900.393C464.171 974.885 533.809 951.754 517.349 1014.12C500.889 1076.48 426.904 1112.48 487.539 1142.85C548.174 1173.23 616.157 1204.67 584.127 1249.01C552.099 1293.36 701.19 1405 701.19 1405Z" fill="url(#paint2_linear_40_572)"/>
<path d="M682.876 1346.3C682.91 1345.17 686.142 1231.97 676.479 1108.18C670.8 1035.44 661.846 973.313 649.862 923.529C634.821 861.046 614.892 817.825 590.624 795.067L587.662 797.883C630.28 837.85 659.541 945.24 672.283 1108.44C681.931 1232.03 678.705 1345.06 678.672 1346.19L682.876 1346.3Z" fill="#F3F3F3"/>
<path d="M679.991 1251.9L683.986 1250.66C683.866 1250.32 671.713 1215.65 651.914 1177C625.238 1124.91 598.131 1090.75 571.351 1075.47L569.176 1078.87C631.512 1114.44 679.514 1250.53 679.991 1251.9Z" fill="#F3F3F3"/>
<path d="M659.616 995.772L663.57 994.423C663.46 994.134 652.264 965.121 631.796 935.684C604.52 896.457 573.185 874.241 541.178 871.439L540.789 875.392C579.537 878.785 609.73 911.201 628.236 937.799C648.45 966.85 659.506 995.485 659.616 995.772Z" fill="#F3F3F3"/>
<path d="M774.997 1612.63C774.997 1612.63 621.612 967.574 395.967 964.95C170.323 962.327 774.997 1612.63 774.997 1612.63Z" fill="url(#paint3_linear_40_572)"/>
<path d="M773.452 1613.72L778.916 1610.96C778.348 1609.74 721.28 1487.9 650.181 1354.78C554.57 1175.78 480.504 1062.76 430.035 1018.86L426.538 1024.26C545.374 1127.63 771.185 1608.87 773.452 1613.72Z" fill="white"/>
<path d="M1777.9 172.846H1543.41V140.946C1543.41 108.549 1515.34 82.0425 1481.02 82.0425H1349.59C1348.12 36.7477 1308.79 0.451172 1260.46 0.451172C1212.12 0.451172 1172.8 36.7477 1171.32 82.0425H1037.1C1002.79 82.0425 974.714 108.549 974.714 140.946V172.846H801.283C780.344 172.846 762.899 187.995 761.15 207.695L642.453 1545.02C640.485 1567.2 659.017 1586.22 682.586 1586.22H1643.38C1664.15 1586.22 1681.51 1571.31 1683.47 1551.79L1818 214.465C1820.24 192.146 1801.65 172.846 1777.9 172.846ZM1261.85 129.418C1236.45 129.418 1215.85 109.974 1215.85 85.9903C1215.85 62.0064 1236.45 42.563 1261.85 42.563C1287.25 42.563 1307.85 62.0064 1307.85 85.9903C1307.85 109.974 1287.25 129.418 1261.85 129.418Z" fill="url(#paint4_linear_40_572)"/>
<path d="M1771.08 211.655L1767.47 248.675L1759.87 326.338L1735.7 573.563L1643.08 1521.11L932.572 1521.4L783.055 1521.46L701.703 1521.5L703.119 1505.88L717.673 1345.17L820.362 211.655H1771.08Z" fill="white"/>
<path opacity="0.6" d="M1707.98 702.941L1756.61 224.686H836.666L793.108 702.941H1707.98Z" fill="url(#paint5_linear_40_572)"/>
<path opacity="0.6" d="M749.266 1274.63C744.774 1274.63 744.781 1268.05 749.266 1268.05H1648.14L1705.69 716.538H790.909L719.581 1511.73H1622.8L1647.45 1274.63H749.266Z" fill="url(#paint6_linear_40_572)"/>
<path d="M925.41 905.215C964.285 905.215 995.8 879.88 995.8 848.628C995.8 817.375 964.285 792.04 925.41 792.04C886.534 792.04 855.02 817.375 855.02 848.628C855.02 879.88 886.534 905.215 925.41 905.215Z" fill="#A7C2D1"/>
<path d="M911.471 1060.5C950.346 1060.5 981.861 1035.17 981.861 1003.91C981.861 972.662 950.346 947.327 911.471 947.327C872.595 947.327 841.081 972.662 841.081 1003.91C841.081 1035.17 872.595 1060.5 911.471 1060.5Z" fill="#A7C2D1"/>
<path d="M891.957 1215.79C930.832 1215.79 962.347 1190.45 962.347 1159.2C962.347 1127.95 930.832 1102.61 891.957 1102.61C853.082 1102.61 821.567 1127.95 821.567 1159.2C821.567 1190.45 853.082 1215.79 891.957 1215.79Z" fill="#A7C2D1"/>
<path d="M1539.4 1176.31H1013.92V1182.89H1539.4V1176.31Z" fill="#A7C2D1"/>
<path d="M1540.8 1142.09H1015.31V1148.67H1540.8V1142.09Z" fill="#A7C2D1"/>
<path d="M1560.31 1018.39H1034.83V1024.97H1560.31V1018.39Z" fill="#A7C2D1"/>
<path d="M1561.71 984.174H1036.22V990.754H1561.71V984.174Z" fill="#A7C2D1"/>
<path d="M1578.43 857.84H1052.95V864.42H1578.43V857.84Z" fill="#A7C2D1"/>
<path d="M1579.83 823.624H1054.34V830.204H1579.83V823.624Z" fill="#A7C2D1"/>
<path d="M820.836 1114.82L886.909 1181.53L1031.12 1068.37L1005.48 1043.45L893.863 1137L851.216 1088.83L820.836 1114.82Z" fill="#FE72A4"/>
<path d="M848.039 805.115L914.11 871.831L1058.32 758.671L1032.68 733.752L921.065 827.299L878.419 779.128L848.039 805.115Z" fill="#FE72A4"/>
<path d="M1307.09 1449.22L1321.03 1338.67H1546.84L1530.11 1449.22H1307.09Z" fill="white"/>
<path d="M1528.61 1400.4C1517.92 1400.36 1507.37 1399.38 1496.94 1397.14C1487.26 1395.06 1478.5 1391.21 1469.1 1388.49C1461.42 1386.26 1455.41 1389.14 1450.58 1394.73C1449.27 1396.24 1447.75 1398.8 1446.2 1398.72C1444.34 1398.62 1441.24 1394.82 1439.88 1393.75C1435.1 1389.99 1429.34 1387.61 1423.27 1390.18C1420.36 1391.42 1418.24 1393.47 1416.39 1395.89C1415.54 1397 1414.47 1398.26 1413.89 1399.53C1413.68 1399.96 1413.52 1400.27 1413.38 1400.49C1411.47 1398.97 1410.13 1395.78 1408.49 1394.16C1406.22 1391.92 1403.45 1390.22 1400.19 1389.65C1395.17 1388.76 1390.89 1390.54 1387.3 1393.36C1384.16 1388.67 1381.03 1383.98 1377.9 1379.3C1375.35 1375.49 1370.44 1375.19 1366.95 1377.97C1358.07 1385.04 1350.6 1393.26 1344.35 1402.51C1339.51 1409.67 1351.57 1416.27 1356.39 1409.15C1360.45 1403.14 1365.14 1397.73 1370.44 1392.78C1373.71 1397.68 1376.99 1402.58 1380.26 1407.48C1383.22 1411.9 1389.27 1411.52 1392.3 1407.48C1393.02 1406.52 1395.32 1403.27 1396.71 1402.99C1398.58 1402.62 1398.12 1403.21 1399.4 1404.39C1401.37 1406.22 1402.47 1408.8 1404.55 1410.6C1408.94 1414.4 1415.14 1415.17 1420.22 1412.09C1422.67 1410.61 1424.32 1408.41 1425.92 1406.17C1427.31 1404.24 1428.17 1402.3 1429.23 1402.55C1430.98 1402.97 1433.02 1405.64 1434.37 1406.72C1436.66 1408.56 1439.11 1410.39 1442.01 1411.29C1447.73 1413.06 1453.32 1411.33 1457.48 1407.4C1459.21 1405.77 1460.69 1402.51 1462.83 1401.41C1465.45 1400.05 1470.24 1403.03 1472.89 1403.99C1490.65 1410.43 1509.62 1413.5 1528.61 1413.56C1537.58 1413.59 1537.59 1400.43 1528.61 1400.4Z" fill="#A7C2D1"/>
<path d="M1549.24 173.361H976.367V190.469H1549.24V173.361Z" fill="#F3F7FF"/>
<path d="M998.998 415.615C995.567 388.585 994.871 371.38 1012.67 352.887C1032.48 332.312 1093.04 258.073 1166.25 316.763C1169.76 319.581 1171.73 323.69 1171.19 328.161C1169.92 338.608 1169.59 347.415 1169.47 347.356C1169.32 347.285 1112.55 331.135 1090.42 342.355C1068.29 353.576 1056.25 377.263 1046.73 404.029C1040.71 420.974 999.962 423.21 998.998 415.615Z" fill="url(#paint7_linear_40_572)"/>
<path d="M1117.57 380.856C1153.76 412.355 1219.15 531.016 1123.82 629.897C1074.84 680.698 1042.79 704.18 971.297 646.759C932.411 615.528 866.121 544.316 905.698 493.056C936.579 453.059 956.618 405.716 995.244 374.696C1033.87 343.675 1077.24 345.766 1117.57 380.856Z" fill="url(#paint8_linear_40_572)"/>
<path d="M1098.83 399.121C1130.07 426.309 1158.71 520.181 1078.38 607.016C1070.28 615.774 1021.48 649.916 973.958 612.957C939.919 586.486 905.366 528.468 930.283 493.118C959.035 452.331 964.349 430.805 997.688 404.029C1031.03 377.253 1064.02 368.833 1098.83 399.121Z" fill="url(#paint9_linear_40_572)"/>
<path d="M1137.85 404.029C1158.1 405.643 1184.04 450.376 1179.74 460.936C1176.8 468.156 1178.49 468.416 1178.61 471.935C1178.73 475.455 1184.81 491.442 1170.93 485.721C1157.05 480.002 1155.72 466.361 1155.2 460.495C1153.24 465.481 1141.49 456.241 1137.55 439.815C1136.17 442.308 1128.96 438.935 1127.73 427.494C1126.49 416.055 1137.85 404.029 1137.85 404.029Z" fill="#A6B9DE"/>
<path d="M1057.48 393.592C1074.17 368.845 1090.31 328.75 1130.22 335.096C1180.04 343.016 1204.85 371.396 1214.35 389.216C1220.07 399.94 1187.91 425.328 1184.19 415.699C1178.07 399.854 1130.54 360.175 1112.12 384.596C1093.7 409.016 1097.13 413.312 1085.64 421.651C1075.02 429.353 1044.78 412.419 1057.48 393.592Z" fill="url(#paint10_linear_40_572)"/>
<path d="M1210.41 413.152C1202.21 421 1191.51 423.901 1186.51 419.632C1181.5 415.363 1184.1 405.541 1192.3 397.692C1200.5 389.845 1211.2 386.944 1216.2 391.213C1221.2 395.483 1218.61 405.305 1210.41 413.152Z" fill="#A6B9DE"/>
<path d="M1063.77 261.418C1065.24 277.675 1066.9 298.136 1054.4 320.576C1041.89 343.016 1009.39 393.28 984.166 384.647C958.945 376.016 936.048 359.516 936.048 359.516C936.048 359.516 967.125 324.536 977.363 309.356C987.601 294.175 958.052 272.32 958.052 272.32L975.154 243.827C975.154 243.827 992.256 255.896 1001.09 268.436C1009.93 280.975 1008.08 284.936 1012.87 287.576C1017.66 290.216 1023.03 259.028 1023.03 259.028L1063.77 261.418Z" fill="url(#paint11_linear_40_572)"/>
<path d="M1041.36 272.054C1030.11 271.394 1021.9 265.562 1023.03 259.028C1024.16 252.494 1034.19 247.731 1045.45 248.392C1056.7 249.052 1064.9 254.884 1063.77 261.418C1062.65 267.952 1052.61 272.715 1041.36 272.054Z" fill="#A6B9DE"/>
<path d="M976.06 262.165C971.337 270.033 963.274 274.58 958.052 272.32C952.829 270.06 952.423 261.849 957.146 253.981C961.869 246.114 969.932 241.567 975.154 243.827C980.376 246.086 980.783 254.296 976.06 262.165Z" fill="#A6B9DE"/>
<path d="M1042.06 267.995C1032.73 267.448 1025.93 262.613 1026.87 257.196C1027.8 251.78 1036.12 247.832 1045.45 248.379C1054.77 248.926 1061.58 253.761 1060.64 259.177C1059.71 264.595 1051.39 268.542 1042.06 267.995Z" fill="#5776A0"/>
<path d="M972.099 260.765C968.328 267.049 961.889 270.679 957.718 268.874C953.548 267.069 953.223 260.513 956.994 254.23C960.765 247.947 967.204 244.316 971.375 246.121C975.547 247.926 975.871 254.482 972.099 260.765Z" fill="#5776A0"/>
<path d="M995.527 376.383C997.266 373.745 997.054 370.544 994.96 368.465C981.253 354.856 949.327 340.125 936.047 359.515C921.583 380.634 895.721 442.881 890.417 465.775C885.219 488.215 897.895 497.044 908.026 491.515C935.237 476.663 952.671 455.875 936.971 458.515C953.538 452.135 964.431 423.535 953.009 424.415C969.659 419.575 992.442 387.895 979.099 389.405C991.53 385.036 991.881 381.915 995.527 376.383Z" fill="#A6B9DE"/>
<path d="M1155.53 313.501C1155.86 312.762 1155.72 313 1155.09 314.219C1155.28 313.942 1155.49 313.674 1155.71 313.417C1154.84 314.294 1154.74 314.397 1155.43 313.725C1155.75 313.426 1156.07 313.133 1156.41 312.848C1157.78 311.676 1159.27 310.607 1160.78 309.608C1159.78 310.267 1162.5 308.564 1162.78 308.398C1163.9 307.727 1165.02 307.074 1166.16 306.431C1168.39 305.171 1170.64 303.958 1172.92 302.77C1180.39 298.86 1188.2 295.478 1195.57 291.374C1205.28 285.963 1198.14 272.52 1188.36 277.972C1180.09 282.579 1171.31 286.335 1162.96 290.821C1154.71 295.253 1143.29 300.782 1139.55 309.375C1135.39 318.957 1151.38 323.053 1155.53 313.501Z" fill="url(#paint12_linear_40_572)"/>
<path d="M1108.89 300.798C1108.51 303.38 1108.74 301.562 1109.4 300.114C1110.07 298.621 1110.82 297.151 1111.58 295.687C1113.51 291.93 1115.63 288.12 1117.38 285.08C1121.26 278.331 1125.06 270.993 1130.27 264.903C1133.23 261.447 1131.87 256.291 1128.31 254.285C1124.33 252.035 1119.35 253.605 1116.39 257.069C1110.77 263.631 1106.72 271.587 1102.57 278.87C1100.06 283.28 1097.57 287.703 1095.27 292.194C1093.85 294.964 1092.33 297.806 1091.88 300.797C1090.4 310.787 1107.42 310.768 1108.89 300.798Z" fill="url(#paint13_linear_40_572)"/>
<path d="M1132.83 510.977C1132.87 510.367 1132.9 509.74 1132.94 509.096C1132.96 508.453 1132.94 507.798 1132.93 507.124C1132.96 501.727 1132.3 495.339 1130.6 488.512C1128.94 481.674 1126.22 474.419 1122.56 467.217C1118.87 460.019 1115.28 455.068 1112.64 451.963C1110.21 449.151 1108.62 447.838 1108.03 447.836C1110.15 434.724 1110.19 424.329 1109.36 416.99C1109.21 415.782 1109.08 414.649 1108.95 413.589C1108.79 412.538 1108.58 411.57 1108.41 410.677C1108.22 409.79 1108.05 408.975 1107.89 408.233C1107.71 407.498 1107.49 406.849 1107.3 406.271C1106.54 403.965 1105.96 402.881 1105.58 402.975C1105.19 403.069 1105 404.341 1105.02 406.752C1105.03 407.354 1105.05 408.028 1105.06 408.775C1105.06 409.526 1105.06 410.35 1105.06 411.249C1105.07 412.144 1105.09 413.111 1105.1 414.153C1105.09 415.199 1105.07 416.319 1105.05 417.512C1104.98 423.345 1104.52 431.019 1103.12 440.459C1102.83 440.391 1102.32 440.387 1101.59 440.449C1101 440.5 1100.27 440.595 1099.4 440.735C1098.96 440.811 1098.49 440.893 1097.98 440.98C1097.48 441.076 1096.95 441.226 1096.37 441.368C1095.23 441.663 1093.95 442.012 1092.53 442.42C1091.13 442.88 1089.6 443.441 1087.93 444.05C1087.08 444.338 1086.24 444.723 1085.36 445.107C1084.48 445.497 1083.56 445.903 1082.61 446.323C1081.65 446.723 1080.72 447.263 1079.73 447.761C1078.75 448.276 1077.72 448.802 1076.68 449.368C1068.46 454.059 1061.34 459.57 1055.51 465.069C1049.67 470.571 1045.09 476.046 1041.53 480.764C1034.57 490.315 1031.58 496.788 1032 496.958C1032.58 497.22 1036.47 491.172 1043.88 482.191C1047.66 477.757 1052.34 472.598 1058.13 467.412C1063.9 462.227 1070.79 457.032 1078.65 452.548C1079.64 452.014 1080.61 451.496 1081.54 450.996C1082.49 450.508 1083.36 449.971 1084.27 449.567C1085.16 449.135 1086.02 448.718 1086.85 448.317C1087.68 447.914 1088.47 447.504 1089.26 447.182C1090.81 446.493 1092.24 445.859 1093.54 445.282C1094.87 444.759 1096.06 444.272 1097.11 443.823C1097.64 443.604 1098.13 443.372 1098.6 443.189C1099.06 443.005 1099.5 442.833 1099.9 442.672C1100.7 442.345 1101.36 442.049 1101.89 441.788C1102.4 441.539 1102.77 441.322 1103.02 441.139C1102.34 445.649 1101.43 450.567 1100.26 455.866C1096.99 459.961 1092.73 465.633 1087.41 472.845C1081.07 481.414 1074.9 489.482 1069.04 496.657C1063.17 503.824 1057.65 510.112 1052.71 515.144C1047.81 520.206 1043.47 523.979 1040.37 526.474C1037.25 528.955 1035.39 530.204 1035.55 530.451C1035.66 530.645 1037.81 529.801 1041.3 527.606C1044.77 525.403 1049.52 521.814 1054.79 516.877C1060.09 511.966 1065.94 505.745 1072.03 498.602C1078.12 491.452 1084.45 483.371 1090.82 474.756C1093.66 470.905 1096.11 467.452 1098.2 464.404C1093.6 481.945 1087.08 498.388 1080.12 513.069C1072.63 528.864 1064.4 542.589 1056.87 553.781C1049.26 564.94 1042.32 573.559 1037.28 579.359C1034.74 582.24 1032.76 584.478 1031.41 586.005C1030.07 587.539 1029.43 588.413 1029.58 588.544C1029.73 588.676 1030.65 588.059 1032.28 586.755C1033.09 586.093 1034.12 585.3 1035.23 584.27C1036.35 583.249 1037.64 582.062 1039.07 580.711C1044.73 575.25 1052.33 566.829 1060.54 555.728C1068.68 544.596 1077.45 530.799 1085.38 514.808C1089.35 506.818 1093.13 498.295 1096.53 489.325C1099.93 480.356 1102.97 470.941 1105.33 461.181C1106.38 456.819 1107.21 452.698 1107.87 448.799C1108.14 449.719 1108.91 451.282 1110.17 453.502C1112.09 456.976 1115.14 462.065 1118.72 469.067C1122.29 476.075 1125.03 483.061 1126.84 489.619C1128.69 496.169 1129.63 502.275 1129.97 507.463C1130.02 508.11 1130.09 508.743 1130.12 509.361C1130.14 509.982 1130.15 510.586 1130.16 511.174C1130.18 512.35 1130.24 513.46 1130.24 514.502C1130.14 516.587 1130.16 518.392 1130.07 519.871C1129.83 522.826 1129.83 524.493 1130.11 524.517C1130.4 524.542 1130.94 522.915 1131.68 519.914C1132.03 518.414 1132.25 516.567 1132.58 514.416C1132.69 513.343 1132.74 512.197 1132.83 510.977Z" fill="#5776A0"/>
<path d="M1209.88 412.505C1203.26 418.842 1194.62 421.185 1190.58 417.738C1186.54 414.291 1188.63 406.36 1195.25 400.023C1201.87 393.686 1210.52 391.343 1214.56 394.79C1218.6 398.237 1216.5 406.168 1209.88 412.505Z" fill="#5776A0"/>
<path d="M1405.48 658.151C1405.41 658.151 1405.35 658.151 1405.29 658.151C1398.94 658.079 1393.9 654.305 1393.3 649.177L1358.03 353.27L1258.05 598.002C1256.24 602.425 1251.28 605.723 1245.69 606.199C1240.13 606.615 1234.98 604.236 1232.96 600.138L1191.88 518.466L1148.2 563.533L1141.11 563.751H1057.11C1050.11 563.751 1044.91 559.1 1045.5 553.362C1046.09 547.624 1052.25 542.973 1059.25 542.973H1137.03L1190.12 488.192L1197.81 488.42C1202.42 488.709 1206.36 491.006 1208.1 494.421L1244.59 566.977L1352.07 303.891C1354.09 298.889 1359.97 295.693 1366.22 295.637C1372.53 295.795 1377.37 299.462 1378 304.555L1412.68 595.562L1447.51 497.631C1449.11 493.121 1453.98 489.661 1459.64 489.038C1465.25 488.424 1470.53 490.763 1472.68 494.876L1497.53 542.972H1677.45C1684.45 542.972 1689.65 547.623 1689.06 553.361C1688.48 559.099 1682.32 563.75 1675.32 563.75H1488C1482.99 563.75 1478.69 561.482 1476.77 557.83L1462.1 529.432L1419.41 649.46C1417.59 654.524 1411.75 658.152 1405.48 658.151ZM1418.62 645.449L1418.63 645.48C1418.62 645.47 1418.62 645.46 1418.62 645.449ZM1256.59 590.85L1256.65 590.957C1256.63 590.922 1256.61 590.886 1256.59 590.85ZM1204.94 504.994L1204.9 505.029C1204.91 505.019 1204.93 505.003 1204.94 504.994ZM1471.91 501.832L1471.9 501.863C1471.9 501.853 1471.91 501.843 1471.91 501.832ZM1376.15 308.914L1376.13 308.97C1376.13 308.95 1376.14 308.935 1376.15 308.914Z" fill="white"/>
<path opacity="0.2" d="M1759.87 326.338L1735.7 573.562L932.572 1521.4L783.055 1521.46L1759.87 326.338Z" fill="white"/>
<path opacity="0.2" d="M1771.08 211.655L1767.47 248.675L703.119 1505.88L717.672 1345.17L1674.63 211.655H1771.08Z" fill="white"/>
<path d="M1895.4 413.043L1877.92 453.67L1890 461.135L1959.39 412.158L2066.64 411.373H2066.66L2090.39 411.205L2111.63 411.051L2165.11 410.657L2361 409.239L2364.46 177.206L2353.15 169.653L1834.71 406.838L1845.12 413.984L1895.4 413.043Z" fill="#FBB03B"/>
<path d="M1884.2 405.49L1878.8 453.581L1948.19 404.606L2055.44 403.819H2055.46L2079.19 403.651L2100.43 403.497L2153.91 403.104L2349.79 401.685L2353.26 169.653L1859.65 189.305L1833.92 406.43L1884.2 405.49Z" fill="url(#paint14_linear_40_572)"/>
<path d="M2146.45 323.835L1881.82 326.633L1881.9 333.651L2146.53 330.853L2146.45 323.835Z" fill="white"/>
<path d="M2146.45 293.655L1881.82 296.454L1881.9 303.472L2146.53 300.673L2146.45 293.655Z" fill="white"/>
<path d="M2147.94 265.582L1883.31 268.381L1883.39 275.399L2148.02 272.6L2147.94 265.582Z" fill="white"/>
<path d="M2150.91 236.107L1886.28 238.905L1886.36 245.923L2151 243.125L2150.91 236.107Z" fill="white"/>
<path d="M2245.15 355.721C2241.67 353.673 2160.06 305.05 2160.06 262.26C2160.06 228.784 2188.29 219.852 2204.97 219.852C2208.97 219.852 2212.86 220.329 2216.5 221.266C2220.79 222.337 2224.86 223.995 2228.61 226.191C2236.65 230.891 2242.89 237.891 2246.47 246.025C2250.04 237.886 2256.29 230.879 2264.33 226.177C2268.08 223.977 2272.16 222.32 2276.43 221.254C2280.09 220.314 2283.97 219.837 2287.97 219.837C2304.65 219.837 2332.89 228.768 2332.89 262.243C2332.89 304.808 2251.3 353.658 2247.82 355.719C2247.41 355.961 2246.94 356.083 2246.48 356.083C2246.02 356.082 2245.55 355.962 2245.15 355.721ZM2277.73 225.843C2273.93 226.792 2270.32 228.263 2266.99 230.214C2257.71 235.637 2251.13 244.504 2248.94 254.543C2248.69 255.646 2247.66 256.439 2246.47 256.439C2245.28 256.439 2244.25 255.648 2244 254.544C2241.81 244.512 2235.23 235.65 2225.95 230.228C2222.63 228.279 2219.02 226.81 2215.2 225.855C2211.96 225.025 2208.52 224.604 2204.97 224.604C2190.16 224.604 2165.09 232.536 2165.09 262.258C2165.09 299.386 2235.84 344.334 2246.48 350.881C2257.15 344.341 2327.85 299.595 2327.85 262.241C2327.85 232.517 2302.78 224.587 2287.97 224.587C2284.42 224.588 2280.98 225.008 2277.73 225.843Z" fill="white"/>
<path d="M2246.47 311.042C2246.48 311.042 2246.49 311.042 2246.5 311.042C2247.18 311.031 2247.79 310.629 2248.04 310.029L2272.31 250.606L2289.27 288.575C2289.53 289.155 2290.13 289.535 2290.79 289.544L2321.16 289.921C2321.16 289.921 2321.17 289.921 2321.18 289.921C2322.09 289.921 2322.84 289.225 2322.86 288.359C2322.87 287.484 2322.13 286.765 2321.2 286.754L2291.93 286.39L2273.78 245.76C2273.52 245.165 2272.95 244.785 2272.21 244.791C2271.53 244.801 2270.92 245.203 2270.67 245.806L2246.39 305.25L2228.84 266.405C2228.57 265.825 2227.97 265.447 2227.3 265.443C2226.68 265.421 2226.03 265.81 2225.76 266.386L2216.21 286.755H2172.96C2172.03 286.755 2171.28 287.464 2171.28 288.34C2171.28 289.214 2172.03 289.924 2172.96 289.924H2217.31C2217.97 289.924 2218.57 289.554 2218.84 288.981L2227.27 271.003L2244.93 310.084C2245.19 310.664 2245.8 311.042 2246.47 311.042Z" fill="white"/>
<path d="M1976.44 1388.28L1971.04 1340.19L2040.43 1389.16L2147.69 1389.95H2147.7L2171.43 1390.12L2192.68 1390.27L2426.76 1378.24L2442.04 1392.09L2437.5 1602.97L1926.29 1602.96L1911.52 1589.74L1976.44 1388.28Z" fill="#92A1B6"/>
<path d="M1962.04 1374.68L1956.64 1326.59L2026.03 1375.57L2133.28 1376.36H2133.3L2157.03 1376.52L2178.27 1376.68L2231.75 1377.07L2427.63 1378.49L2423.1 1589.37L1911.89 1589.36L1911.76 1373.74L1962.04 1374.68Z" fill="url(#paint15_linear_40_572)"/>
<path d="M2134.1 1436.97L2134.02 1443.99L2398.65 1446.78L2398.74 1439.77L2134.1 1436.97Z" fill="white"/>
<path d="M2134.1 1467.15L2134.02 1474.16L2398.65 1476.96L2398.74 1469.94L2134.1 1467.15Z" fill="white"/>
<path d="M2135.59 1495.22L2135.5 1502.24L2400.14 1505.04L2400.22 1498.02L2135.59 1495.22Z" fill="white"/>
<path d="M2138.56 1524.7L2138.48 1531.71L2403.11 1534.51L2403.19 1527.49L2138.56 1524.7Z" fill="white"/>
<path d="M1988.8 1423.77C1987.87 1423.77 1987.1 1423.05 1987.1 1422.16V1405.46C1987.1 1404.57 1987.87 1403.85 1988.8 1403.85C1989.74 1403.85 1990.5 1404.57 1990.5 1405.46V1422.16C1990.5 1423.05 1989.74 1423.77 1988.8 1423.77Z" fill="white"/>
<path d="M2059.08 1424.27C2058.14 1424.27 2057.38 1423.55 2057.38 1422.67V1405.46C2057.38 1404.57 2058.14 1403.85 2059.08 1403.85C2060.02 1403.85 2060.78 1404.57 2060.78 1405.46V1422.67C2060.78 1423.55 2060.02 1424.27 2059.08 1424.27Z" fill="white"/>
<path d="M2025.13 1427.69C2012.73 1427.69 2000.38 1426.35 1988.42 1423.72L1989.19 1420.6C2011.82 1425.57 2035.99 1425.75 2058.72 1421.1L2059.44 1424.23C2048.24 1426.53 2036.69 1427.69 2025.13 1427.69Z" fill="white"/>
<path d="M2077.78 1568.39H1968.97C1960.06 1568.39 1952.82 1561.55 1952.82 1553.14V1418.3C1952.82 1409.89 1960.06 1403.05 1968.97 1403.05H2077.78C2086.69 1403.05 2093.93 1409.89 2093.93 1418.3V1553.14C2093.93 1561.55 2086.69 1568.39 2077.78 1568.39ZM1968.97 1407.87C1962.88 1407.87 1957.92 1412.55 1957.92 1418.3V1553.14C1957.92 1558.89 1962.88 1563.57 1968.97 1563.57H2077.78C2083.88 1563.57 2088.83 1558.89 2088.83 1553.14V1418.3C2088.83 1412.55 2083.88 1407.87 2077.78 1407.87H1968.97Z" fill="white"/>
<path d="M2076.08 1557.55H1970.67C1965.98 1557.55 1962.17 1553.95 1962.17 1549.53V1421.91C1962.17 1417.49 1965.98 1413.89 1970.67 1413.89H2076.08C2080.77 1413.89 2084.58 1417.49 2084.58 1421.91V1549.53C2084.58 1553.95 2080.77 1557.55 2076.08 1557.55ZM1970.67 1417.1C1967.86 1417.1 1965.57 1419.26 1965.57 1421.91V1549.53C1965.57 1552.18 1967.85 1554.34 1970.67 1554.34H2076.08C2078.89 1554.34 2081.18 1552.18 2081.18 1549.53V1421.91C2081.18 1419.26 2078.89 1417.1 2076.08 1417.1H1970.67Z" fill="white"/>
<path d="M1989.78 1461.59C1989.35 1461.59 1988.91 1461.43 1988.58 1461.12C1987.92 1460.49 1987.92 1459.48 1988.58 1458.85L2001.66 1446.5C2002.33 1445.87 2003.4 1445.87 2004.07 1446.5C2004.73 1447.13 2004.73 1448.15 2004.07 1448.77L1990.99 1461.12C1990.65 1461.44 1990.22 1461.59 1989.78 1461.59Z" fill="white"/>
<path d="M1989.3 1461.59C1988.86 1461.59 1988.43 1461.43 1988.1 1461.12L1975.02 1448.77C1974.35 1448.15 1974.35 1447.13 1975.02 1446.5C1975.68 1445.87 1976.76 1445.87 1977.42 1446.5L1990.5 1458.85C1991.17 1459.48 1991.17 1460.49 1990.5 1461.12C1990.17 1461.44 1989.73 1461.59 1989.3 1461.59Z" fill="white"/>
<path d="M2070.53 1455.42H2009.88C2008.94 1455.42 2008.18 1454.7 2008.18 1453.81C2008.18 1452.93 2008.94 1452.21 2009.88 1452.21H2070.53C2071.47 1452.21 2072.23 1452.93 2072.23 1453.81C2072.23 1454.7 2071.47 1455.42 2070.53 1455.42Z" fill="white"/>
<path d="M1989.78 1493.7C1989.35 1493.7 1988.91 1493.54 1988.58 1493.23C1987.92 1492.6 1987.92 1491.58 1988.58 1490.96L2001.66 1478.61C2002.33 1477.98 2003.4 1477.98 2004.07 1478.61C2004.73 1479.23 2004.73 1480.25 2004.07 1480.88L1990.99 1493.23C1990.65 1493.54 1990.22 1493.7 1989.78 1493.7Z" fill="white"/>
<path d="M1989.3 1493.7C1988.86 1493.7 1988.43 1493.54 1988.1 1493.23L1975.02 1480.88C1974.35 1480.25 1974.35 1479.23 1975.02 1478.61C1975.68 1477.98 1976.76 1477.98 1977.42 1478.61L1990.5 1490.96C1991.17 1491.58 1991.17 1492.6 1990.5 1493.23C1990.17 1493.54 1989.73 1493.7 1989.3 1493.7Z" fill="white"/>
<path d="M2070.53 1487.52H2009.88C2008.94 1487.52 2008.18 1486.8 2008.18 1485.92C2008.18 1485.03 2008.94 1484.31 2009.88 1484.31H2070.53C2071.47 1484.31 2072.23 1485.03 2072.23 1485.92C2072.23 1486.8 2071.47 1487.52 2070.53 1487.52Z" fill="white"/>
<path d="M1989.78 1525.8C1989.35 1525.8 1988.91 1525.64 1988.58 1525.33C1987.92 1524.7 1987.92 1523.69 1988.58 1523.06L2001.66 1510.71C2002.33 1510.08 2003.4 1510.08 2004.07 1510.71C2004.73 1511.34 2004.73 1512.35 2004.07 1512.98L1990.99 1525.33C1990.65 1525.64 1990.22 1525.8 1989.78 1525.8Z" fill="white"/>
<path d="M1989.3 1525.8C1988.86 1525.8 1988.43 1525.64 1988.1 1525.33L1975.02 1512.98C1974.35 1512.35 1974.35 1511.34 1975.02 1510.71C1975.68 1510.08 1976.76 1510.08 1977.42 1510.71L1990.5 1523.06C1991.17 1523.69 1991.17 1524.7 1990.5 1525.33C1990.17 1525.64 1989.73 1525.8 1989.3 1525.8Z" fill="white"/>
<path d="M2070.53 1519.63H2009.88C2008.94 1519.63 2008.18 1518.91 2008.18 1518.02C2008.18 1517.13 2008.94 1516.42 2009.88 1516.42H2070.53C2071.47 1516.42 2072.23 1517.13 2072.23 1518.02C2072.23 1518.91 2071.47 1519.63 2070.53 1519.63Z" fill="white"/>
<path d="M63.3818 566.974L73.6052 571.992L564.962 569.143L649.026 633.446L644.018 571.613L686.922 573.869L688.201 370.51L677.828 364.537L63.3818 566.974Z" fill="#5DA867"/>
<path d="M675.715 567.821L632.817 565.57L638.321 625.122L553.755 563.092L527.145 563.243L449.762 563.696L434.369 563.787L414.753 563.892L62.4055 565.947L58.293 359.597L305.912 361.545L328.442 361.727L342.267 361.833L420.576 362.453L676.995 364.462L675.715 567.821Z" fill="url(#paint16_linear_40_572)"/>
<path d="M661.172 421.694L658.452 395.902L310.458 395.183L310.69 420.996L661.172 421.694Z" fill="white"/>
<path d="M275.316 545.182L89.499 545.8C89.3019 545.8 89.1412 545.655 89.1372 545.476L87.4346 464.789C87.4306 464.609 87.5859 464.462 87.783 464.462L273.6 463.844C273.796 463.844 273.956 463.988 273.961 464.169L275.663 544.856C275.667 545.034 275.512 545.181 275.316 545.182ZM89.8393 545.146L274.949 544.531L273.261 464.497L88.1516 465.113L89.8393 545.146Z" fill="white"/>
<path d="M274.466 504.838L88.6485 505.456C88.4514 505.456 88.2907 505.311 88.2867 505.131C88.2826 504.952 88.4379 504.804 88.6351 504.804L274.452 504.186C274.648 504.184 274.809 504.331 274.813 504.511C274.817 504.692 274.661 504.838 274.466 504.838Z" fill="white"/>
<path d="M228.863 545.336C228.666 545.336 228.505 545.191 228.501 545.013L226.798 464.326C226.794 464.147 226.95 464 227.147 464C227.343 464 227.503 464.144 227.507 464.325L229.21 545.011C229.212 545.19 229.057 545.336 228.863 545.336Z" fill="white"/>
<path d="M182.407 545.49C182.211 545.49 182.051 545.345 182.046 545.165L180.345 464.479C180.341 464.299 180.497 464.153 180.692 464.153C180.888 464.153 181.05 464.297 181.054 464.478L182.757 545.165C182.759 545.344 182.604 545.49 182.407 545.49Z" fill="white"/>
<path d="M135.954 545.646C135.758 545.646 135.597 545.502 135.593 545.322L133.891 464.636C133.887 464.456 134.042 464.31 134.238 464.31C134.433 464.31 134.595 464.454 134.6 464.635L136.302 545.321C136.305 545.498 136.15 545.645 135.954 545.646Z" fill="white"/>
<path d="M273.607 464.116L87.7895 464.734C87.5924 464.734 87.4317 464.589 87.4277 464.409L85.7252 383.723C85.7211 383.543 85.8764 383.395 86.0735 383.395L271.891 382.777C272.086 382.777 272.247 382.922 272.251 383.102L273.954 463.788C273.956 463.969 273.802 464.116 273.607 464.116ZM88.1284 464.081L273.238 463.464L271.55 383.431L86.4421 384.046L88.1284 464.081Z" fill="white"/>
<path d="M272.756 423.773L86.9391 424.392C86.7419 424.393 86.5813 424.248 86.5772 424.068C86.5732 423.887 86.7284 423.74 86.9256 423.74L272.743 423.122C272.938 423.122 273.099 423.266 273.103 423.447C273.106 423.626 272.951 423.772 272.756 423.773Z" fill="white"/>
<path d="M227.152 464.271C226.956 464.271 226.794 464.126 226.79 463.946L225.089 383.26C225.085 383.08 225.24 382.932 225.437 382.932C225.633 382.931 225.794 383.077 225.798 383.257L227.5 463.943C227.503 464.123 227.348 464.27 227.152 464.271Z" fill="white"/>
<path d="M180.698 464.425C180.502 464.425 180.341 464.281 180.337 464.1L178.636 383.414C178.632 383.234 178.787 383.086 178.983 383.086C179.179 383.085 179.341 383.232 179.345 383.411L181.047 464.098C181.049 464.279 180.893 464.424 180.698 464.425Z" fill="white"/>
<path d="M134.244 464.58C134.048 464.581 133.888 464.436 133.884 464.255L132.181 383.568C132.177 383.389 132.332 383.241 132.528 383.241C132.724 383.239 132.886 383.386 132.89 383.566L134.593 464.252C134.595 464.433 134.44 464.58 134.244 464.58Z" fill="white"/>
<path d="M267.727 546.718L89.5312 547.311C88.9439 547.313 88.4592 546.876 88.4484 546.336L85.1662 390.746C85.1554 390.206 85.6212 389.766 86.2085 389.764C86.7945 389.761 87.2792 390.198 87.29 390.739L90.5506 545.349L267.685 544.759C268.271 544.758 268.756 545.194 268.766 545.734C268.78 546.276 268.313 546.717 267.727 546.718Z" fill="white"/>
<path d="M80.9634 392.188L86.0805 383.723L91.5539 392.154L80.9634 392.188Z" fill="white"/>
<path d="M266.261 550.624L275.328 545.714L266.054 540.866L266.261 550.624Z" fill="white"/>
<path d="M95.5546 547.292C94.9686 547.293 94.4825 546.848 94.4717 546.308C94.4596 545.748 96.7116 528.978 101.854 511.998C108.709 489.366 117.165 477.873 126.99 477.84C139.641 477.798 145.19 487.892 150.087 496.799C154.225 504.323 158.133 511.43 165.583 511.406C173.264 511.38 177.903 491.839 182.389 472.94C187.535 451.264 192.394 430.791 202.739 430.756C214.63 430.717 218.548 445.724 221.696 457.783C223.535 464.828 225.438 472.115 228.234 472.106C230.597 472.098 233.771 461.493 236.571 452.136C243.156 430.137 252.175 400.009 272.255 399.942C272.841 399.94 273.326 400.377 273.337 400.918C273.349 401.458 272.882 401.898 272.296 401.9C253.802 401.962 245.027 431.278 238.619 452.684C234.3 467.113 232.056 474.05 228.274 474.063C223.772 474.078 221.945 467.076 219.631 458.213C216.662 446.837 212.965 432.68 202.779 432.714C194.113 432.744 188.986 454.336 184.463 473.387C179.588 493.93 174.982 513.333 165.623 513.364C156.845 513.393 152.643 505.75 148.194 497.662C143.355 488.861 138.35 479.759 127.029 479.796C118.429 479.824 110.468 491.032 104.005 512.205C99.096 528.288 96.6968 545.065 96.5955 546.32C96.5955 546.449 96.5699 546.578 96.5145 546.7C96.3538 547.058 95.9758 547.29 95.5546 547.292Z" fill="white"/>
<path d="M647.315 529.348L324.41 530.606L324.628 524.739L647.532 523.48L647.315 529.348Z" fill="white"/>
<path d="M647.809 504.125L324.904 505.383L325.122 499.516L648.026 498.259L647.809 504.125Z" fill="white"/>
<path d="M646.453 480.683L323.548 481.94L323.766 476.074L646.67 474.815L646.453 480.683Z" fill="white"/>
<path d="M643.306 456.087L320.401 457.344L320.62 451.478L643.523 450.22L643.306 456.087Z" fill="white"/>
<path opacity="0.2" d="M527.144 563.243L449.762 563.696L342.267 361.833L420.576 362.453L527.144 563.243Z" fill="white"/>
<path opacity="0.2" d="M434.369 563.786L414.753 563.892L305.912 361.545L328.442 361.727L434.369 563.786Z" fill="white"/>
<path d="M1361.25 1783.69L1335.62 1787.95L1320.02 1768.3C1335.53 1769.68 1346.53 1764.39 1353.69 1758.7L1361.25 1783.69Z" fill="#FFB083"/>
<path d="M1243.72 1016.73C1241.45 1022.28 1233.2 1028.73 1227.8 1032.51C1227.46 1032.16 1227.29 1031.96 1227.29 1031.96C1227.29 1031.96 1219.09 1033.36 1206.55 1038.88C1205.89 1037.6 1205.24 1036.26 1204.61 1034.85C1178.92 977.956 1210.74 928.024 1210.74 928.024C1210.74 928.024 1213.71 928.395 1218.32 929.877C1216.88 936.682 1216.23 944.569 1216.76 953.652C1219.01 991.992 1228.37 1005.49 1243.72 1016.73Z" fill="#193070"/>
<path d="M1313.66 1009.72L1329.2 1029.65C1297.75 1057.45 1270.97 1056.38 1252.77 1049.28C1241.69 1044.93 1233.79 1038.35 1229.94 1034.68C1228.96 1033.74 1228.24 1032.98 1227.8 1032.51C1233.2 1028.73 1241.45 1022.28 1243.72 1016.73C1243.57 1016.61 1243.4 1016.5 1243.25 1016.39C1228.17 1005.21 1218.98 991.593 1216.76 953.652C1216.24 944.569 1216.89 936.682 1218.32 929.877C1224.98 898.26 1248.45 889.596 1248.45 889.596C1341.94 881.081 1331.35 986.429 1326.82 996.393C1325.45 999.397 1320.5 1004.48 1313.66 1009.72Z" fill="#FEAA8E"/>
<path d="M1364.28 1746.67C1364.28 1746.67 1360.98 1752.89 1353.69 1758.7C1346.53 1764.39 1335.53 1769.68 1320.02 1768.3C1314.29 1767.8 1307.94 1766.39 1300.94 1763.74L1219.95 1582.27L1210.26 1420.08L1351.17 1390.34C1351.17 1390.34 1343.5 1478.71 1329.94 1557.32C1329.94 1557.32 1317.3 1620.01 1364.28 1746.67Z" fill="#192B54"/>
<path d="M1457.75 1797.95C1457.75 1797.95 1454.84 1800.51 1449.32 1803.59C1449.12 1803.7 1448.91 1803.81 1448.7 1803.93C1440.62 1808.35 1427.27 1813.67 1409.49 1814.15C1405.23 1814.28 1400.7 1814.12 1395.92 1813.59L1288.94 1565.85L1301.06 1404.98L1447.33 1396.48C1447.33 1396.48 1446.86 1400.93 1445.78 1408.63C1441.78 1437.39 1429.41 1511.47 1402.03 1568.72C1402.03 1568.72 1447.24 1664.12 1457.75 1797.95Z" fill="#3B4C7A"/>
<path d="M1152.76 1200.41C1151.37 1212.28 1150.05 1226.59 1149.3 1242.27C1148.99 1248.27 1148.79 1254.48 1148.69 1260.84C1143.77 1266.47 1136.38 1271.85 1127.84 1276.8L1042.09 1276.77C1077.4 1249.68 1109.63 1168.6 1109.63 1168.6H1109.84C1118.12 1177.42 1133.89 1192.32 1152.76 1200.41Z" fill="#FFB083"/>
<path d="M1445.66 1409.52C1445.24 1409.93 1444.8 1410.34 1444.35 1410.75C1444 1411.08 1443.64 1411.39 1443.27 1411.72C1443.15 1411.82 1443.01 1411.93 1442.89 1412.03C1442.44 1412.42 1441.97 1412.79 1441.49 1413.16C1441.47 1413.17 1441.44 1413.19 1441.43 1413.2C1440.9 1413.62 1440.37 1414.01 1439.81 1414.41C1436.76 1416.62 1433.18 1418.75 1429 1420.84C1409.03 1430.86 1375.45 1439.92 1321.58 1449.57L1321.54 1449.59C1314.56 1450.84 1307.23 1452.1 1299.54 1453.38C1188.07 1471.91 1155.92 1385.33 1149.81 1302.43C1149.17 1293.8 1148.82 1285.22 1148.68 1276.8C1148.59 1271.41 1148.6 1266.07 1148.69 1260.84C1149.04 1237.9 1150.84 1216.84 1152.76 1200.41C1154.56 1184.97 1156.47 1173.62 1157.36 1168.61C1157.69 1166.74 1157.89 1165.76 1157.89 1165.76C1157.89 1165.76 1179.39 1086.81 1211.59 1047.14C1216.57 1040.99 1221.82 1035.78 1227.29 1031.96C1227.29 1031.96 1227.46 1032.15 1227.81 1032.51C1229.95 1034.83 1238.86 1043.82 1252.77 1049.28C1270.97 1056.38 1297.75 1057.45 1329.2 1029.65C1329.91 1029.03 1330.62 1028.37 1331.34 1027.72C1331.34 1027.72 1441.38 1131.68 1430.81 1175.8C1430.81 1175.8 1412.54 1218.38 1422.22 1279.6C1424.02 1290.92 1426.78 1302.88 1430.77 1315.32C1438.59 1339.64 1448.5 1358.81 1452.69 1374.64C1453.26 1376.83 1453.73 1378.95 1454.08 1381C1454.09 1381.12 1454.11 1381.22 1454.12 1381.32C1454.12 1381.33 1454.12 1381.33 1454.12 1381.34C1455.83 1392.08 1453.97 1401.25 1445.66 1409.52Z" fill="#4896FE"/>
<path d="M1227.29 1031.96C1221.82 1035.79 1216.57 1040.99 1211.59 1047.14C1179.38 1086.81 1157.88 1165.76 1157.88 1165.76C1157.88 1165.76 1157.69 1166.74 1157.36 1168.61C1156.46 1173.62 1154.56 1184.97 1152.76 1200.41C1133.88 1192.32 1118.12 1177.43 1109.84 1168.6C1105.85 1164.34 1103.6 1161.47 1103.6 1161.47C1131.52 1082.46 1179.27 1050.91 1206.55 1038.88C1219.09 1033.36 1227.29 1031.96 1227.29 1031.96Z" fill="#5573B5"/>
<path d="M697.748 1878.88L1127.5 1879L1190.79 2001.46L773.103 2001.34L697.748 1878.88Z" fill="url(#paint17_linear_40_572)"/>
<path d="M1127.5 1879L1750.27 1845.01L1750.25 1899.11L1190.79 2001.46L1127.5 1879Z" fill="url(#paint18_linear_40_572)"/>
<path d="M827.612 1302.34L1222.68 1302.45L1316.12 1443.42L902.964 1434.76L827.612 1302.34Z" fill="#D7E0F2"/>
<path d="M1325.18 1409.25L1316.12 1443.42L1222.68 1302.45L827.612 1302.34L848.731 1276.72L1233.24 1276.83L1325.18 1409.25Z" fill="url(#paint19_linear_40_572)"/>
<path d="M1422.39 1280.63C1419.98 1284.61 1417.44 1288.54 1414.79 1292.41C1390.06 1328.68 1356.96 1358.99 1336.54 1371.03C1334 1372.54 1331.66 1373.75 1329.55 1374.66C1329.54 1374.67 1329.54 1374.67 1329.52 1374.69C1299.16 1395.64 1272.42 1380.76 1267.91 1365.53C1265.38 1356.95 1275.79 1353.37 1285.33 1351.91C1280.81 1347.57 1275.26 1340.75 1289.02 1343.75C1294.85 1345.02 1298.82 1346.56 1301.5 1348.07C1303.75 1344.8 1308.62 1337.74 1319.18 1322.41C1349.77 1278 1335.81 1182.9 1335.81 1182.9C1335.81 1182.9 1406.71 1093.22 1441.36 1174.38C1442.24 1176.42 1443.01 1178.47 1443.67 1180.53C1453.88 1212.02 1442.16 1248.07 1422.39 1280.63Z" fill="#FFB083"/>
<path d="M1448.9 1190.05C1448.9 1190.05 1447.98 1190.42 1446.26 1191.04C1444.72 1191.61 1442.55 1192.36 1439.85 1193.25C1436.62 1194.31 1432.63 1195.55 1428.03 1196.82C1427.95 1196.83 1427.88 1196.86 1427.8 1196.87C1412.19 1201.16 1389.8 1205.75 1367.21 1205.09C1358.15 1204.83 1349.04 1203.72 1340.33 1201.41C1292.08 1188.58 1331.34 1027.72 1331.34 1027.72C1331.34 1027.72 1353.74 1037.62 1378.98 1058.12C1411.21 1084.3 1448.08 1127.78 1448.9 1190.05Z" fill="#97BEFD"/>
<path d="M1387.34 1065.26C1386.41 1071.77 1385.21 1078.03 1383.78 1084.01C1377.06 1112.25 1365.09 1133.85 1349.4 1140.19C1296.61 1161.53 1252.72 1090.79 1271.68 1057.82C1290.62 1024.86 1338.91 915.25 1218.27 935.147C1218.27 935.147 1203.19 945.108 1201.69 916.634C1200.19 888.161 1234.89 845.461 1323.84 885.349C1380.74 910.862 1396.89 999.276 1387.34 1065.26Z" fill="#043D59"/>
<path d="M872.892 1864.68L1430.59 1844.92L1750.27 1845.01L1148.42 1879.01L697.748 1878.88L872.892 1864.68Z" fill="#1A307C"/>
<path d="M1127.5 1879C1127.5 1879 1109.53 1491.76 1228.71 1322.38L1302.55 1439.14C1302.55 1439.14 1222.42 1605.91 1281.23 1870.61L1127.5 1879Z" fill="url(#paint20_linear_40_572)"/>
<path d="M697.748 1878.88C697.748 1878.88 687.32 1485.95 845.703 1315.16L918.047 1426.22C918.047 1426.22 845.915 1615.55 874.326 1878.93L697.748 1878.88Z" fill="url(#paint21_linear_40_572)"/>
<path d="M1309.22 1830.68C1304.8 1830.81 1301.6 1826.54 1303.14 1822.63C1306.2 1814.92 1316.05 1802.73 1324.76 1788.59C1334.71 1772.43 1331.98 1786.32 1348.35 1783.65C1348.35 1783.65 1356.38 1783.31 1357.61 1776.68C1358.53 1771.68 1364.21 1780.12 1366.96 1784.59C1367.87 1786.08 1367.69 1787.95 1366.49 1789.26C1358.52 1797.99 1327.92 1830.13 1309.22 1830.68Z" fill="#193070"/>
<path d="M1448.7 1803.93L1448.69 1830.69L1421.55 1839.23L1409.49 1814.15C1427.27 1813.67 1440.62 1808.35 1448.7 1803.93Z" fill="#FFB083"/>
<path d="M1373.57 1862.78C1369.34 1861.11 1368.25 1855.91 1371.49 1852.83C1377.83 1846.81 1388.87 1843.29 1403.46 1833.53C1419.32 1822.91 1415.42 1829.67 1429.36 1833.87C1430.81 1834.31 1432.37 1834.36 1433.85 1834.03C1437.27 1833.25 1443.6 1831.31 1446.55 1827.25C1449.84 1822.72 1454.93 1836.45 1456.91 1842.36C1457.4 1843.82 1456.63 1845.38 1455.14 1845.97C1442.98 1850.72 1391.68 1869.94 1373.57 1862.78Z" fill="#193070"/>
<path d="M863.298 1338.73C863.298 1338.73 761.001 1497.74 754.765 1624.21C753.43 1651.28 776.369 1673.9 805.073 1673.91C825.723 1673.91 842.849 1658.82 844.235 1639.37C848.365 1581.4 862.631 1464.88 911.57 1403.41L863.298 1338.73Z" fill="#D7E0F2"/>
<path d="M907.495 1410.76C861.655 1471.67 847.846 1584.4 843.859 1640.49C843.185 1649.89 838.702 1658.25 831.902 1664.26C825.086 1670.26 815.952 1673.91 805.959 1673.91C799.423 1673.9 793.193 1672.69 787.503 1670.48C790.188 1670.93 792.931 1671.15 795.746 1671.15C805.74 1671.15 814.875 1667.5 821.689 1661.5C828.49 1655.5 832.971 1647.14 833.646 1637.73C837.632 1581.64 851.441 1468.91 898.79 1409.43L857.754 1347.9C860.119 1344.03 862.28 1340.79 862.28 1340.79L907.495 1410.76Z" fill="url(#paint22_linear_40_572)"/>
<path d="M1240.76 1340.9C1240.76 1340.9 1155.68 1543.13 1156.1 1669.73C1156.2 1696.83 1174.51 1719.24 1203.18 1717.91C1223.8 1716.95 1240.11 1701.07 1240.47 1681.57C1241.55 1623.48 1249.38 1488.6 1295.02 1424.91L1240.76 1340.9Z" fill="#D7E0F2"/>
<path d="M1295.02 1426.33C1249.37 1490.02 1241.55 1624.91 1240.47 1683C1240.29 1692.74 1236.12 1701.59 1229.43 1708.11C1222.73 1714.64 1213.49 1718.85 1203.17 1719.33C1200.5 1719.46 1197.92 1719.37 1195.44 1719.09C1204.62 1718.05 1212.79 1714.04 1218.87 1708.1C1225.57 1701.59 1229.73 1692.73 1229.92 1683C1230.99 1624.91 1238.82 1490.02 1284.46 1426.33L1236.67 1352.34C1239.27 1345.88 1240.76 1342.32 1240.76 1342.32L1295.02 1426.33Z" fill="url(#paint23_linear_40_572)"/>
<path d="M1457.04 1789.47C1457.55 1795.12 1454.65 1800.6 1449.49 1803.49C1449.43 1803.52 1449.38 1803.56 1449.32 1803.59L1448.7 1803.64C1452.74 1736.66 1402.14 1601.23 1390.72 1571.66C1389.31 1567.99 1389.48 1563.93 1391.22 1560.38C1410.26 1521.64 1419.78 1485.75 1424.52 1458.99C1426.39 1448.41 1416.09 1439.54 1405.08 1442.2C1359.42 1453.2 1321.54 1449.59 1321.54 1449.59L1321.58 1449.57C1375.45 1439.92 1409.03 1430.86 1429 1420.85C1433.17 1418.76 1436.76 1416.62 1439.81 1414.41C1440.37 1414.02 1440.91 1413.62 1441.43 1413.21C1441.44 1413.19 1441.47 1413.18 1441.48 1413.16C1441.97 1412.79 1442.44 1412.42 1442.89 1412.04C1443.01 1411.94 1443.14 1411.82 1443.26 1411.73C1443.64 1411.41 1444 1411.08 1444.35 1410.76C1444.8 1410.34 1445.24 1409.93 1445.66 1409.52C1441.66 1437.92 1429.94 1507.29 1404.66 1563.08C1403.02 1566.7 1403 1570.78 1404.58 1574.43C1414.03 1596.29 1447.05 1679.04 1457.04 1789.47Z" fill="#223D72"/>
<path d="M1448.9 1190.05C1448.9 1190.05 1447.98 1190.42 1446.26 1191.04C1442.88 1192.28 1436.46 1194.5 1428.03 1196.82C1427.95 1196.83 1427.88 1196.86 1427.8 1196.87C1428.13 1150.33 1402.51 1108.41 1383.78 1084.01C1385.21 1078.03 1386.41 1071.77 1387.34 1065.26C1417.27 1091.89 1448.15 1133.11 1448.9 1190.05Z" fill="#CCCCCC"/>
<path d="M1446.26 1191.04C1444.73 1191.6 1442.54 1192.37 1439.85 1193.26V1193.25C1437.46 1194.04 1434.65 1194.92 1431.48 1195.84C1431.43 1195.85 1431.39 1195.87 1431.34 1195.88C1430.27 1196.19 1429.17 1196.5 1428.03 1196.82C1427.95 1196.83 1427.88 1196.86 1427.8 1196.87C1412.19 1201.15 1389.8 1205.75 1367.21 1205.09L1366.97 1205.16C1366.97 1205.16 1400.68 1207.76 1422.72 1208.57C1425.61 1208.68 1427.84 1211.01 1427.67 1213.74C1425.5 1247.65 1412.18 1314.56 1335.75 1366.55C1339.1 1369.36 1335.88 1366.62 1337.99 1370.15C1377.01 1346.2 1458.15 1260.19 1446.26 1191.04Z" fill="#E59A7A"/>
<path d="M1149.29 1242.27C1148.99 1248.27 1148.79 1254.48 1148.69 1260.84C1143.77 1266.47 1136.38 1271.85 1127.84 1276.8L1102.4 1276.79C1116.7 1269.25 1135.36 1257.55 1149.29 1242.27Z" fill="#E59A7A"/>
<path d="M1260.47 1024.85C1260.47 1024.85 1241.65 1024.59 1229.94 1034.68C1228.96 1033.74 1228.24 1032.98 1227.8 1032.51C1233.2 1028.73 1241.45 1022.28 1243.72 1016.73C1243.57 1016.62 1243.4 1016.5 1243.25 1016.39L1243.88 1016.3C1243.88 1016.3 1249.91 1022 1260.47 1024.85Z" fill="#E59A7A"/>
<path d="M1452.69 1374.64C1448.71 1365.2 1437.23 1361.28 1424.72 1342.37C1414.2 1326.47 1413.97 1304.34 1414.79 1292.41C1417.44 1288.54 1419.98 1284.61 1422.39 1280.63C1424.18 1291.63 1426.89 1303.25 1430.76 1315.32C1438.58 1339.64 1448.5 1358.81 1452.69 1374.64Z" fill="#CCCCCC"/>
<path d="M1454.07 1381C1454.04 1380.62 1454.01 1380.18 1453.98 1379.66C1454.04 1380.19 1454.09 1380.75 1454.12 1381.32C1454.12 1381.33 1454.12 1381.33 1454.12 1381.34C1454.21 1383.08 1454.18 1382.81 1454.07 1381Z" fill="#5975AD"/>
<path d="M1160.87 1248.33C1160.87 1248.33 1181.98 1264 1201.58 1259.73C1221.19 1255.47 1269.43 1282.53 1301.1 1274C1332.77 1265.47 1332.77 1262.62 1332.77 1262.62C1332.77 1262.62 1301.85 1296.07 1246.06 1273.27C1246.06 1273.27 1220.55 1266.34 1194.8 1264.72C1172.18 1263.29 1160.87 1248.33 1160.87 1248.33Z" fill="#CCCCCC"/>
<path d="M1354.54 1412.18C1354.54 1412.18 1356.33 1388.18 1378.76 1381.54C1401.19 1374.89 1403.22 1348.73 1403.22 1348.73C1403.22 1348.73 1404.03 1370.04 1380.68 1385.38C1357.32 1400.73 1354.54 1412.18 1354.54 1412.18Z" fill="#CCCCCC"/>
<path d="M1763.05 2018.53C1914.36 2018.53 2037.02 2000.61 2037.02 1978.51C2037.02 1956.4 1914.36 1938.49 1763.05 1938.49C1611.74 1938.49 1489.08 1956.4 1489.08 1978.51C1489.08 2000.61 1611.74 2018.53 1763.05 2018.53Z" fill="#E6E6E6"/>
<path d="M1905.71 1965.66C1905.71 1965.66 1901.49 1966.55 1895.92 1967.36C1886.37 1968.76 1872.86 1969.96 1869.97 1966.14L1861.13 1927.31L1889 1923.95L1901.24 1922.48C1901.24 1922.48 1901.67 1950.34 1905.71 1965.66Z" fill="#FEAA8E"/>
<path d="M1902.76 1997.15C1895.07 2003.66 1889.96 2006.66 1871.81 2001.07C1857.14 1996.56 1859.23 1982.69 1863.22 1968.75C1863.53 1967.68 1864.04 1966.65 1864.75 1965.76C1868.55 1960.93 1870.43 1956.93 1871.35 1954.04C1872.45 1950.59 1875.6 1948.07 1879.38 1947.59C1884.19 1946.97 1890.12 1946.65 1892.87 1948.27C1893.59 1948.69 1894.09 1949.24 1894.3 1949.96C1895.83 1955.23 1900.92 1958.11 1904.8 1961.72C1906.12 1962.95 1907.31 1964.26 1908.16 1965.79C1911.51 1971.77 1910.46 1990.64 1902.76 1997.15Z" fill="#055075"/>
<path d="M1904.8 1961.72C1900.92 1958.11 1895.83 1955.23 1894.3 1949.96C1894.09 1949.24 1893.59 1948.69 1892.87 1948.27L1889 1923.95L1901.24 1922.48C1901.24 1922.48 1901.6 1946.01 1904.8 1961.72Z" fill="#D38C79"/>
<path d="M1703.7 1910.21L1698.47 1950C1695.56 1953.07 1692.32 1954.85 1689.07 1955.77C1678.41 1958.78 1667.6 1952.55 1667.6 1952.55L1656.94 1909.18L1702.78 1910.19L1703.7 1910.21Z" fill="#FEAA8E"/>
<path d="M1703.7 1910.21L1698.47 1950C1695.56 1953.08 1692.32 1954.85 1689.07 1955.77L1688.29 1915.62L1702.78 1910.19L1703.7 1910.21Z" fill="#D38C79"/>
<path d="M1910.68 1923.66C1903.87 1928.04 1896.37 1930.56 1889 1931.89C1868.38 1935.64 1848.85 1930.13 1848.85 1930.13L1794.17 1686.96L1745.24 1522.88L1742.71 1514.4C1742.69 1514.44 1742.67 1514.48 1742.65 1514.52C1742.59 1514.62 1742.53 1514.73 1742.47 1514.84C1741.06 1517.47 1739.81 1521.09 1738.72 1525.51C1738.72 1525.51 1738.72 1525.52 1738.72 1525.53C1729.96 1560.96 1730.99 1647.02 1732.08 1672.71C1733.33 1701.78 1728.84 1754.04 1728.04 1767.81C1727.57 1775.92 1730.22 1782.75 1731.4 1790.05C1732.23 1795.15 1732.35 1800.46 1730.19 1806.59C1729.51 1808.51 1728.88 1811.81 1728.28 1816.1C1724.22 1845.12 1721.8 1919.61 1719.19 1920.68C1715.32 1922.26 1711.3 1923.41 1707.21 1924.2C1707.18 1924.2 1707.14 1924.21 1707.1 1924.22C1677.49 1929.88 1644.8 1916.84 1644.8 1916.84L1630.01 1439.52C1673.57 1466.9 1786.73 1446.86 1832.09 1437.3C1833.39 1437.03 1834.63 1436.76 1835.82 1436.51C1845.55 1434.41 1851.31 1432.98 1851.31 1432.98C1851.31 1432.98 1851.33 1433.21 1851.37 1433.65V1433.65C1851.5 1434.9 1851.79 1437.87 1852.22 1442.2C1855.52 1475.54 1866.94 1589.99 1872.08 1630.2C1874.96 1652.78 1880.92 1668.27 1885.45 1680.35C1890.41 1693.57 1893.65 1702.71 1889.25 1712.59C1880.84 1731.49 1893.89 1733.55 1900.17 1776.69C1906.45 1819.84 1910.68 1923.66 1910.68 1923.66Z" fill="#1FB5A3"/>
<path d="M1765.88 1076.29C1765.68 1076.17 1765.48 1076.05 1765.29 1075.92C1765.04 1075.77 1764.8 1075.62 1764.56 1075.46C1764.08 1075.15 1763.6 1074.83 1763.13 1074.5C1762.9 1074.34 1762.66 1074.17 1762.43 1074.01C1761.17 1073.11 1759.96 1072.18 1758.81 1071.22C1758.6 1071.05 1758.39 1070.88 1758.18 1070.71C1757.4 1070.05 1756.64 1069.38 1755.9 1068.71C1755.53 1068.37 1755.17 1068.03 1754.81 1067.7C1754.48 1067.38 1754.14 1067.06 1753.82 1066.74C1753.37 1066.31 1752.94 1065.87 1752.52 1065.45C1752.31 1065.23 1752.1 1065.02 1751.89 1064.8C1751.69 1064.59 1751.49 1064.38 1751.29 1064.17C1750.38 1063.2 1749.53 1062.26 1748.76 1061.38C1748.53 1061.12 1748.31 1060.86 1748.09 1060.61C1747.52 1059.94 1747 1059.31 1746.53 1058.72C1745.74 1057.75 1745.09 1056.91 1744.61 1056.25C1744.32 1055.87 1744.11 1055.57 1743.93 1055.32C1744.46 1054.73 1744.98 1054.11 1745.46 1053.47C1746.56 1052.03 1747.5 1050.52 1748.05 1049.05C1754.23 1032.8 1750.35 1004.33 1751.19 1000.16C1752.58 993.268 1740.66 954.703 1700.35 950.146C1660.17 945.609 1626.12 982.085 1665.99 1035.4C1666.27 1035.78 1666.52 1036.18 1666.74 1036.6C1668.63 1040.25 1677.38 1061.69 1693.64 1071.75C1691.78 1075.63 1689.57 1079.43 1688.28 1081.57L1728.64 1125.53L1763.32 1081.23L1766.77 1076.82C1766.47 1076.65 1766.17 1076.47 1765.88 1076.29Z" fill="#FEAA8E"/>
<path d="M1728.2 945.74C1713.1 936.778 1640.08 938.799 1635.46 962.49C1633.26 973.794 1638.47 980.349 1644.52 984.116C1642.32 996.705 1651.65 1015.24 1656.07 1023.04C1650.53 1012.12 1652.17 990.783 1652.44 987.639C1656.06 988.746 1658.79 989.023 1658.79 989.023C1681.11 996.269 1712.49 980.998 1720.14 987.546C1727.8 994.094 1719.33 1000.01 1727.21 1010.69C1735.08 1021.37 1738.81 1008.77 1738.81 1008.77C1738.81 1008.77 1728.9 987.138 1739.19 988.039C1749.47 988.941 1749.74 1022.07 1749.74 1022.07C1759.61 987.086 1743.29 954.704 1728.2 945.74Z" fill="#055075"/>
<path d="M1657.12 1024.86C1658.49 1027.16 1658.84 1027.52 1657.12 1024.86V1024.86Z" fill="black"/>
<path d="M1657 1024.66C1657.04 1024.73 1657.08 1024.79 1657.12 1024.86C1656.82 1024.35 1656.46 1023.74 1656.07 1023.04C1656.14 1023.18 1656.21 1023.31 1656.28 1023.44C1656.51 1023.87 1656.74 1024.28 1657 1024.66Z" fill="black"/>
<path d="M1699.85 1946.62C1699.85 1946.62 1694.13 1950.95 1685.82 1953.15C1677.22 1950.55 1677.14 1946.83 1671.61 1946.54C1667.58 1946.33 1664.68 1950.79 1663.26 1953.57C1654.6 1956.5 1628.9 1965.21 1623.9 1967.26C1618.1 1969.63 1613.08 1977.74 1632.73 1977.05C1636.81 1976.91 1681.21 1981.14 1703.32 1977.51C1706.32 1977.01 1708.63 1974.73 1709.02 1971.88C1709.91 1965.3 1709.9 1953.31 1699.85 1946.62Z" fill="#055075"/>
<path d="M1907.13 1252.15C1904.14 1255.05 1900.52 1257.28 1896.55 1258.98C1876.21 1267.67 1845.92 1262.36 1835.66 1260.12C1833.98 1259.78 1832.84 1259.51 1832.36 1259.38C1832.18 1259.34 1832.09 1259.32 1832.09 1259.32C1831.29 1263.02 1831.14 1268.88 1831.46 1276.24C1832.27 1294.02 1835.94 1320.63 1840.19 1346.81C1840.51 1348.77 1840.83 1350.74 1841.15 1352.7C1846.07 1382.33 1851.52 1410.54 1854.16 1423.85C1854.5 1425.57 1854.43 1427.29 1853.99 1428.9C1853.52 1430.65 1852.62 1432.28 1851.37 1433.65C1850.35 1434.75 1849.1 1435.68 1847.65 1436.36C1846.94 1436.7 1846.21 1437.02 1845.46 1437.35C1842.57 1438.61 1839.43 1439.8 1836.06 1440.93C1812.11 1448.95 1776.93 1453.68 1742.39 1455.37C1684.51 1458.21 1628.43 1452.52 1630 1439.51C1632.81 1416.18 1599.17 1239.03 1593.17 1216.6C1587.16 1194.19 1595.93 1143.54 1617.88 1118.43C1634.51 1099.38 1665.9 1087.44 1680.08 1082.79C1684.6 1081.32 1687.36 1080.57 1687.36 1080.57L1688.28 1081.57L1728.64 1125.53L1766.76 1076.82L1768.13 1075.07C1771.28 1074.61 1774.93 1074.72 1778.94 1075.29C1810.71 1079.84 1865.41 1113.56 1876.28 1127.61C1885.03 1138.91 1897.01 1197.53 1903.14 1230.16C1905.61 1243.25 1907.13 1252.15 1907.13 1252.15Z" fill="url(#paint24_linear_40_572)"/>
<path d="M1854.16 1423.85C1851.52 1410.54 1846.07 1382.33 1841.15 1352.7C1840.83 1350.74 1840.51 1348.77 1840.19 1346.81C1835.94 1320.63 1832.27 1294.02 1831.46 1276.24C1831.14 1268.88 1831.29 1263.02 1832.09 1259.32C1832.09 1259.32 1832.18 1259.34 1832.36 1259.38L1828.22 1249.43C1828.22 1249.43 1824.77 1301.86 1827.81 1349.5C1797.03 1355.55 1754.02 1359.77 1729.85 1357.65C1728.26 1357.51 1726.74 1357.37 1725.27 1357.22L1734.51 1378.71L1626.88 1398.75L1744.35 1381.94L1734.51 1360.53C1734.51 1360.53 1781.05 1365.81 1828.25 1355.82C1829.58 1373.04 1831.83 1389.27 1835.49 1401.74C1839.81 1416.45 1843.05 1428.17 1845.46 1437.35C1846.21 1437.02 1846.95 1436.69 1847.66 1436.36C1852.55 1434.06 1855.17 1428.93 1854.16 1423.85Z" fill="#1AC1AD"/>
<path d="M1715.15 1333.41L1652.71 1198.96L1618.93 1207.56C1619.06 1206.58 1618.99 1205.55 1618.69 1204.54C1617.48 1200.53 1613.01 1198.18 1608.76 1199.32L1595.3 1202.94C1594.84 1198.98 1591.42 1195.8 1587.07 1195.57C1582.24 1195.32 1578.1 1198.82 1577.84 1203.39C1577.76 1204.82 1578.07 1206.19 1578.68 1207.4L1570.82 1209.51C1566.57 1210.65 1564.08 1214.87 1565.29 1218.88C1565.52 1219.64 1565.86 1220.33 1566.29 1220.96L1535.4 1228.82L1616.11 1401.51L1734.48 1378.61L1715.15 1333.41Z" fill="#055075"/>
<path d="M1896.55 1258.98C1890.27 1276.96 1876.72 1314.49 1867.51 1331.15C1866.46 1333.04 1865.46 1334.67 1864.54 1335.96C1863.86 1336.92 1863.23 1337.69 1862.64 1338.26C1859.72 1341.08 1851.45 1344.05 1840.19 1346.81C1809.74 1354.21 1757.48 1360.07 1729.85 1357.65C1728.26 1357.51 1726.74 1357.37 1725.27 1357.22C1691.9 1353.83 1690.95 1348.27 1692.95 1337.79C1694.05 1332.02 1707.3 1333.21 1715.14 1333.42C1712.23 1331 1704.64 1324.97 1711.32 1323.55C1718.89 1321.93 1725.68 1328.44 1734.2 1333.02C1748.96 1328.7 1814.04 1306.03 1820.96 1300.19C1824.7 1297.04 1828.52 1286.35 1831.46 1276.24C1833.27 1270.07 1834.73 1264.09 1835.66 1260.13C1838.37 1260.72 1842.48 1261.52 1847.43 1262.23C1847.44 1262.23 1847.45 1262.23 1847.47 1262.23C1861.27 1264.19 1881.6 1265.37 1896.55 1258.98Z" fill="#FEAA8E"/>
<path d="M1742.65 1514.52C1742.59 1514.62 1742.53 1514.73 1742.47 1514.84C1742.58 1514.58 1742.63 1514.45 1742.63 1514.45L1742.65 1514.52Z" fill="#1C9987"/>
<path d="M1745.24 1522.88L1742.71 1514.4C1742.69 1514.44 1742.67 1514.48 1742.65 1514.52C1742.59 1514.62 1742.53 1514.73 1742.47 1514.84C1741.06 1517.47 1739.81 1521.09 1738.72 1525.51C1738.72 1525.51 1738.72 1525.52 1738.72 1525.53C1729.96 1560.96 1730.99 1647.02 1732.08 1672.71C1733.33 1701.78 1728.84 1754.04 1728.04 1767.81C1727.57 1775.92 1730.22 1782.75 1731.4 1790.05C1732.23 1795.15 1732.35 1800.46 1730.19 1806.59C1729.51 1808.51 1728.88 1811.81 1728.28 1816.1C1724.22 1845.12 1721.8 1919.61 1719.19 1920.68C1715.32 1922.26 1711.3 1923.41 1707.21 1924.2C1707.18 1924.21 1707.14 1924.21 1707.1 1924.22C1707.11 1924.18 1707.12 1924.14 1707.12 1924.1C1716.11 1869.57 1714.82 1745.94 1716.11 1624.74C1717.39 1503.54 1740.5 1496.27 1740.5 1496.27L1745.24 1522.88Z" fill="#1C9987"/>
<path d="M1732.87 1068.01C1733.14 1067.91 1733.41 1067.81 1733.66 1067.71C1733.27 1067.86 1732.99 1067.96 1732.87 1068.01Z" fill="#FEAA8E"/>
<path d="M1766.77 1076.82L1763.32 1081.23C1762.21 1080.72 1761.16 1079.85 1760.18 1078.54C1756.62 1073.76 1752.67 1070.3 1749.37 1067.92C1745.86 1065.4 1741.36 1064.42 1737.03 1065.2C1735.58 1065.46 1733.98 1065.71 1732.33 1065.96C1735.5 1063.1 1737.93 1060.76 1737.93 1060.76C1739.61 1059.68 1742.96 1056.76 1745.46 1053.47C1745.87 1055.69 1746.33 1058.48 1746.93 1059.21C1746.97 1059.26 1747.01 1059.31 1747.06 1059.37C1747.18 1059.52 1747.31 1059.68 1747.44 1059.84C1747.65 1060.09 1747.87 1060.34 1748.09 1060.61C1748.31 1060.86 1748.53 1061.12 1748.76 1061.38C1749.53 1062.26 1750.38 1063.2 1751.29 1064.17C1751.49 1064.38 1751.69 1064.59 1751.89 1064.8C1752.1 1065.02 1752.31 1065.23 1752.52 1065.45C1752.94 1065.88 1753.38 1066.31 1753.82 1066.74C1754.14 1067.06 1754.48 1067.38 1754.81 1067.7C1755.17 1068.04 1755.53 1068.38 1755.9 1068.71C1756.64 1069.38 1757.4 1070.05 1758.18 1070.71C1758.39 1070.88 1758.59 1071.06 1758.81 1071.23C1759.97 1072.18 1761.17 1073.11 1762.43 1074.01C1762.66 1074.18 1762.89 1074.34 1763.13 1074.5C1763.6 1074.83 1764.08 1075.15 1764.56 1075.46C1764.8 1075.62 1765.04 1075.78 1765.29 1075.93C1765.49 1076.05 1765.68 1076.17 1765.88 1076.29C1766.17 1076.47 1766.47 1076.65 1766.77 1076.82Z" fill="#D68E7B"/>
<path d="M1778.95 1075.29L1728.94 1137.52L1680.08 1082.79C1684.6 1081.32 1687.37 1080.57 1687.37 1080.57L1688.28 1081.57L1728.64 1125.53L1766.77 1076.82L1768.14 1075.07C1771.28 1074.61 1774.93 1074.72 1778.95 1075.29Z" fill="#1AC1AD"/>
<path d="M1832.07 1260.34C1799.97 1184.39 1814.95 1176.31 1814.95 1176.31C1822.07 1188.82 1826.65 1214.63 1829.27 1234.36C1830.66 1244.85 1831.49 1253.61 1831.85 1257.76C1832 1259.42 1832.07 1260.34 1832.07 1260.34Z" fill="#1C9987"/>
<path d="M1907.13 1252.15C1904.14 1255.05 1900.52 1257.28 1896.55 1258.98C1876.21 1267.67 1845.92 1262.36 1835.66 1260.12C1833.38 1259.65 1832.09 1259.32 1832.09 1259.32L1831.85 1257.76C1831.49 1253.61 1830.66 1244.85 1829.27 1234.36C1836.6 1236.25 1880.42 1246.61 1903.15 1230.16C1905.61 1243.25 1907.13 1252.15 1907.13 1252.15Z" fill="#B9FCF7"/>
<path d="M1864.54 1335.96C1871.55 1319.78 1890.62 1267.25 1883.84 1267.61C1878.86 1267.87 1860.1 1264.58 1847.47 1262.23C1861.27 1264.19 1881.6 1265.37 1896.55 1258.99C1889.56 1279.01 1873.54 1323.29 1864.54 1335.96Z" fill="#C98573"/>
<path d="M1900.17 1776.69C1893.88 1733.55 1880.84 1731.49 1889.25 1712.59C1893.64 1702.71 1890.4 1693.57 1885.45 1680.35C1880.92 1668.27 1874.95 1652.78 1872.07 1630.2C1866.93 1590 1855.52 1475.54 1852.21 1442.2L1852.22 1442.2C1851.95 1439.5 1851.73 1437.34 1851.58 1435.78C1851.49 1434.84 1851.42 1434.12 1851.37 1433.65C1850.35 1434.75 1849.1 1435.68 1847.65 1436.36C1846.94 1436.69 1846.21 1437.02 1845.46 1437.35C1842.57 1438.61 1839.43 1439.8 1836.07 1440.92C1812.11 1448.95 1776.93 1453.68 1742.39 1455.37C1758.05 1457.22 1788.1 1457.6 1836.37 1446.24C1839.15 1494.18 1847.69 1638.71 1850.89 1659.89C1854.74 1685.34 1870.15 1690.19 1868.86 1708.37C1867.58 1726.55 1877.85 1738.67 1880.42 1776.24C1882.6 1808.11 1887.54 1903.62 1889 1931.89C1896.37 1930.56 1903.87 1928.03 1910.67 1923.66C1910.67 1923.66 1906.45 1819.84 1900.17 1776.69Z" fill="#1C9987"/>
<path d="M1670.14 1037.33C1662.96 1037.33 1657.11 1032.35 1657.11 1026.23C1657.11 1020.11 1662.96 1015.13 1670.14 1015.13C1677.32 1015.13 1683.17 1020.11 1683.17 1026.23C1683.17 1032.35 1677.32 1037.33 1670.14 1037.33ZM1670.14 1017.15C1664.14 1017.15 1659.25 1021.22 1659.25 1026.23C1659.25 1031.24 1664.14 1035.31 1670.14 1035.31C1676.15 1035.31 1681.03 1031.24 1681.03 1026.23C1681.03 1021.22 1676.15 1017.15 1670.14 1017.15Z" fill="#231714"/>
<path d="M1705.66 1032.89C1698.47 1032.89 1692.63 1027.91 1692.63 1021.79C1692.63 1015.66 1698.47 1010.68 1705.66 1010.68C1712.84 1010.68 1718.68 1015.66 1718.68 1021.79C1718.68 1027.91 1712.84 1032.89 1705.66 1032.89ZM1705.66 1012.7C1699.65 1012.7 1694.77 1016.78 1694.77 1021.79C1694.77 1026.79 1699.65 1030.87 1705.66 1030.87C1711.66 1030.87 1716.54 1026.79 1716.54 1021.79C1716.54 1016.78 1711.66 1012.7 1705.66 1012.7Z" fill="#231714"/>
<path d="M1682.5 1023.81L1680.82 1022.57C1681 1022.36 1685.27 1017.36 1694.06 1020.85L1693.22 1022.71C1685.93 1019.81 1682.53 1023.77 1682.5 1023.81Z" fill="#231714"/>
<path d="M1718.39 1019.84L1716.82 1018.46C1719.04 1016.21 1738.7 996.51 1746.01 996.946C1747.04 997.008 1747.87 997.43 1748.43 998.164L1746.69 999.338C1746.57 999.179 1746.36 998.992 1745.87 998.962C1745.82 998.958 1745.76 998.957 1745.7 998.957C1740.76 998.956 1726.72 1011.38 1718.39 1019.84Z" fill="#231714"/>
<path d="M1766.82 1162.73C1764.65 1149.75 1770.57 1132.27 1784.39 1110.77C1794.64 1094.84 1805.66 1082.51 1805.77 1082.39L1807.4 1083.7C1806.96 1084.18 1763.94 1132.52 1768.94 1162.41L1766.82 1162.73Z" fill="#231714"/>
<path d="M1772.45 1187.04C1779.79 1185.91 1784.78 1179.37 1783.59 1172.44C1782.4 1165.5 1775.47 1160.79 1768.13 1161.91C1760.78 1163.04 1755.79 1169.58 1756.98 1176.51C1758.17 1183.45 1765.1 1188.16 1772.45 1187.04Z" fill="#B9FCF7"/>
<path d="M1777.72 1175.7C1777.72 1172.02 1774.56 1169.04 1770.66 1169.04C1766.76 1169.04 1763.6 1172.02 1763.6 1175.7C1763.6 1179.38 1766.76 1182.37 1770.66 1182.37C1774.56 1182.37 1777.72 1179.38 1777.72 1175.7Z" fill="#1AC1AD"/>
<path d="M1683.95 1216.82C1682.93 1215.21 1659.14 1177.13 1666.15 1155.01C1667.94 1149.34 1671.64 1145.19 1677.13 1142.67C1682.64 1140.15 1688.39 1139.97 1694.22 1142.16C1716.83 1150.63 1733.52 1191.58 1734.22 1193.32L1732.22 1194.04C1732.06 1193.62 1715.17 1152.18 1693.43 1144.03C1688.18 1142.07 1683.01 1142.22 1678.06 1144.49C1673.13 1146.75 1669.82 1150.49 1668.2 1155.59C1661.46 1176.87 1685.55 1215.4 1685.79 1215.79L1683.95 1216.82Z" fill="#231714"/>
<path d="M1676.45 1143.89C1676.27 1143.6 1658.56 1114.38 1663.06 1087.87L1665.17 1088.19C1660.79 1113.99 1678.13 1142.59 1678.3 1142.88L1676.45 1143.89Z" fill="#231714"/>
<path d="M1737.5 1193.68C1737.5 1191.67 1735.58 1190.04 1733.22 1190.04C1730.86 1190.04 1728.94 1191.67 1728.94 1193.68C1728.94 1195.69 1730.86 1197.31 1733.22 1197.31C1735.58 1197.31 1737.5 1195.69 1737.5 1193.68Z" fill="#B9FCF7"/>
<path d="M1689.15 1216.3C1689.15 1214.3 1687.23 1212.67 1684.87 1212.67C1682.51 1212.67 1680.59 1214.3 1680.59 1216.3C1680.59 1218.31 1682.51 1219.94 1684.87 1219.94C1687.23 1219.94 1689.15 1218.31 1689.15 1216.3Z" fill="#B9FCF7"/>
<path d="M274.934 2021.55C426.243 2021.55 548.904 2003.63 548.904 1981.53C548.904 1959.43 426.243 1941.51 274.934 1941.51C123.625 1941.51 0.964355 1959.43 0.964355 1981.53C0.964355 2003.63 123.625 2021.55 274.934 2021.55Z" fill="#E6E6E6"/>
<path d="M303.147 1898.9L303.534 1941.64C306.302 1944.57 309.378 1946.25 312.467 1947.13C322.592 1949.99 332.857 1944.07 332.857 1944.07L342.976 1902.87L303.147 1898.9Z" fill="#FEAA8E"/>
<path d="M365.976 1967.34C362.093 1967.2 319.93 1971.21 298.932 1967.77C296.079 1967.3 293.889 1965.13 293.52 1962.42C293.392 1961.57 293.299 1960.6 293.226 1959.57C292.859 1953.12 294 1943.9 302.225 1938.42C302.225 1938.42 307.654 1942.54 315.549 1944.63C323.72 1942.18 323.795 1938.63 329.058 1938.35C332.388 1938.18 334.909 1941.38 336.401 1943.95C336.604 1944.33 336.806 1944.7 336.971 1945.03C342.142 1946.77 353.682 1950.69 362.736 1953.84C368.109 1955.71 372.6 1957.31 374.367 1958.04C375.968 1958.69 377.514 1959.81 378.416 1961.05C380.663 1964.07 379.209 1967.81 365.976 1967.34Z" fill="#193070"/>
<path d="M209.289 1907.58L208.583 1946.35C210.991 1949.54 213.851 1951.54 216.818 1952.73C226.546 1956.63 237.442 1951.82 237.442 1951.82L247.935 1904.11L209.289 1907.58Z" fill="#FEAA8E"/>
<path d="M273.591 1976.06C272.395 1979.94 267.665 1983.44 257.138 1981.97C253.291 1981.43 220.551 1977.49 200.087 1971.87C198.339 1971.39 198.063 1968.07 198.56 1964.38C198.855 1962.21 199.407 1959.9 200.087 1957.97C202.204 1951.99 200.676 1953.11 207.651 1943.01C207.651 1943.01 212.583 1947.67 220.184 1950.57C228.577 1948.97 229.074 1945.46 234.337 1945.74C237.742 1945.93 239.914 1949.56 241.072 1952.29C241.201 1952.62 241.311 1952.92 241.422 1953.21C247.476 1955.99 249.335 1955.73 259.532 1961.53C262.587 1963.27 266.378 1965.57 271.255 1968.64C273.406 1970 274.51 1973.12 273.591 1976.06Z" fill="#193070"/>
<path d="M390.619 1637.26L353.076 1906.21C353.076 1906.21 322.82 1919.1 299.595 1911.32C296.061 1910.14 292.712 1908.49 289.62 1906.21L311.612 1662.94L285.553 1467.92C294.001 1468.44 302.576 1468.42 311.098 1467.76C318.073 1467.2 325.03 1466.21 331.858 1464.7C344.39 1461.97 356.463 1457.49 367.487 1450.84C372.199 1448 379.836 1442.81 384.915 1437.25L386.258 1484.49L390.619 1637.26Z" fill="#1FB5A3"/>
<path d="M337.119 1642.17C331.23 1664.38 307.38 1850.02 299.595 1911.32C296.061 1910.14 292.711 1908.49 289.62 1906.21L311.612 1662.94L310.618 1655.48C310.618 1655.48 310.618 1655.48 310.618 1655.47C314.318 1636.51 317.078 1622.78 318.293 1617.74C322.581 1599.9 316.011 1519.71 311.096 1467.76C318.071 1467.2 325.029 1466.21 331.856 1464.7C335.795 1519.78 342.235 1622.83 337.119 1642.17Z" fill="#1C9987"/>
<path d="M318.293 1617.74C317.078 1622.78 314.318 1636.51 310.619 1655.47C310.619 1655.48 310.619 1655.48 310.619 1655.48C294.59 1737.7 261.132 1918.43 261.132 1918.43C261.132 1918.43 211.921 1930.64 193.793 1908.66L207.89 1797.2C207.89 1797.2 207.89 1797.2 207.89 1797.18L208.073 1795.72V1795.7L213.447 1753.17L224.857 1662.94C224.857 1662.94 206.749 1572.05 202.295 1539.26C201.982 1536.98 201.743 1535 201.577 1533.34C200.122 1518.95 196.626 1489.92 197.749 1462.46C197.988 1456.21 198.467 1450.04 199.277 1444.15C217.681 1454.83 250.586 1465.83 285.553 1467.92C287.265 1468.02 288.995 1468.11 290.724 1468.16C291.405 1468.2 292.104 1468.21 292.786 1468.23H293.264C293.411 1468.25 293.558 1468.25 293.707 1468.25C294.829 1468.27 295.97 1468.28 297.112 1468.28C299.596 1468.3 302.061 1468.25 304.528 1468.14C306.718 1468.06 308.908 1467.94 311.098 1467.76C316.01 1519.71 322.581 1599.9 318.293 1617.74Z" fill="#1FB5A3"/>
<path d="M384.905 1437.25C379.822 1442.82 372.21 1448 367.507 1450.83C356.443 1457.5 344.372 1461.96 331.84 1464.71C325.017 1466.23 318.085 1467.2 311.098 1467.77C305.036 1468.23 299.028 1468.36 292.992 1468.23C290.492 1468.18 288.017 1468.07 285.571 1467.92C250.583 1465.82 217.69 1454.83 199.258 1444.15C191.863 1439.84 186.753 1435.58 184.932 1431.99C184.253 1430.73 183.98 1429.55 184.143 1428.5C184.605 1425.49 185.041 1422.49 185.421 1419.46C190.559 1381.99 192.76 1341.28 193.875 1302.96V1302.94C194.365 1285.23 194.61 1268.01 194.799 1251.86C195.07 1228.25 195.206 1206.84 195.723 1189.36C196.131 1175.17 196.812 1163.57 198.062 1155.46C204.232 1114.6 230.521 1088.32 230.521 1088.32C230.548 1088.29 230.602 1088.27 230.63 1088.24C232.669 1086.67 235.006 1085.36 237.508 1084.31C250.529 1078.77 269.015 1079.49 280.841 1080.8C288.017 1081.57 294.923 1083.77 301.012 1087.29C301.339 1087.47 301.691 1087.67 302.073 1087.93C303.243 1088.65 304.384 1089.42 305.499 1090.24C338.094 1097.27 355.329 1164.47 360.466 1188.44C361.608 1193.68 362.178 1196.86 362.178 1196.86C361.58 1201.79 359.052 1205.61 355.354 1208.66C354.268 1209.56 353.044 1210.38 351.74 1211.15C349.565 1212.44 347.09 1213.52 344.536 1214.41C344.291 1217.49 343.884 1220.24 343.422 1222.63C342.633 1226.5 342.47 1231.33 342.879 1237.15C344.455 1260.59 355.086 1299.75 370.199 1354.24C376.126 1375.65 382.76 1399.41 389.799 1425.54C390.805 1429.19 388.494 1433.3 384.905 1437.25Z" fill="url(#paint25_linear_40_572)"/>
<path d="M290.527 1052.29H290.502C286.27 1059.62 280.003 1064.52 271.853 1066.62C271.879 1066.79 271.879 1066.99 271.932 1067.16C271.932 1067.24 271.932 1067.31 271.957 1067.38C273.419 1076.51 286.583 1087.46 286.583 1087.46C286.061 1088.74 285.147 1089.85 283.945 1090.83C283.841 1090.93 283.736 1091.03 283.632 1091.1C283.501 1091.2 283.344 1091.33 283.188 1091.43C270.233 1100.67 229.541 1097.89 229.541 1097.89C230.899 1092.71 234.712 1072.51 234.712 1072.51C207.889 1057.99 181.928 1021.57 200.602 984.358C214.627 956.444 233.485 947.271 248.45 945.028C261.534 943.08 274.541 949.121 280.992 960.021C287.574 971.142 292.563 988.107 295.331 1005.1C298.624 1025.24 296.822 1041.42 290.527 1052.29Z" fill="#FEAA8E"/>
<path d="M289.772 1494.48L398.171 1412.7L382.54 1387.18C383.469 1387.06 384.387 1386.77 385.239 1386.29C388.625 1384.38 389.743 1380.21 387.722 1377.01L381.322 1366.88C384.831 1365.6 386.949 1362.08 386.153 1358.49C385.267 1354.5 381.124 1351.94 376.895 1352.78C375.566 1353.04 374.388 1353.61 373.424 1354.39L369.688 1348.47C367.668 1345.28 363.243 1344.22 359.857 1346.13C359.22 1346.49 358.664 1346.93 358.193 1347.43L343.9 1324.09L204.789 1429.54L252.947 1520.62L289.772 1494.48Z" fill="#055075"/>
<path d="M335.537 1481.27C319.766 1498.65 296.116 1450 296.116 1450V1449.98C296.116 1449.98 295.877 1449.7 295.455 1449.16C289.105 1441.46 239.931 1381.24 228.374 1352.59C219.522 1330.66 208.315 1289.36 202.628 1267.57C206.566 1268.37 211.737 1269.29 217.48 1269.95C230.804 1271.5 247.219 1271.72 258.538 1266.13C260.746 1289.24 263.709 1317.98 265.476 1326.32C267.427 1335.54 306.093 1407.39 307.067 1411.8C314.466 1425.77 319.876 1435.8 320.023 1436.08C326.299 1438.28 336.016 1442.5 338.445 1448.26C340.174 1452.34 336.2 1452.96 331.508 1452.48C338.611 1463.36 342.714 1473.38 335.537 1481.27Z" fill="#FEAA8E"/>
<path d="M295.455 1449.16C289.105 1441.46 239.931 1381.24 228.374 1352.59C219.522 1330.66 208.315 1289.36 202.628 1267.57C206.566 1268.37 211.737 1269.29 217.48 1269.95C219.283 1284.74 226.019 1334.99 235.387 1352.69C246.43 1373.54 292.437 1437.83 296.118 1448.26C296.447 1449.18 296.191 1449.46 295.455 1449.16Z" fill="#E09282"/>
<path d="M289.813 984.368C286.224 972.536 268.553 972.921 256.837 974.59C246.997 975.975 240.335 984.779 242.129 994.019C245.011 1008.96 256.781 1026.05 243.543 1033.21C224.486 1043.48 232.642 1004.93 216.304 1025.49C210.132 1033.31 221.687 1040.94 234.165 1054.05C239.738 1059.93 236.502 1078.18 230.63 1088.24C230.603 1088.27 230.548 1088.29 230.521 1088.32C230.521 1088.32 204.233 1114.6 198.062 1155.46C196.812 1163.57 196.131 1175.17 195.723 1189.37C192.733 1200.99 190.069 1214.83 189.879 1231.69C189.742 1243.78 176.287 1252.02 164.814 1246.65C164.732 1246.6 164.651 1246.58 164.597 1246.52C115.583 1223.4 106.095 1199.14 123.737 1164.29C153.696 1105.18 170.034 1110.31 156.414 1043.48C142.793 976.643 210.865 914.967 268.035 922.668C325.208 930.391 295.25 1002.36 289.813 984.368Z" fill="#043D59"/>
<path d="M283.946 1090.83C285.148 1089.85 286.062 1088.74 286.585 1087.46C286.585 1087.46 273.421 1076.51 271.958 1067.38C271.906 1067.14 271.88 1066.87 271.854 1066.62C280.003 1064.52 286.271 1059.62 290.503 1052.29H290.528C290.528 1052.29 290.634 1053.01 290.79 1054.22C291.729 1061.29 294.105 1085.66 283.946 1090.83Z" fill="#043D59"/>
<path d="M370.187 1354.24C355.091 1299.74 344.462 1260.59 342.868 1237.16C342.477 1231.34 342.634 1226.51 343.417 1222.64C343.886 1220.24 344.278 1217.48 344.54 1214.42C347.1 1213.51 349.554 1212.43 351.748 1211.14C358.356 1238.86 367.602 1278.59 369.248 1290.99C370.579 1301.07 370.553 1329.16 370.187 1354.24Z" fill="#FEAA8E"/>
<path d="M270.516 1262.68C270.314 1269.37 270.019 1273.38 270.019 1273.38C267.848 1279.19 263.616 1283.18 258.204 1285.86C245.395 1292.18 226.053 1291.07 212.048 1289C208.349 1288.46 205.018 1287.85 202.295 1287.3C197.529 1286.34 194.565 1285.54 194.565 1285.54C193.516 1278.58 192.595 1271.9 191.805 1265.51C176.162 1138.36 211.975 1126.28 211.975 1126.28C214.902 1125.8 217.681 1125.6 220.312 1125.71C270.609 1127.32 271.584 1229 270.516 1262.68Z" fill="url(#paint26_linear_40_572)"/>
<path d="M286.583 1087.46C286.061 1088.74 285.147 1089.85 283.945 1090.83C283.841 1090.93 283.736 1091.03 283.632 1091.11C283.501 1091.2 283.344 1091.33 283.187 1091.43C283.16 1091.38 283.109 1091.33 283.057 1091.26C275.222 1081.39 243.879 1069.06 254.327 1071.53C262.972 1073.58 269.814 1068.87 271.93 1067.16C271.93 1067.24 271.93 1067.31 271.956 1067.39C273.421 1076.51 286.583 1087.46 286.583 1087.46Z" fill="#E59883"/>
<defs>
<linearGradient id="paint0_linear_40_572" x1="1634.48" y1="821.109" x2="2025.16" y2="739.194" gradientUnits="userSpaceOnUse">
<stop stop-color="#7BD89A"/>
<stop offset="0.1764" stop-color="#7FDFA3"/>
<stop offset="1" stop-color="#8FFFC9"/>
</linearGradient>
<linearGradient id="paint1_linear_40_572" x1="1734.52" y1="983.356" x2="1985.61" y2="1075.46" gradientUnits="userSpaceOnUse">
<stop stop-color="#E29925"/>
<stop offset="1" stop-color="#FBFA9F"/>
</linearGradient>
<linearGradient id="paint2_linear_40_572" x1="786.062" y1="1116.81" x2="422.144" y2="1009.64" gradientUnits="userSpaceOnUse">
<stop stop-color="#E29925"/>
<stop offset="1" stop-color="#FBFA9F"/>
</linearGradient>
<linearGradient id="paint3_linear_40_572" x1="557.28" y1="1584.56" x2="562.985" y2="995.367" gradientUnits="userSpaceOnUse">
<stop stop-color="#8CAAEA"/>
<stop offset="1" stop-color="#D7E0F2"/>
</linearGradient>
<linearGradient id="paint4_linear_40_572" x1="1231.92" y1="1592.2" x2="1228.63" y2="19.4388" gradientUnits="userSpaceOnUse">
<stop stop-color="#233D72"/>
<stop offset="1" stop-color="#85A5F1"/>
</linearGradient>
<linearGradient id="paint5_linear_40_572" x1="793.108" y1="463.813" x2="1756.61" y2="463.813" gradientUnits="userSpaceOnUse">
<stop stop-color="#E1E7FE"/>
<stop offset="1" stop-color="#B1CFDD"/>
</linearGradient>
<linearGradient id="paint6_linear_40_572" x1="719.581" y1="1114.13" x2="1705.69" y2="1114.13" gradientUnits="userSpaceOnUse">
<stop stop-color="#E1E7FE"/>
<stop offset="1" stop-color="#B1CFDD"/>
</linearGradient>
<linearGradient id="paint7_linear_40_572" x1="1000.22" y1="357.195" x2="1166.72" y2="374.296" gradientUnits="userSpaceOnUse">
<stop stop-color="#233D72"/>
<stop offset="1" stop-color="#85A5F1"/>
</linearGradient>
<linearGradient id="paint8_linear_40_572" x1="1017.43" y1="679.14" x2="1017.43" y2="355.43" gradientUnits="userSpaceOnUse">
<stop stop-color="#233D72"/>
<stop offset="1" stop-color="#85A5F1"/>
</linearGradient>
<linearGradient id="paint9_linear_40_572" x1="1013.65" y1="627.18" x2="1013.65" y2="368.155" gradientUnits="userSpaceOnUse">
<stop stop-color="#7189BD"/>
<stop offset="1" stop-color="#8CAAEA"/>
</linearGradient>
<linearGradient id="paint10_linear_40_572" x1="1131.64" y1="427.351" x2="1131.64" y2="336.247" gradientUnits="userSpaceOnUse">
<stop stop-color="#7189BD"/>
<stop offset="1" stop-color="#8CAAEA"/>
</linearGradient>
<linearGradient id="paint11_linear_40_572" x1="993.679" y1="387.447" x2="993.679" y2="244.521" gradientUnits="userSpaceOnUse">
<stop stop-color="#7189BD"/>
<stop offset="1" stop-color="#8CAAEA"/>
</linearGradient>
<linearGradient id="paint12_linear_40_572" x1="1140.33" y1="297.815" x2="1198.22" y2="303.761" gradientUnits="userSpaceOnUse">
<stop stop-color="#233D72"/>
<stop offset="1" stop-color="#85A5F1"/>
</linearGradient>
<linearGradient id="paint13_linear_40_572" x1="1093.93" y1="280.759" x2="1129.47" y2="284.41" gradientUnits="userSpaceOnUse">
<stop stop-color="#233D72"/>
<stop offset="1" stop-color="#85A5F1"/>
</linearGradient>
<linearGradient id="paint14_linear_40_572" x1="2353.26" y1="311.617" x2="1833.92" y2="311.617" gradientUnits="userSpaceOnUse">
<stop stop-color="#E29925"/>
<stop offset="1" stop-color="#FBFA9F"/>
</linearGradient>
<linearGradient id="paint15_linear_40_572" x1="2427.63" y1="1457.98" x2="1911.76" y2="1457.98" gradientUnits="userSpaceOnUse">
<stop stop-color="#D7E0F2"/>
<stop offset="1" stop-color="#8CAAEA"/>
</linearGradient>
<linearGradient id="paint16_linear_40_572" x1="58.2935" y1="492.36" x2="676.996" y2="492.36" gradientUnits="userSpaceOnUse">
<stop stop-color="#7BD89A"/>
<stop offset="0.2724" stop-color="#7DDC9F"/>
<stop offset="0.6139" stop-color="#84E9AF"/>
<stop offset="0.9909" stop-color="#8FFEC8"/>
<stop offset="1" stop-color="#8FFFC9"/>
</linearGradient>
<linearGradient id="paint17_linear_40_572" x1="944.269" y1="2009.8" x2="944.269" y2="1880.46" gradientUnits="userSpaceOnUse">
<stop stop-color="#85A5F1"/>
<stop offset="1" stop-color="#233D72"/>
</linearGradient>
<linearGradient id="paint18_linear_40_572" x1="1127.48" y1="1923.14" x2="1750.24" y2="1923.34" gradientUnits="userSpaceOnUse">
<stop stop-color="#D7E0F2"/>
<stop offset="1" stop-color="#8CAAEA"/>
</linearGradient>
<linearGradient id="paint19_linear_40_572" x1="827.594" y1="1360" x2="1325.2" y2="1360.15" gradientUnits="userSpaceOnUse">
<stop stop-color="#5670B2"/>
<stop offset="1" stop-color="#44588C"/>
</linearGradient>
<linearGradient id="paint20_linear_40_572" x1="1214.54" y1="1885.17" x2="1214.54" y2="1336.24" gradientUnits="userSpaceOnUse">
<stop stop-color="#7799EC"/>
<stop offset="1" stop-color="#5D77B8"/>
</linearGradient>
<linearGradient id="paint21_linear_40_572" x1="807.826" y1="1889.7" x2="807.826" y2="1304.09" gradientUnits="userSpaceOnUse">
<stop stop-color="#7799EC"/>
<stop offset="1" stop-color="#5D77B8"/>
</linearGradient>
<linearGradient id="paint22_linear_40_572" x1="787.556" y1="1507.33" x2="907.465" y2="1507.37" gradientUnits="userSpaceOnUse">
<stop stop-color="#5670B2"/>
<stop offset="1" stop-color="#44588C"/>
</linearGradient>
<linearGradient id="paint23_linear_40_572" x1="1195.49" y1="1530.85" x2="1294.99" y2="1530.88" gradientUnits="userSpaceOnUse">
<stop stop-color="#5670B2"/>
<stop offset="1" stop-color="#44588C"/>
</linearGradient>
<linearGradient id="paint24_linear_40_572" x1="1749.23" y1="1444.71" x2="1749.23" y2="1091.08" gradientUnits="userSpaceOnUse">
<stop stop-color="#1AD8C8"/>
<stop offset="0.3226" stop-color="#1BD4C4"/>
<stop offset="0.6651" stop-color="#1CC8B7"/>
<stop offset="1" stop-color="#1FB5A3"/>
</linearGradient>
<linearGradient id="paint25_linear_40_572" x1="184.099" y1="1274.07" x2="390.036" y2="1274.07" gradientUnits="userSpaceOnUse">
<stop stop-color="#1AD8C8"/>
<stop offset="1" stop-color="#1FB5A3"/>
</linearGradient>
<linearGradient id="paint26_linear_40_572" x1="187.851" y1="1208.15" x2="270.732" y2="1208.15" gradientUnits="userSpaceOnUse">
<stop stop-color="#1AD8C8"/>
<stop offset="1" stop-color="#1FB5A3"/>
</linearGradient>
</defs>
</svg>
