<svg width="2178" height="1719" viewBox="0 0 2178 1719" fill="none" xmlns="http://www.w3.org/2000/svg">
<path d="M1141.25 42.0302C1146.3 37.0158 1149.88 32.1019 1153.61 26.2256C1153.87 31.3673 1153.44 37.5151 1156.02 42.1454C1161.07 43.5017 1165.17 37.0824 1169.07 41.783C1168.82 42.2448 1168.57 42.7042 1168.34 43.1696C1166.31 47.1223 1165.39 49.858 1165.01 54.1755C1164.6 58.727 1162.84 62.8954 1160.54 66.8833C1162.08 68.7196 1163.64 70.2845 1165.47 71.876L1164.99 73.4529C1161.8 73.9887 1160.74 73.6068 1157.7 72.7826C1155.09 74.4444 1155.15 74.5523 1154.58 77.5862C1154.24 79.4565 1154.33 81.2649 1154.41 83.1534C1151.24 82.3607 1148.2 81.4855 1144.89 81.3934C1136.13 71.196 1129.64 64.2506 1115.75 60.2191C1118.9 48.7065 1125.06 38.583 1133.73 29.851L1141.25 42.0302Z" fill="#4896FE"/>
<path d="M1231.83 559.495C1235.86 553.017 1241.47 548.702 1249.3 546.557C1258.15 544.134 1268.22 545.817 1276.04 550.2C1283.64 554.456 1289.3 561.453 1290.97 569.589C1292.51 577.15 1290.33 584.662 1285.64 590.934C1281.34 596.682 1274.56 602.603 1266.87 603.935C1257.98 605.476 1247.71 603.546 1240.39 598.591C1233.37 593.836 1229.13 587.489 1228.04 579.507C1227.65 576.601 1227.62 573.838 1227.8 570.918C1228.22 571.344 1228.62 571.781 1229.06 572.195C1232.3 575.298 1234.43 576.842 1239.21 576.5C1243.49 576.195 1248.05 572.56 1250.5 569.545C1253.47 565.869 1256.73 559.424 1255.37 554.743C1254.58 552 1253.15 551.687 1250.65 550.648C1242.52 550.755 1237.66 554.819 1231.83 559.495Z" fill="#4896FE"/>
<path d="M882.213 544.282C887.53 543.996 892.315 544.216 897.421 545.773C906.785 548.634 914.848 554.824 918.909 563.229C922.253 570.145 922.655 577.775 919.534 584.833C915.271 594.471 907.252 598.756 897.368 602.544C890.206 603.348 884.876 603.731 878.085 601.224C869.409 598.021 862.495 591.985 858.989 583.917C855.987 577.006 855.892 569.224 859.134 562.369C863.791 552.521 872.053 548.223 882.213 544.282Z" fill="#4896FE"/>
<path d="M874.114 551.195C879.267 550.831 882.216 551.505 886.287 554.51C887.206 556.654 887.8 557.426 887.594 559.811C886.812 568.874 877.933 575.88 870.766 581.094C869.802 581.353 869.14 581.578 868.086 581.627C864.95 581.772 863.229 580.772 860.804 579.117C859.561 576.475 859.088 574.22 859.405 571.357C860.477 561.674 866.394 556.772 874.114 551.195Z" fill="#E6E7E7"/>
<path d="M1014.68 544.357C1022.87 544.311 1030.33 545.396 1037.34 549.574C1038.22 550.098 1039.07 550.659 1039.89 551.259C1040.72 551.86 1041.51 552.497 1042.26 553.168C1043.02 553.841 1043.73 554.548 1044.41 555.286C1045.09 556.025 1045.73 556.794 1046.33 557.591C1046.92 558.389 1047.48 559.211 1047.99 560.058C1048.5 560.905 1048.96 561.775 1049.37 562.666C1049.79 563.556 1050.16 564.463 1050.48 565.387C1050.8 566.311 1051.07 567.248 1051.29 568.197C1053.11 576.236 1051.38 584.872 1046.16 591.571C1040.09 599.346 1032.34 602.26 1022.46 603.861C1014.47 603.128 1006.73 601.377 999.97 597.16C989.605 590.694 986.839 581.224 984.274 570.642C984.404 570.272 984.531 569.901 984.666 569.532L985.367 567.698C986.165 565.57 986.925 563.412 988.047 561.407C993.712 551.295 1003.36 547.184 1014.68 544.357Z" fill="#4896FE"/>
<path d="M1002.28 551.579C1006.64 551.408 1008.59 551.471 1012.39 553.493C1013.95 556.446 1014.33 557.253 1013.39 560.654C1011.54 567.35 1004.08 572.583 998.284 576.184C993.783 576.465 992.513 576.812 988.395 574.857C986.92 572.053 986.286 570.517 987.331 567.405C989.836 559.953 995.431 555.572 1002.28 551.579Z" fill="#E6E7E7"/>
<path d="M1134.93 545.531C1142.01 545.089 1148.4 544.707 1155.07 547.31C1156.14 547.731 1157.19 548.2 1158.21 548.719C1159.23 549.238 1160.22 549.801 1161.18 550.413C1162.14 551.024 1163.06 551.679 1163.95 552.377C1164.83 553.075 1165.68 553.812 1166.49 554.589C1167.29 555.367 1168.06 556.179 1168.77 557.027C1169.49 557.876 1170.16 558.756 1170.79 559.667C1171.41 560.578 1171.98 561.515 1172.5 562.481C1173.02 563.446 1173.48 564.433 1173.89 565.442C1176.73 572.434 1176.77 580.22 1173.31 587.034C1168.71 596.07 1160.31 600.722 1150.53 604.01C1143.48 604.152 1136.7 604.534 1130.07 601.866C1128.92 601.408 1127.79 600.896 1126.7 600.33C1125.6 599.764 1124.54 599.148 1123.51 598.482C1122.49 597.816 1121.5 597.105 1120.55 596.345C1119.6 595.584 1118.7 594.781 1117.84 593.936C1116.98 593.09 1116.17 592.207 1115.41 591.284C1114.65 590.362 1113.94 589.406 1113.28 588.417C1112.63 587.427 1112.03 586.409 1111.48 585.361C1110.94 584.315 1110.46 583.246 1110.03 582.154C1107.47 575.382 1107.59 567.657 1111.05 561.168C1116.05 551.767 1124.82 548.468 1134.93 545.531Z" fill="#4896FE"/>
<path d="M1123.58 551.511C1128.15 551.56 1130.76 551.668 1134.69 553.932C1136.71 556.814 1137.48 557.697 1136.99 561.32C1136.05 568.27 1128.71 573.443 1123.1 577.117C1118.19 577.425 1114.97 577.939 1110.7 575.567C1109.49 572.924 1108.8 571.86 1109.34 568.934C1110.68 561.712 1117.62 555.691 1123.58 551.511Z" fill="#FEFEFE"/>
<path d="M2039.87 1450.41C2037.19 1442.92 2034.06 1433.97 2038.22 1426.38C2041.73 1419.96 2049.97 1414.25 2055.12 1408.63C2060.27 1403 2059.26 1392.65 2061.39 1385.68C2066.57 1368.78 2088.89 1359.4 2106.05 1357.46C2124.29 1355.4 2143.75 1359.68 2159.52 1368.22C2138.15 1389.92 2119.14 1410.29 2085.01 1411.46C2077.11 1411.73 2069.25 1411.21 2061.82 1408.58C2061.2 1408.36 2060.57 1408.15 2059.95 1407.93C2059.57 1407.79 2059.21 1407.64 2058.84 1407.5C2050.15 1415.77 2040.25 1424.53 2040.44 1437.02C2040.5 1441.29 2041.32 1445.7 2042.17 1449.9L2039.87 1450.41Z" fill="#65D7C2"/>
<path d="M1078.74 297.716L1087.23 296.941C1094.95 316.512 1108.59 333.018 1116.52 352.287C1108.74 347.483 1101.62 340.217 1093.31 336.631C1088.85 351.889 1083.44 421.063 1087.19 433.606C1086.08 437.943 1084.85 441.503 1082.65 445.472L1080.93 446.374C1070.87 432.571 1051.94 376.376 1048.05 358.985L1047.34 357.809C1050.54 354.568 1076.68 304.248 1078.74 297.716Z" fill="#E6E7E7"/>
<path d="M1071.9 340.532C1073.76 346.263 1075.26 351.8 1075.91 357.767C1077.88 376.012 1076.99 394.477 1078.2 412.771C1078.85 422.494 1081.7 432.706 1081.84 442.252C1081.87 443.815 1081.55 444.956 1080.93 446.375C1070.87 432.571 1051.94 376.377 1048.05 358.985C1049.52 358.305 1050.32 357.721 1051.32 356.509C1057.64 348.845 1062.57 344.652 1071.9 340.532Z" fill="#FEFEFE"/>
<path d="M1041.24 1075.79C1012.04 1077.46 982.034 1076.31 952.734 1076.33C932.938 1076.35 911.678 1077.89 892.062 1076.06C888.092 1075.69 883.028 1074.86 879.997 1072.2C876.996 1069.57 876.236 1064.57 876.352 1060.95C876.513 1055.91 878.808 1051.31 883.201 1048.24C888.552 1044.51 1022.97 1046.87 1039.8 1048.36C1040.63 1057.52 1041.11 1066.59 1041.24 1075.79Z" fill="#FCB690"/>
<path d="M719.212 891.092C729.381 881.343 767.193 838.996 777.127 836.801C778.988 839.996 778.296 840.737 777.148 844.24C774.679 851.767 768.816 858.722 764.18 865.255C782.607 857.327 800.357 848.264 820.339 844.233C815.7 847.647 810.953 850.928 806.099 854.075C811.785 852.19 818.465 849.147 824.543 849.376L826.438 850.65C824.961 854.97 820.202 858.172 816.411 860.862C821.961 862.818 827.56 855.378 832.204 861.152C828.748 877.978 799.828 896.518 785.276 905.752C773.33 913.334 759.606 918.506 748.355 926.977C739.105 914.692 729.39 902.73 719.212 891.092Z" fill="#FCB690"/>
<path d="M2020.68 1444.03L2020.75 1448.16C2025.8 1452 2033.69 1449.8 2039.87 1450.41L2042.18 1449.9C2053.34 1450 2101.36 1447.71 2107.21 1453.17C2110.04 1462.54 2110.2 1478.07 2105.61 1486.96C2103.1 1489.21 2101.35 1489.6 2098.08 1490.43L1950.15 1491.03C1946.75 1489.95 1943.18 1487.89 1939.94 1486.37C1939.06 1478.43 1937.11 1463.31 1939.43 1455.81C1943.65 1442.2 2004.83 1456.6 2018.27 1448.59L2019 1444.6L2020.68 1444.03Z" fill="#007CFE"/>
<path d="M326.564 1258.29L343.41 1258.3C338.454 1294.31 331.379 1329.96 325.157 1365.79C316.33 1415.49 308.118 1465.28 300.519 1515.15C297.494 1534.26 293.307 1553.43 290.991 1572.6C286.667 1592.72 276.666 1674.98 269.179 1686.39C263.35 1686.67 258.799 1686.63 253.207 1684.98C254.453 1674.46 257.294 1663.73 259.266 1653.28C264.145 1628.42 268.62 1603.5 272.691 1578.52C284.216 1511.87 295.179 1445.15 305.581 1378.35C312.129 1338.26 319.753 1298.34 326.564 1258.29Z" fill="#4896FE"/>
<path d="M1004.49 152.098C1003.76 136.138 1002.41 119.175 1005.39 103.362C1008.28 88.0335 1017.05 73.847 1031.19 65.1405C1055.78 50 1088.78 54.7891 1115.75 60.2193C1129.65 64.2508 1136.14 71.1962 1144.89 81.3936C1153.88 103.193 1155.7 127.871 1152.44 150.937C1148.6 152.326 1148.24 152.903 1144.39 151.744C1137.56 143.587 1135.81 132.057 1133.17 122.197C1103.06 124.583 1065.14 132.491 1040.14 112.936C1033.6 107.818 1028.55 101.512 1023.2 95.3728C1014 114.644 1019.05 134.902 1012.77 153.144C1009.3 153.799 1007.82 153.063 1004.49 152.098Z" fill="#1A2C34"/>
<path d="M1858.34 1336.87C1891.47 1327.04 1931.4 1319.02 1965.04 1330.79C1992.26 1340.31 2008.15 1357.88 2012.16 1384.83C2013 1390.51 2012.96 1398.46 2015.72 1403.58C2016.05 1404.19 2016.41 1404.78 2016.76 1405.38L2015.27 1406.03C2013.1 1404.52 2011.7 1403.94 2009.05 1403.42C1990.74 1411.21 1969.45 1412.95 1949.79 1409.14C1911.32 1401.7 1878.53 1365.91 1858.34 1336.87Z" fill="#65D7C2"/>
<path d="M1797.58 1253.52C1804.72 1252.11 1812.74 1252.4 1820.04 1252.1L1823.54 1269.11C1832.88 1298.93 1836.58 1331.09 1842.71 1361.63C1857.03 1432.99 1869.84 1504.75 1885.54 1575.84C1888.8 1592.78 1902.92 1652.72 1899.54 1665.83C1897.93 1666.8 1897.55 1667.09 1895.63 1667.88C1892.58 1669.13 1888.6 1669.62 1885.62 1668.05C1871.83 1660.77 1864.56 1587.71 1860.69 1570.07C1848.9 1515.14 1839.76 1459.74 1829.02 1404.63C1819.32 1354.86 1807.93 1305.39 1798.34 1255.59L1797.58 1253.52Z" fill="#97BEFD"/>
<path d="M1797.58 1253.52C1804.72 1252.11 1812.74 1252.4 1820.04 1252.1L1823.54 1269.11C1820.77 1269.84 1803.21 1257.74 1798.34 1255.59L1797.58 1253.52Z" fill="#4896FE"/>
<path d="M713.074 885.34L719.212 891.092C729.39 902.731 739.105 914.693 748.356 926.979C746.595 930.967 744.95 935.223 741.554 938.288C724.666 953.551 702.639 966.11 683.435 978.796C655.02 997.561 626.608 1016.86 598.861 1036.46L599.394 1037.27C579.627 1040.67 556.191 1037.39 535.895 1037.97C528.724 1037.02 521.224 1037.56 513.993 1037.67C517.999 1036.93 520.762 1037.35 523.101 1034.13C521.876 1030.39 521.221 1027.2 521.158 1023.28C521.153 1022.9 521.153 1022.53 521.153 1022.16C535.159 1021.02 550.258 1019.52 563.753 1015.83C573.273 1013.22 582.598 1008.71 587.303 1000.23C590.296 994.826 591.374 988.022 589.32 982.23C586.152 978.734 581.685 977.619 577.23 976.005C578.56 975.385 577.76 975.671 579.967 975.347L581.855 975.083C589.355 970.416 596.671 939.727 598.878 930.919C599.083 934.852 599.184 938.08 600.96 941.749C614.762 939.304 647.067 917.446 661.419 909.855C678.101 901.029 695.441 892.416 713.074 885.34Z" fill="#007CFE"/>
<path d="M1950.15 1491.03L2098.08 1490.43C2092.03 1508.76 2079.05 1580.33 2078.91 1598.99C2078.37 1601.46 2077.95 1602.62 2076.14 1604.51C2064.49 1605.62 2052.48 1605.03 2040.76 1605.06C2018.03 1605.13 1995.26 1605.11 1972.56 1606.33C1970.16 1596.85 1969.08 1586.97 1967.61 1577.32C1963.6 1548.9 1959.25 1518.43 1950.15 1491.03Z" fill="#4896FE"/>
<path d="M2025.02 1366.43C2005.48 1355.18 1995.58 1338.55 1990.31 1318.13C1983.53 1291.83 1988.14 1266.98 2003.53 1243.97C2023.97 1213.41 2059.77 1197.47 2095.08 1185.86C2104.64 1231.84 2118.11 1283.38 2087.65 1325.35C2086.77 1326.55 2085.87 1327.73 2084.94 1328.89C2084.01 1330.05 2083.06 1331.2 2082.08 1332.33C2081.1 1333.45 2080.09 1334.56 2079.06 1335.64C2078.03 1336.73 2076.97 1337.8 2075.89 1338.84C2074.81 1339.89 2073.71 1340.91 2072.58 1341.91C2071.45 1342.91 2070.3 1343.89 2069.13 1344.85C2067.96 1345.8 2066.76 1346.73 2065.55 1347.64C2064.33 1348.55 2063.09 1349.44 2061.84 1350.3C2060.58 1351.16 2059.31 1351.99 2058.01 1352.8C2056.72 1353.62 2055.41 1354.4 2054.08 1355.16C2052.75 1355.92 2051.4 1356.65 2050.04 1357.35C2048.67 1358.06 2047.29 1358.74 2045.9 1359.39C2044.5 1360.04 2043.09 1360.66 2041.67 1361.26C2040.24 1361.86 2038.81 1362.42 2037.36 1362.96C2035.91 1363.5 2034.45 1364.01 2032.97 1364.5C2031.5 1364.98 2030.02 1365.43 2028.52 1365.85C2024.97 1391.64 2025.8 1418.61 2020.68 1444.02L2019 1444.6C2018.42 1435.84 2020.79 1427.53 2020.87 1418.84C2020.92 1412.85 2019.9 1410.26 2015.27 1406.03L2016.76 1405.37L2020.25 1405.71C2024.63 1401.05 2023.92 1374.09 2025.02 1366.43Z" fill="#65D7C2"/>
<path d="M1004.49 152.098C1007.82 153.064 1009.3 153.8 1012.77 153.144C1019.05 134.902 1014 114.644 1023.2 95.3726C1028.55 101.511 1033.6 107.816 1040.14 112.936C1065.14 132.491 1103.06 124.583 1133.16 122.196C1135.81 132.056 1137.56 143.585 1144.39 151.744C1148.24 152.903 1148.6 152.326 1152.44 150.937C1158.58 152.66 1164.2 155.665 1167.29 161.111C1169.94 165.785 1169.62 170.316 1167.86 175.201C1164.9 183.41 1158.72 186.605 1150.9 190.565C1142.72 205.615 1134.81 217.553 1121.19 228.958L1120.47 232.638C1122.86 245.326 1123.87 258.351 1127.12 270.878C1117.01 283.09 1101.53 289.719 1087.23 296.942L1078.74 297.717C1063.75 291.153 1048.85 281.196 1035.77 271.804C1039.19 258.452 1041.93 245.677 1042.25 231.924C1030.35 218.509 1021.09 205.843 1013.15 190.082C1005.07 187.456 997.94 185.146 993.57 177.804C991.131 173.705 990.115 169.463 991.818 164.938C993.97 159.212 998.847 154.86 1004.49 152.098Z" fill="#FCB690"/>
<path d="M1058.63 243.101C1083.29 245.413 1098.48 242.272 1118.48 228.092L1121.19 228.958L1120.46 232.638C1115.07 240.424 1109.33 246.431 1101.97 252.601C1098.37 253.442 1094.57 254.317 1090.87 254.635C1078.1 255.73 1068.16 250.109 1058.63 243.101Z" fill="#F8926F"/>
<path d="M253.206 1684.98C211.248 1686.09 35.973 1666.13 5.73869 1641.55C2.59457 1638.99 -0.138522 1635.59 0.0277162 1631.51C0.173011 1627.99 2.50687 1625.05 5.1549 1622.72C37.6328 1594.1 224.826 1577.1 272.69 1578.52C268.62 1603.5 264.144 1628.42 259.266 1653.28C257.293 1663.73 254.453 1674.46 253.206 1684.98Z" fill="#F2F2F2"/>
<path d="M1597.62 481.631C1603.08 474.813 1608.79 466.894 1618.54 465.334C1636.61 462.442 1650.17 483.846 1664.74 483.413C1673.92 483.141 1678.99 469.923 1692.94 472.087C1696.81 472.688 1700.23 474.392 1703.27 476.641C1712.38 483.379 1717.82 492.786 1722.4 502.47C1736.5 509.958 1754.7 518.952 1759.32 534.672C1761.41 541.781 1760.13 549.677 1756.18 556.048C1753.96 559.637 1751.16 563.08 1748.42 566.345C1754.86 571.804 1758.8 578.017 1759.45 586.25C1759.97 592.782 1756.75 599.338 1752.02 604.057C1747.12 608.954 1740.39 610.7 1733.7 612.597C1732.16 622.451 1730.98 631.663 1721.36 637.792C1717.49 640.256 1712.98 641.444 1708.91 643.508C1708.96 653.237 1706.58 679.018 1714.37 685.99C1715.99 687.437 1718.65 687.836 1720.73 688.3C1713.81 698.262 1702.02 704.979 1690.15 708.97C1673.37 714.615 1654.13 714.314 1638.01 706.843C1629.03 702.682 1622.09 696.282 1619.06 687.375L1620.85 686.793L1621.18 685.156C1621.3 677.134 1621.25 669.114 1621.03 661.094C1614.42 653.178 1606.31 646.528 1600.91 637.787C1600.38 610.022 1603.16 582.638 1605.5 555.023C1589.31 548.202 1580.25 545.501 1573.7 529.307C1569.72 519.479 1562.05 499.405 1568 489.646C1570.7 485.203 1578.48 483.407 1583.49 482.641C1588.13 481.934 1592.92 481.821 1597.62 481.631Z" fill="#030304"/>
<path d="M1605.5 555.024C1605.94 554.923 1606.37 554.829 1606.81 554.721C1636.93 547.252 1622.79 541.345 1657.83 550.208C1662.33 551.345 1668.47 550.797 1672.4 553.035C1675.66 554.891 1677.28 558.574 1677.95 561.939C1680.17 573.006 1676.79 600.585 1686.48 607.866C1686.84 608.137 1687.26 608.33 1687.65 608.563C1700.19 605.878 1701.87 579.923 1722.32 592.047C1722.86 592.358 1723.37 592.694 1723.86 593.056C1724.35 593.417 1724.82 593.804 1725.27 594.213C1725.72 594.62 1726.15 595.049 1726.55 595.499C1726.95 595.947 1727.32 596.415 1727.67 596.902C1728.01 597.388 1728.33 597.889 1728.62 598.405C1728.91 598.922 1729.17 599.451 1729.4 599.994C1729.63 600.537 1729.83 601.09 1729.99 601.651C1730.16 602.212 1730.29 602.78 1730.4 603.356C1730.51 603.965 1730.58 604.577 1730.63 605.194C1730.67 605.81 1730.68 606.427 1730.66 607.045C1730.64 607.663 1730.58 608.278 1730.49 608.891C1730.4 609.502 1730.28 610.108 1730.13 610.711C1729.97 611.311 1729.78 611.902 1729.57 612.485C1729.35 613.068 1729.09 613.64 1728.81 614.201C1728.53 614.763 1728.22 615.307 1727.88 615.837C1727.54 616.367 1727.17 616.883 1726.77 617.38C1723.54 621.367 1719.07 623.435 1713.8 623.971C1710.5 624.306 1707.17 624.487 1703.85 624.67C1702.38 628.665 1703.53 636.351 1705.54 640.207C1706.46 641.97 1707.3 642.337 1708.91 643.513C1708.96 653.242 1706.58 679.022 1714.37 685.994C1715.99 687.442 1718.65 687.841 1720.73 688.305C1713.81 698.267 1702.02 704.983 1690.15 708.975C1673.37 714.62 1654.13 714.319 1638.01 706.848C1629.03 702.686 1622.09 696.286 1619.06 687.38L1620.85 686.798L1621.18 685.161C1621.3 677.139 1621.25 669.118 1621.03 661.099C1614.42 653.183 1606.3 646.533 1600.91 637.791C1600.38 610.023 1603.16 582.639 1605.5 555.024Z" fill="#FCB690"/>
<path d="M1620.29 576C1620.62 576.168 1620.97 576.315 1621.28 576.506C1624.43 578.393 1625.31 580.298 1626.05 583.557C1628.4 593.842 1638.09 586.454 1643.5 591.793C1633.15 602.922 1646.73 601.616 1627.08 615.903C1625.53 617.728 1623.77 619.235 1621.94 620.82L1621.2 620.336C1623.42 615.249 1627.25 611.21 1630.86 606.912C1627.07 602.316 1623.6 597.659 1620.22 592.801L1620.29 576Z" fill="#F8926F"/>
<path d="M1691.06 654.459C1676.43 669.792 1656.91 692.683 1632.82 693.827C1628.71 694.022 1625.26 693.416 1622.22 690.942L1620.85 686.796L1621.18 685.158C1623.01 677.55 1622.47 669.727 1622.4 661.973C1647.9 668.208 1667.5 664.575 1691.06 654.459Z" fill="#F05239"/>
<path d="M1881.47 816.818C1893.78 815.001 1907.3 818.266 1917.33 825.131C1926.79 831.607 1935.18 843.266 1936.98 854.114C1939.18 867.293 1937.67 882.262 1937.62 895.677L1937.56 973.923C1937.81 1025.89 1939.09 1077.82 1938.93 1129.79C1938.87 1151.5 1940.52 1175.23 1937.35 1196.73C1935.65 1208.32 1929.96 1218.91 1922.2 1228.02C1910.74 1241.5 1897.01 1248.57 1878.58 1250.43C1859.29 1252.37 1839.11 1248.97 1820.04 1252.1C1812.74 1252.4 1804.72 1252.11 1797.58 1253.53C1796.85 1252.87 1795.46 1252.34 1794.57 1251.89C1775.56 1251.77 1648.98 1249.94 1641.38 1253.15C1634.56 1250.87 1624.58 1252 1617.34 1252.05C1603.14 1251.98 1588.94 1251.8 1574.75 1251.53C1574.76 1248.58 1574.57 1245.61 1574.47 1242.66C1575.49 1234.33 1576.51 1226.64 1581.94 1219.66C1592.15 1206.52 1611.62 1205.19 1627.48 1202.99C1642.04 1203.77 1658.72 1200.59 1673.41 1199.56C1701.8 1197.59 1730.03 1196.62 1758.43 1195.24C1777.85 1194.29 1795.65 1188.66 1808.8 1174.73C1831.61 1150.56 1822.67 1118.74 1821.41 1089.95C1820.83 1076.69 1822.14 1063.47 1821.17 1050.2C1821.36 1047.02 1820.94 1048.55 1822.46 1045.62C1832.29 1042.12 1843.95 1041.38 1854.32 1039.47C1874.9 1035.68 1890.86 1028.17 1902.53 1011.26C1903.34 1010.1 1904.1 1008.91 1904.82 1007.7C1905.54 1006.49 1906.21 1005.25 1906.85 1004C1907.48 1002.75 1908.07 1001.48 1908.61 1000.19C1909.15 998.902 1909.64 997.599 1910.09 996.28C1910.54 994.962 1910.95 993.631 1911.3 992.288C1911.66 990.946 1911.97 989.594 1912.23 988.232C1912.49 986.871 1912.7 985.504 1912.86 984.13C1913.02 982.756 1913.14 981.379 1913.2 979.996C1914.12 963.184 1908.94 944.856 1905.74 928.331C1898.38 891.024 1890.29 853.853 1881.47 816.818Z" fill="#E6E7E7"/>
<path d="M1143.89 279.542C1171.82 286.463 1235.49 298.966 1257.63 310.084C1262.17 335.719 1260 373.371 1262.28 401.375C1222.28 441.056 1150.4 467.462 1092.53 470.07C1023.37 473.188 944.514 448.056 893.064 404.955C896.935 381.326 902.001 325.136 909.205 305.547C944.822 294.465 982.383 289.964 1018.21 279.792C1029.23 305.374 1037.38 331.871 1047.34 357.811L1048.06 358.987C1051.94 376.379 1070.87 432.574 1080.94 446.376L1082.65 445.474C1084.85 441.503 1086.08 437.944 1087.19 433.608C1109.73 383.66 1123.76 330.321 1143.89 279.542Z" fill="#4896FE"/>
<path d="M210.923 886.661C191.548 867.619 170.759 847.49 171.148 819.502C171.571 788.913 208.455 761.623 228.741 740.684C235.534 733.637 242.037 726.365 248.248 718.872C254.459 711.379 260.364 703.682 265.961 695.784C271.558 687.886 276.831 679.807 281.78 671.546C286.732 663.287 291.344 654.869 295.622 646.292C317.643 601.969 325.436 563.049 364.892 526.96C385.396 508.209 410.159 496.384 439.377 496.748C462.267 497.034 494.698 500.53 511.066 516.932C518.284 524.164 522.204 533.476 524.198 543.033C529.483 568.395 525.657 594.517 526.732 620.115C527.464 637.573 530.489 654.945 531.701 672.384C532.739 687.33 531.965 702.494 531.595 717.457C530.72 723.609 530.885 730.067 530.655 736.274C518.904 725.913 498.089 709.592 481.196 708.507C478.807 705.341 477.854 702.391 476.718 698.742C471.699 698.062 465.355 697.542 461.218 694.706C452.221 695.368 443.57 696.247 434.736 697.975L432.531 702.896C425.208 713.861 417.686 724.696 407.583 733.68C395.731 744.219 381.303 753.102 367.197 760.812C349.144 770.678 327.572 778.648 315.085 795.007C297.618 817.882 282.913 869.722 273.526 896.896C270.59 905.392 268.15 915.987 263.741 923.826C245.006 912.381 227.713 900.441 210.923 886.661Z" fill="#030304"/>
<path d="M444.331 664.559C455.754 669.622 466.323 673.042 478.755 675.271C475.907 678.596 476.364 682.149 476.434 686.339L476.72 698.744C471.701 698.064 465.357 697.544 461.22 694.707C452.222 695.369 443.571 696.248 434.737 697.976C437.383 690.983 439.486 683.912 441.57 676.761L444.331 664.559Z" fill="#FCB690"/>
<path d="M444.33 664.559C455.754 669.622 466.322 673.042 478.755 675.271C475.906 678.596 476.363 682.149 476.434 686.339C469.414 681.501 461.029 681.32 452.63 680.401C449.069 678.809 445.333 677.858 441.568 676.761L444.33 664.559Z" fill="#F8926F"/>
<path d="M444.33 664.559C447.64 646.901 449.078 627.953 458.375 611.896C464.385 601.521 471.704 592.157 476.88 581.303C482.82 568.837 486.698 554.513 494.624 543.042C497.495 542.211 498.933 542.341 501.568 543.872C514.256 551.245 517.955 582.356 519.991 594.95C523.23 615.004 528.352 645.05 514.375 662.458C508.828 669.369 500.75 673.528 491.581 674.655C487.306 675.182 483.061 675.298 478.756 675.271C466.322 673.041 455.753 669.622 444.33 664.559Z" fill="#FCB690"/>
<path d="M1124.36 818.222C1158.17 815.638 1197.72 817.453 1232.12 817.729C1291.98 817.9 1351.85 818.425 1411.71 819.303C1419.17 837.064 1424.56 855.727 1430.91 873.863C1439.89 899.13 1449.18 924.297 1458.79 949.364C1465.72 974.731 1476.53 999.363 1483 1024.71C1485.21 1032.6 1486.56 1038.93 1484.85 1047.12C1471.81 1044.31 1447.43 1046.43 1433.12 1046.45L1283.31 1046.33C1262.25 1046.25 1236.36 1048.85 1215.97 1044.69C1207.26 1041.43 1198.67 1036.15 1190.42 1031.91C1190.03 1031.6 1189.64 1031.3 1189.26 1030.97C1163.64 1008.94 1137.23 944.974 1131.32 913.085C1125.89 883.834 1125.59 848.211 1124.36 818.222Z" fill="#1A2C34"/>
<path d="M1275.72 920.73C1278.02 920.473 1280.24 920.365 1282.54 920.637C1288.87 921.377 1294.37 925.152 1298.04 929.858C1302.27 935.269 1304.21 942.028 1302.92 948.636C1301.69 954.966 1298.69 958.288 1293 961.731C1290.5 961.877 1290.49 961.933 1287.91 961.841C1282.15 961.628 1277.43 958.34 1273.77 954.439C1273.12 953.731 1272.51 952.995 1271.93 952.229C1271.36 951.465 1270.83 950.675 1270.35 949.86C1269.86 949.047 1269.42 948.213 1269.03 947.357C1268.63 946.502 1268.28 945.63 1267.98 944.742C1267.68 943.856 1267.43 942.956 1267.23 942.045C1267.02 941.132 1266.87 940.213 1266.77 939.29C1266.67 938.364 1266.61 937.436 1266.61 936.505C1266.61 935.574 1266.66 934.646 1266.76 933.721C1267.46 927.519 1270.78 924.514 1275.72 920.73Z" fill="#FEFEFE"/>
<path d="M1574.74 1251.53C1588.94 1251.8 1603.14 1251.97 1617.34 1252.04C1624.57 1252 1634.56 1250.87 1641.38 1253.14C1648.98 1249.94 1775.56 1251.77 1794.56 1251.88C1795.46 1252.34 1796.85 1252.87 1797.58 1253.52L1798.34 1255.59C1807.92 1305.39 1819.31 1354.86 1829.02 1404.63C1839.76 1459.74 1848.9 1515.14 1860.69 1570.07L1859.84 1571.33C1852.6 1573.98 1827.86 1570.58 1819.23 1570.18C1769.76 1568.04 1720.26 1566.68 1670.74 1566.1C1652.97 1565.79 1617.78 1567.39 1601.79 1564.05C1599.13 1579.5 1592.55 1656.77 1587.93 1662.73C1587.19 1663.68 1586.03 1664.27 1585.07 1665.04C1578.6 1666.3 1574.88 1665.4 1569.35 1662.12C1564.29 1655.37 1567.11 1647.53 1564.2 1640.41C1564.44 1636.47 1565.63 1632.22 1566.35 1628.3L1566 1624.73C1561.83 1603.54 1556.6 1575.66 1538.89 1560.55C1539.49 1551.29 1541.4 1541.83 1544.07 1532.9C1550.41 1533.34 1556.26 1532.24 1562.47 1531.26C1565.31 1503.1 1565.52 1474.51 1566.77 1446.25C1569.64 1381.37 1571.37 1316.36 1574.74 1251.53Z" fill="#FEFEFE"/>
<path d="M1574.74 1251.53C1588.94 1251.8 1603.14 1251.97 1617.34 1252.04C1624.57 1252 1634.56 1250.87 1641.38 1253.14L1638 1273.06C1633.84 1320.47 1626.37 1367.76 1620.15 1414.99L1601.79 1564.05C1599.13 1579.5 1592.55 1656.77 1587.93 1662.73C1587.19 1663.68 1586.02 1664.27 1585.07 1665.04C1578.6 1666.3 1574.88 1665.4 1569.35 1662.12C1564.29 1655.37 1567.11 1647.53 1564.2 1640.41C1564.44 1636.47 1565.63 1632.22 1566.34 1628.3L1566 1624.73C1561.83 1603.53 1556.6 1575.66 1538.89 1560.55C1539.49 1551.29 1541.39 1541.83 1544.07 1532.9C1550.41 1533.34 1556.25 1532.24 1562.47 1531.26C1565.31 1503.09 1565.52 1474.51 1566.77 1446.25C1569.64 1381.37 1571.37 1316.36 1574.74 1251.53Z" fill="#FEFEFE"/>
<path d="M1617.34 1252.04C1624.57 1252 1634.56 1250.87 1641.38 1253.15L1638 1273.06C1629.96 1274.86 1621.97 1276.59 1613.81 1277.86C1615.57 1269.28 1616.66 1260.76 1617.34 1252.04Z" fill="#4896FE"/>
<path d="M1638 1273.06C1633.84 1320.47 1626.37 1367.76 1620.15 1414.99L1601.79 1564.05C1599.13 1579.5 1592.55 1656.77 1587.93 1662.73C1587.19 1663.68 1586.02 1664.27 1585.07 1665.04C1578.6 1666.3 1574.88 1665.4 1569.35 1662.12C1564.29 1655.37 1567.11 1647.53 1564.2 1640.41C1564.44 1636.47 1565.63 1632.22 1566.34 1628.3L1566 1624.73C1570.93 1617.54 1571.75 1606.5 1573.07 1598.19C1581.54 1544.82 1585.97 1490.27 1592.49 1436.62C1598.92 1383.63 1607.43 1330.87 1613.8 1277.86C1621.97 1276.59 1629.96 1274.86 1638 1273.06Z" fill="#97BEFD"/>
<path d="M461.219 694.706C465.357 697.542 471.7 698.062 476.718 698.742C477.853 702.39 478.806 705.341 481.196 708.507C498.09 709.593 518.905 725.914 530.655 736.274C530.886 730.067 530.721 723.607 531.595 717.457L531.691 737.663C544.392 753.157 548.735 768.298 556.6 785.963C561.645 797.291 567.691 808.272 572.306 819.759C583.867 848.54 591.408 879.327 596.233 909.665C597.271 916.192 599.496 924.418 598.881 930.919C596.674 939.727 589.358 970.417 581.858 975.083L579.97 975.348C577.763 975.67 578.563 975.384 577.233 976.006C581.688 977.619 586.154 978.734 589.323 982.23C591.377 988.021 590.299 994.825 587.306 1000.23C582.601 1008.71 573.276 1013.22 563.756 1015.83C550.26 1019.52 535.162 1021.02 521.156 1022.16C521.156 1022.53 521.156 1022.9 521.161 1023.28C521.224 1027.2 521.88 1030.39 523.104 1034.13C520.765 1037.35 518 1036.93 513.996 1037.67C454.81 1038.37 395.623 1038.57 336.435 1038.26C318.078 1038.33 297.15 1039.71 279.208 1035.98C267.682 1033.59 255.822 1027.62 249.69 1017.94C235.338 995.281 256.169 948.462 263.743 923.826C268.151 915.988 270.591 905.392 273.527 896.896C282.915 869.723 297.62 817.883 315.087 795.007C327.574 778.649 349.146 770.68 367.199 760.812C381.304 753.102 395.733 744.219 407.584 733.68C417.688 724.696 425.209 713.861 432.533 702.896L434.737 697.975C443.57 696.247 452.221 695.369 461.219 694.706Z" fill="#4896FE"/>
<path d="M461.218 694.706C465.356 697.542 471.699 698.062 476.718 698.742C477.853 702.39 478.806 705.341 481.196 708.507C480.319 709.147 480.01 709.459 478.825 709.834C466.499 713.751 443.601 708.507 432.531 702.896L434.736 697.975C443.57 696.247 452.221 695.369 461.218 694.706Z" fill="#FEFEFE"/>
<path d="M353.026 950.856L357.136 950.312L352.537 964.675C367.685 964.219 382.833 964.134 397.983 964.42C421.265 965.555 449.028 965.017 470.402 974.541L469.94 975.554C448.839 975.333 427.287 971.896 406.203 970.344C379.269 968.363 353.217 968.397 326.232 968.488C323.099 968.5 313.872 968.87 311.788 966.966C323.909 964.435 336.2 964.533 348.559 964.345C350.362 959.902 351.709 955.44 353.026 950.856Z" fill="#0E43DA"/>
<path d="M353.025 950.855C363.921 916.558 372.594 880.533 377.937 845.121C379.223 836.616 379.313 809.707 383.529 803.909C383.962 803.315 384.704 802.976 385.292 802.506L387.413 803.814C390.982 820.733 381.446 864.954 377.314 883.827C378.023 909.82 368.023 937.663 362.506 963.194C374.061 963.196 386.647 962.27 397.984 964.42C382.834 964.133 367.684 964.218 352.538 964.675L357.136 950.312L353.025 950.855Z" fill="#007CFE"/>
<path d="M467.34 1014.32C467.506 1005.47 465.79 988.81 471.517 981.718C483.545 966.818 532.812 956.953 552.409 953.927C549.893 958.365 547.03 962.65 544.291 966.974C539.405 969.114 534.698 971.617 529.958 974.023C545.774 974.607 561.475 974.241 577.231 976.006C581.686 977.619 586.152 978.734 589.321 982.23C591.374 988.021 590.297 994.825 587.304 1000.23C582.599 1008.71 573.274 1013.22 563.754 1015.83C550.257 1019.52 535.16 1021.02 521.154 1022.16C503.369 1020.6 484.659 1018.37 467.34 1014.32Z" fill="#FCB690"/>
<path d="M1474.93 2.9275C1511.79 1.68025 1548.99 2.66569 1585.89 2.58812L1821.65 2.57602L1978.74 2.52024C2006.67 2.48872 2035.44 1.0924 2063.24 2.9045C2076.37 3.75782 2087.02 8.37352 2095.53 17.8837C2100.51 23.4473 2101.64 33.7526 2102.2 40.8058C2103.88 61.968 2102.62 84.0065 2102.59 105.244C2102.68 147.086 2102.42 188.928 2101.8 230.766C2101.1 278.626 2103.76 327.577 2099.89 375.26C2097.94 378.438 2095.72 381.328 2093.16 384.11C2087.37 390.392 2081.15 393.419 2072.32 394.209L1659.35 394.644L1548.34 394.668C1526.93 394.661 1505.19 395.231 1483.82 394.137C1476.22 393.748 1465.88 393.005 1459.13 389.774C1452.48 386.588 1447.9 379.448 1445.59 373.098C1443.58 367.558 1442.85 361.522 1442.73 355.694C1442.38 338.696 1443.36 321.564 1443.51 304.546L1444.06 194.499C1444.19 144.235 1442.08 93.5798 1443.65 43.3792C1443.86 36.4241 1443.67 27.8472 1447.36 21.6461C1453.37 11.5662 1463.24 5.91898 1474.93 2.9275Z" fill="#97BEFD"/>
<path d="M1769.24 214.803C1806.34 214.449 1843.43 214.297 1880.52 214.348C1897.23 214.348 1916 212.913 1932.49 215.014C1935.57 215.405 1936.44 215.502 1938.77 217.5L1937.73 218.978C1919.27 220.469 1899.88 219.313 1881.31 219.218C1859.94 219.233 1718.07 221.308 1708.12 218.197L1707.86 216.663C1714.56 212.639 1758.4 214.991 1769.24 214.803Z" fill="#FEFEFE"/>
<path d="M1801.79 138.977C1814.74 137.713 1828.24 138.324 1841.27 138.319L1909.78 138.326L1993.67 138.343C2008.82 138.353 2024.32 137.744 2039.43 138.7L2041.52 141.633C2016.28 145.586 1969.64 143.054 1941.52 143.054C1898.96 143.054 1853.02 145.109 1810.95 142.662C1806.2 142.387 1804.9 142.387 1801.79 138.977Z" fill="#FEFEFE"/>
<path d="M1977.68 179.358C1996.39 179.199 2016.57 177.879 2035.14 179.109C2037.82 179.287 2039.27 179.798 2040.94 181.749C2037.89 183.612 2034.54 183.641 2030.99 183.773C2002.63 184.838 1973.68 183.599 1945.25 183.67L1763.94 184.631C1749.76 184.547 1716.79 187.893 1705.13 183.501L1706.07 181.667L1704.89 182.889C1707.93 180.589 1710.35 180.423 1714.31 180.119C1742.63 177.951 1772.63 179.936 1801.12 179.932L1977.68 179.358Z" fill="#FEFEFE"/>
<path d="M1769.98 101.46L1772.19 103.184C1773.75 109.931 1773.45 116.837 1773.5 123.709C1771.23 126.897 1768.92 130.137 1766.27 133.068C1759.88 140.148 1750 145.153 1739.96 145.502C1730.49 145.829 1719.45 142.771 1712.55 136.564C1705.78 130.464 1703.08 123.346 1703.25 114.796C1703.82 110.393 1703.69 108.358 1706.51 104.696C1708.47 104.107 1709.24 103.449 1711.3 104.161C1726.37 109.365 1734.77 134.824 1742.21 146.993C1743.89 138.68 1745.4 130.083 1748.79 122.191C1753.07 112.192 1759.45 105.895 1769.98 101.46Z" fill="#FEFEFE"/>
<path d="M1501.23 113.069C1532.65 112.153 1564.27 112.622 1595.72 112.497C1614.03 112.423 1633.6 111.121 1651.76 112.531C1654.73 112.764 1658.32 113.687 1660.08 116.118C1666.36 124.777 1665.7 227.439 1663.73 242.437C1662.93 248.517 1659.42 250.798 1654.53 254.338C1651.34 254.603 1648.14 254.8 1644.93 254.927C1617.07 256.134 1589 255.667 1561.11 255.754C1544.81 255.802 1527 257.215 1510.88 255.331C1505.39 254.691 1499.6 253.907 1495.38 250.363C1489.05 232.999 1493.07 198.576 1493.03 179.283C1493 165.087 1492.03 150.855 1492.32 136.669C1492.52 126.445 1492.97 120.418 1501.23 113.069Z" fill="#4896FE"/>
<path d="M98.4613 1.88026C137.751 0.369975 177.624 1.44511 216.969 1.39905L452.007 1.59906L607.265 1.80387C632.977 1.77236 659.912 -0.0397172 685.473 1.71299C695.354 2.39056 705.528 4.94446 713.508 10.5844C720.632 15.6207 721.38 23.1382 722.487 30.9878C724.506 45.3113 723.336 60.7547 723.382 75.2199L723.53 162.492L723.398 292.011C723.31 315.598 724.259 339.683 722.437 363.175C721.901 370.106 721.492 376.433 716.686 382.093C710.326 389.579 699.938 393.456 689.982 394.385C631.863 396.135 573.554 394.89 515.424 394.306L356.665 394.097L185.324 394.814C156.138 394.914 126.519 395.9 97.3905 394.588C90.7214 394.288 84.4044 393.554 78.6358 390.172C70.5124 385.41 66.9691 378.79 65.2452 370.169C62.6259 357.055 64.1338 342.152 64.2254 328.777L64.7477 254.069L64.5396 108.839C64.503 85.0126 63.2437 60.6953 64.5763 36.9247C64.9991 29.412 65.8643 21.6994 70.6407 15.3746C77.3661 6.47171 87.3587 3.4766 98.4613 1.88026Z" fill="#97BEFD"/>
<path d="M390.812 101.357C396.858 104.3 385.734 122.788 389.779 130.674C390.989 133.033 391.96 135.224 392.866 137.701C391.532 141.258 390.241 141.786 387.136 144.096C384.46 142.299 381.941 140.612 380.111 137.984C376.474 132.75 375.22 125.128 376.71 119.091C378.866 110.374 382.873 106.064 390.812 101.357Z" fill="#FEFEFE"/>
<path d="M411.184 99.0537C417.58 98.9628 424.21 101.438 429.078 105.258C435.109 109.989 438.163 117.127 438.318 124.342C438.519 133.641 434.738 139.722 427.895 146.183C427.201 146.378 426.517 146.611 425.812 146.769C422.637 147.486 422.121 147.952 419.366 146.269C417.891 139.252 425.89 129.705 426.744 122.113C427.758 113.138 416.874 105.32 411.184 99.0537Z" fill="#FEFEFE"/>
<path d="M564.163 152.462C582.032 151.995 652.574 149.384 665.067 153.938C652.717 159.832 608.234 156.789 591.965 156.763C573.208 156.79 502.493 159.108 489.657 156.081C496.778 150.545 552.831 152.628 564.163 152.462Z" fill="#FEFEFE"/>
<path d="M574.818 186.688C593.552 185.846 646.887 183.593 662.923 187.096C659.444 189.176 654.67 189.621 650.615 189.937C632.995 191.301 614.066 189.817 596.272 190C551.776 190.554 507.278 190.892 462.779 191.015C434.598 191.145 405.901 192.311 377.803 190.356L378.246 189.507C401.471 185.089 426.971 187.408 450.663 187.387C492.051 187.565 533.437 187.331 574.818 186.688Z" fill="#FEFEFE"/>
<path d="M176.307 109.545C206.49 108.747 236.833 109.491 267.026 109.742C284.521 109.889 304.213 108.36 321.391 111.245C329.9 112.675 333.099 117.68 337.679 123.843C339.78 137.99 339.826 230.56 333.84 238.928C329.795 244.583 323.798 247.646 316.732 248.756C286.16 249.058 255.588 249.161 225.016 249.064C208.424 249.054 189.789 250.377 173.436 247.864C163.984 246.412 160.001 242.013 154.539 235.053C152.95 216.515 149.821 127.253 158.251 117.061C162.668 111.723 169.516 110.412 176.307 109.545Z" fill="#4896FE"/>
<path d="M210.924 886.661C227.715 900.44 245.008 912.38 263.742 923.824C256.168 948.459 235.337 995.279 249.689 1017.94C255.821 1027.62 267.68 1033.58 279.207 1035.98C297.149 1039.71 318.076 1038.33 336.433 1038.26C395.622 1038.57 454.809 1038.37 513.995 1037.67C521.226 1037.56 528.726 1037.02 535.896 1037.97C556.193 1037.39 579.63 1040.67 599.395 1037.27L690.169 1037.05C712.187 1037.06 736.518 1034.98 757.99 1039.61C773.577 1042.97 787.913 1049.66 799.375 1060.07C801.454 1061.92 803.429 1063.87 805.302 1065.9C807.175 1067.93 808.936 1070.04 810.585 1072.24C812.236 1074.43 813.767 1076.69 815.178 1079.02C816.588 1081.35 817.874 1083.74 819.033 1086.19C830.985 1111.29 839.338 1138.5 848.808 1164.51C866.596 1212.42 883.85 1260.51 900.575 1308.75C913.094 1344.24 926.699 1379.44 939.632 1414.8C945.424 1430.65 951.953 1446.44 956.668 1462.59L940.068 1466.57C913.556 1471.92 887.203 1477.59 860.633 1482.67C870.076 1501.17 881.047 1519.12 889.946 1537.83C810.495 1539.79 729.425 1546.98 650.061 1544.04C658.116 1527.84 667.66 1512.35 675.789 1496.23C653.898 1487.68 632.182 1473.94 611.613 1462.81C605.32 1478.09 585.062 1528.28 574.24 1538.32L574.475 1539.29C569.521 1543.62 564.529 1547.91 559.498 1552.16L552.302 1558.01C528.965 1557 504.645 1559.85 481.326 1561.19C444.824 1563.3 408.266 1564.7 371.821 1567.53C347.11 1569.44 322.24 1572.86 297.559 1574.22C294.028 1574.41 293.509 1574.77 290.993 1572.61C293.308 1553.44 297.496 1534.26 300.521 1515.16C308.119 1465.28 316.332 1415.49 325.158 1365.79C331.381 1329.96 338.456 1294.32 343.411 1258.3L326.565 1258.29C301.917 1261.57 260.402 1261.82 239.997 1248.13C227.121 1239.49 220.732 1227.51 217.158 1213.54C211.315 1190.73 213.838 1163.88 213.677 1140.46L213.428 982.186C213.496 954.26 216.107 914.411 211.195 887.996C211.111 887.547 211.013 887.105 210.924 886.661Z" fill="url(#paint0_linear_41_3)"/>
<path d="M513.993 1037.67C521.224 1037.56 528.724 1037.02 535.895 1037.97C480.77 1064.16 438.299 1068.38 377.551 1068.61C360.248 1068.67 342.691 1068.13 325.434 1069.41C328.707 1058.85 332.316 1048.55 336.431 1038.26C395.621 1038.57 454.808 1038.37 513.993 1037.67Z" fill="#1A2C34"/>
<path d="M674.133 1106.03C692.705 1135.55 703.997 1170.94 717.472 1202.75C735.383 1245.03 754.874 1286.73 773.133 1328.87C749.177 1323.57 725.546 1318.7 702.425 1310.66C686.36 1305.08 671.079 1297.24 655.001 1291.94C660.395 1281.11 665.175 1269.87 670.229 1258.88C678.184 1238.37 686.463 1218.23 696.181 1198.37C699.489 1196.39 702.678 1194.39 705.791 1192.16C704.891 1175.68 678.747 1130.65 674.419 1107.41C674.334 1106.95 674.228 1106.49 674.133 1106.03Z" fill="#1A2C34"/>
<path d="M777.744 1344.67C787.092 1362.47 794.447 1381.19 802.523 1399.52C815.405 1428.46 828.098 1457.46 840.601 1486.54L860.635 1482.67C870.078 1501.17 881.048 1519.12 889.948 1537.83C810.496 1539.79 729.426 1546.98 650.062 1544.04C658.118 1527.84 667.661 1512.35 675.79 1496.23L693.792 1502.96C712.441 1469.44 729.821 1435.08 747.426 1401.08C757.211 1382.18 766.5 1362.88 777.744 1344.67Z" fill="#FEFEFE"/>
<path d="M210.924 886.661C227.715 900.44 245.008 912.38 263.742 923.824C256.168 948.459 235.337 995.279 249.689 1017.94C255.821 1027.62 267.68 1033.58 279.207 1035.98C297.149 1039.71 318.076 1038.33 336.433 1038.26C332.318 1048.55 328.709 1058.86 325.435 1069.41C318.508 1102.66 309.539 1140.68 332.059 1170.61C332.76 1171.53 333.488 1172.43 334.24 1173.32C334.993 1174.2 335.768 1175.07 336.568 1175.92C337.367 1176.77 338.189 1177.6 339.032 1178.41C339.876 1179.22 340.742 1180.01 341.63 1180.78C342.517 1181.55 343.424 1182.29 344.351 1183.02C345.281 1183.75 346.228 1184.45 347.194 1185.14C348.16 1185.82 349.145 1186.48 350.146 1187.12C351.149 1187.76 352.168 1188.37 353.202 1188.96C354.239 1189.55 355.291 1190.11 356.357 1190.65C357.424 1191.19 358.504 1191.71 359.599 1192.2C360.694 1192.69 361.801 1193.15 362.92 1193.59C364.039 1194.03 365.17 1194.44 366.313 1194.82C367.456 1195.21 368.608 1195.57 369.769 1195.9C370.93 1196.23 372.101 1196.54 373.279 1196.81C374.457 1197.09 375.642 1197.34 376.836 1197.56C378.027 1197.78 379.225 1197.98 380.426 1198.14C393.671 1200.08 407.769 1199.29 421.16 1199.25L484.944 1199.02L696.18 1198.37C686.462 1218.23 678.183 1238.38 670.228 1258.89C624.581 1258.48 577.955 1257.92 532.335 1259.27L517.682 1259.31C459.656 1259.18 401.386 1260.4 343.411 1258.3L326.565 1258.29C301.917 1261.57 260.402 1261.82 239.997 1248.13C227.121 1239.49 220.732 1227.5 217.158 1213.54C211.315 1190.73 213.838 1163.88 213.677 1140.45L213.428 982.185C213.496 954.259 216.107 914.41 211.195 887.994C211.111 887.547 211.013 887.105 210.924 886.661Z" fill="#E6E7E7"/>
<path d="M343.41 1258.3C401.386 1260.4 459.655 1259.18 517.681 1259.31L532.333 1259.27C577.953 1257.92 624.579 1258.48 670.227 1258.88C665.174 1269.87 660.393 1281.1 654.998 1291.94C631.09 1343.71 612.324 1397.65 589.997 1450.06L611.612 1462.81C605.318 1478.09 585.061 1528.28 574.238 1538.32L574.474 1539.28C569.519 1543.62 564.527 1547.91 559.497 1552.16L552.3 1558.01C528.964 1557 504.643 1559.85 481.324 1561.19C444.823 1563.3 408.265 1564.7 371.819 1567.52C347.109 1569.44 322.239 1572.86 297.557 1574.21C294.027 1574.41 293.507 1574.77 290.991 1572.61C293.307 1553.43 297.494 1534.26 300.519 1515.15C308.118 1465.28 316.33 1415.49 325.156 1365.79C331.379 1329.96 338.455 1294.31 343.41 1258.3Z" fill="#FEFEFE"/>
<path d="M517.682 1259.31L532.334 1259.27C544.801 1322.57 552.493 1387.67 560.961 1451.51C563.461 1470.35 567.963 1523.35 574.241 1538.32L574.476 1539.28C569.522 1543.62 564.529 1547.91 559.499 1552.16C550.971 1517.52 549.34 1481.22 544.031 1446.09C534.684 1384.24 522.785 1321.57 517.682 1259.31Z" fill="#4896FE"/>
<path d="M532.334 1259.27C577.954 1257.92 624.58 1258.48 670.228 1258.88C665.175 1269.87 660.393 1281.11 654.999 1291.95C631.091 1343.71 612.324 1397.66 589.998 1450.06L611.612 1462.81C605.319 1478.09 585.061 1528.28 574.239 1538.32C567.961 1523.35 563.46 1470.35 560.96 1451.51C552.493 1387.67 544.801 1322.57 532.334 1259.27Z" fill="#FEFEFE"/>
<path d="M1039.81 1048.36C1057.93 1047.37 1085.41 1044.87 1102.85 1048.39C1102.81 1056.15 1100.71 1070.37 1107.6 1075.77C1111.38 1078.74 1116.92 1078.33 1121.57 1078.4C1117.96 1194.47 1120.58 1310.66 1120.82 1426.77L1120.52 1515.74C1120.45 1529.99 1118.51 1547.06 1121.32 1561.02C1147.95 1561.14 1221.97 1556.41 1242.89 1568.04C1245.18 1565.28 1247.93 1562.85 1250.54 1560.36C1253.15 1552.85 1252.13 1541.32 1252.49 1533.27C1280.76 1533.21 1309.11 1532.77 1337.37 1533.12C1336.7 1542.82 1335.99 1553.79 1332.24 1562.91L1336.46 1565.21C1358.07 1564.32 1424.23 1565.76 1441.51 1572.85C1446.35 1569.35 1449.51 1563.76 1452.86 1559.05C1454.27 1549.94 1453.84 1540.26 1454.01 1531.05C1476.16 1531.32 1524.77 1529.46 1544.07 1532.9C1541.39 1541.83 1539.49 1551.29 1538.89 1560.55C1556.6 1575.66 1561.83 1603.54 1566 1624.73L1566.34 1628.3C1565.63 1632.23 1564.44 1636.47 1564.2 1640.42C1567.11 1647.53 1564.29 1655.38 1569.35 1662.12C1574.88 1665.4 1578.6 1666.3 1585.07 1665.04C1586.02 1664.27 1587.19 1663.68 1587.93 1662.73C1592.55 1656.78 1599.13 1579.5 1601.79 1564.05C1617.78 1567.39 1652.97 1565.79 1670.74 1566.11C1720.26 1566.68 1769.76 1568.04 1819.23 1570.18C1827.86 1570.58 1852.6 1573.98 1859.84 1571.33L1860.69 1570.07C1864.55 1587.71 1871.82 1660.77 1885.62 1668.05C1888.6 1669.62 1892.58 1669.13 1895.63 1667.88C1897.55 1667.09 1897.92 1666.8 1899.54 1665.83C1902.92 1652.72 1888.8 1592.78 1885.54 1575.85C1898.81 1576.59 1960.8 1582.43 1966.54 1581.21L1967.61 1577.32C1969.07 1586.97 1970.15 1596.85 1972.56 1606.33C1995.26 1605.11 2018.03 1605.13 2040.76 1605.06C2052.47 1605.03 2064.48 1605.62 2076.14 1604.51C2077.94 1602.62 2078.37 1601.46 2078.9 1598.99C2103.81 1599.98 2156.72 1606.11 2174.38 1624.25C2176.34 1626.26 2177.86 1628.71 2177.88 1631.49C2177.94 1636.93 2173.05 1641.34 2168.86 1644.52C2141.04 1665.67 2041.26 1675.51 2004.13 1680.08C1970.27 1684.25 1936.35 1689.44 1902.39 1692.64C1759.86 1706.05 1616.02 1709.29 1472.88 1712.99C1259.72 1719.74 1046.54 1720.26 833.339 1714.57C687.628 1712.68 542.068 1707.29 396.66 1698.4C360.322 1695.89 323.205 1694.53 287.075 1690.56C281.249 1689.92 273.671 1690.16 269.178 1686.39C276.665 1674.98 286.665 1592.72 290.99 1572.61C293.506 1574.77 294.026 1574.41 297.556 1574.21C322.238 1572.86 347.108 1569.44 371.818 1567.52C408.265 1564.7 444.822 1563.3 481.323 1561.19C504.642 1559.85 528.964 1557 552.299 1558.01L559.496 1552.16C564.526 1547.91 569.518 1543.62 574.473 1539.28L574.237 1538.32C585.058 1528.28 605.316 1478.09 611.611 1462.81C632.179 1473.94 653.894 1487.68 675.786 1496.23C667.658 1512.35 658.114 1527.84 650.059 1544.04C729.422 1546.98 810.494 1539.79 889.944 1537.83C881.044 1519.12 870.074 1501.17 860.631 1482.67C887.2 1477.59 913.553 1471.92 940.065 1466.57C944.957 1480.74 948.97 1495.15 953.902 1509.32C958.619 1522.87 964.52 1536.63 968.328 1550.39C990.236 1545.82 1018.18 1548.8 1040.84 1549.17C1042.81 1473.37 1041.4 1397.46 1041.75 1321.65C1042.13 1239.85 1043.83 1157.56 1041.24 1075.79C1041.11 1066.59 1040.63 1057.52 1039.81 1048.36Z" fill="#F2F2F2"/>
<path d="M560.549 1580.56C567.613 1584.19 574.815 1587.67 581.559 1591.79C582.208 1624.25 594.192 1657.1 593.774 1689.7C592.219 1692.41 591.739 1693.37 588.415 1694.52C585.926 1695.38 583.251 1695.21 580.894 1694.29C571.798 1675.81 563.176 1602.96 560.549 1580.56Z" fill="#4896FE"/>
<path d="M574.475 1539.28C579.324 1542.8 584.705 1546.35 588.878 1550.55C600.476 1562.22 619.025 1589.74 639.396 1586.25C641.419 1585.9 642.995 1585.04 644.698 1584.04C655.171 1589.73 707.978 1646.46 710.74 1657.21C710.859 1657.66 710.875 1658.14 710.94 1658.6L709.115 1660.15C690.472 1659.26 602.386 1603.93 581.557 1591.79C574.815 1587.67 567.612 1584.19 560.547 1580.56C556.619 1577.97 552.065 1576.39 548.028 1573.97C544.971 1572.13 544.069 1571.32 543.244 1568.05C544.825 1563.71 548.751 1561.01 552.3 1558.01L559.496 1552.16C564.528 1547.91 569.52 1543.62 574.475 1539.28Z" fill="#1A2C34"/>
<path d="M903.485 1578.26C922.301 1581.54 942.624 1586.4 961.825 1584.7C974.492 1583.58 985.333 1579.14 993.622 1570.11C1014.21 1574.49 1079.56 1584.05 1092.95 1594.89L1094.29 1598.32C1092.57 1601.21 1090.87 1601.69 1087.5 1602.44C1069.52 1606.46 1049.33 1606.48 1030.9 1608.98C988.271 1614.76 945.248 1622.71 902.312 1625.94C899.646 1613.33 895.923 1589.94 903.485 1578.26Z" fill="#1A2C34"/>
<path d="M1120.37 1628.58C1128.11 1628.78 1137.76 1630.16 1145.02 1627.83L1146.02 1624.96L1147.73 1627.72C1162.91 1631.23 1193.21 1628.32 1210.29 1628.34C1252.86 1628.37 1295.83 1629.75 1338.34 1628.44C1341.92 1628.33 1345.19 1628.45 1348.45 1626.83L1349.77 1625.26C1351.89 1627.52 1351.87 1627.28 1355.13 1627.58C1367.09 1630.61 1400.33 1628.49 1414.19 1628.52C1464.87 1628.62 1515.67 1629.28 1566.34 1628.3C1565.63 1632.23 1564.44 1636.47 1564.2 1640.42L1534.9 1640.71C1534.52 1648.49 1535.34 1659.69 1528.37 1665.39C1527.01 1666.51 1526.69 1666.54 1525.23 1667.14C1521.83 1666.37 1520.7 1665.53 1518.85 1662.71C1515.04 1656.89 1516.43 1647.86 1516.54 1641.3C1497.65 1638.24 1451.67 1640.75 1430.32 1640.79L1206.75 1640.92C1165.94 1641.21 1124.23 1643.86 1083.53 1642.33C1078.91 1642.16 1074.6 1641.91 1070.61 1639.55C1070.16 1636.23 1069.76 1634.14 1070.95 1630.9C1077.5 1626.59 1111.09 1628.57 1120.37 1628.58Z" fill="#007CFE"/>
<path d="M611.612 1462.81C632.181 1473.94 653.896 1487.68 675.788 1496.23C667.659 1512.35 658.116 1527.83 650.06 1544.04C644.471 1557.31 651.896 1571.13 644.699 1584.04C642.996 1585.04 641.42 1585.9 639.398 1586.25C619.026 1589.74 600.478 1562.22 588.88 1550.55C584.705 1546.35 579.326 1542.8 574.476 1539.28L574.24 1538.32C585.061 1528.28 605.319 1478.09 611.612 1462.81Z" fill="#FCB690"/>
<path d="M860.633 1482.67C887.202 1477.59 913.555 1471.92 940.067 1466.57C944.959 1480.74 948.972 1495.15 953.904 1509.32C958.621 1522.87 964.522 1536.63 968.33 1550.39C972.578 1560.61 979.001 1564.25 989.403 1568.54C990.786 1569.11 992.147 1569.77 993.622 1570.11C985.332 1579.13 974.491 1583.58 961.824 1584.7C942.623 1586.4 922.3 1581.54 903.484 1578.25C904.183 1564.43 895.968 1550.09 889.946 1537.83C881.046 1519.12 870.077 1501.17 860.633 1482.67Z" fill="#FCB690"/>
<path d="M1252.49 1533.27C1280.76 1533.21 1309.11 1532.77 1337.37 1533.12C1336.7 1542.82 1335.99 1553.79 1332.24 1562.9L1336.46 1565.2C1347.25 1577.99 1351.97 1608.39 1349.92 1624.2C1349.88 1624.55 1349.82 1624.91 1349.77 1625.26L1348.45 1626.82C1345.19 1628.45 1341.92 1628.33 1338.34 1628.44C1295.82 1629.75 1252.86 1628.37 1210.29 1628.34C1193.21 1628.32 1162.91 1631.22 1147.73 1627.71L1146.02 1624.96C1157.09 1566.47 1214.08 1599.53 1242.89 1568.04C1245.18 1565.28 1247.92 1562.85 1250.54 1560.35C1253.14 1552.85 1252.13 1541.32 1252.49 1533.27Z" fill="#1A2C34"/>
<path d="M1252.49 1533.27C1280.76 1533.21 1309.11 1532.77 1337.37 1533.12C1336.7 1542.82 1335.99 1553.79 1332.24 1562.9C1325.57 1565.19 1319.7 1570.84 1313.36 1574.06C1287.08 1587.4 1273.8 1565.95 1251.72 1560.61C1251.33 1560.51 1250.93 1560.44 1250.54 1560.35C1253.14 1552.85 1252.13 1541.32 1252.49 1533.27Z" fill="#FCB690"/>
<path d="M1454.01 1531.04C1476.16 1531.32 1524.77 1529.46 1544.07 1532.9C1541.39 1541.83 1539.49 1551.29 1538.89 1560.55C1556.6 1575.66 1561.83 1603.54 1566 1624.73L1566.34 1628.3C1515.67 1629.28 1464.87 1628.62 1414.19 1628.52C1400.33 1628.49 1367.09 1630.61 1355.13 1627.57C1351.87 1627.28 1351.89 1627.51 1349.77 1625.26C1349.82 1624.91 1349.88 1624.56 1349.92 1624.2C1351.97 1608.39 1347.25 1577.99 1336.46 1565.2C1358.07 1564.31 1424.23 1565.75 1441.51 1572.84C1446.35 1569.35 1449.51 1563.76 1452.86 1559.05C1454.27 1549.94 1453.84 1540.26 1454.01 1531.04Z" fill="#1A2C34"/>
<path d="M1336.46 1565.21C1358.07 1564.32 1424.23 1565.76 1441.51 1572.85L1439.78 1573.62C1413.3 1585.25 1370.47 1580.79 1358.79 1610.81C1356.69 1616.2 1355.91 1621.93 1355.13 1627.58C1351.88 1627.28 1351.89 1627.52 1349.77 1625.26C1349.82 1624.91 1349.88 1624.56 1349.93 1624.21C1351.97 1608.39 1347.25 1577.99 1336.46 1565.21Z" fill="#F2F2F2"/>
<path d="M1454.01 1531.04C1476.16 1531.32 1524.77 1529.46 1544.07 1532.9C1541.39 1541.83 1539.49 1551.29 1538.89 1560.55C1526.75 1561.99 1509.63 1574.32 1493.66 1577.89C1474.93 1573.48 1467.99 1563.58 1452.86 1559.05C1454.27 1549.94 1453.84 1540.26 1454.01 1531.04Z" fill="#FCB690"/>
<path d="M1502.94 783.902C1507.67 763.1 1513.05 737.492 1530.24 722.317C1543.55 710.555 1600.75 687.21 1619.06 687.376C1622.09 696.283 1629.03 702.683 1638.01 706.844C1654.13 714.315 1673.37 714.616 1690.15 708.971C1702.02 704.979 1713.81 698.264 1720.73 688.301C1733.03 689.477 1745.53 693.13 1757.55 695.78C1794.61 703.951 1822.51 712.185 1847.42 740.548C1867.93 763.898 1872.62 788.826 1881.47 816.818C1890.29 853.853 1898.38 891.024 1905.73 928.33C1908.93 944.854 1914.12 963.181 1913.2 979.995C1913.13 981.376 1913.02 982.755 1912.86 984.129C1912.69 985.504 1912.48 986.871 1912.22 988.231C1911.96 989.593 1911.66 990.946 1911.3 992.289C1910.94 993.631 1910.54 994.961 1910.09 996.279C1909.64 997.598 1909.15 998.901 1908.61 1000.19C1908.06 1001.48 1907.48 1002.75 1906.84 1004C1906.21 1005.25 1905.53 1006.49 1904.81 1007.7C1904.1 1008.91 1903.34 1010.09 1902.53 1011.26C1890.86 1028.17 1874.89 1035.68 1854.32 1039.47C1843.95 1041.38 1832.28 1042.12 1822.46 1045.62C1820.94 1048.55 1821.36 1047.02 1821.17 1050.2C1822.14 1063.47 1820.83 1076.69 1821.41 1089.95C1822.67 1118.74 1831.61 1150.56 1808.8 1174.73C1795.65 1188.66 1777.85 1194.29 1758.42 1195.24C1730.03 1196.62 1701.8 1197.59 1673.4 1199.56C1658.72 1200.58 1642.04 1203.77 1627.48 1202.99C1611.62 1205.19 1592.15 1206.52 1581.93 1219.66C1576.51 1226.64 1575.49 1234.33 1574.47 1242.66C1574.57 1245.61 1574.75 1248.58 1574.74 1251.53C1571.37 1316.36 1569.64 1381.38 1566.77 1446.25C1565.52 1474.51 1565.31 1503.1 1562.47 1531.26C1556.25 1532.24 1550.41 1533.34 1544.07 1532.9C1524.77 1529.46 1476.17 1531.32 1454.02 1531.05C1453.84 1540.26 1454.27 1549.94 1452.86 1559.05C1449.51 1563.76 1446.35 1569.35 1441.51 1572.85C1424.23 1565.76 1358.07 1564.32 1336.46 1565.21L1332.24 1562.91C1336 1553.79 1336.7 1542.82 1337.37 1533.12C1309.11 1532.77 1280.76 1533.21 1252.49 1533.27C1252.13 1541.32 1253.15 1552.85 1250.54 1560.36C1247.93 1562.85 1245.18 1565.28 1242.89 1568.04C1221.97 1556.41 1147.95 1561.14 1121.32 1561.02C1118.51 1547.06 1120.45 1529.99 1120.52 1515.74L1120.83 1426.77C1120.58 1310.66 1117.96 1194.47 1121.58 1078.4C1116.93 1078.33 1111.38 1078.74 1107.6 1075.77C1100.71 1070.37 1102.81 1056.15 1102.85 1048.39C1108.81 1047.01 1114.22 1046.17 1120.36 1046C1123.45 1043.24 1126.77 1040.73 1130.29 1038.46C1149.78 1025.98 1168.59 1027.97 1190.42 1031.9C1198.67 1036.15 1207.26 1041.43 1215.97 1044.69C1236.36 1048.85 1262.25 1046.25 1283.31 1046.33L1433.12 1046.44C1447.43 1046.43 1471.81 1044.31 1484.85 1047.12C1486.56 1038.93 1485.21 1032.6 1483 1024.7C1476.53 999.362 1465.72 974.728 1458.79 949.361C1464.62 934.598 1467.09 917.697 1471.28 902.354L1502.94 783.902Z" fill="#4896FE"/>
<path d="M1760.9 832.257C1762.8 833.711 1763.41 834.171 1764.15 836.303C1767.78 846.669 1768.85 858.91 1771.08 869.739C1777.02 898.503 1782.51 929.078 1792.43 956.894C1770.79 963.356 1748.12 967.532 1726.01 972.398C1695.71 978.942 1665.59 986.15 1635.66 994.02C1633.27 994.69 1630.72 995.511 1628.25 995.819C1625.51 996.16 1623.31 996.088 1621.23 994.354C1637.49 984.079 1750.22 959.03 1775.99 952.962C1771.64 917.859 1758.79 865.649 1760.9 832.257Z" fill="#007CFE"/>
<path d="M1526.26 1015.66C1531.28 1012.81 1536.51 1009.55 1542.09 1007.74C1561.54 1001.45 1599.41 999.561 1620.86 998.275C1623.1 1009.01 1632.74 1044.3 1628.1 1053.37C1625.12 1053.81 1626.45 1054.05 1624.08 1052.98C1618.41 1047.6 1611.4 1047.98 1603.78 1047.51L1602.18 1045.68C1601.72 1042.39 1601.25 1039.98 1599.79 1036.9C1595.86 1033.84 1592.08 1033.18 1587.05 1033.49C1580.82 1033.88 1574.6 1033.93 1568.35 1034.02C1562.83 1034.07 1535.54 1028.67 1532.08 1026.07L1526.26 1015.66Z" fill="#FCB690"/>
<path d="M1632.28 1075.64C1632.47 1075.54 1632.65 1075.43 1632.83 1075.32C1639.16 1071.82 1646.88 1070.89 1654.04 1069.68C1693.08 1063.06 1732.88 1060.36 1771.92 1053.84C1783.15 1051.96 1809.56 1044.15 1819.76 1046.38L1820.64 1050.21L1820.17 1077.69C1789.99 1079.74 1758.29 1077.83 1727.94 1077.68C1698.11 1077.53 1660.97 1079.9 1632.28 1075.64Z" fill="#0E43DA"/>
<path d="M1502.94 783.902C1504.06 784.859 1505.58 785.528 1506.3 786.775C1508.98 791.413 1517.96 937.07 1519.07 953.545C1520.2 970.448 1517.7 1001.17 1526.26 1015.66L1532.08 1026.07C1515.78 1026.32 1499.29 1025.38 1483 1024.7C1476.53 999.362 1465.72 974.728 1458.79 949.361C1464.62 934.598 1467.09 917.697 1471.28 902.354L1502.94 783.902Z" fill="#007CFE"/>
<path d="M1410.14 1327.72C1418.45 1343.9 1423.41 1496.6 1428.19 1529.42C1436.79 1530.11 1445.38 1530.9 1454.02 1531.04C1453.84 1540.26 1454.27 1549.94 1452.86 1559.05C1449.51 1563.76 1446.35 1569.35 1441.51 1572.84C1424.23 1565.75 1358.07 1564.31 1336.46 1565.2L1332.24 1562.9C1336 1553.79 1336.7 1542.82 1337.37 1533.12C1349.43 1533.32 1361.53 1533.12 1373.6 1533.1C1383.14 1464.34 1400.81 1396.5 1410.14 1327.72Z" fill="#FEFEFE"/>
<path d="M1532.08 1026.07C1535.54 1028.67 1562.83 1034.08 1568.35 1034.02C1574.6 1033.93 1580.82 1033.88 1587.05 1033.49C1592.07 1033.18 1595.86 1033.84 1599.79 1036.91C1601.25 1039.98 1601.72 1042.39 1602.18 1045.68L1603.78 1047.51C1611.4 1047.98 1618.4 1047.6 1624.08 1052.99C1618.08 1056.79 1617.82 1067.71 1616.08 1073.87C1614.3 1076.13 1614.13 1076.66 1610.98 1077.15C1598.7 1079.06 1560.93 1077.34 1546 1077.39L1396.28 1077.49C1370.38 1077.5 1343.49 1076.22 1317.7 1078.14C1252.56 1079.95 1186.78 1078.28 1121.57 1078.4C1116.92 1078.33 1111.38 1078.74 1107.6 1075.78C1100.71 1070.37 1102.8 1056.16 1102.85 1048.39C1108.81 1047.02 1114.21 1046.18 1120.36 1046C1123.45 1043.24 1126.76 1040.73 1130.29 1038.46C1149.78 1025.99 1168.59 1027.97 1190.42 1031.91C1198.66 1036.15 1207.26 1041.43 1215.97 1044.69C1236.36 1048.85 1262.25 1046.25 1283.31 1046.33L1433.12 1046.45C1447.43 1046.43 1471.81 1044.31 1484.85 1047.12C1486.56 1038.93 1485.2 1032.6 1483 1024.71C1499.29 1025.38 1515.78 1026.33 1532.08 1026.07Z" fill="#79741D"/>
<path d="M1568.35 1034.02C1574.6 1033.93 1580.82 1033.88 1587.05 1033.49C1592.08 1033.18 1595.86 1033.84 1599.79 1036.91C1601.25 1039.98 1601.72 1042.39 1602.18 1045.68L1601.23 1046.99C1595.05 1049.56 1504.68 1048.13 1492.57 1045.78L1491.43 1042.92C1508.29 1036.17 1543.17 1044.99 1561.76 1040.24C1566.06 1039.14 1566.43 1037.6 1568.35 1034.02Z" fill="url(#paint1_linear_41_3)"/>
<path d="M1532.08 1026.07C1535.54 1028.67 1562.83 1034.08 1568.35 1034.02C1566.43 1037.6 1566.06 1039.14 1561.76 1040.24C1543.17 1044.99 1508.29 1036.17 1491.43 1042.92C1489.35 1045.41 1488.03 1046.06 1484.85 1047.12C1486.56 1038.93 1485.21 1032.6 1483 1024.7C1499.29 1025.38 1515.78 1026.32 1532.08 1026.07Z" fill="#79741D"/>
<path d="M1120.36 1046C1123.45 1043.24 1126.76 1040.73 1130.29 1038.46C1149.78 1025.99 1168.59 1027.97 1190.42 1031.9C1198.66 1036.15 1207.26 1041.43 1215.97 1044.69C1201.04 1047.75 1136.41 1048.03 1120.36 1046Z" fill="#F05239"/>
<path d="M1121.57 1078.4C1186.78 1078.28 1252.56 1079.94 1317.71 1078.14C1299.67 1091.63 1282.19 1105.46 1272.88 1125.73C1263.41 1139.61 1257.36 1157.37 1254.29 1173.48C1250.64 1192.64 1249.84 1212.66 1248.26 1232.05L1240.69 1325.07C1236.71 1368.26 1232.97 1411.46 1229.49 1454.68C1227.24 1479.84 1223.75 1505.31 1223.02 1530.53C1232.89 1532.26 1242.42 1533.31 1252.49 1533.27C1252.13 1541.32 1253.14 1552.85 1250.54 1560.35C1247.92 1562.85 1245.18 1565.28 1242.89 1568.04C1221.97 1556.41 1147.95 1561.13 1121.32 1561.02C1118.51 1547.05 1120.45 1529.99 1120.52 1515.74L1120.82 1426.77C1120.57 1310.66 1117.96 1194.47 1121.57 1078.4Z" fill="#FEFEFE"/>
<path d="M1820.64 1050.21L1821.17 1050.2C1822.14 1063.47 1820.83 1076.69 1821.41 1089.95C1822.67 1118.74 1831.61 1150.56 1808.8 1174.73C1795.65 1188.65 1777.85 1194.29 1758.42 1195.24C1730.03 1196.62 1701.8 1197.59 1673.41 1199.56C1658.72 1200.58 1642.04 1203.77 1627.48 1202.99C1611.62 1205.19 1592.15 1206.51 1581.94 1219.66C1576.51 1226.64 1575.49 1234.33 1574.47 1242.66C1574.57 1245.61 1574.75 1248.58 1574.74 1251.53C1571.37 1316.36 1569.64 1381.37 1566.77 1446.25C1565.53 1474.51 1565.31 1503.1 1562.47 1531.26C1556.26 1532.24 1550.41 1533.34 1544.07 1532.9C1524.77 1529.46 1476.17 1531.32 1454.02 1531.05C1445.38 1530.9 1436.79 1530.11 1428.19 1529.42C1423.41 1496.6 1418.45 1343.9 1410.14 1327.72C1409.33 1307.26 1408.71 1286.94 1407.39 1266.47C1405.26 1233.42 1398.45 1194.47 1408.43 1162.19C1412.52 1148.98 1420.67 1137.67 1428.67 1126.27C1435.6 1119.14 1442.65 1112.42 1451.2 1106.94C1460.86 1100.76 1471.45 1097.08 1483.07 1095.65C1523.65 1090.65 1584.41 1094.22 1626.67 1094.44L1738.64 1095.37C1765.52 1095.71 1793.81 1095.05 1820.31 1099.5C1820.06 1092.24 1820.19 1084.95 1820.17 1077.69L1820.64 1050.21Z" fill="#97BEFD"/>
<path d="M1574.47 1242.66C1573.58 1241.35 1572.59 1240 1572.07 1238.51C1569.7 1231.64 1569.87 1220 1573.11 1213.49C1576.54 1206.6 1582.64 1201.89 1590.44 1199.68C1600.81 1196.73 1617.93 1198.19 1627.48 1202.99C1611.62 1205.19 1592.15 1206.51 1581.94 1219.66C1576.51 1226.64 1575.49 1234.33 1574.47 1242.66Z" fill="#4896FE"/>
<defs>
<linearGradient id="paint0_linear_41_3" x1="940.674" y1="1484.35" x2="284.901" y2="1155.4" gradientUnits="userSpaceOnUse">
<stop stop-color="#314B59"/>
<stop offset="1" stop-color="#3D6279"/>
</linearGradient>
<linearGradient id="paint1_linear_41_3" x1="1561.02" y1="1019.29" x2="1538.4" y2="1065.71" gradientUnits="userSpaceOnUse">
<stop stop-color="#6F6711"/>
<stop offset="1" stop-color="#535029"/>
</linearGradient>
</defs>
</svg>
