<svg width="2903" height="1936" viewBox="0 0 2903 1936" fill="none" xmlns="http://www.w3.org/2000/svg">
<path d="M485.486 1634.8C498.639 1643.41 514.867 1647.47 530.51 1650.67C617.233 1668.4 707.003 1670.85 794.615 1658.35C837.276 1652.26 1017.67 1629.04 951.143 1549.4C936.816 1532.25 914.708 1523.91 893.291 1517.54C794.583 1488.17 687.97 1485.87 588.086 1510.96C549.542 1520.64 416.78 1567.03 475.485 1626.65C478.54 1629.76 481.899 1632.45 485.486 1634.8Z" fill="#B9D5FC"/>
<path d="M1972.48 1623.9C1985.63 1629.78 2001.86 1632.55 2017.5 1634.73C2104.23 1646.82 2194 1648.49 2281.61 1639.96C2324.27 1635.81 2504.67 1619.98 2438.14 1565.67C2423.81 1553.98 2401.7 1548.29 2380.29 1543.95C2281.58 1523.92 2174.97 1522.35 2075.08 1539.46C2036.54 1546.06 1903.78 1577.69 1962.48 1618.35C1965.54 1620.47 1968.89 1622.3 1972.48 1623.9Z" fill="#B9D5FC"/>
<path d="M739.049 1270.51C721.625 1170.46 684.883 1072.23 621.428 992.952C599.234 965.225 568.663 937.931 533.335 941.502C504.251 944.442 480.997 968.351 468.841 994.944C449.816 1036.56 452.343 1085.48 466.121 1129.12C479.9 1172.76 504.076 1212.25 528.022 1251.24C591.364 1354.39 648.329 1472.39 724.503 1565.84C789.163 1527.15 749.072 1332.63 739.049 1270.51Z" fill="#88C5FF"/>
<path d="M391.606 1189.38C367.708 1175.82 339.978 1164.74 313.264 1171.15C254.831 1185.17 241.896 1270.45 272.282 1313.94C287.511 1335.74 309.856 1351.34 331.779 1366.39C400.231 1413.36 469.27 1459.47 538.306 1505.57C572.573 1528.46 606.55 1555.27 642.765 1574.6C649.76 1546.42 633.388 1493.18 623.104 1465.77C608.277 1426.24 586.534 1389.26 562.254 1354.85C517.328 1291.21 460.039 1228.2 391.606 1189.38Z" fill="#88C5FF"/>
<path d="M939.247 1159.8C968.839 1148.95 1006.1 1156.05 1024.55 1181.61C1039.76 1202.68 1039.8 1231.14 1034.99 1256.68C1029.58 1285.37 1018.79 1313.05 1003.35 1337.83C942.418 1435.68 817.866 1478.75 754.53 1575.06C758.125 1550.07 757.472 1526.31 795.543 1413.56C813.403 1360.66 837.709 1310.16 860.414 1259.15C878.383 1218.79 894.02 1176.37 939.247 1159.8Z" fill="#88C5FF"/>
<path d="M980.767 1227.49C946.469 1269.51 913.156 1312.34 880.881 1355.94C848.715 1399.38 817.174 1443.45 787.47 1488.63C772.518 1511.37 758.621 1535.89 756.084 1563.51C755.897 1565.55 759.08 1565.54 759.266 1563.51C761.537 1538.77 773.42 1516.43 786.582 1495.84C800.739 1473.69 815.922 1452.15 830.998 1430.62C861.86 1386.56 893.756 1343.22 926.663 1300.66C945.134 1276.77 963.924 1253.14 983.017 1229.74C984.302 1228.17 982.064 1225.9 980.767 1227.49Z" fill="white"/>
<path d="M536.959 1029.24C553.996 1061.76 570.205 1094.72 585.547 1128.07C600.972 1161.6 615.528 1195.53 629.192 1229.82C642.72 1263.77 655.379 1298.07 667.154 1332.66C678.982 1367.42 689.918 1402.48 699.944 1437.79C709.97 1473.11 719.086 1508.69 727.276 1544.48C728.29 1548.91 729.289 1553.34 730.276 1557.78C730.72 1559.78 733.788 1558.94 733.344 1556.94C725.339 1520.93 716.414 1485.14 706.56 1449.6C696.752 1414.22 686.031 1379.09 674.415 1344.26C662.747 1309.28 650.175 1274.59 636.716 1240.25C623.391 1206.26 609.201 1172.6 594.163 1139.33C578.973 1105.73 562.912 1072.51 545.999 1039.74C543.914 1035.7 541.815 1031.67 539.705 1027.64C538.755 1025.82 536.008 1027.43 536.959 1029.24Z" fill="white"/>
<path d="M332.746 1244.35C380.656 1280.39 426.558 1319.09 470.176 1360.22C491.79 1380.61 512.844 1401.59 533.303 1423.13C553.41 1444.3 573.251 1465.86 591.589 1488.6C611.837 1513.7 630.025 1540.69 642.742 1570.44C643.545 1572.32 646.286 1570.7 645.489 1568.83C622.629 1515.35 582.743 1471.23 543.454 1429.26C502.273 1385.27 458.63 1343.59 412.803 1304.47C387.31 1282.71 361.136 1261.75 334.351 1241.6C332.715 1240.37 331.127 1243.13 332.746 1244.35Z" fill="white"/>
<path d="M2503.84 1300.43C2525.92 1262.5 2550.39 1224.38 2586.34 1199.22C2615.07 1179.11 2656.3 1169.34 2684.26 1190.52C2716.54 1214.97 2703.73 1270.18 2685.27 1298.68C2665.87 1328.64 2636.26 1350.16 2608.56 1372.66C2521.18 1443.63 2447.66 1529.88 2374.68 1615.6C2377.23 1612.6 2377.29 1588.71 2378.47 1583.39C2381.66 1569.08 2385.81 1554.99 2390.36 1541.07C2400.47 1510.17 2412.93 1480.05 2426.3 1450.43C2449.45 1399.14 2475.54 1349.06 2503.84 1300.43Z" fill="#88C5FF"/>
<path d="M2474.84 1157.89C2481.61 1120 2487 1080.36 2475.75 1043.55C2464.5 1006.74 2431.98 973.699 2393.51 974.151C2362.73 974.512 2335.19 996.191 2320.23 1023.1C2305.28 1050.01 2300.94 1081.46 2299.13 1112.2C2293.89 1201.49 2307.86 1290.12 2318.73 1378.45C2327.05 1446.03 2315.49 1533.76 2333.75 1596.49C2365.08 1559.92 2377.68 1499.29 2393.96 1454.04C2428.73 1357.41 2456.77 1259.07 2474.84 1157.89Z" fill="#88C5FF"/>
<path d="M2638.37 1234.74C2596.5 1275.74 2555.62 1317.86 2518.07 1362.89C2481.15 1407.16 2447.37 1454.31 2420.16 1505.21C2404.99 1533.6 2391.93 1563.1 2381.48 1593.55C2380.74 1595.72 2384.18 1596.66 2384.92 1594.5C2403.59 1540.05 2430.81 1488.93 2463.06 1441.36C2495.55 1393.45 2532.99 1349.08 2572.51 1306.85C2594.74 1283.11 2617.65 1260.02 2640.89 1237.26C2642.53 1235.66 2640.01 1233.14 2638.37 1234.74Z" fill="white"/>
<path d="M2402.28 1083.94C2400.75 1113.75 2399.22 1143.56 2397.69 1173.37C2396.95 1187.91 2396.2 1202.45 2395.45 1216.99C2395.06 1224.61 2394.91 1232.27 2394.15 1239.87C2392.08 1260.68 2388.15 1281.39 2384.64 1301.99C2379.17 1334.09 2373.42 1366.13 2367.68 1398.18C2361.77 1431.11 2355.83 1464.04 2350.1 1497.01C2346.02 1520.47 2341.8 1543.95 2338.67 1567.56C2338.44 1569.28 2338.23 1571 2338.03 1572.72C2337.76 1575 2341.33 1574.98 2341.59 1572.72C2344.12 1550.95 2348.12 1529.31 2351.84 1507.71C2357.45 1475.18 2363.3 1442.69 2369.13 1410.2C2374.98 1377.55 2380.85 1344.91 2386.49 1312.22C2390.36 1289.74 2394.43 1267.23 2397.19 1244.58C2399.23 1227.87 2399.33 1210.89 2400.19 1194.09C2401.7 1164.64 2403.21 1135.2 2404.73 1105.75C2405.1 1098.48 2405.47 1091.21 2405.84 1083.94C2405.96 1081.65 2402.4 1081.65 2402.28 1083.94Z" fill="white"/>
<path d="M2597.14 468.421C2591.49 421.28 2532.99 383.96 2460.74 382.259C2446.34 325.923 2391.63 284 2326.33 284C2267.41 284 2217.12 318.119 2197.27 366.158C2196.59 366.146 2195.9 366.134 2195.22 366.134C2134.46 366.134 2061 412.224 2061 468.421C2061 468.6 2085.22 468.243 2085.22 468.421H2597.14Z" fill="#FBFBFA"/>
<path d="M565.985 723.434C554.821 669.04 525.77 632.671 480.922 633.9C453.509 634.652 450.066 642.767 439.985 647.428C416.059 594.302 367.102 557.991 316.769 557.991C242.12 557.991 186.334 625.816 184.394 723.434H565.985Z" fill="#FBFBFA"/>
<path d="M1851.73 423.102H945.993V1592.75H1851.73V423.102Z" fill="#005F99"/>
<path d="M1799.57 468.046H994.422V1530.1H1799.57V468.046Z" fill="white"/>
<path d="M1799.57 1530.1H1623.68H994.422V468.046H1799.57V1390.85V1530.1Z" fill="#F4F6F9"/>
<path d="M1799.57 1390.85L1634.2 1365.41L1623.68 1530.1" fill="#E0E6F2"/>
<path d="M1753.93 571.58H1053.99V725.344H1753.93V571.58Z" fill="#C3D8F1"/>
<path d="M1501.3 399.554C1501.77 395.841 1502.04 392.066 1502.04 388.225C1502.04 339.14 1462.17 299.349 1412.98 299.349C1363.8 299.349 1323.92 339.14 1323.92 388.225C1323.92 392.066 1324.19 395.842 1324.67 399.554H1163.04V494.326H1241.17C1276.37 547.915 1343.11 584.089 1419.67 584.089C1496.23 584.089 1562.98 547.915 1598.17 494.326H1676.3V399.554H1501.3ZM1411.22 424.404C1384.39 424.404 1362.65 402.701 1362.65 375.929C1362.65 349.157 1384.39 327.454 1411.22 327.454C1438.05 327.454 1459.8 349.157 1459.8 375.929C1459.8 402.701 1438.05 424.404 1411.22 424.404Z" fill="#FFB74D"/>
<path d="M1205.32 462.364C1259.72 462.364 1314.13 462.364 1368.53 462.364C1422.93 462.364 1477.33 462.364 1531.73 462.364C1562.3 462.364 1592.87 462.364 1623.43 462.364C1628.6 462.364 1633.54 457.824 1633.3 452.493C1633.06 447.145 1628.97 442.622 1623.43 442.622C1569.03 442.622 1514.63 442.622 1460.23 442.622C1405.83 442.622 1351.42 442.622 1297.02 442.622C1266.46 442.622 1235.89 442.622 1205.32 442.622C1200.16 442.622 1195.22 447.162 1195.45 452.493C1195.69 457.841 1199.79 462.364 1205.32 462.364Z" fill="#42210B"/>
<path d="M1665.46 608.818H1638.39V686.8H1665.46V608.818Z" fill="#EB463F"/>
<path d="M1613.72 634.272V661.346H1691.68V634.272H1613.72Z" fill="#EB463F"/>
<path d="M1161.44 787.104H1064.7V883.879H1161.44V787.104Z" fill="#65B2FF"/>
<path d="M1213.19 808.248H1604.38" stroke="#9ABBD6" stroke-width="14.4556" stroke-miterlimit="10" stroke-linecap="round" stroke-linejoin="round"/>
<path d="M1214.94 1374.18H1516.67" stroke="#9ABBD6" stroke-width="14.4556" stroke-miterlimit="10" stroke-linecap="round" stroke-linejoin="round"/>
<path d="M1214.94 1036.38H1606.14" stroke="#9ABBD6" stroke-width="14.4556" stroke-miterlimit="10" stroke-linecap="round" stroke-linejoin="round"/>
<path d="M1213.19 839.835H1530.7" stroke="#9ABBD6" stroke-width="14.4556" stroke-miterlimit="10" stroke-linecap="round" stroke-linejoin="round"/>
<path d="M1213.19 868.79H1734.19" stroke="#9ABBD6" stroke-width="14.4556" stroke-miterlimit="10" stroke-linecap="round" stroke-linejoin="round"/>
<path d="M1161.44 985.4H1064.7V1082.17H1161.44V985.4Z" fill="#65B2FF"/>
<path d="M1214.94 1006.54H1497.37" stroke="#9ABBD6" stroke-width="14.4556" stroke-miterlimit="10" stroke-linecap="round" stroke-linejoin="round"/>
<path d="M1214.94 1067.08H1735.95" stroke="#9ABBD6" stroke-width="14.4556" stroke-miterlimit="10" stroke-linecap="round" stroke-linejoin="round"/>
<path d="M1161.44 1150.35H1064.7V1247.13H1161.44V1150.35Z" fill="#65B2FF"/>
<path d="M1214.94 1171.5H1682.88" stroke="#9ABBD6" stroke-width="14.4556" stroke-miterlimit="10" stroke-linecap="round" stroke-linejoin="round"/>
<path d="M1214.94 1232.04H1599.12" stroke="#9ABBD6" stroke-width="14.4556" stroke-miterlimit="10" stroke-linecap="round" stroke-linejoin="round"/>
<path d="M1161.44 1318.82H1064.7V1415.59H1161.44V1318.82Z" fill="#65B2FF"/>
<path d="M1214.94 1339.96H1735.95" stroke="#9ABBD6" stroke-width="14.4556" stroke-miterlimit="10" stroke-linecap="round" stroke-linejoin="round"/>
<path d="M1214.94 1201.77H1439.48" stroke="#9ABBD6" stroke-width="14.4556" stroke-miterlimit="10" stroke-linecap="round" stroke-linejoin="round"/>
<path d="M1097.41 828.428L1131.62 865.28L1184.24 799.474" stroke="#EB463F" stroke-width="19.2741" stroke-miterlimit="10" stroke-linecap="round" stroke-linejoin="round"/>
<path d="M1097.41 1028.48L1131.62 1065.33L1184.24 999.524" stroke="#EB463F" stroke-width="19.2741" stroke-miterlimit="10" stroke-linecap="round" stroke-linejoin="round"/>
<path d="M1097.41 1196.94L1131.62 1233.79L1184.24 1167.99" stroke="#EB463F" stroke-width="19.2741" stroke-miterlimit="10" stroke-linecap="round" stroke-linejoin="round"/>
<path d="M1097.41 1365.41L1131.62 1402.26L1184.24 1336.45" stroke="#EB463F" stroke-width="19.2741" stroke-miterlimit="10" stroke-linecap="round" stroke-linejoin="round"/>
<path d="M1652.62 706.713C1684.05 706.713 1709.54 681.222 1709.54 649.778C1709.54 618.333 1684.05 592.843 1652.62 592.843C1621.19 592.843 1595.71 618.333 1595.71 649.778C1595.71 681.222 1621.19 706.713 1652.62 706.713Z" stroke="#EB463F" stroke-width="10.9709" stroke-miterlimit="10" stroke-linecap="round" stroke-linejoin="round"/>
<path d="M1197.4 613.901H1089.52V637.592H1197.4V613.901Z" fill="white"/>
<path d="M1257.26 666.546H1089.52V690.236H1257.26V666.546Z" fill="white"/>
<path d="M1048.47 1115.85V1115.87L886.34 1112.59C886.757 1118.73 866.95 1270.7 801.752 1297.1C801.752 1297.1 849.886 1437.98 890.643 1509.9C939.842 1596.72 1042.8 1647.69 1042.8 1647.69L1043.35 1647.71C1043.35 1647.71 1043.46 1647.66 1043.64 1647.58L1053.63 1115.97L1048.47 1115.85Z" fill="#FFBA3D"/>
<path d="M1223.01 1119.95L1060.89 1116.14L1060.89 1116.12L1054.68 1116L1053.63 1115.97L1043.63 1647.58C1049.5 1644.94 1149.99 1598.79 1201.37 1516.69C1245.23 1446.62 1299.46 1307.98 1299.46 1307.98C1235.48 1278.75 1222.32 1126.06 1223.01 1119.95Z" fill="#F4BE4C"/>
<path d="M1048.82 1143.26L1048.82 1143.28L911.368 1140.51C911.718 1145.86 894.844 1278.45 839.556 1301.51C839.556 1301.51 880.288 1424.38 914.803 1487.1C956.466 1562.81 1043.72 1607.23 1043.72 1607.23L1044.19 1607.24C1044.19 1607.24 1044.29 1607.19 1044.39 1607.14L1053.11 1143.36L1048.82 1143.26Z" fill="#DCE4E5"/>
<path d="M1196.79 1146.74L1059.35 1143.51L1059.35 1143.49L1054.08 1143.39L1053.11 1143.36L1044.4 1607.14C1048.62 1605.18 1134.42 1564.84 1178.23 1492.85C1215.45 1431.7 1261.51 1310.73 1261.51 1310.73C1207.28 1285.27 1196.2 1152.07 1196.79 1146.74Z" fill="#EDF3F4"/>
<path d="M1012.57 1263.21L1011.29 1321.68L952.845 1320.4L951.273 1392.36L1009.72 1393.64L1008.44 1452.1L1047.31 1452.95L1050.87 1264.05L1012.57 1263.21Z" fill="#EC4747"/>
<path d="M1083.23 1323.25L1084.5 1264.78L1050.87 1264.05L1047.31 1452.95L1080.38 1453.68L1081.65 1395.21L1140.1 1396.49L1141.67 1324.53L1083.23 1323.25Z" fill="#F15858"/>
<path opacity="0.35" d="M1083.37 1144.09C1083.37 1144.09 1032.17 1275.67 887.698 1430L900.312 1458.16C900.312 1458.16 1047.29 1321.13 1105.95 1144.66L1083.37 1144.09Z" fill="white"/>
<path opacity="0.35" d="M1199.4 1174.33C1199.4 1174.33 1120.8 1399.44 945.141 1529.76C945.141 1529.76 953.237 1538.81 955.997 1541.62C958.897 1544.58 967.738 1553 967.738 1553C967.738 1553 1119.43 1453.58 1206.34 1211.67C1206.34 1211.67 1204.44 1203.64 1202.98 1195.63C1202.02 1190.39 1199.4 1174.33 1199.4 1174.33Z" fill="white"/>
<path d="M725.086 685.925C728.78 683.036 732.368 680.077 734.698 676.211C739.796 667.757 737.565 657.44 736.751 647.853C734.035 615.873 763.589 578.166 800.373 576.414C837.094 574.665 859.306 585.298 868.41 613.991C873.364 629.606 876.302 645.502 875.38 661.724C874.505 677.121 870.185 697.575 878.453 711.653C882.52 718.579 889.757 723.921 892.053 731.524C894.695 740.266 887.886 748.855 891.608 756.947C894.007 762.162 901.504 762.803 899.805 770.557C898.771 775.277 894.774 778.74 890.704 781.344C878.396 789.218 863.752 792.386 849.46 795.413C806.81 804.448 763.85 813.519 720.263 814.35C706.142 814.618 691.422 813.868 679.006 807.136C676.484 805.769 674.03 804.112 672.384 801.761C670.401 798.927 669.783 795.355 669.653 791.898C669.287 782.158 672.656 770.692 679.562 763.538C685.213 757.682 695.403 756.829 698.519 748.469C699.44 745.996 699.393 743.332 699.424 740.726C699.64 722.569 704.825 703.354 719.132 690.726C721.023 689.056 723.071 687.501 725.086 685.925Z" fill="#16333A"/>
<path d="M807.524 1707.34L672.941 1695.37L682.384 1583.35L745.508 1586.15L739.526 1660.45C739.526 1660.45 786.561 1687.5 797.349 1693.86C803.686 1697.6 807.524 1707.34 807.524 1707.34Z" fill="#FF9A7A"/>
<path d="M742.972 1617.64L745.507 1586.15L682.383 1583.35L679.02 1623.25C683.823 1622.73 733.607 1618.21 742.972 1617.64Z" fill="#00373B"/>
<path d="M946.532 1699.47L811.95 1687.5L821.393 1575.48L884.516 1578.28L878.535 1652.58C878.535 1652.58 925.57 1679.63 936.358 1685.99C942.694 1689.73 946.532 1699.47 946.532 1699.47Z" fill="#FF9A7A"/>
<path d="M881.157 1620L884.516 1578.28L821.392 1575.48L817.156 1625.73C829.908 1625.34 880.165 1620.19 881.157 1620Z" fill="#00373B"/>
<path d="M813.24 1652.1L809.886 1683.56C809.539 1686.82 811.939 1689.73 815.204 1690L947.335 1701.13C949.726 1701.34 951.552 1699.08 950.894 1696.77C949.842 1693.08 946.792 1687.65 938.358 1682.02C932.377 1678.03 908.45 1668.56 908.45 1668.56C908.45 1668.56 911.441 1682.52 904.462 1682.02C897.483 1681.52 813.24 1652.1 813.24 1652.1Z" fill="#494447"/>
<path d="M734.91 958.578L898.777 956.317L904.515 848.822L929.101 848.942C929.101 848.942 926.824 815.443 910.484 781.495C883.767 725.987 726.113 730.237 692.28 773.106C675.328 794.586 663.432 847.6 663.432 847.6L722.269 845.049L734.91 958.578Z" fill="#FF3B49"/>
<mask id="mask0_49_647" style="mask-type:luminance" maskUnits="userSpaceOnUse" x="663" y="740" width="267" height="219">
<path d="M734.91 958.578L898.777 956.317L904.515 848.822L929.101 848.942C929.101 848.942 926.824 815.443 910.484 781.495C883.767 725.987 726.113 730.237 692.28 773.106C675.328 794.586 663.432 847.6 663.432 847.6L722.269 845.049L734.91 958.578Z" fill="white"/>
</mask>
<g mask="url(#mask0_49_647)">
<path d="M905.522 952.352C905.522 952.352 883.504 948.766 889.137 931.351C894.769 913.935 907.57 907.788 907.57 907.788" stroke="#F0EFF4" stroke-width="8.439" stroke-miterlimit="10" stroke-linecap="round" stroke-linejoin="round"/>
</g>
<path d="M898.891 1618.92C904.469 1518.46 937.247 1124.61 930.02 1073.95C923.656 1029.33 900.787 980.154 900.787 980.154L897.648 956.317L736.04 957.448L734.659 980.154C734.659 980.154 698.79 1073.98 692.552 1109.89C671.106 1233.37 663.457 1608.45 662.825 1611.92L760.748 1618.92L811.975 1126.43L806.213 1617.17L898.891 1618.92Z" fill="#B75C2B"/>
<path d="M914.007 778.476C913.782 779.46 929.102 803.139 935.475 817.4C944.767 838.192 971.197 889.028 970.361 901.961C969.525 914.892 949.234 926.333 938.517 933.611C911.994 951.623 892.841 869.988 884.823 847.936C884.823 847.936 913.843 779.19 914.007 778.476Z" fill="white"/>
<path d="M847.254 744.92C847.254 744.92 838.533 781.831 829.967 853.794C825.297 893.032 823.699 1349.54 823.699 1349.54C823.699 1349.54 940.512 1358.57 940.512 1354.73C940.512 1352.47 944.991 1086.52 927.165 1021.95C916.125 981.962 906.962 940.383 906.962 933.503C906.962 916.851 944.382 796.831 903.44 765.893C880.127 748.276 847.254 744.92 847.254 744.92Z" fill="white"/>
<mask id="mask1_49_647" style="mask-type:luminance" maskUnits="userSpaceOnUse" x="823" y="744" width="119" height="612">
<path d="M847.254 744.92C847.254 744.92 838.533 781.831 829.967 853.794C825.297 893.032 823.699 1349.54 823.699 1349.54C823.699 1349.54 940.512 1358.57 940.512 1354.73C940.512 1352.47 944.991 1086.52 927.165 1021.95C916.125 981.962 906.962 940.383 906.962 933.503C906.962 916.851 944.382 796.831 903.44 765.893C880.127 748.276 847.254 744.92 847.254 744.92Z" fill="white"/>
</mask>
<g mask="url(#mask1_49_647)">
<path d="M864.51 742.27C866.13 753.007 870.578 763.13 872.198 773.866C872.496 773.341 872.794 772.816 873.092 772.29C864.821 774.273 855.881 777.002 849.477 782.868C848.909 783.388 849.001 784.537 849.737 784.88C858.458 788.935 864.06 797.902 872.787 801.96C872.633 801.376 872.48 800.791 872.327 800.207C862.962 815.757 851.707 830.079 842.463 845.696C833.661 860.566 828.018 876.561 826.959 893.893C826.858 895.54 829.42 895.534 829.52 893.893C830.587 876.443 836.511 860.494 845.494 845.62C854.601 830.541 865.447 816.598 874.539 801.5C874.872 800.948 874.703 800.037 874.08 799.748C865.359 795.692 859.757 786.726 851.03 782.668C851.117 783.339 851.203 784.009 851.289 784.68C857.355 779.125 865.95 776.638 873.774 774.761C874.504 774.586 874.769 773.851 874.669 773.185C873.049 762.448 868.6 752.325 866.981 741.589C866.734 739.964 864.265 740.654 864.51 742.27Z" fill="#C5D0F3"/>
</g>
<mask id="mask2_49_647" style="mask-type:luminance" maskUnits="userSpaceOnUse" x="823" y="744" width="119" height="612">
<path d="M847.254 744.92C847.254 744.92 838.533 781.831 829.967 853.794C825.297 893.032 823.699 1349.54 823.699 1349.54C823.699 1349.54 940.512 1358.57 940.512 1354.73C940.512 1352.47 944.991 1086.52 927.165 1021.95C916.125 981.962 906.962 940.383 906.962 933.503C906.962 916.851 944.382 796.831 903.44 765.893C880.127 748.276 847.254 744.92 847.254 744.92Z" fill="white"/>
</mask>
<g mask="url(#mask2_49_647)">
<path d="M891.361 800.854L904.446 899.276L872.244 923.939L915.013 908.84L891.361 800.854Z" fill="#C5D0F3"/>
</g>
<mask id="mask3_49_647" style="mask-type:luminance" maskUnits="userSpaceOnUse" x="823" y="744" width="119" height="612">
<path d="M847.254 744.92C847.254 744.92 838.533 781.831 829.967 853.794C825.297 893.032 823.699 1349.54 823.699 1349.54C823.699 1349.54 940.512 1358.57 940.512 1354.73C940.512 1352.47 944.991 1086.52 927.165 1021.95C916.125 981.962 906.962 940.383 906.962 933.503C906.962 916.851 944.382 796.831 903.44 765.893C880.127 748.276 847.254 744.92 847.254 744.92Z" fill="white"/>
</mask>
<g mask="url(#mask3_49_647)">
<path d="M923.7 966.462L892.159 978.351L886.216 967.376C886.216 967.376 878.445 968.291 867.931 972.406C861.685 974.851 847.36 984.295 847.36 984.295L845.989 961.432L923.7 966.462Z" fill="#C5D0F3"/>
</g>
<path d="M774.83 741.074C774.83 741.074 821.43 809.956 828.259 859.488C835.089 909.02 802.715 1353.04 802.715 1353.04L641.466 1341.61C641.466 1341.61 677.672 1074.53 693.621 1017.06C704.264 978.709 720.776 947.471 725.815 922.969C732.035 892.727 714.432 819.065 714.432 819.065C714.432 819.065 700.204 758.147 728.661 749.607C757.117 741.067 774.83 741.074 774.83 741.074Z" fill="white"/>
<mask id="mask4_49_647" style="mask-type:luminance" maskUnits="userSpaceOnUse" x="641" y="741" width="189" height="613">
<path d="M774.83 741.074C774.83 741.074 821.43 809.956 828.259 859.488C835.089 909.02 802.715 1353.04 802.715 1353.04L641.466 1341.61C641.466 1341.61 677.672 1074.53 693.621 1017.06C704.264 978.709 720.776 947.471 725.815 922.969C732.035 892.727 714.432 819.065 714.432 819.065C714.432 819.065 700.204 758.147 728.661 749.607C757.117 741.067 774.83 741.074 774.83 741.074Z" fill="white"/>
</mask>
<g mask="url(#mask4_49_647)">
<path d="M745.011 731.138C744.027 745.553 743.944 760.003 744.763 774.428C744.805 775.184 745.32 775.621 746.043 775.709C754.504 776.736 762.771 778.776 770.762 781.734C770.448 781.322 770.135 780.91 769.822 780.499C770 791.495 766.808 802.124 760.631 811.22C760.17 811.898 760.632 812.914 761.396 813.102C792.535 820.749 820.268 840.442 838.151 867.029C843.201 874.537 847.446 882.567 850.775 890.98C851.375 892.496 853.852 891.835 853.244 890.299C841.196 859.853 817.508 834.519 788.138 820.106C779.815 816.022 771.078 812.842 762.076 810.631C762.331 811.258 762.586 811.886 762.841 812.513C769.253 803.07 772.567 791.91 772.382 780.499C772.372 779.893 771.984 779.464 771.442 779.264C763.223 776.221 754.739 774.203 746.042 773.147C746.469 773.574 746.896 774.001 747.323 774.428C746.504 760.003 746.587 745.553 747.571 731.138C747.684 729.492 745.122 729.499 745.011 731.138Z" fill="#C5D0F3"/>
</g>
<mask id="mask5_49_647" style="mask-type:luminance" maskUnits="userSpaceOnUse" x="641" y="741" width="189" height="613">
<path d="M774.83 741.074C774.83 741.074 821.43 809.956 828.259 859.488C835.089 909.02 802.715 1353.04 802.715 1353.04L641.466 1341.61C641.466 1341.61 677.672 1074.53 693.621 1017.06C704.264 978.709 720.776 947.471 725.815 922.969C732.035 892.727 714.432 819.065 714.432 819.065C714.432 819.065 700.204 758.147 728.661 749.607C757.117 741.067 774.83 741.074 774.83 741.074Z" fill="white"/>
</mask>
<g mask="url(#mask5_49_647)">
<path d="M714.874 1008.13C736.073 1002.09 754.484 988.069 765.964 969.246C765.38 969.399 764.796 969.553 764.212 969.706C767.816 971.452 770.271 975.279 771.875 978.848C771.875 978.417 771.875 977.986 771.875 977.555C769.84 980.332 767.737 983.064 765.571 985.742C762.086 990.048 758.448 993.516 754.081 996.931C742.665 1005.86 730.493 1013.21 716.865 1018.24C715.331 1018.81 715.994 1021.28 717.546 1020.71C731.316 1015.63 743.613 1008.29 755.178 999.299C759.801 995.705 763.7 992.102 767.382 987.552C769.686 984.706 771.922 981.801 774.086 978.847C774.37 978.46 774.264 977.949 774.086 977.554C772.319 973.619 769.476 969.417 765.505 967.493C764.873 967.186 764.137 967.324 763.753 967.952C752.616 986.214 734.758 999.796 714.194 1005.66C712.611 1006.11 713.283 1008.58 714.874 1008.13Z" fill="#C5D0F3"/>
</g>
<mask id="mask6_49_647" style="mask-type:luminance" maskUnits="userSpaceOnUse" x="641" y="741" width="189" height="613">
<path d="M774.83 741.074C774.83 741.074 821.43 809.956 828.259 859.488C835.089 909.02 802.715 1353.04 802.715 1353.04L641.466 1341.61C641.466 1341.61 677.672 1074.53 693.621 1017.06C704.264 978.709 720.776 947.471 725.815 922.969C732.035 892.727 714.432 819.065 714.432 819.065C714.432 819.065 700.204 758.147 728.661 749.607C757.117 741.067 774.83 741.074 774.83 741.074Z" fill="white"/>
</mask>
<g mask="url(#mask6_49_647)">
<path d="M712.271 1007.29C713.545 1011.46 714.756 1015.64 715.97 1019.82C716.428 1021.4 718.901 1020.73 718.439 1019.14C717.226 1014.96 716.015 1010.77 714.74 1006.61C714.259 1005.04 711.786 1005.71 712.271 1007.29Z" fill="#C5D0F3"/>
</g>
<mask id="mask7_49_647" style="mask-type:luminance" maskUnits="userSpaceOnUse" x="641" y="741" width="189" height="613">
<path d="M774.83 741.074C774.83 741.074 821.43 809.956 828.259 859.488C835.089 909.02 802.715 1353.04 802.715 1353.04L641.466 1341.61C641.466 1341.61 677.672 1074.53 693.621 1017.06C704.264 978.709 720.776 947.471 725.815 922.969C732.035 892.727 714.432 819.065 714.432 819.065C714.432 819.065 700.204 758.147 728.661 749.607C757.117 741.067 774.83 741.074 774.83 741.074Z" fill="white"/>
</mask>
<g mask="url(#mask7_49_647)">
<path d="M724.889 938.347C729.157 933.223 741.963 820.495 741.963 820.495L712.083 865.757L724.889 938.347Z" fill="#C5D0F3"/>
</g>
<mask id="mask8_49_647" style="mask-type:luminance" maskUnits="userSpaceOnUse" x="641" y="741" width="189" height="613">
<path d="M774.83 741.074C774.83 741.074 821.43 809.956 828.259 859.488C835.089 909.02 802.715 1353.04 802.715 1353.04L641.466 1341.61C641.466 1341.61 677.672 1074.53 693.621 1017.06C704.264 978.709 720.776 947.471 725.815 922.969C732.035 892.727 714.432 819.065 714.432 819.065C714.432 819.065 700.204 758.147 728.661 749.607C757.117 741.067 774.83 741.074 774.83 741.074Z" fill="white"/>
</mask>
<g mask="url(#mask8_49_647)">
<path d="M698.424 998.981C702.692 996.419 800.015 984.463 800.015 984.463L805.99 966.53L790.054 945.18L710.091 975.924L698.424 998.981Z" fill="#C5D0F3"/>
</g>
<mask id="mask9_49_647" style="mask-type:luminance" maskUnits="userSpaceOnUse" x="641" y="741" width="189" height="613">
<path d="M774.83 741.074C774.83 741.074 821.43 809.956 828.259 859.488C835.089 909.02 802.715 1353.04 802.715 1353.04L641.466 1341.61C641.466 1341.61 677.672 1074.53 693.621 1017.06C704.264 978.709 720.776 947.471 725.815 922.969C732.035 892.727 714.432 819.065 714.432 819.065C714.432 819.065 700.204 758.147 728.661 749.607C757.117 741.067 774.83 741.074 774.83 741.074Z" fill="white"/>
</mask>
<g mask="url(#mask9_49_647)">
<path d="M761.385 812.597C761.385 812.597 812.251 831.883 821.358 860.065C826.95 877.371 831.602 923.545 831.602 923.545L834.163 923.261C834.163 923.261 832.741 867.751 826.48 852.094C823.881 845.593 817.089 836.295 798.948 827.328C780.806 818.361 761.385 812.597 761.385 812.597Z" fill="#C5D0F3"/>
</g>
<path d="M656.932 845.904C656.932 845.904 648.547 870.825 641.561 898.585C635.861 921.236 629.898 944.207 633.199 960.463C637.005 979.207 697.239 971.014 697.239 971.014L729.26 844.396L656.932 845.904Z" fill="#FFAC80"/>
<path d="M774.44 858.407C781.041 858.407 786.392 853.054 786.392 846.451C786.392 839.848 781.041 834.495 774.44 834.495C767.839 834.495 762.488 839.848 762.488 846.451C762.488 853.054 767.839 858.407 774.44 858.407Z" fill="#6B6966"/>
<path d="M782.373 849.3C784.132 845.052 782.116 840.181 777.868 838.421C773.621 836.661 768.752 838.679 766.993 842.927C765.234 847.176 767.251 852.047 771.498 853.807C775.745 855.566 780.614 853.549 782.373 849.3Z" fill="#D0CCC6"/>
<path d="M710.981 918.151C704.021 921.146 646.899 935.519 628.714 938.284C631.153 927.332 643.366 884.365 660.08 827.32C681.848 753.026 717.207 752.342 733.854 749.78C750.5 747.217 741.963 820.495 741.963 820.495L710.981 918.151Z" fill="white"/>
<path d="M869.225 809.179C869.225 809.179 863.187 745.255 841.11 739.935C810.139 732.471 789.318 732.533 783.342 758.154C779.372 775.175 773.695 833.87 773.952 834.16" stroke="#6B6966" stroke-width="9.3799" stroke-miterlimit="10" stroke-linecap="round" stroke-linejoin="round"/>
<path d="M822.452 812.355L671.65 844.772L713.485 1039.51L864.286 1007.1L822.452 812.355Z" fill="#80C7FB"/>
<path d="M690.603 908.672C703.513 942.248 713.775 978.911 747.293 996.923C765.275 1006.59 786.76 1008.96 806.719 1007.9C825.561 1006.9 844.212 1003.7 862.65 999.764L864.231 1007.12L713.432 1039.53L678.192 873.773C678.962 875.814 687.249 899.948 690.603 908.672Z" fill="#6BB5FA"/>
<path d="M705.982 829.9L709.368 845.663L722.332 842.877C730.086 850.535 742.453 854.172 755.156 851.442C767.86 848.711 777.642 840.314 781.567 830.146L794.532 827.36L791.146 811.597L705.982 829.9Z" fill="#0069BC"/>
<path d="M715.688 837.116C738.892 832.129 762.097 827.141 785.301 822.154C787.51 821.679 786.575 818.291 784.367 818.765C761.163 823.752 737.958 828.74 714.754 833.727C712.545 834.202 713.479 837.59 715.688 837.116Z" fill="black"/>
<path d="M875.87 924.562C875.87 924.562 848.015 928.534 840.117 932.09C828.808 937.18 807.573 958.862 811.501 970.384C815.016 980.697 820.361 994.851 833.444 991.22C839.544 989.527 847.051 978.808 858.048 972.695C870.635 965.698 886.714 963.314 892.01 963.044L875.87 924.562Z" fill="#EE8F80"/>
<path d="M865.343 926.224L875.87 924.562L892.01 963.045C890.378 963.128 887.72 963.413 884.459 963.97C877.871 951.486 865.343 926.224 865.343 926.224Z" fill="#00373B"/>
<path d="M812.614 971.854L839.808 943.897" stroke="#191918" stroke-width="3.7109" stroke-miterlimit="10" stroke-linecap="round" stroke-linejoin="round"/>
<path d="M816.57 980.647L843.764 952.69" stroke="#191918" stroke-width="3.7109" stroke-miterlimit="10" stroke-linecap="round" stroke-linejoin="round"/>
<path d="M822.599 989.179L849.792 961.223" stroke="#191918" stroke-width="3.7109" stroke-miterlimit="10" stroke-linecap="round" stroke-linejoin="round"/>
<path d="M946.88 886.693C936.016 889.138 922.693 900.982 904.949 907.833C876.269 918.906 871.237 920.919 871.237 920.919L894.383 973.266C894.383 973.266 949.595 952.167 963.316 936.02C980.424 915.887 973.723 880.651 946.88 886.693Z" fill="white"/>
<path d="M774.806 892.082C774.806 892.082 803.583 879.563 813.163 878.32C821.369 877.255 832.959 875.585 838.029 882.666C841.414 887.393 846.08 899.78 846.583 910.853C846.777 915.112 846.972 922.385 843.565 924.946C836.432 930.307 827.587 927.03 819.867 927.375C803.822 928.092 787.156 935.232 781.969 938.074L774.806 892.082Z" fill="#FF9A7A"/>
<path d="M788.216 886.692L774.806 892.081L781.969 938.073C783.568 937.198 786.259 935.913 789.683 934.535C788.643 918.825 788.216 886.692 788.216 886.692Z" fill="#00373B"/>
<path d="M842.055 891.727L832.495 889.21" stroke="#191918" stroke-width="4.139" stroke-miterlimit="10" stroke-linecap="round" stroke-linejoin="round"/>
<path d="M845.577 904.309L836.018 902.296" stroke="#191918" stroke-width="4.139" stroke-miterlimit="10" stroke-linecap="round" stroke-linejoin="round"/>
<path d="M846.08 915.383L835.514 912.866" stroke="#191918" stroke-width="4.139" stroke-miterlimit="10" stroke-linecap="round" stroke-linejoin="round"/>
<path d="M634.123 930.819C648.107 919.477 683.92 912.574 702.485 907.18C722.993 901.22 779.663 886.189 779.663 886.189L787.713 956.656C787.713 956.656 704.577 981.2 663.482 986.793C624.274 992.128 623.267 960.566 625.542 945.972C626.351 940.78 631.981 932.555 634.123 930.819Z" fill="white"/>
<path d="M774.798 887.196L678.862 913.369" stroke="#191918" stroke-width="4.139" stroke-miterlimit="10" stroke-linecap="round" stroke-linejoin="round"/>
<path d="M925.58 897.767L892.874 912.867" stroke="#191918" stroke-width="4.139" stroke-miterlimit="10" stroke-linecap="round" stroke-linejoin="round"/>
<path d="M858.561 696.652C881.39 673.816 881.39 636.79 858.561 613.953C835.732 591.116 798.719 591.116 775.89 613.953C753.061 636.79 753.061 673.816 775.89 696.652C798.719 719.489 835.732 719.489 858.561 696.652Z" fill="#16333A"/>
<path d="M870.634 686.181C877.326 682.597 879.847 674.264 876.264 667.57C872.682 660.876 864.352 658.355 857.66 661.939C850.968 665.523 848.447 673.855 852.03 680.55C855.613 687.244 863.942 689.765 870.634 686.181Z" fill="#FF9A7A"/>
<path d="M772.938 692.917C780.529 692.917 786.682 686.762 786.682 679.168C786.682 671.575 780.529 665.419 772.938 665.419C765.347 665.419 759.193 671.575 759.193 679.168C759.193 686.762 765.347 692.917 772.938 692.917Z" fill="#FF9A7A"/>
<path d="M813.525 771.819C826.685 773.341 834.422 762.521 835.502 747.961L839.232 697.686L799.19 692.677L795.46 742.952C794.636 757.55 799.461 770.193 813.525 771.819Z" fill="#FF9A7A"/>
<path d="M828.042 725.953C822.913 729.105 816.979 730.055 811.392 730.637C806.351 731.163 801.341 730.982 796.41 730.142L799.19 692.677L839.232 697.686L837.792 717.088C834.724 720.391 831.634 723.746 828.042 725.953Z" fill="#00373B"/>
<path d="M769.678 673.374C771.836 703.127 795.389 725.665 822.286 723.712C849.182 721.76 869.236 696.057 867.078 666.303C864.92 636.55 860.41 610.086 815.528 612.856C777.109 615.227 767.52 643.62 769.678 673.374Z" fill="#FF9A7A"/>
<path d="M838.406 623.205C838.406 623.205 851.521 617.666 856.038 631.368C858.78 639.684 855.573 650.946 867.769 660.741C867.769 660.741 867.02 623.493 860.533 617.575C833.859 593.237 838.406 623.205 838.406 623.205Z" fill="#16333A"/>
<path d="M838.406 623.205C838.406 623.205 832.141 614.314 817.277 617.229C802.231 620.18 792.57 656.947 767.004 665.332C767.004 665.332 768.227 613.149 801.976 604.109C813.227 601.096 843.799 600.757 838.406 623.205Z" fill="#16333A"/>
<path d="M875.856 673.424L867.149 673.814" stroke="#1C1B1B" stroke-width="3.1266" stroke-miterlimit="10" stroke-linecap="round" stroke-linejoin="round"/>
<path d="M761.961 679.965L774.05 680.893" stroke="#1C1B1B" stroke-width="3.1266" stroke-miterlimit="10" stroke-linecap="round" stroke-linejoin="round"/>
<path d="M826.895 669.706L831.704 685.887L824.709 685.449" stroke="#1C1B1B" stroke-width="3.1266" stroke-miterlimit="10" stroke-linecap="round" stroke-linejoin="round"/>
<path d="M843.087 672.032C843.166 674.725 845.034 676.856 847.26 676.791C849.485 676.726 851.227 674.491 851.149 671.797C851.071 669.104 849.203 666.973 846.977 667.038C844.75 667.103 843.009 669.339 843.087 672.032Z" fill="#282B2D"/>
<path d="M801.616 674.903C801.694 677.596 803.562 679.727 805.788 679.662C808.014 679.598 809.755 677.362 809.677 674.668C809.599 671.975 807.73 669.844 805.504 669.909C803.279 669.973 801.538 672.209 801.616 674.903Z" fill="#282B2D"/>
<path d="M855.16 694.178C858.164 690.702 857.783 685.448 854.309 682.443C850.834 679.437 845.582 679.818 842.578 683.294C839.573 686.769 839.954 692.023 843.429 695.029C846.903 698.034 852.155 697.653 855.16 694.178Z" fill="#FF8569"/>
<path d="M801.818 696.622C804.822 693.147 804.441 687.893 800.967 684.887C797.493 681.882 792.24 682.263 789.236 685.738C786.232 689.214 786.612 694.468 790.087 697.473C793.561 700.479 798.813 700.098 801.818 696.622Z" fill="#FF8569"/>
<path d="M831.704 694.195C831.704 694.195 827.724 696.47 823.398 695.507C819.073 694.544 814.655 689.822 814.655 689.822" stroke="#1C1B1B" stroke-width="3.1266" stroke-miterlimit="10" stroke-linecap="round" stroke-linejoin="round"/>
<path d="M837.257 661.041L853.998 661.152C855 661.159 855.826 660.344 855.832 659.342C855.839 658.339 855.025 657.514 854.022 657.507L837.281 657.397C836.279 657.39 835.454 658.204 835.447 659.207C835.441 660.209 836.255 661.034 837.257 661.041Z" fill="#282B2D"/>
<path d="M795.594 661.911L812.335 662.022C813.337 662.029 814.163 661.214 814.169 660.212C814.176 659.209 813.361 658.384 812.359 658.378L795.618 658.267C794.616 658.26 793.791 659.075 793.784 660.077C793.778 661.079 794.592 661.905 795.594 661.911Z" fill="#282B2D"/>
<path d="M869.962 907.171C869.962 907.171 882.919 907.614 882.317 892.631C881.585 874.389 868.381 796.818 860.904 798.078C850.438 799.841 838.34 893.652 847.599 902.943C852.873 908.237 856.077 907.714 856.077 907.714" stroke="#6B6966" stroke-width="3.315" stroke-miterlimit="10" stroke-linecap="round" stroke-linejoin="round"/>
<path d="M849.49 745.08C849.49 745.08 856.898 775.959 852.118 811.193" stroke="#6B6966" stroke-width="9.3799" stroke-miterlimit="10" stroke-linecap="round" stroke-linejoin="round"/>
<path d="M871.789 909.703C874.258 909.12 875.786 906.646 875.203 904.177C874.62 901.708 872.147 900.179 869.679 900.762C867.211 901.345 865.682 903.819 866.265 906.288C866.848 908.757 869.321 910.286 871.789 909.703Z" fill="#243F42"/>
<path d="M855.98 911.529C858.516 911.529 860.572 909.472 860.572 906.935C860.572 904.398 858.516 902.342 855.98 902.342C853.444 902.342 851.388 904.398 851.388 906.935C851.388 909.472 853.444 911.529 855.98 911.529Z" fill="#243F42"/>
<path d="M755.056 602.205C744.398 613.637 737.242 627.877 733.693 643.046C731.882 650.79 730.745 658.736 728.031 666.241C725.472 673.317 721.263 679.091 715.915 684.309C711.135 688.972 705.88 693.173 701.503 698.24C696.878 703.592 694.062 709.594 693.094 716.624C691.982 724.693 692.564 733.266 688.766 740.721C685.66 746.818 680.45 751.453 675.58 756.117C670.831 760.665 666.074 765.504 663.556 771.699C660.836 778.391 660.803 786.15 663.386 792.89C664.021 794.547 664.814 796.129 665.744 797.64C666.034 798.111 666.778 797.679 666.487 797.205C662.478 790.683 661.325 782.612 663.291 775.211C665.141 768.252 669.863 762.871 674.905 757.961C679.54 753.449 684.553 749.152 688.068 743.654C692.172 737.236 692.765 729.85 693.351 722.445C693.678 718.301 694.081 714.116 695.386 710.145C696.423 706.991 698.056 704.071 700.028 701.41C704.012 696.036 709.221 691.725 714.092 687.196C718.981 682.651 723.58 677.794 726.582 671.762C729.968 664.96 731.483 657.415 732.957 650.017C734.492 642.313 736.273 634.759 739.353 627.504C742.487 620.122 746.626 613.159 751.632 606.893C752.829 605.394 754.078 603.935 755.356 602.505C755.536 602.302 755.243 602.005 755.056 602.205Z" fill="#16333A"/>
<path d="M868.978 631.762C881.627 648.689 876.397 670.416 878.808 689.931C879.963 699.286 882.971 708.242 889.624 715.133C892.793 718.414 896.477 721.28 899.109 725.046C902.007 729.194 902.451 733.803 901.637 738.697C900.809 743.675 899.001 748.743 899.658 753.849C899.975 756.313 900.96 758.458 902.428 760.445C904.027 762.61 905.871 764.62 906.561 767.294C906.704 767.851 907.47 767.598 907.397 767.063C906.757 762.394 902.058 759.622 900.977 755.04C899.852 750.274 901.469 745.304 902.38 740.64C903.23 736.29 903.638 731.82 901.794 727.66C899.996 723.603 896.64 720.511 893.465 717.528C889.961 714.237 886.719 710.881 884.452 706.59C882.119 702.174 880.769 697.31 879.97 692.399C878.329 682.315 879.071 672.094 878.627 661.935C878.165 651.359 876.492 639.782 869.38 631.451C869.193 631.233 868.802 631.528 868.978 631.762Z" fill="#16333A"/>
<path d="M836.089 619.905C831.549 616.929 825.363 616.701 820.42 618.781C814.851 621.124 811.51 626.333 808.272 631.153C801.614 641.062 793.857 650.714 784.01 657.623C781.395 659.458 778.634 661.085 775.741 662.441C772.592 663.917 769.336 664.829 766.036 665.868C765.596 666.007 765.783 666.618 766.223 666.547C771.589 665.677 776.943 663.064 781.529 660.229C786.215 657.333 790.466 653.76 794.316 649.829C798.274 645.788 801.83 641.371 805.164 636.807C808.699 631.967 811.618 626.275 816.164 622.284C821.72 617.406 829.422 616.985 835.865 620.288C836.119 620.419 836.328 620.061 836.089 619.905Z" fill="#16333A"/>
<path d="M711.505 723.329C700.292 725.494 697.632 738.551 693.382 747.24C692.128 749.804 690.616 752.252 688.614 754.302C686.706 756.257 684.43 757.798 682.165 759.304C678.068 762.029 673.679 764.855 671.536 769.481C669.29 774.331 669.424 781.017 672.862 785.315C673.127 785.645 673.622 785.224 673.431 784.876C672.113 782.475 671.114 780.107 670.943 777.335C670.778 774.666 671.269 771.948 672.457 769.544C674.738 764.931 679.326 762.244 683.436 759.47C687.465 756.751 690.819 753.706 693.161 749.383C695.658 744.775 697.032 739.673 699.366 734.992C701.895 729.921 705.771 724.899 711.585 723.62C711.775 723.577 711.694 723.293 711.505 723.329Z" fill="#16333A"/>
<path d="M872.35 693.296C872.556 698.345 874.566 703.571 876.914 707.989C879.404 712.673 882.74 716.841 886.732 720.327C890.739 723.827 895.015 727.082 896.237 732.558C897.294 737.296 896.365 742.254 895.838 747C895.277 752.045 894.968 757.528 897.795 762.003C898.094 762.478 898.835 762.051 898.55 761.562C893.574 753.031 898.663 742.94 897.364 733.797C896.651 728.783 893.726 725.206 889.994 721.983C885.881 718.43 882.067 714.876 879.123 710.249C877.492 707.687 876.139 704.956 875.072 702.113C873.984 699.213 873.413 696.246 872.692 693.25C872.646 693.06 872.342 693.098 872.35 693.296Z" fill="#16333A"/>
<path d="M674.23 1659.97L670.876 1691.43C670.529 1694.69 672.929 1697.6 676.195 1697.87L808.325 1709C810.717 1709.21 812.543 1706.95 811.884 1704.64C810.832 1700.95 807.782 1695.52 799.349 1689.89C793.367 1685.9 769.44 1676.43 769.44 1676.43C769.44 1676.43 772.431 1690.39 765.452 1689.89C758.473 1689.39 674.23 1659.97 674.23 1659.97Z" fill="#494447"/>
<path d="M1796.91 1632.65H1585.22C1560.53 1632.65 1540.33 1612.44 1540.33 1587.74V1455.32C1540.33 1430.62 1560.53 1410.41 1585.22 1410.41H1796.91C1821.6 1410.41 1841.8 1430.62 1841.8 1455.32V1587.74C1841.8 1612.44 1821.6 1632.65 1796.91 1632.65Z" fill="#5592D0"/>
<path d="M1841.8 1469.82V1455.32C1841.8 1430.62 1821.6 1410.41 1796.91 1410.41H1585.22C1560.53 1410.41 1540.33 1430.62 1540.33 1455.32V1469.82H1841.8Z" fill="#3A64BB"/>
<path d="M1754.07 1409.52H1768.43L1745.16 1369.21L1742.97 1368.16H1656.67L1655.11 1369.21L1631.84 1409.52L1644.97 1409.4L1661.03 1381.57H1739.24L1754.07 1409.52Z" fill="#3A64BB"/>
<path d="M1702.17 1493.09H1673.07V1576.86H1702.17V1493.09Z" fill="white"/>
<path d="M1729.49 1549.53V1520.42H1645.75V1549.53H1729.49Z" fill="white"/>
<path d="M1742.23 1589.62C1772.4 1559.44 1772.4 1510.51 1742.23 1480.33C1712.06 1450.15 1663.14 1450.15 1632.97 1480.33C1602.8 1510.51 1602.8 1559.44 1632.97 1589.62C1663.14 1619.81 1712.06 1619.81 1742.23 1589.62Z" stroke="white" stroke-width="15.1945" stroke-miterlimit="10"/>
<path d="M1606.8 1629.41C1607 1653.08 1587.98 1672.43 1564.31 1672.63L1439.43 1673.69C1415.76 1673.89 1396.42 1654.86 1396.22 1631.18C1396.02 1607.51 1415.04 1588.16 1438.71 1587.96L1563.59 1586.9C1587.25 1586.71 1606.6 1605.73 1606.8 1629.41Z" fill="#FFB74D"/>
<path d="M1500.2 1587.44L1448.84 1587.87C1413.98 1585.54 1396.45 1598.73 1396.22 1631.19C1398.95 1666.21 1418.95 1674.82 1448.21 1674.57L1500.92 1673.17L1500.2 1587.44Z" fill="#3A64BB"/>
<path d="M1972.29 712.691C1981.68 657.346 1939.39 650.988 1939.39 650.988C1919.66 622.784 1889.11 635.094 1889.11 635.094C1826.14 649.285 1847.76 712.691 1847.76 712.691C1847.76 712.691 1857.63 709.138 1865.15 690.875C1872.67 672.611 1876.13 675.585 1880.98 679.034C1880.98 679.034 1889.58 670.856 1892.4 683.25C1895.22 695.645 1898.98 707.579 1915.9 707.723C1915.9 707.723 1931.4 717.892 1941.74 717.11V729.1L1926.24 772.704C1945.97 780.192 1953.96 764.279 1953.96 764.279C1990.61 748.3 1972.29 712.691 1972.29 712.691Z" fill="#FEFFFD"/>
<path d="M1927.57 766.914L1885.61 772.236L1893.7 836.037L1935.66 830.715L1927.57 766.914Z" fill="#FF9A7A"/>
<path d="M1900.97 793.315C1906.56 795.286 1912.53 795.928 1918.42 796.343C1922.69 796.644 1926.95 796.667 1931.19 796.414L1927.46 766.975L1885.5 772.295L1887.49 787.991C1892.08 789.523 1896.4 791.706 1900.97 793.315Z" fill="#00373B"/>
<path d="M1852.46 703.563L1855.75 758.634C1855.75 758.634 1859.51 784.488 1886.29 785.898C1913.08 787.308 1923.89 780.505 1932.34 765.104C1940.8 749.703 1951.61 718.693 1951.61 718.693L1919.19 662.896L1867.03 658.979L1852.46 703.563Z" fill="#FF9A7A"/>
<path d="M1941.7 756.167C1950.25 756.167 1957.17 749.24 1957.17 740.694C1957.17 732.149 1950.25 725.222 1941.7 725.222C1933.16 725.222 1926.24 732.149 1926.24 740.694C1926.24 749.24 1933.16 756.167 1941.7 756.167Z" fill="#FF9A7A"/>
<path d="M1939.43 717.109L1934.69 740.694C1943.62 718.099 1958.1 732.753 1968.53 729.099C1976.45 675.776 1939.39 650.987 1939.39 650.987C1919.66 622.783 1889.11 635.093 1889.11 635.093C1826.14 649.284 1847.76 712.69 1847.76 712.69C1847.76 712.69 1857.63 709.137 1865.15 690.874C1872.67 672.61 1876.13 675.584 1880.98 679.033C1880.98 679.033 1889.58 670.855 1892.4 683.249C1895.22 695.644 1898.98 707.578 1915.9 707.722C1915.9 707.722 1923.92 721.992 1939.43 717.109Z" fill="#FEFFFD"/>
<path d="M1849.75 815.17C1849.75 815.17 1864.26 811.721 1868.8 811.028C1873.31 810.341 1885.96 809.65 1885.96 809.65H1956.52L1980.58 954.965L1819.34 968.079L1849.75 815.17Z" fill="#FF9A7A"/>
<path d="M1814.98 1627.08L1815.55 1645.98C1815.59 1647.12 1815.03 1648.19 1814.1 1648.75L1740.68 1693.35C1738.04 1694.95 1739.24 1699.29 1742.27 1699.1L1885.13 1690.31C1886.76 1690.21 1887.98 1688.67 1887.82 1686.93L1881.6 1621.3C1881.45 1619.63 1880.07 1618.4 1878.51 1618.54L1817.61 1623.92C1816.09 1624.06 1814.94 1625.45 1814.98 1627.08Z" fill="#494447"/>
<path d="M1739.47 1697.23C1739.9 1698.33 1740.89 1699.18 1742.27 1699.1L1885.14 1690.31C1886.76 1690.21 1887.98 1688.67 1887.82 1686.93L1887.7 1685.67C1879.5 1686.5 1746.01 1696.81 1739.47 1697.23Z" fill="#352F27"/>
<path d="M1780.2 1671.57C1782.43 1674.2 1784.66 1676.82 1786.89 1679.45C1788.11 1680.9 1790.59 1680.71 1791.86 1679.45C1793.29 1678.01 1793.09 1675.93 1791.86 1674.48C1789.63 1671.85 1787.4 1669.22 1785.17 1666.6C1783.94 1665.15 1781.46 1665.33 1780.2 1666.6C1778.77 1668.03 1778.97 1670.12 1780.2 1671.57Z" fill="#F9F5F4"/>
<path d="M1793.43 1662.55C1795.16 1665.26 1796.88 1667.97 1798.61 1670.67C1801.03 1674.48 1807.12 1670.95 1804.68 1667.12C1802.95 1664.42 1801.23 1661.71 1799.5 1659C1797.08 1655.2 1790.99 1658.72 1793.43 1662.55Z" fill="#F9F5F4"/>
<path d="M1882.56 1657.15C1875.68 1656.6 1868.95 1660.2 1865.3 1666.03C1861.44 1672.19 1861.47 1679.92 1864.42 1686.41C1866.29 1690.52 1872.35 1686.95 1870.49 1682.86C1866.52 1674.14 1872.6 1663.39 1882.56 1664.18C1887.07 1664.54 1887.04 1657.5 1882.56 1657.15Z" fill="#F9F5F4"/>
<path d="M1962.47 1633.76L1963.97 1652.6C1964.06 1653.74 1963.55 1654.84 1962.66 1655.44L1891.53 1703.61C1888.97 1705.34 1890.37 1709.61 1893.39 1709.27L2035.65 1693.44C2037.27 1693.26 2038.42 1691.67 2038.17 1689.93L2028.72 1624.69C2028.48 1623.03 2027.05 1621.87 2025.5 1622.09L1964.93 1630.47C1963.42 1630.68 1962.34 1632.12 1962.47 1633.76Z" fill="#494447"/>
<path d="M1890.5 1707.54C1890.99 1708.62 1892.02 1709.43 1893.39 1709.27L2035.65 1693.44C2037.27 1693.26 2038.42 1691.67 2038.17 1689.94L2037.98 1688.68C2029.84 1689.91 1897.01 1706.81 1890.5 1707.54Z" fill="#352F27"/>
<path d="M1929.8 1679.79C1932.15 1682.3 1934.51 1684.81 1936.86 1687.32C1939.96 1690.63 1944.93 1685.65 1941.83 1682.35C1939.48 1679.84 1937.12 1677.33 1934.77 1674.82C1931.66 1671.51 1926.7 1676.49 1929.8 1679.79Z" fill="#F9F5F4"/>
<path d="M1942.6 1670.1C1944.46 1672.72 1946.31 1675.34 1948.17 1677.96C1949.27 1679.5 1951.24 1680.24 1952.98 1679.22C1954.51 1678.32 1955.34 1675.96 1954.24 1674.41C1952.38 1671.79 1950.53 1669.17 1948.67 1666.55C1947.57 1665 1945.6 1664.27 1943.86 1665.29C1942.33 1666.18 1941.5 1668.54 1942.6 1670.1Z" fill="#F9F5F4"/>
<path d="M2031.61 1660.45C2024.75 1660.24 2018.09 1664 2014.73 1670.02C2011.19 1676.34 2011.4 1684.07 2014.68 1690.42C2016.76 1694.45 2022.82 1690.89 2020.75 1686.88C2016.42 1678.49 2021.5 1667.18 2031.61 1667.48C2036.14 1667.61 2036.14 1660.58 2031.61 1660.45Z" fill="#F9F5F4"/>
<path d="M1809.39 1044.64H2023.61L2042.77 1631.41H1927.15L1915 1256.08L1892.22 1631.41H1786.09L1809.39 1044.64Z" fill="#3D4F5D"/>
<path d="M1866 811.96C1866 811.96 1900.84 866.591 1955.44 811.96L1994.26 814.012L2010.47 1043.59C2010.47 1043.59 1858.43 1072.66 1819.34 1037.07L1828.43 825.318C1828.43 825.318 1848.14 814.622 1853.27 813.202C1859.29 811.539 1866 811.96 1866 811.96Z" fill="#B75C2B"/>
<path d="M1936.5 809.164L1941.47 1369.89C1941.47 1369.89 2039.22 1368.61 2053.88 1351.56C2053.88 1351.56 2027.41 828.127 2007.3 814.756C2007.3 814.756 1984.7 811.933 1975 811.028C1965.29 810.121 1936.5 809.164 1936.5 809.164Z" fill="#BD6AF7"/>
<path d="M2010.41 816.93L1981.44 844.561C1980.63 847.806 1996.5 1025.13 1996.35 1026.62C1995.98 1030.09 1970.07 1132.46 1964.36 1155.21C1980.1 1151.62 2018.9 1136.59 2035.73 1129.6C2020.78 977.7 2022.36 824.879 2010.41 816.93Z" fill="#00373B"/>
<path d="M1968.77 1155.47L2032.56 1201.83L2044.26 1180.08L2041.46 1127.58L1968.77 1155.47Z" fill="#00373B"/>
<path d="M1979.94 1147.93C1979.94 1147.93 1973.51 1158.66 1968.77 1164.29C1961 1173.51 1946.68 1181.52 1943.49 1186.58C1941.21 1190.21 1948.68 1193.14 1953.67 1190.41C1956.77 1188.71 1958.03 1188.8 1961.2 1187.35C1969.59 1183.51 1970.16 1184.49 1970.16 1184.49L1947.08 1208.49C1944.31 1210.41 1941.81 1219.52 1950.01 1216.6C1954.73 1214.92 1965.52 1204.74 1975.05 1196.42C1975.05 1196.42 1951.26 1219.26 1949.5 1223.63C1947.83 1227.75 1947.97 1241.23 1974.54 1212.48L1983.99 1202.54C1983.99 1202.54 1968.11 1222.68 1962.02 1227.35C1958.45 1230.08 1957.44 1241.12 1969.41 1231.76C1981.5 1222.31 1992.9 1207.86 1992.9 1207.86L1988.42 1218.06L1982.45 1227.53C1981.05 1229.88 1982.01 1233.77 1984.58 1233.42C1988.15 1232.92 1992.06 1230.97 1997.51 1221.99C2007.69 1205.24 2016.99 1166.69 2016.99 1166.69L1979.94 1147.93Z" fill="#FF9A7A"/>
<path d="M2009.49 1193.07C2013.97 1179.2 2016.99 1166.69 2016.99 1166.69L1979.94 1147.93C1979.94 1147.93 1974.44 1157.1 1969.87 1162.93C1981.87 1174.49 1996.03 1183.32 2009.49 1193.07Z" fill="#00373B"/>
<path d="M1972.03 818.229C1972.03 818.229 2013.26 799.021 2035.25 838.365C2057.24 877.708 2089.3 1006.32 2080.75 1039.49C2072.2 1072.65 2031.89 1197.24 2031.89 1197.24L1962.94 1158.4L2008.68 1026.28L1972.03 818.229Z" fill="#BD6AF7"/>
<path d="M1772.65 1154.93C1772.65 1154.93 1775.99 1173.22 1771.39 1182.68C1768.42 1188.8 1778.29 1204.46 1776.62 1208.18C1774.94 1211.89 1763.54 1211.19 1759.78 1196.32C1759.34 1194.58 1755.63 1190.8 1755.63 1190.8C1755.63 1190.8 1740.08 1210.89 1762.64 1223.76C1765.39 1225.33 1767.19 1226.84 1768.37 1228.15C1770.2 1230.19 1769.55 1233.42 1767.04 1234.56C1762.26 1236.72 1752.57 1239.52 1742.61 1229.13C1727.97 1213.85 1727.82 1198.72 1729.91 1188.4C1732 1178.07 1744.18 1162.81 1743.87 1150.42L1772.65 1154.93Z" fill="#FF9A7A"/>
<path d="M1773.81 1168.03C1773.76 1161.05 1772.65 1154.93 1772.65 1154.93L1743.86 1150.42C1744 1155.84 1741.75 1161.81 1739 1167.67C1750.26 1169.32 1762.28 1169.21 1773.81 1168.03Z" fill="#00373B"/>
<path d="M1801.63 836.472C1801.63 836.472 1770.14 859.199 1749.14 993.691C1740.85 1046.71 1737.54 1106.35 1733.38 1159.7L1787.58 1166.04L1801.63 836.472Z" fill="#BD6AF7"/>
<path d="M1787.58 861.851L1767.36 1161.86L1785.57 1164.34L1787.58 861.851Z" fill="#00373B"/>
<path d="M1870.35 810.096C1870.35 810.096 1795.2 816.619 1787.58 861.851C1785.06 876.865 1797.02 957.742 1789.71 1038.42C1776.58 1183.49 1763.21 1363.16 1763.21 1363.16C1763.21 1363.16 1835.19 1379.65 1866.31 1365.23C1866.31 1365.23 1858.53 1094.47 1864.24 990.377C1869.3 898.309 1870.35 810.096 1870.35 810.096Z" fill="#BD6AF7"/>
<path d="M1909.79 1170.14L1916 1295.64" stroke="#191918" stroke-width="3.9078" stroke-miterlimit="10" stroke-linecap="round" stroke-linejoin="round"/>
<path d="M1921.46 1158.72C1921.46 1158.72 1914.95 1167.97 1894.59 1178.03" stroke="#191918" stroke-width="3.9078" stroke-miterlimit="10" stroke-linecap="round" stroke-linejoin="round"/>
<path d="M1874.13 719.611L1857.24 720.355C1855.95 720.412 1854.87 719.416 1854.81 718.132L1854.8 717.88C1854.74 716.595 1855.74 715.508 1857.02 715.451L1873.91 714.706C1875.2 714.65 1876.29 715.645 1876.34 716.93L1876.35 717.182C1876.41 718.467 1875.42 719.555 1874.13 719.611Z" fill="#FEFFFD"/>
<path d="M1918.09 719.986H1901.18C1899.89 719.986 1898.85 718.944 1898.85 717.658V717.405C1898.85 716.119 1899.89 715.077 1901.18 715.077H1918.09C1919.37 715.077 1920.41 716.119 1920.41 717.405V717.658C1920.41 718.944 1919.37 719.986 1918.09 719.986Z" fill="#FEFFFD"/>
<path d="M1866.65 737.656C1869.22 737.656 1871.29 735.578 1871.29 733.015C1871.29 730.451 1869.22 728.373 1866.65 728.373C1864.09 728.373 1862.01 730.451 1862.01 733.015C1862.01 735.578 1864.09 737.656 1866.65 737.656Z" fill="#4C4848"/>
<path d="M1911.55 737.656C1914.11 737.656 1916.19 735.578 1916.19 733.015C1916.19 730.451 1914.11 728.373 1911.55 728.373C1908.99 728.373 1906.91 730.451 1906.91 733.015C1906.91 735.578 1908.99 737.656 1911.55 737.656Z" fill="#4C4848"/>
<path d="M1875.16 693.048C1877.59 693.478 1880.07 693.284 1882.53 693.166C1885.02 693.046 1887.57 693.109 1890.02 692.641C1890.91 692.472 1890.62 691.216 1889.82 691.153C1887.25 690.955 1884.58 691.339 1882.01 691.503C1879.71 691.649 1877.38 691.746 1875.16 692.402C1874.86 692.49 1874.81 692.988 1875.16 693.048Z" fill="#E0765A"/>
<path d="M1869.85 699.462C1873.96 700.005 1878.14 699.527 1882.28 699.321C1886.54 699.11 1891.15 698.394 1895.39 699.073C1897.07 699.342 1897.41 696.968 1895.7 696.756C1891.32 696.214 1886.65 697.078 1882.28 697.43C1878.1 697.767 1873.83 697.825 1869.77 698.919C1869.45 699.006 1869.56 699.424 1869.85 699.462Z" fill="#E0765A"/>
<path d="M1873.47 706.278C1876.4 707.184 1879.92 706.757 1882.96 706.672C1886.41 706.575 1889.89 706.457 1893.33 706.14C1894.56 706.026 1894.61 704.145 1893.33 704.188C1889.87 704.305 1886.42 704.527 1882.96 704.636C1879.9 704.733 1876.4 704.385 1873.47 705.295C1872.99 705.445 1872.99 706.128 1873.47 706.278Z" fill="#E0765A"/>
<path d="M1920.95 728.165C1922.04 728.344 1923.08 728.414 1924.19 728.504C1925.22 728.587 1926.14 728.922 1926.99 728.24C1927.21 728.063 1927.27 727.607 1927.1 727.376C1926.4 726.432 1925.29 726.562 1924.19 726.617C1922.95 726.679 1921.96 726.892 1920.85 727.419C1920.55 727.564 1920.61 728.109 1920.95 728.165Z" fill="#E0765A"/>
<path d="M1920.14 732.163C1921.43 732.424 1922.69 732.889 1923.89 733.441C1924.94 733.924 1925.97 734.912 1927.18 734.795C1927.92 734.722 1928.34 734.167 1928.22 733.431C1927.96 731.923 1926.08 731.183 1924.78 730.737C1923.26 730.217 1921.7 730.277 1920.14 730.534C1919.32 730.67 1919.35 732.004 1920.14 732.163Z" fill="#E0765A"/>
<path d="M1854.95 730.159C1855.6 730.474 1856.26 730.198 1856.88 729.957C1857.6 729.681 1858.34 729.602 1859.07 729.384C1860.26 729.027 1859.98 727.348 1858.79 727.274C1857.8 727.211 1856.52 727.638 1855.69 728.167C1855.26 728.443 1854.01 729.697 1854.95 730.159Z" fill="#E0765A"/>
<path d="M1854.59 735.019C1855.07 734.78 1855.58 734.618 1856.12 734.515C1856.66 734.41 1857.19 734.272 1857.52 733.797C1857.7 733.54 1857.62 733.162 1857.42 732.95C1856.5 731.989 1854.61 732.97 1853.7 733.51C1852.73 734.091 1853.59 735.51 1854.59 735.019Z" fill="#E0765A"/>
<path d="M1873.24 746.676C1869.21 747.565 1863.4 751.436 1863.96 756.251C1864.09 757.357 1865.74 757.794 1866.05 756.534C1866.58 754.377 1867.17 752.729 1868.86 751.16C1870.35 749.77 1872.19 748.841 1873.7 747.479C1874.08 747.14 1873.68 746.579 1873.24 746.676Z" fill="#E0765A"/>
<path d="M1900.63 749.831C1901.87 750.32 1903.13 751.035 1904.14 751.906C1905.12 752.758 1905.77 753.804 1906.56 754.818C1906.81 755.135 1907.31 755.199 1907.67 755.112C1907.88 755.062 1908.03 754.966 1908.18 754.818C1908.57 754.434 1908.57 753.897 1908.36 753.432C1907.12 750.702 1903.92 748.738 1901.07 748.23C1900.01 748.041 1899.64 749.439 1900.63 749.831Z" fill="#E0765A"/>
<path d="M1954.2 1217.98L1973.76 1198.72" stroke="#191918" stroke-width="3.9078" stroke-miterlimit="10" stroke-linecap="round" stroke-linejoin="round"/>
<path d="M1965.69 1221.09L1982.77 1204.93" stroke="#191918" stroke-width="3.9078" stroke-miterlimit="10" stroke-linecap="round" stroke-linejoin="round"/>
<path d="M1889.09 734.401L1883.29 751.797L1890.74 750.969" stroke="#1C1B1B" stroke-width="2.952" stroke-miterlimit="10" stroke-linecap="round" stroke-linejoin="round"/>
<path d="M1888.26 759.253C1888.26 759.253 1894.06 762.566 1901.51 756.768" stroke="#1C1B1B" stroke-width="2.952" stroke-miterlimit="10" stroke-linecap="round" stroke-linejoin="round"/>
<path d="M1941.7 740.695L1952.03 740.2" stroke="#1C1B1B" stroke-width="2.952" stroke-miterlimit="10" stroke-linecap="round" stroke-linejoin="round"/>
<path d="M1995.5 1063.28L2017.86 1003.01" stroke="#232022" stroke-width="5.942" stroke-miterlimit="10" stroke-linecap="round" stroke-linejoin="round"/>
<path d="M2240.73 742.87C2240.73 742.87 2265.2 722.556 2262.65 670.041L2266.47 672.301C2266.47 672.301 2266.47 622.085 2247.6 624.555C2247.6 624.555 2218.45 599.036 2187.13 607.267C2155.81 615.5 2151.81 625.845 2143.46 622.552C2135.11 619.259 2155.11 633.61 2155.11 633.61C2155.11 633.61 2132.84 655.706 2132.84 667.708L2230.21 657.906C2230.21 657.906 2227.43 736.809 2240.73 742.87Z" fill="#FEFFFD"/>
<path d="M2243.37 732.591C2252.76 732.591 2260.37 723.959 2260.37 713.31C2260.37 702.662 2252.76 694.029 2243.37 694.029C2233.98 694.029 2226.37 702.662 2226.37 713.31C2226.37 723.959 2233.98 732.591 2243.37 732.591Z" fill="#FF9A7A"/>
<path d="M2177.13 829.43L2220.59 822.429L2208.1 728.478L2164.63 735.479L2177.13 829.43Z" fill="#FF9A7A"/>
<path d="M2192.22 776.211C2184.95 774.753 2174.25 772.93 2168.75 766.42L2164.63 735.479L2208.1 728.478L2214.68 777.941C2207.24 778.41 2199.74 777.718 2192.22 776.211Z" fill="#00373B"/>
<path d="M2190.37 765.322C2220.34 765.322 2244.63 737.765 2244.63 703.772C2244.63 669.779 2220.34 642.222 2190.37 642.222C2151.58 642.222 2134.47 678.559 2141.29 730.044C2144.37 753.373 2169.58 765.322 2190.37 765.322Z" fill="#FF9A7A"/>
<path d="M2199.23 670.692C2194.59 669.735 2189.46 669.956 2184.73 669.783C2179.75 669.601 2174.32 668.815 2169.38 669.382C2168.3 669.505 2167.81 671.223 2169.1 671.461C2173.77 672.329 2178.92 671.967 2183.67 672.121C2188.66 672.282 2194.07 672.922 2199.02 672.259C2199.83 672.151 2200.21 670.892 2199.23 670.692Z" fill="#E0765A"/>
<path d="M2240.44 655.215C2242.49 658.458 2230.83 674.125 2185.52 675.979L2188.14 665.226C2188.14 665.226 2162.64 675.861 2134.53 666.65C2134.53 666.65 2195.33 584.025 2240.44 655.215Z" fill="#FEFFFD"/>
<path d="M2233.85 695.614C2234.73 704.937 2239.57 713.322 2243.13 721.786C2243 718.602 2244.63 707.85 2244.63 699.692C2244.63 694.027 2246.92 679.4 2245.66 673.916C2243.99 666.631 2238.43 660.961 2233.65 666.596C2228.97 672.106 2233.18 688.579 2233.85 695.614Z" fill="#FEFFFD"/>
<path d="M2069.44 1045.83H2320.62V850.757C2320.62 812.55 2292.47 789.649 2254.87 781.577L2168.1 781.6C2127.26 788.684 2069.44 812.55 2069.44 850.757V1045.83Z" fill="#FF9A7A"/>
<path d="M2072.1 1166.18C2072.1 1166.18 2075.88 1186.51 2070.67 1197.02C2067.3 1203.82 2078.49 1221.22 2076.59 1225.35C2074.7 1229.48 2061.77 1228.7 2057.5 1212.18C2057 1210.25 2052.8 1206.05 2052.8 1206.05C2052.8 1206.05 2035.16 1228.37 2060.74 1242.67C2063.86 1244.42 2065.91 1246.1 2067.24 1247.55C2069.32 1249.82 2068.58 1253.41 2065.73 1254.67C2060.31 1257.07 2049.32 1260.19 2038.03 1248.63C2021.43 1231.66 2021.25 1214.85 2023.62 1203.38C2025.99 1191.9 2039.81 1174.94 2039.45 1161.17L2072.1 1166.18Z" fill="#FF9A7A"/>
<path d="M2031.47 1185.29C2035.57 1177.24 2039.65 1168.72 2039.45 1161.17L2072.1 1166.18C2072.1 1166.18 2072.96 1170.86 2073.29 1176.87C2059.67 1180.92 2045.34 1182.28 2031.47 1185.29Z" fill="#00373B"/>
<path d="M2122.74 891.066C2122.74 891.066 2094.72 971.965 2089.19 1003.09C2082.95 1038.16 2079.83 1173.3 2079.83 1173.3L2011.57 1173.4C2011.57 1173.4 2010.06 1020.22 2017.03 974.575C2024.27 927.15 2054.25 796.014 2105.85 793.299L2122.74 891.066Z" fill="#0091E4"/>
<path d="M2119.7 910.317C2120.07 912.098 2104.91 1001.86 2100.76 1070.49C2098.17 1113.32 2094.09 1173.3 2094.09 1173.3H2068.47C2068.47 1173.3 2073.02 1076.01 2073.22 1050.5C2073.51 1012.34 2071.41 893.181 2071.41 893.181C2071.41 859.724 2116.78 896.531 2119.7 910.317Z" fill="#00373B"/>
<path d="M2069.44 850.759L2079.83 1045.82H2320.62V850.759C2320.62 812.548 2294.42 784.241 2254.87 781.577H2225.53L2225.52 781.585L2185.17 838.407L2168.52 781.602L2168.51 781.576C2168.51 781.576 2166.24 781.68 2162.23 782.045C2161.45 782.115 2160.61 782.193 2159.7 782.28C2159.7 782.28 2159.7 782.289 2159.69 782.289C2153.14 782.932 2143.37 784.123 2131.88 786.253C2072.26 797.292 2069.44 812.548 2069.44 850.759Z" fill="#0091E4"/>
<path d="M2254.69 859.346C2253.01 838.087 2255.82 816.611 2255.26 795.282C2255.16 791.703 2255.05 788.118 2254.9 784.536C2284.33 791.408 2306.35 819.018 2306.35 852.055V1047.12L2280.52 1046.61C2280.44 1046.08 2280.23 1025.57 2275.42 993.85C2268.99 951.414 2257.25 891.668 2254.69 859.346Z" fill="#00373B"/>
<path d="M2233.49 821.654C2233.99 821.654 2234.54 821.376 2234.77 820.917C2240.81 809.079 2238.95 788.845 2229.24 778.982H2233.18C2236.81 782.55 2240.33 793.422 2240.97 795.58C2244.25 806.681 2242.08 818.843 2239.67 829.935C2234.3 827.486 2229.69 823.818 2224.68 820.755C2220.26 818.064 2218.7 817.111 2214.22 819.773C2209.11 822.808 2183.52 835.813 2183.52 835.813C2183.52 835.813 2217.63 808.737 2219.28 808.264C2221.69 807.57 2225.09 810.975 2226.68 812.635C2228.87 814.917 2233.49 821.654 2233.49 821.654Z" fill="#2E678E"/>
<path d="M2141.6 815.167C2147.73 813.325 2155.65 810.856 2161.95 809.561C2162.39 809.465 2162.95 809.613 2163.18 810.056C2166.35 816.367 2169.86 821.583 2174.84 826.685C2176.07 827.945 2182.15 834.639 2183.52 835.812C2181.87 832.674 2170.17 811.769 2167.3 807.014C2165.22 803.546 2163.45 803.155 2159.88 804.624C2156.61 805.98 2147.93 807.448 2148.2 806.293C2149.85 799.304 2152.08 786.422 2158.43 780.302C2158.74 779.998 2159.07 779.711 2159.4 779.45C2158.58 779.52 2157.69 779.598 2156.74 779.685C2156.74 779.685 2156.74 779.694 2156.73 779.694C2156.08 780.154 2155.45 780.607 2154.85 781.05C2150.98 783.953 2148.26 786.596 2145.88 791.489C2142.48 798.513 2140.86 807.901 2141.6 815.167Z" fill="#2E678E"/>
<path d="M2145.85 1669.3V1736.8H2110.9V1725.28L2095.11 1737.53L1976.32 1746.68C1976.32 1746.68 1971.97 1725.83 1989.36 1716.5C2008.32 1706.32 2067.08 1690.7 2067.08 1690.7L2068.65 1664.36L2145.85 1669.3Z" fill="#F1723D"/>
<path d="M2145.85 1730.78V1736.8H2110.9V1731.13C2116.43 1730.66 2143.67 1730.93 2145.85 1730.78Z" fill="#C56F54"/>
<path d="M2102.24 1732L2095.11 1737.53L1976.32 1746.68C1976.32 1746.68 1975.89 1744.59 1975.84 1741.44C1980.76 1740.79 2088.01 1733.54 2102.24 1732Z" fill="#C56F54"/>
<path d="M2052.54 1705.32C2050.77 1702.81 2049.01 1700.29 2047.24 1697.78C2045.99 1696.01 2043.73 1695.18 2041.75 1696.34C2040 1697.36 2039.06 1700.05 2040.31 1701.83C2042.08 1704.35 2043.85 1706.86 2045.61 1709.37C2046.86 1711.15 2049.12 1711.97 2051.1 1710.81C2052.85 1709.79 2053.8 1707.1 2052.54 1705.32Z" fill="#353130"/>
<path d="M2037.82 1710.58C2036.38 1707.98 2034.93 1705.38 2033.49 1702.77C2030.99 1698.26 2024.05 1702.3 2026.56 1706.82C2028.01 1709.43 2029.45 1712.03 2030.89 1714.63C2033.4 1719.15 2040.33 1715.1 2037.82 1710.58Z" fill="#353130"/>
<path d="M2344.99 1669.27L2351.01 1736.47L2316.21 1739.92L2315.18 1728.45L2300.56 1742.21L2183.1 1763.02C2183.1 1763.02 2176.92 1742.69 2193.4 1731.69C2211.37 1719.69 2268.48 1698.35 2268.48 1698.35L2267.69 1671.97L2344.99 1669.27Z" fill="#F1723D"/>
<path d="M2350.47 1730.48L2351.01 1736.47L2316.21 1739.92L2315.71 1734.28C2321.17 1733.26 2348.31 1730.84 2350.47 1730.48Z" fill="#C56F54"/>
<path d="M2307.16 1736L2300.56 1742.21L2183.1 1763.02C2183.1 1763.02 2182.48 1760.98 2182.16 1757.86C2187 1756.73 2293.14 1738.93 2307.16 1736Z" fill="#C56F54"/>
<path d="M2254.87 1713.85C2252.89 1711.53 2250.91 1709.2 2248.92 1706.87C2247.52 1705.22 2244.69 1705.42 2243.25 1706.87C2241.61 1708.5 2241.84 1710.89 2243.25 1712.54C2245.23 1714.87 2247.22 1717.2 2249.2 1719.53C2250.61 1721.18 2253.43 1720.98 2254.87 1719.53C2256.51 1717.89 2256.28 1715.51 2254.87 1713.85Z" fill="#353130"/>
<path d="M2241.31 1721.35C2239.64 1718.9 2237.98 1716.45 2236.31 1714.01C2235.09 1712.22 2232.78 1711.42 2230.82 1712.57C2229.05 1713.6 2228.15 1716.26 2229.38 1718.06C2231.05 1720.51 2232.72 1722.95 2234.38 1725.4C2235.6 1727.19 2237.91 1727.99 2239.87 1726.84C2241.65 1725.8 2242.54 1723.15 2241.31 1721.35Z" fill="#353130"/>
<path d="M2308.69 1044.38L2082.28 1054.07C2082.28 1054.07 2056.51 1317.94 2058.16 1436.16L2043.29 1681.28H2162.27L2195.32 1232.76L2238.51 1692.47L2361.94 1681.28C2361.94 1681.28 2334.57 1413.78 2324.4 1381.68C2319.85 1367.34 2341 1203.61 2324.37 1130.91C2308.56 1061.8 2308.69 1044.38 2308.69 1044.38Z" fill="#4D505E"/>
<path d="M2079.83 1067.19H2312.42V1040.94H2079.83V1067.19Z" fill="#3E4C54"/>
<path d="M2316.92 1170.32C2316.92 1170.32 2312.88 1192.03 2318.44 1203.27C2322.04 1210.53 2310.09 1229.13 2312.12 1233.54C2314.14 1237.95 2327.96 1237.11 2332.51 1219.46C2333.05 1217.4 2337.54 1212.91 2337.54 1212.91C2337.54 1212.91 2356.39 1236.76 2329.06 1252.03C2325.72 1253.9 2323.54 1255.7 2322.11 1257.25C2319.89 1259.68 2320.68 1263.51 2323.72 1264.86C2329.51 1267.42 2341.25 1270.75 2353.32 1258.41C2371.05 1240.27 2371.24 1222.31 2368.71 1210.06C2366.18 1197.8 2351.42 1179.67 2351.8 1164.97L2316.92 1170.32Z" fill="#FF9A7A"/>
<path d="M2315.58 1189.52C2315.16 1179.83 2316.92 1170.32 2316.92 1170.32L2351.8 1164.97C2351.52 1175.7 2359.3 1188.25 2364.51 1199.02C2360.78 1198.64 2323.24 1190.51 2315.58 1189.52Z" fill="#00373B"/>
<path d="M2297.61 1185.08L2385.84 1182.49C2385.84 1182.49 2395.15 1043.63 2382.48 980.973C2375.63 947.123 2348.76 820.92 2290.53 793.11C2269.46 783.049 2246.97 782.875 2246.97 782.875L2257.54 902.811C2257.54 902.811 2291.66 984.44 2294.42 1005.97C2300.25 1051.37 2297.08 1184.72 2297.61 1185.08Z" fill="#0091E4"/>
<path d="M2161.28 1072.32H2198.33C2202.85 1072.32 2206.52 1068.65 2206.52 1064.13V1044.01C2206.52 1039.48 2202.85 1035.81 2198.33 1035.81H2161.28C2156.75 1035.81 2153.09 1039.48 2153.09 1044.01V1064.13C2153.09 1068.65 2156.75 1072.32 2161.28 1072.32Z" fill="#A0B2BA"/>
<path d="M2167.79 1067.48H2193.55C2196.8 1067.48 2199.44 1064.85 2199.44 1061.59V1046.54C2199.44 1043.29 2196.8 1040.65 2193.55 1040.65H2167.79C2164.54 1040.65 2161.9 1043.29 2161.9 1046.54V1061.59C2161.9 1064.85 2164.54 1067.48 2167.79 1067.48Z" fill="#BFCCD1"/>
<path d="M2200.27 692.868H2217.05C2219.08 692.868 2220.72 691.224 2220.72 689.198V688.839C2220.72 686.812 2219.08 685.169 2217.05 685.169H2200.27C2198.25 685.169 2196.6 686.812 2196.6 688.839V689.198C2196.6 691.225 2198.25 692.868 2200.27 692.868Z" fill="#FEFFFD"/>
<path d="M2147.08 692.282H2162.41C2164.36 692.282 2165.95 690.699 2165.95 688.745V688.12C2165.95 686.167 2164.36 684.583 2162.41 684.583H2147.08C2145.13 684.583 2143.54 686.167 2143.54 688.12V688.745C2143.54 690.699 2145.13 692.282 2147.08 692.282Z" fill="#FEFFFD"/>
<path d="M2205.58 712.802C2208.34 712.802 2210.59 710.335 2210.59 707.291C2210.59 704.248 2208.34 701.78 2205.58 701.78C2202.81 701.78 2200.57 704.248 2200.57 707.291C2200.57 710.335 2202.81 712.802 2205.58 712.802Z" fill="#4C4848"/>
<path d="M2158.2 711.907C2160.96 711.907 2163.21 709.44 2163.21 706.397C2163.21 703.353 2160.96 700.886 2158.2 700.886C2155.43 700.886 2153.19 703.353 2153.19 706.397C2153.19 709.44 2155.43 711.907 2158.2 711.907Z" fill="#4C4848"/>
<path d="M2192.42 726.241C2190.67 726.013 2166.65 726.241 2166.65 726.241C2166.65 726.241 2165.34 741.136 2179.49 741.088C2191.05 741.048 2192.42 726.241 2192.42 726.241Z" fill="#E5685C"/>
<path d="M2175.24 733.892C2179.39 732.497 2184.79 733.849 2187.59 737.648C2185.7 739.631 2183.09 741.075 2179.49 741.088C2174.89 741.104 2171.94 739.538 2170.03 737.422C2171.53 735.866 2173.23 734.568 2175.24 733.892Z" fill="#CC4237"/>
<path d="M2231.35 701.054C2230.03 699.762 2228.26 699.096 2226.47 698.727C2224.91 698.404 2223.06 698.003 2221.75 699.069C2221.3 699.435 2221.49 700.168 2221.93 700.435C2223.14 701.18 2224.76 700.799 2226.15 701.01C2227.71 701.248 2229.18 701.829 2230.72 702.136C2231.33 702.257 2231.84 701.532 2231.35 701.054Z" fill="#E0765A"/>
<path d="M2229.79 707.702C2228.71 706.403 2227.66 705.334 2226.02 704.787C2224.64 704.328 2222.92 703.987 2221.72 704.947C2221.27 705.306 2221.43 706.108 2221.9 706.36C2222.95 706.923 2224.27 706.68 2225.42 706.966C2226.72 707.289 2228.09 707.707 2229.19 708.476C2229.68 708.819 2230.12 708.103 2229.79 707.702Z" fill="#E0765A"/>
<path d="M2145.41 694.493C2144.04 693.681 2142.72 693.275 2141.14 693.74C2139.82 694.128 2138.15 694.968 2138.01 696.476C2137.96 697.034 2138.56 697.321 2139.01 697.24C2140.01 697.065 2140.73 696.121 2141.7 695.785C2142.7 695.438 2143.98 695.184 2145.03 695.412C2145.57 695.531 2145.92 694.791 2145.41 694.493Z" fill="#E0765A"/>
<path d="M2197.34 678.371C2192.77 677.33 2187.96 677.575 2183.3 677.365C2180.8 677.252 2178.3 677.112 2175.81 676.943C2173.61 676.794 2171.33 676.321 2169.17 676.813C2168.31 677.009 2168.5 678.104 2169.17 678.379C2171.22 679.211 2173.61 679.067 2175.81 679.202C2178.3 679.357 2180.8 679.482 2183.3 679.579C2187.94 679.76 2192.78 680.181 2197.34 679.154C2197.73 679.067 2197.73 678.46 2197.34 678.371Z" fill="#E0765A"/>
<path d="M2190.62 684.794C2188.16 683.969 2185.8 683.539 2183.24 683.215C2181.26 682.964 2179.07 682.182 2177.44 683.54C2177.14 683.794 2177.23 684.239 2177.44 684.504C2178.68 686.047 2180.91 685.721 2182.75 685.872C2185.39 686.086 2187.85 686.136 2190.48 685.819C2191.05 685.751 2191.21 684.992 2190.62 684.794Z" fill="#E0765A"/>
<path d="M2193.36 718.849C2195.41 721.748 2197.31 724.871 2198.56 728.206C2199.79 731.498 2199.87 734.956 2200.89 738.246C2201.09 738.91 2202.22 739.033 2202.36 738.246C2202.97 734.732 2201.54 730.509 2200.2 727.292C2198.76 723.827 2196.86 720.823 2194.12 718.263C2193.73 717.907 2193.03 718.382 2193.36 718.849Z" fill="#E0765A"/>
<path d="M2165.56 717.033C2162.38 717.939 2159.67 719.689 2157.33 722.022C2155.33 724.013 2152.41 727.18 2152.33 730.143C2152.31 730.975 2153.32 731.282 2153.88 730.785C2154.94 729.856 2155.43 728.551 2156.17 727.372C2157 726.06 2157.93 724.815 2158.98 723.671C2161.02 721.443 2163.43 719.6 2165.95 717.951C2166.41 717.648 2166.13 716.871 2165.56 717.033Z" fill="#E0765A"/>
<path d="M2203.53 1320.18L2191.7 1185.41" stroke="#232022" stroke-width="6.2065" stroke-miterlimit="10" stroke-linecap="round" stroke-linejoin="round"/>
<path d="M2206.52 1173.3C2206.52 1173.3 2194.05 1190.11 2172.56 1190.11" stroke="#232022" stroke-width="6.2065" stroke-miterlimit="10" stroke-linecap="round" stroke-linejoin="round"/>
<path d="M2254.3 715.235L2245.75 716.533" stroke="#232022" stroke-width="5.9171" stroke-miterlimit="10" stroke-linecap="round" stroke-linejoin="round"/>
<path d="M2178.23 700.634L2174.11 719.637L2183.54 719.994" stroke="#232022" stroke-width="4.5303" stroke-miterlimit="10" stroke-linecap="round" stroke-linejoin="round"/>
<path d="M2296.31 981.959L2295.66 1022.84" stroke="#232022" stroke-width="6.2065" stroke-miterlimit="10" stroke-linecap="round" stroke-linejoin="round"/>
</svg>
