<svg width="2589" height="1726" viewBox="0 0 2589 1726" fill="none" xmlns="http://www.w3.org/2000/svg">
<path d="M151.094 1417.18H2454.03" stroke="#94C4F3" stroke-width="3" stroke-miterlimit="10" stroke-linecap="round"/>
<path d="M2013.37 1367.11H575.631V479.189C575.631 450.603 598.804 427.43 627.39 427.43H1961.61C1990.2 427.43 2013.37 450.603 2013.37 479.189L2013.37 1367.11Z" fill="#4C88E0"/>
<path d="M1944.33 1298.07L1944.33 496.47L644.67 496.47L644.67 1298.07L1944.33 1298.07Z" fill="#BBD7F3"/>
<path d="M1944.33 1172.71C1823.46 1113.22 1695.54 922.257 1544.78 921.225C1365.04 919.996 1115.12 1320.91 957.436 1011C849.571 799.003 717.418 684.714 644.671 633.652V1298.07H1944.33V1172.71Z" fill="#A0CAF3"/>
<path d="M1810.36 700.417C1802.8 700.072 1796.82 712.24 1792.57 725.468C1796.58 704.318 1798.94 680.313 1789.46 678.535C1772.29 675.314 1761.09 741.479 1761.09 741.479C1761.09 741.479 1774.53 661.596 1757.36 658.03C1740.19 654.468 1731.97 737.744 1731.97 737.744C1731.97 737.744 1732.72 673.536 1716.3 678.531C1699.87 683.523 1702.11 770.593 1702.11 770.593C1702.11 770.593 1667.02 736.249 1657.32 751.182C1647.61 766.116 1695.39 810.163 1695.39 810.163L1685.69 866.904L1781.99 911.959C1781.99 911.959 1826.79 701.166 1810.36 700.417Z" fill="#FFAA8B"/>
<path d="M1792.57 725.468C1796.58 704.318 1798.94 680.313 1789.46 678.535C1772.29 675.314 1761.09 741.479 1761.09 741.479C1761.09 741.479 1774.53 661.596 1757.36 658.03C1740.19 654.468 1731.97 737.744 1731.97 737.744C1731.97 737.744 1732.72 673.536 1716.3 678.531C1699.87 683.523 1702.11 770.593 1702.11 770.593C1702.11 770.593 1667.02 736.249 1657.32 751.182C1647.61 766.116 1695.39 810.163 1695.39 810.163L1689.22 846.243" stroke="#E67A53" stroke-width="2" stroke-miterlimit="10" stroke-linecap="round"/>
<path d="M1840.99 933.427L1764.52 1298.06H906.771C906.771 1298.06 939.288 1138.92 973.567 1071.82C987.34 1044.82 1063.8 1006.2 1126.49 978.165C1138.12 972.952 1149.31 968.119 1159.49 963.804C1160.77 963.252 1162.05 962.7 1163.29 962.182C1166.36 960.905 1169.33 959.628 1172.19 958.454C1173.4 957.936 1174.61 957.418 1175.78 956.935C1176.58 956.624 1177.37 956.314 1178.13 955.968C1180.03 955.174 1181.89 954.415 1183.69 953.69C1184.73 953.276 1185.73 952.862 1186.69 952.447C1187.42 952.171 1188.14 951.861 1188.83 951.584C1189.08 951.481 1189.32 951.377 1189.56 951.274C1190.21 951.032 1190.87 950.756 1191.49 950.514C1204.23 945.336 1212 942.368 1212 942.368H1360.23C1360.23 942.368 1410.59 954.519 1457.74 970.087C1480.63 977.647 1502.72 986.001 1517.98 994.182C1583.05 1029.08 1606.59 1088.15 1606.59 1088.15L1653.44 862.109C1776.64 844.227 1840.99 933.427 1840.99 933.427Z" fill="white"/>
<path d="M1457.74 970.087L1407.21 1298.06H1188.7L1126.49 978.164C1138.12 972.952 1149.31 968.119 1159.49 963.804C1160.77 963.252 1162.05 962.699 1163.29 962.182C1166.36 960.904 1169.33 959.627 1172.19 958.454C1173.4 957.936 1174.61 957.418 1175.78 956.935C1176.58 956.624 1177.37 956.313 1178.13 955.968C1180.03 955.174 1181.89 954.415 1183.69 953.69C1184.73 953.276 1185.73 952.861 1186.69 952.447C1187.42 952.136 1188.14 951.86 1188.83 951.584C1189.08 951.48 1189.32 951.377 1189.56 951.273C1190.21 951.032 1190.87 950.755 1191.49 950.514C1204.23 945.336 1212 942.367 1212 942.367H1360.23C1360.23 942.367 1410.59 954.518 1457.74 970.087Z" fill="#77DADF"/>
<path d="M1108.02 997.6C1108.02 997.6 1048.21 1123.51 1058.71 1132.96C1069.2 1142.4 1108.02 1166.54 1108.02 1166.54C1108.02 1166.54 1087.04 1217.95 1093.33 1226.35C1099.63 1234.74 1142.65 1272.52 1142.65 1272.52" stroke="#CCE0F3" stroke-width="2" stroke-miterlimit="10" stroke-linecap="round"/>
<path d="M1477.84 997.6C1477.84 997.6 1537.65 1123.51 1527.16 1132.96C1516.66 1142.4 1477.84 1166.54 1477.84 1166.54C1477.84 1166.54 1498.83 1217.95 1492.53 1226.35C1486.23 1234.74 1443.21 1272.52 1443.21 1272.52" stroke="#CCE0F3" stroke-width="2" stroke-miterlimit="10" stroke-linecap="round"/>
<path d="M1580.87 1214.23L1612.74 1058.5" stroke="#CCE0F3" stroke-width="2" stroke-miterlimit="10" stroke-linecap="round"/>
<path d="M1666.02 888.755C1666.02 888.755 1762.81 896.132 1813.98 945.913" stroke="#CCE0F3" stroke-width="2" stroke-miterlimit="10" stroke-linecap="round"/>
<path d="M941.242 1159.56C941.242 1159.56 960.221 1077.13 984.22 1058.5C1008.21 1039.87 1044.1 1018.42 1044.1 1018.42" stroke="#245DB3" stroke-width="2" stroke-miterlimit="10" stroke-linecap="round"/>
<path d="M1773.36 1255.94L1809.68 1082.73" stroke="#245DB3" stroke-width="2" stroke-miterlimit="10" stroke-linecap="round"/>
<path d="M1219.5 860.808C1219.5 860.808 1229.08 924.387 1212.01 942.351C1212.01 942.351 1269.5 1001.63 1360.22 942.351C1360.22 942.351 1330.58 903.727 1360.22 855.223L1219.5 860.808Z" fill="#FFAA8B"/>
<path d="M1219.5 860.808C1219.5 860.808 1222.5 880.723 1222.15 901.407C1237.6 912.415 1285.42 940.991 1354.07 931.526C1347.35 916.748 1340.01 888.289 1360.22 855.223L1219.5 860.808Z" fill="#1E0201"/>
<path d="M1274.38 897.268C1371.49 897.268 1450.21 796.916 1450.21 673.126C1450.21 549.336 1371.49 448.984 1274.38 448.984C1177.27 448.984 1098.55 549.336 1098.55 673.126C1098.55 796.916 1177.27 897.268 1274.38 897.268Z" fill="#FFAA8B"/>
<path d="M1100.82 658.034C1100.82 658.034 1078.37 628.092 1064.25 642.214C1050.12 656.339 1060.43 722.418 1104.43 718.472L1100.82 658.034Z" fill="#FFAA8B"/>
<path d="M1076.18 668.079C1077.66 670.668 1079.64 673.219 1081.74 675.359C1083.87 677.517 1086.24 679.322 1088.73 680.669C1091.19 682.06 1093.82 682.871 1096.42 683.209C1099 683.675 1101.65 683.323 1104.17 682.961L1104.46 682.919C1108.22 682.381 1111.71 684.997 1112.25 688.764C1112.79 692.53 1110.17 696.02 1106.41 696.558C1105.83 696.641 1105.23 696.644 1104.68 696.586C1100.72 696.154 1096.78 695.481 1093.16 693.807C1089.55 692.271 1086.26 690.103 1083.59 687.486C1080.88 684.908 1078.68 681.998 1076.93 678.929C1075.19 675.825 1073.85 672.705 1072.94 669.242C1072.69 668.321 1073.24 667.375 1074.16 667.13C1074.94 666.926 1075.73 667.278 1076.11 667.941L1076.18 668.079Z" fill="#FF7B61"/>
<path d="M1446.76 658.034C1446.76 658.034 1469.21 628.092 1483.34 642.214C1497.46 656.339 1487.16 722.418 1443.16 718.472L1446.76 658.034Z" fill="#FFAA8B"/>
<path d="M1476.56 669.243C1475.64 672.709 1474.31 675.826 1472.56 678.929C1470.81 681.994 1468.61 684.908 1465.9 687.487C1463.24 690.103 1459.95 692.271 1456.33 693.807C1452.71 695.481 1448.77 696.155 1444.81 696.586C1441.03 697 1437.63 694.266 1437.21 690.486C1436.8 686.703 1439.53 683.303 1443.31 682.888C1443.89 682.826 1444.45 682.837 1445 682.909L1445.31 682.957C1447.84 683.32 1450.49 683.672 1453.06 683.206C1455.66 682.868 1458.29 682.056 1460.76 680.665C1463.24 679.319 1465.61 677.514 1467.74 675.356C1469.85 673.219 1471.82 670.665 1473.31 668.076L1473.39 667.941C1473.86 667.113 1474.92 666.826 1475.75 667.299C1476.44 667.7 1476.75 668.507 1476.56 669.243Z" fill="#FF7B61"/>
<path d="M1097.37 658.034C1097.37 658.034 1144.82 634.36 1177.5 549.379C1177.5 549.379 1211.74 587.285 1269.21 575.055C1269.21 575.055 1249.03 557.325 1249.64 542.651C1249.64 542.651 1275.32 573.218 1328.51 560.991C1381.7 548.764 1384.15 533.479 1384.15 533.479C1384.15 533.479 1407.79 650.45 1450.22 658.03C1450.22 658.03 1486.94 589.726 1450.22 512.694C1450.22 512.694 1545.55 454.614 1510.09 409.373C1474.63 364.131 1420.22 420.989 1420.22 420.989C1420.22 420.989 1392.67 369.022 1274.39 368.411C1156.11 367.8 1019.61 508.849 1097.37 658.034Z" fill="#190000"/>
<path d="M1448.07 638.175L1433.17 627.747C1433.17 627.747 1446.64 738.47 1274.38 739.215C1102.12 739.964 1120.46 621.761 1120.46 621.761C1114.1 621.333 1108.3 621.844 1103 623.117C1100.12 639.207 1098.55 655.929 1098.55 673.127C1098.55 796.919 1177.28 897.268 1274.38 897.268C1371.49 897.268 1450.21 796.915 1450.21 673.127C1450.21 661.234 1449.47 649.567 1448.07 638.175Z" fill="#190000"/>
<path d="M1158.74 512.249C1154.33 512.249 1154.32 519.098 1158.74 519.098C1163.15 519.098 1163.15 512.249 1158.74 512.249Z" fill="#4D1616"/>
<path d="M1215.43 452.799C1214.92 452.057 1214.28 451.47 1213.39 451.225C1212.57 451.001 1211.47 451.101 1210.75 451.57C1210.02 452.043 1209.38 452.744 1209.18 453.617C1208.98 454.477 1209 455.502 1209.52 456.258C1211.19 458.685 1212.86 461.108 1214.53 463.535C1215.04 464.277 1215.68 464.864 1216.58 465.109C1217.4 465.333 1218.49 465.233 1219.22 464.764C1219.95 464.291 1220.59 463.59 1220.79 462.717C1220.99 461.857 1220.96 460.832 1220.45 460.076C1218.78 457.649 1217.1 455.226 1215.43 452.799Z" fill="#4D1616"/>
<path d="M1277.16 483.032C1276.89 482.228 1276.38 481.358 1275.58 480.985C1272.77 479.666 1269.95 478.348 1267.14 477.029C1266.29 476.628 1265.44 476.425 1264.5 476.684C1263.7 476.901 1262.84 477.516 1262.45 478.258C1262.03 479.052 1261.82 480.015 1262.11 480.895C1262.36 481.699 1262.88 482.569 1263.68 482.942C1266.5 484.261 1269.31 485.58 1272.13 486.898C1272.98 487.295 1273.83 487.502 1274.76 487.243C1275.56 487.026 1276.42 486.411 1276.81 485.669C1277.23 484.875 1277.44 483.912 1277.16 483.032Z" fill="#4D1616"/>
<path d="M1311.58 424.161C1310.76 423.885 1309.66 424.085 1308.94 424.507C1308.23 424.921 1307.55 425.735 1307.36 426.554C1306.93 428.456 1307.94 430.144 1309.76 430.768C1309.9 430.82 1310.05 430.882 1310.2 430.938C1311.11 431.348 1311.97 431.852 1312.78 432.429C1313.62 433.105 1314.38 433.865 1315.06 434.697C1315.49 435.297 1315.9 435.905 1316.24 436.561C1317.07 438.156 1319.43 438.756 1320.93 437.79C1322.55 436.74 1323.04 434.811 1322.16 433.102C1319.97 428.859 1316.06 425.697 1311.58 424.161Z" fill="#4D1616"/>
<path d="M1357.23 479.165H1351.1C1350.22 479.165 1349.3 479.548 1348.68 480.17C1348.08 480.763 1347.64 481.737 1347.67 482.593C1347.71 483.48 1348 484.398 1348.68 485.013C1349.35 485.627 1350.17 486.017 1351.1 486.017H1357.23C1358.11 486.017 1359.03 485.634 1359.65 485.013C1360.25 484.419 1360.69 483.446 1360.66 482.593C1360.61 481.706 1360.32 480.787 1359.65 480.17C1358.98 479.555 1358.16 479.165 1357.23 479.165Z" fill="#4D1616"/>
<path d="M1418.49 456.61H1425.85C1426.72 456.61 1427.65 456.227 1428.27 455.606C1428.86 455.012 1429.31 454.038 1429.27 453.182C1429.23 452.295 1428.94 451.377 1428.27 450.759C1427.6 450.144 1426.78 449.758 1425.85 449.758H1418.49C1417.62 449.758 1416.69 450.141 1416.07 450.759C1415.48 451.353 1415.03 452.326 1415.07 453.182C1415.11 454.069 1415.4 454.988 1416.07 455.606C1416.74 456.223 1417.57 456.61 1418.49 456.61Z" fill="#4D1616"/>
<path d="M1428.04 520.576C1428.04 518.784 1426.47 517.068 1424.62 517.151C1422.76 517.234 1421.19 518.656 1421.19 520.576V529.154C1421.19 530.946 1422.77 532.661 1424.62 532.578C1426.48 532.495 1428.04 531.073 1428.04 529.154V520.576Z" fill="#4D1616"/>
<path d="M1433.88 597.672C1433.74 597.248 1433.5 596.882 1433.17 596.571C1432.86 596.236 1432.49 596.002 1432.07 595.863C1431.66 595.649 1431.22 595.549 1430.75 595.57C1430.45 595.611 1430.14 595.653 1429.84 595.691C1429.26 595.853 1428.75 596.147 1428.33 596.571C1428.15 596.802 1427.97 597.034 1427.79 597.265C1427.48 597.8 1427.33 598.376 1427.33 598.994V601.445C1427.31 601.918 1427.4 602.357 1427.62 602.764C1427.76 603.189 1427.99 603.555 1428.33 603.865C1428.64 604.2 1429 604.435 1429.43 604.573C1429.83 604.787 1430.28 604.887 1430.75 604.866C1431.05 604.825 1431.35 604.783 1431.66 604.745C1432.24 604.583 1432.74 604.29 1433.17 603.865C1433.35 603.634 1433.52 603.403 1433.7 603.171C1434.02 602.636 1434.17 602.06 1434.17 601.442V598.991C1434.19 598.518 1434.09 598.08 1433.88 597.672Z" fill="#4D1616"/>
<path d="M1147.71 745.049C1145.85 745.132 1144.29 746.554 1144.29 748.473V759.502C1144.29 761.294 1145.86 763.01 1147.71 762.927C1149.57 762.844 1151.13 761.422 1151.13 759.502V748.473C1151.13 746.682 1149.56 744.966 1147.71 745.049Z" fill="#4D1616"/>
<path d="M1207.75 784.257C1205.89 784.34 1204.32 785.762 1204.32 787.681V798.707C1204.32 800.498 1205.9 802.214 1207.75 802.131C1209.6 802.048 1211.17 800.626 1211.17 798.707V787.681C1211.17 785.89 1209.6 784.174 1207.75 784.257Z" fill="#4D1616"/>
<path d="M1280.04 821.014C1278.18 821.096 1276.61 822.519 1276.61 824.438V835.467C1276.61 837.259 1278.19 838.974 1280.04 838.892C1281.9 838.809 1283.46 837.386 1283.46 835.467V824.438C1283.46 822.646 1281.89 820.931 1280.04 821.014Z" fill="#4D1616"/>
<path d="M1243.28 839.392C1241.42 839.474 1239.86 840.897 1239.86 842.816V852.616C1239.86 854.408 1241.43 856.123 1243.28 856.041C1245.14 855.958 1246.71 854.536 1246.71 852.616V842.816C1246.71 841.028 1245.13 839.309 1243.28 839.392Z" fill="#4D1616"/>
<path d="M1379.26 779.134C1378.95 778.799 1378.58 778.564 1378.15 778.426C1377.75 778.212 1377.31 778.112 1376.84 778.133C1376.53 778.174 1376.23 778.215 1375.92 778.253C1375.34 778.416 1374.84 778.709 1374.41 779.134C1373.8 779.803 1373.41 780.628 1373.41 781.557V785.233C1373.39 785.706 1373.49 786.145 1373.7 786.552C1373.84 786.977 1374.07 787.343 1374.41 787.653C1374.72 787.988 1375.09 788.223 1375.51 788.361C1375.92 788.575 1376.36 788.675 1376.83 788.654C1377.13 788.613 1377.44 788.571 1377.74 788.53C1378.32 788.368 1378.82 788.074 1379.25 787.65C1379.87 786.98 1380.26 786.155 1380.26 785.226V781.55C1380.27 781.077 1380.18 780.639 1379.96 780.231C1379.83 779.81 1379.59 779.444 1379.26 779.134Z" fill="#4D1616"/>
<path d="M1418.84 740.534C1418.04 740.112 1417.08 739.902 1416.2 740.188C1415.38 740.451 1414.54 740.969 1414.15 741.762C1412.42 745.294 1411.92 749.198 1412.81 753.044C1413.21 754.79 1415.31 755.988 1417.02 755.436C1418.85 754.846 1419.84 753.095 1419.41 751.224C1419.36 751.003 1419.33 750.783 1419.29 750.562C1419.2 749.695 1419.2 748.825 1419.28 747.959C1419.44 747.072 1419.67 746.205 1420 745.363C1420.03 745.315 1420.05 745.27 1420.07 745.221C1420.48 744.386 1420.67 743.502 1420.41 742.581C1420.19 741.787 1419.58 740.924 1418.84 740.534Z" fill="#4D1616"/>
<path d="M1353.56 828.366C1351.7 828.449 1350.13 829.871 1350.13 831.791V842.82C1350.13 844.611 1351.71 846.327 1353.56 846.244C1355.41 846.161 1356.98 844.739 1356.98 842.82V831.791C1356.98 829.999 1355.4 828.283 1353.56 828.366Z" fill="#4D1616"/>
<path d="M1314.22 698.509C1314.26 698.509 1314.29 698.512 1314.32 698.512C1317.11 698.592 1319.43 696.517 1319.51 693.876C1319.77 684.981 1327.62 677.963 1337 678.235C1346.51 678.463 1353.78 685.964 1353.51 694.857C1353.43 697.494 1355.56 699.607 1358.41 699.783C1361.19 699.862 1363.51 697.787 1363.59 695.147C1363.8 688.284 1361.18 681.749 1356.21 676.751C1351.24 671.749 1344.44 668.918 1337.28 668.673C1322.35 668.242 1309.85 679.419 1309.42 693.586C1309.35 696.196 1311.49 698.381 1314.22 698.509Z" fill="#190000"/>
<path d="M1376.67 649.725L1308.64 629.6C1308.64 629.6 1303.76 637.905 1309.85 642.31C1315.93 646.715 1355.21 661.534 1367.75 658.638C1376.59 656.598 1376.67 649.725 1376.67 649.725Z" fill="#190000"/>
<path d="M1195.53 697.325C1195.56 697.325 1195.59 697.325 1195.63 697.325C1198.41 697.304 1200.65 695.15 1200.63 692.509C1200.56 683.61 1208.13 676.32 1217.51 676.261C1227.03 676.154 1234.59 683.393 1234.66 692.288C1234.68 694.929 1236.88 696.966 1239.73 697.038C1242.52 697.018 1244.76 694.864 1244.74 692.223C1244.68 685.36 1241.81 678.919 1236.65 674.1C1231.5 669.277 1224.6 666.688 1217.44 666.695C1202.5 666.789 1190.44 678.398 1190.55 692.572C1190.57 695.185 1192.79 697.294 1195.53 697.325Z" fill="#190000"/>
<path d="M1170.99 649.408L1238.34 627.08C1238.34 627.08 1242.33 638.413 1237.12 642.611C1231.9 646.812 1186.8 661.89 1176.54 659.325C1169.31 657.516 1170.99 649.408 1170.99 649.408Z" fill="#190000"/>
<path d="M1264.12 717.53C1268.03 721.234 1285.3 721.803 1289.96 718.306C1291.08 717.454 1291.43 714.271 1291.29 709.763C1290.66 695.143 1283.95 667.075 1277.14 666.927C1276.61 666.937 1276.17 667.023 1275.64 667.369C1267.48 671.918 1260.38 714.074 1264.12 717.53Z" fill="#FF7B61"/>
<path opacity="0.6" d="M1264.12 717.529C1268.03 721.233 1285.3 721.803 1289.96 718.306C1291.08 717.453 1291.43 714.27 1291.29 709.762C1272.9 704.356 1273.68 680.855 1275.64 667.368C1267.48 671.918 1260.38 714.074 1264.12 717.529Z" fill="#33282C"/>
<path d="M1244.76 756.547C1244.76 756.547 1248.21 771.933 1262.04 779.475C1279.53 789.01 1307.63 788.081 1315.75 756.378L1244.76 756.547Z" fill="white"/>
<path d="M1182.37 1120.22C1142.9 1100.91 1082.86 922.858 1219.5 901.794" stroke="#190000" stroke-width="2" stroke-miterlimit="10" stroke-linecap="round"/>
<path d="M1280.25 1089.25C1280.25 1089.25 1237.85 960.882 1137.2 975.66" stroke="#190000" stroke-width="2" stroke-miterlimit="10" stroke-linecap="round"/>
<path d="M1190.75 1130.73C1196.44 1130.73 1201.06 1126.12 1201.06 1120.42C1201.06 1114.72 1196.44 1110.1 1190.75 1110.1C1185.05 1110.1 1180.43 1114.72 1180.43 1120.42C1180.43 1126.12 1185.05 1130.73 1190.75 1130.73Z" fill="#190000"/>
<path d="M1282.45 1093.04C1282.45 1098.74 1277.83 1103.36 1272.13 1103.36C1266.44 1103.36 1261.82 1098.74 1261.82 1093.04C1261.82 1087.35 1266.44 1082.73 1272.13 1082.73C1277.83 1082.73 1282.45 1087.35 1282.45 1093.04Z" fill="#190000"/>
<path d="M1347.23 904.473C1347.23 904.473 1439.7 909.64 1436.28 1020.64C1432.85 1131.64 1347.23 1210.78 1347.23 1210.78" stroke="#190000" stroke-width="2" stroke-miterlimit="10" stroke-linecap="round"/>
<path d="M1336.15 1265.65C1356.99 1265.65 1373.88 1248.75 1373.88 1227.91C1373.88 1207.08 1356.99 1190.18 1336.15 1190.18C1315.31 1190.18 1298.42 1207.08 1298.42 1227.91C1298.42 1248.75 1315.31 1265.65 1336.15 1265.65Z" fill="white"/>
<path d="M2197.65 1340.55V1375.69C2197.65 1418.63 2162.85 1453.43 2119.91 1453.43H469.092C426.149 1453.43 391.353 1418.63 391.353 1375.69V1340.55H1195.53C1201.47 1356.08 1216.52 1367.1 1234.12 1367.1H1354.87C1366.3 1367.1 1376.62 1362.47 1384.08 1354.98C1388.15 1350.94 1391.36 1346.04 1393.47 1340.55H2197.65Z" fill="#2D75E0"/>
<path d="M516.426 1340.55H1195.53C1195.53 1355.22 1207.42 1367.11 1222.09 1367.11H1366.86C1380.88 1367.11 1393.47 1340.55 1393.47 1340.55H1596.81" stroke="#190000" stroke-width="2" stroke-miterlimit="10" stroke-linecap="round"/>
<path d="M1992.15 720.567H2403.15C2418.64 720.567 2431.19 733.122 2431.19 748.608V1021.83C2431.19 1037.32 2418.64 1049.87 2403.15 1049.87H2112.44C2108.88 1057.02 2104.93 1063.76 2100.48 1069.82C2090.35 1083.79 2078.54 1094.76 2066.39 1103.68C2054.15 1112.51 2041.55 1119.44 2028.77 1124.97C2015.92 1130.5 2003.27 1134.72 1989.81 1137.78C1987.55 1138.28 1985.05 1137.67 1983.27 1135.93C1980.47 1133.18 1980.43 1128.69 1983.17 1125.89L1983.59 1125.45C1992.03 1116.83 1999.97 1107.01 2006.55 1097.13C2013.2 1087.22 2018.59 1076.89 2022.38 1066.79C2024.5 1061.02 2026.03 1055.33 2026.95 1049.87H1992.15C1976.66 1049.87 1964.1 1037.32 1964.1 1021.83V748.608C1964.11 733.122 1976.67 720.567 1992.15 720.567Z" fill="white"/>
<path d="M2368.26 802.2H2030.39V823.741H2368.26V802.2Z" fill="#4C88E0"/>
<path d="M2368.26 850.942H2030.39V872.483H2368.26V850.942Z" fill="#4C88E0"/>
<path d="M2368.26 899.685H2030.39V921.225H2368.26V899.685Z" fill="#4C88E0"/>
<path d="M2368.26 948.424H2030.39V969.964H2368.26V948.424Z" fill="#4C88E0"/>
<path d="M590.136 599.954H179.134C163.649 599.954 151.094 612.509 151.094 627.995V901.217C151.094 916.703 163.649 929.258 179.134 929.258H469.841C473.4 936.41 477.353 943.145 481.809 949.203C491.934 963.177 503.747 974.147 515.898 983.064C528.135 991.901 540.738 998.829 553.518 1004.35C566.366 1009.89 579.014 1014.1 592.47 1017.17C594.731 1017.66 597.237 1017.06 599.011 1015.32C601.814 1012.57 601.859 1008.08 599.118 1005.27L598.694 1004.84C590.254 996.22 582.311 986.395 575.735 976.516C569.086 966.605 563.698 956.276 559.904 946.176C557.788 940.411 556.255 934.719 555.337 929.258H590.14C605.625 929.258 618.18 916.703 618.18 901.217V627.995C618.173 612.509 605.622 599.954 590.136 599.954Z" fill="white"/>
<path d="M560.283 675.557H222.408V697.097H560.283V675.557Z" fill="#94C4F3"/>
<path d="M560.283 724.299H222.408V745.839H560.283V724.299Z" fill="#94C4F3"/>
<path d="M560.283 773.041H222.408V794.581H560.283V773.041Z" fill="#94C4F3"/>
<path d="M560.283 821.78H222.408V843.321H560.283V821.78Z" fill="#94C4F3"/>
<path d="M1077.21 964.879C1076.72 959.021 990.013 910.12 990.013 910.12V738.128C990.013 728.469 982.183 720.64 972.525 720.64H714.256C704.598 720.64 696.769 728.469 696.769 738.128V951.213C696.769 960.871 704.598 968.7 714.256 968.7H972.525C972.849 968.7 973.153 968.621 973.474 968.604C1009.18 967.906 1077.66 970.268 1077.21 964.879Z" fill="white"/>
<path d="M922.623 856.393L848.408 930.608L780.207 862.365L774.238 856.393C755.37 837.566 755.37 807.02 774.238 788.151C783.652 778.737 795.983 774.032 808.317 774.032C820.692 774.032 833.026 778.737 842.44 788.151L848.408 794.123L854.38 788.151C863.835 778.737 876.169 774.032 888.503 774.032C900.878 774.032 913.212 778.737 922.626 788.151C941.45 807.02 941.45 837.566 922.623 856.393Z" fill="#EC5A67"/>
<path d="M746.557 848.123H786.507L793.88 816.886L822.152 870.972L837.52 816.886L859.644 858.676L878.461 821.187L893.895 843.929H946.307" stroke="#190000" stroke-width="2" stroke-miterlimit="10" stroke-linecap="round" stroke-linejoin="round"/>
<path d="M1544.78 616.679C1545.27 610.821 1631.98 561.92 1631.98 561.92V389.927C1631.98 380.269 1639.81 372.439 1649.47 372.439H1907.73C1917.39 372.439 1925.22 380.269 1925.22 389.927V603.012C1925.22 612.671 1917.39 620.5 1907.73 620.5H1649.47C1649.14 620.5 1648.84 620.421 1648.52 620.404C1612.81 619.706 1544.33 622.067 1544.78 616.679Z" fill="white"/>
<path d="M1756 496.474V531.926C1756 550.67 1740.78 565.893 1722 565.893C1703.22 565.893 1688.03 550.67 1688.03 531.926V496.474H1756Z" fill="#BBD7F3"/>
<path d="M1756 461.021V496.473H1688.03V461.021C1688.03 442.277 1703.22 427.054 1722 427.054C1731.39 427.054 1739.88 430.851 1746.03 436.995C1752.21 443.14 1756 451.632 1756 461.021Z" fill="#EC5A65"/>
<path d="M1863.07 496.473V461.021C1863.07 442.277 1847.85 427.054 1829.07 427.054C1810.29 427.054 1795.1 442.277 1795.1 461.021V496.473H1863.07Z" fill="#BBD7F3"/>
<path d="M1863.07 531.926V496.474H1795.1V531.926C1795.1 550.67 1810.29 565.893 1829.07 565.893C1838.46 565.893 1846.95 562.096 1853.1 555.952C1859.27 549.807 1863.07 541.315 1863.07 531.926Z" fill="#EC5A65"/>
</svg>
