<svg width="2000" height="2000" viewBox="0 0 2000 2000" fill="none" xmlns="http://www.w3.org/2000/svg">
<g clip-path="url(#clip0_48_254)">
<path d="M839.024 1531.84C748.577 1534.59 656.803 1521.83 576.233 1481.38C485.704 1435.93 411.205 1351.62 394.797 1251.66C377.47 1146.1 424.459 1041.77 470.262 945.1C564.742 745.701 718.13 453.725 982.784 467.606C1103.75 473.951 1133.92 559.48 1220.12 627.892C1320.09 707.231 1472.48 731.247 1513.19 867.129C1577.28 1081.04 1418.2 1299.82 1246.59 1410.19C1135.28 1481.77 1004.48 1520.75 872.477 1530.14C861.364 1530.93 850.204 1531.5 839.024 1531.84Z" fill="#EEFAFF"/>
<path d="M1700.83 913.547L1297.29 989.343C1256.53 996.999 1217.28 970.161 1209.62 929.399C1201.97 888.636 1228.8 849.385 1269.57 841.729L1673.11 765.933C1713.87 758.277 1753.12 785.115 1760.78 825.877C1768.44 866.639 1741.6 905.891 1700.83 913.547Z" fill="#0F6CA0"/>
<path d="M1605.32 789.016H1194.72C1153.25 789.016 1119.62 755.393 1119.62 713.918C1119.62 672.442 1153.25 638.82 1194.72 638.82H1605.32C1646.8 638.82 1680.42 672.443 1680.42 713.918C1680.42 755.394 1646.8 789.016 1605.32 789.016Z" fill="#65B5E5"/>
<path d="M1305.66 714.094C1305.66 718.818 1304.87 723.228 1303.29 727.322C1301.72 731.417 1299.5 735.023 1296.63 738.141C1293.76 741.259 1290.36 743.701 1286.43 745.464C1282.49 747.227 1278.19 748.11 1273.53 748.11C1268.87 748.11 1264.58 747.227 1260.68 745.464C1256.77 743.701 1253.39 741.259 1250.52 738.141C1247.65 735.023 1245.43 731.417 1243.86 727.322C1242.29 723.228 1241.5 718.818 1241.5 714.094C1241.5 709.369 1242.29 704.961 1243.86 700.865C1245.43 696.771 1247.65 693.164 1250.52 690.046C1253.39 686.928 1256.77 684.488 1260.68 682.723C1264.58 680.96 1268.87 680.078 1273.53 680.078C1278.19 680.078 1282.49 680.961 1286.43 682.723C1290.36 684.488 1293.76 686.928 1296.63 690.046C1299.5 693.164 1301.72 696.771 1303.29 700.865C1304.87 704.961 1305.66 709.369 1305.66 714.094ZM1293.37 714.094C1293.37 709.874 1292.52 706.048 1290.82 702.613C1289.12 699.18 1286.79 696.457 1283.83 694.44C1280.87 692.424 1277.43 691.416 1273.53 691.416C1269.62 691.416 1266.19 692.424 1263.23 694.44C1260.27 696.457 1257.95 699.164 1256.29 702.565C1254.62 705.967 1253.78 709.81 1253.78 714.093C1253.78 718.314 1254.62 722.14 1256.29 725.573C1257.95 729.007 1260.27 731.731 1263.23 733.746C1266.19 735.763 1269.62 736.769 1273.53 736.769C1277.43 736.769 1280.87 735.762 1283.83 733.746C1286.79 731.73 1289.12 729.007 1290.82 725.573C1292.52 722.141 1293.37 718.315 1293.37 714.094Z" fill="white"/>
<path d="M1366.69 681.023C1368.21 681.023 1369.43 681.528 1370.38 682.535C1371.32 683.543 1371.8 684.803 1371.8 686.315V741.401C1371.8 743.04 1371.24 744.409 1370.14 745.51C1369.04 746.613 1367.67 747.164 1366.03 747.164C1365.21 747.164 1364.38 747.021 1363.53 746.738C1362.68 746.455 1362.03 746.062 1361.59 745.557L1324.46 698.409L1326.91 696.896V741.872C1326.91 743.384 1326.42 744.645 1325.45 745.652C1324.47 746.66 1323.2 747.164 1321.62 747.164C1320.11 747.164 1318.88 746.66 1317.94 745.652C1316.99 744.645 1316.52 743.385 1316.52 741.872V686.786C1316.52 685.149 1317.07 683.78 1318.17 682.677C1319.27 681.575 1320.64 681.022 1322.28 681.022C1323.16 681.022 1324.08 681.196 1325.02 681.542C1325.97 681.889 1326.66 682.41 1327.1 683.102L1363.1 729.022L1361.49 730.156V686.315C1361.49 684.803 1361.97 683.543 1362.91 682.534C1363.86 681.528 1365.12 681.023 1366.69 681.023Z" fill="white"/>
<path d="M1422.44 736.109C1424.08 736.109 1425.45 736.629 1426.55 737.668C1427.65 738.707 1428.2 740.046 1428.2 741.684C1428.2 743.26 1427.65 744.566 1426.55 745.605C1425.44 746.644 1424.07 747.164 1422.44 747.164H1391.73C1390.09 747.164 1388.72 746.613 1387.62 745.511C1386.52 744.409 1385.97 743.039 1385.97 741.401V686.787C1385.97 685.15 1386.53 683.78 1387.67 682.677C1388.8 681.575 1390.25 681.023 1392.01 681.023C1393.53 681.023 1394.86 681.575 1396.03 682.677C1397.19 683.779 1397.78 685.15 1397.78 686.787V737.716L1395.7 736.11L1422.44 736.109Z" fill="white"/>
<path d="M1450.88 741.401C1450.88 743.04 1450.28 744.409 1449.08 745.51C1447.89 746.613 1446.5 747.164 1444.93 747.164C1443.16 747.164 1441.74 746.612 1440.67 745.51C1439.6 744.408 1439.07 743.039 1439.07 741.401V686.786C1439.07 685.149 1439.63 683.78 1440.77 682.677C1441.9 681.575 1443.35 681.022 1445.12 681.022C1446.63 681.022 1447.97 681.575 1449.13 682.677C1450.3 683.779 1450.88 685.149 1450.88 686.786L1450.88 741.401Z" fill="white"/>
<path d="M1515.22 681.023C1516.74 681.023 1517.96 681.528 1518.91 682.535C1519.85 683.543 1520.33 684.803 1520.33 686.315V741.401C1520.33 743.04 1519.77 744.409 1518.67 745.51C1517.57 746.613 1516.2 747.164 1514.56 747.164C1513.74 747.164 1512.91 747.021 1512.06 746.738C1511.21 746.455 1510.56 746.062 1510.12 745.557L1472.99 698.409L1475.45 696.896V741.872C1475.45 743.384 1474.96 744.645 1473.98 745.652C1473 746.66 1471.73 747.164 1470.15 747.164C1468.64 747.164 1467.41 746.66 1466.47 745.652C1465.52 744.645 1465.05 743.385 1465.05 741.872V686.786C1465.05 685.149 1465.6 683.78 1466.7 682.677C1467.81 681.575 1469.18 681.022 1470.81 681.022C1471.7 681.022 1472.61 681.196 1473.55 681.542C1474.5 681.889 1475.19 682.41 1475.63 683.102L1511.63 729.022L1510.03 730.156V686.315C1510.03 684.803 1510.5 683.543 1511.44 682.534C1512.39 681.528 1513.65 681.023 1515.22 681.023Z" fill="white"/>
<path d="M1540.26 681.023H1571.92C1573.55 681.023 1574.92 681.543 1576.03 682.582C1577.13 683.622 1577.68 684.96 1577.68 686.598C1577.68 688.173 1577.13 689.449 1576.03 690.425C1574.92 691.403 1573.55 691.89 1571.92 691.89H1545.46L1546.31 690.283V708.708L1545.55 707.952H1567.66C1569.3 707.952 1570.67 708.472 1571.77 709.511C1572.87 710.551 1573.43 711.89 1573.43 713.527C1573.43 715.102 1572.87 716.377 1571.77 717.354C1570.67 718.331 1569.3 718.818 1567.66 718.818H1545.84L1546.31 718.062V737.148L1545.55 736.298H1571.92C1573.55 736.298 1574.92 736.85 1576.03 737.952C1577.13 739.054 1577.68 740.33 1577.68 741.779C1577.68 743.354 1577.13 744.646 1576.03 745.653C1574.92 746.661 1573.55 747.165 1571.92 747.165H1540.26C1538.62 747.165 1537.25 746.614 1536.15 745.512C1535.05 744.41 1534.5 743.04 1534.5 741.402V686.788C1534.5 685.151 1535.05 683.781 1536.15 682.678C1537.25 681.575 1538.62 681.023 1540.26 681.023Z" fill="white"/>
<path d="M1281.78 887.032C1284.87 886.453 1287.93 886.799 1290.96 888.072C1293.99 889.345 1296.62 891.338 1298.86 894.051C1301.08 896.764 1302.55 899.99 1303.25 903.727C1303.94 907.407 1303.74 910.913 1302.65 914.25C1301.56 917.588 1299.83 920.416 1297.47 922.731C1295.11 925.048 1292.39 926.495 1289.3 927.074L1272.93 930.15L1273.52 928.381L1276.98 946.801C1277.27 948.344 1277.04 949.724 1276.28 950.939C1275.53 952.157 1274.38 952.91 1272.84 953.199C1271.36 953.478 1270.04 953.188 1268.9 952.326C1267.75 951.469 1267.04 950.266 1266.75 948.723L1257.09 897.289C1256.8 895.747 1257.07 894.358 1257.92 893.126C1258.76 891.895 1259.95 891.132 1261.5 890.842L1281.78 887.032ZM1287.4 916.931C1288.53 916.72 1289.53 916.039 1290.42 914.888C1291.31 913.739 1291.97 912.34 1292.4 910.694C1292.83 909.048 1292.89 907.395 1292.57 905.733C1292.25 904.013 1291.59 902.479 1290.6 901.128C1289.61 899.78 1288.5 898.746 1287.26 898.026C1286.02 897.307 1284.83 897.054 1283.7 897.265L1267.15 900.374L1267.92 898.571L1272.18 921.262L1270.94 920.023L1287.4 916.931Z" fill="white"/>
<path d="M1315.42 880.714C1316.84 880.446 1318.2 880.731 1319.49 881.561C1320.79 882.393 1321.58 883.581 1321.87 885.123L1331.53 936.557C1331.82 938.1 1331.5 939.497 1330.56 940.745C1329.63 941.997 1328.42 942.761 1326.94 943.039C1325.28 943.351 1323.85 943.083 1322.64 942.232C1321.44 941.386 1320.69 940.189 1320.4 938.646L1310.74 887.212C1310.45 885.67 1310.75 884.279 1311.62 883.04C1312.49 881.803 1313.76 881.026 1315.42 880.714ZM1320.02 906.659L1359.71 899.204L1361.63 909.437L1321.94 916.892L1320.02 906.659ZM1354.84 873.31C1356.5 872.998 1357.93 873.268 1359.14 874.115C1360.34 874.964 1361.09 876.16 1361.38 877.702L1371.04 929.136C1371.33 930.679 1371.05 932.068 1370.21 933.299C1369.36 934.534 1368.08 935.312 1366.36 935.635C1364.94 935.902 1363.58 935.621 1362.29 934.787C1360.99 933.957 1360.2 932.769 1359.91 931.226L1350.25 879.792C1349.96 878.25 1350.28 876.853 1351.22 875.603C1352.15 874.354 1353.36 873.588 1354.84 873.31Z" fill="white"/>
<path d="M1399.2 879.44L1388.47 928.255C1388.26 929.461 1387.79 930.455 1387.05 931.239C1386.3 932.024 1385.43 932.512 1384.42 932.701C1382.82 933.002 1381.55 932.78 1380.61 932.034C1379.67 931.289 1379.08 930.264 1378.83 928.958C1378.73 928.425 1378.72 927.845 1378.78 927.219L1390.95 869.844C1391.2 868.569 1391.75 867.512 1392.61 866.675C1393.46 865.839 1394.47 865.374 1395.62 865.281C1396.68 865.08 1397.74 865.205 1398.77 865.656C1399.81 866.105 1400.64 866.857 1401.27 867.906L1432.95 915.939C1433.39 916.655 1433.68 917.339 1433.8 917.991C1434.1 919.593 1433.82 920.967 1432.96 922.11C1432.1 923.255 1431.05 923.944 1429.8 924.178C1428.74 924.379 1427.71 924.232 1426.73 923.742C1425.74 923.251 1424.91 922.487 1424.22 921.448L1396.72 880.459L1399.2 879.44ZM1389.19 916.881L1392.16 905.728L1416.19 901.215L1419.8 911.131L1389.19 916.881Z" fill="white"/>
<path d="M1448.67 920.172C1447.01 920.484 1445.43 920.244 1443.93 919.449C1442.43 918.658 1441.54 917.49 1441.25 915.947L1431.59 864.513C1431.3 862.971 1431.57 861.582 1432.42 860.349C1433.26 859.118 1434.45 858.355 1435.99 858.065L1461.62 853.251C1464.71 852.672 1467.75 852.944 1470.76 854.068C1473.76 855.194 1476.37 857.038 1478.57 859.603C1480.77 862.168 1482.22 865.318 1482.92 869.056C1483.35 871.312 1483.3 873.593 1482.78 875.9C1482.26 878.208 1481.38 880.372 1480.13 882.387C1478.88 884.403 1477.37 886.069 1475.59 887.385L1475.29 885.321C1477.12 885.9 1478.7 886.695 1480.02 887.703C1481.35 888.713 1482.45 889.857 1483.34 891.133C1484.22 892.41 1484.87 893.839 1485.29 895.418C1485.81 896.857 1486.22 898.132 1486.52 899.242C1486.82 900.352 1487.18 901.268 1487.59 901.989C1488 902.711 1488.63 903.206 1489.48 903.476C1490.93 904.003 1491.95 904.962 1492.55 906.353C1493.15 907.746 1493.05 909.1 1492.26 910.416C1491.75 911.311 1491.01 911.956 1490.04 912.352C1489.07 912.749 1488.06 912.938 1487.02 912.92C1485.97 912.902 1485.08 912.776 1484.37 912.542C1483.25 912.14 1482.07 911.454 1480.85 910.485C1479.62 909.518 1478.51 908.114 1477.52 906.273C1476.53 904.433 1475.75 901.97 1475.17 898.886C1474.98 897.877 1474.63 896.976 1474.11 896.182C1473.59 895.389 1472.95 894.741 1472.18 894.242C1471.41 893.742 1470.49 893.423 1469.42 893.286C1468.35 893.15 1467.13 893.209 1465.77 893.465L1447.79 896.841L1448.74 894.543L1452.37 913.853C1452.66 915.396 1452.48 916.765 1451.85 917.957C1451.21 919.158 1450.15 919.893 1448.67 920.172ZM1446.16 887.663L1466.89 883.769C1467.96 883.568 1468.91 882.884 1469.73 881.715C1470.55 880.548 1471.13 879.057 1471.47 877.243C1471.81 875.43 1471.78 873.515 1471.41 871.498C1470.92 868.887 1469.81 866.838 1468.09 865.35C1466.36 863.863 1464.7 863.268 1463.1 863.569L1442.54 867.43L1443.08 864.382L1447.81 889.565L1446.16 887.663Z" fill="white"/>
<path d="M1497.29 846.462C1498.12 846.306 1499.03 846.364 1500.04 846.636C1501.04 846.909 1501.85 847.356 1502.45 847.979L1530.33 877.199L1525.85 877.856L1541.79 840.592C1542.61 838.779 1543.92 837.705 1545.7 837.37C1547.12 837.103 1548.49 837.367 1549.81 838.164C1551.12 838.962 1551.93 840.161 1552.23 841.762L1561.91 893.285C1562.2 894.828 1561.94 896.214 1561.12 897.439C1560.31 898.668 1559.07 899.438 1557.41 899.749C1555.75 900.062 1554.3 899.796 1553.07 898.951C1551.84 898.11 1551.08 896.916 1550.79 895.373L1542.91 853.461L1546.53 853.61L1533.58 884.694C1533.17 885.448 1532.61 886.136 1531.9 886.761C1531.18 887.388 1530.41 887.748 1529.56 887.844C1528.8 888.049 1527.98 887.99 1527.09 887.664C1526.2 887.341 1525.43 886.902 1524.77 886.349L1502.73 862.668L1504.15 857.517L1512.61 902.543C1512.9 904.086 1512.67 905.466 1511.91 906.681C1511.16 907.899 1510.01 908.652 1508.47 908.941C1506.99 909.22 1505.67 908.93 1504.53 908.068C1503.38 907.21 1502.67 906.008 1502.38 904.465L1492.7 852.943C1492.42 851.461 1492.73 850.083 1493.63 848.808C1494.52 847.533 1495.74 846.752 1497.29 846.462Z" fill="white"/>
<path d="M1590.07 843.59L1579.34 892.405C1579.14 893.611 1578.66 894.605 1577.92 895.389C1577.18 896.174 1576.3 896.661 1575.29 896.851C1573.69 897.152 1572.42 896.93 1571.48 896.184C1570.54 895.439 1569.95 894.415 1569.71 893.109C1569.61 892.576 1569.59 891.995 1569.66 891.369L1581.82 833.994C1582.07 832.718 1582.62 831.662 1583.48 830.825C1584.34 829.99 1585.34 829.525 1586.49 829.431C1587.56 829.23 1588.61 829.355 1589.64 829.805C1590.68 830.254 1591.51 831.006 1592.14 832.055L1623.83 880.088C1624.27 880.804 1624.55 881.488 1624.67 882.14C1624.97 883.742 1624.69 885.116 1623.83 886.259C1622.97 887.404 1621.92 888.093 1620.67 888.327C1619.61 888.527 1618.58 888.381 1617.6 887.891C1616.62 887.4 1615.78 886.636 1615.1 885.597L1587.59 844.609L1590.07 843.59ZM1580.06 881.031L1583.03 869.878L1607.06 865.365L1610.67 875.281L1580.06 881.031Z" fill="white"/>
<path d="M1665.16 818.154C1666.85 818.635 1667.98 819.682 1668.56 821.291C1669.14 822.904 1669 824.497 1668.13 826.073C1667.55 827.285 1666.67 828.066 1665.48 828.412C1664.29 828.761 1663.01 828.754 1661.65 828.394C1660.11 828.01 1658.51 827.787 1656.88 827.726C1655.23 827.665 1653.56 827.797 1651.84 828.12C1648.63 828.722 1645.86 829.765 1643.53 831.245C1641.2 832.729 1639.32 834.57 1637.89 836.772C1636.46 838.976 1635.53 841.439 1635.09 844.163C1634.65 846.887 1634.72 849.791 1635.3 852.875C1635.98 856.494 1637.09 859.541 1638.63 862.015C1640.16 864.49 1642.02 866.445 1644.19 867.878C1646.37 869.313 1648.78 870.227 1651.43 870.618C1654.09 871.01 1656.87 870.933 1659.77 870.387C1661.38 870.086 1662.95 869.638 1664.5 869.04C1666.04 868.442 1667.48 867.62 1668.82 866.568C1669.96 865.742 1671.15 865.303 1672.4 865.252C1673.65 865.201 1674.79 865.631 1675.82 866.544C1677.28 867.805 1678 869.252 1677.97 870.884C1677.94 872.518 1677.25 873.829 1675.9 874.819C1674.5 875.881 1673.03 876.816 1671.5 877.626C1669.96 878.438 1668.39 879.133 1666.78 879.711C1665.17 880.29 1663.5 880.741 1661.78 881.064C1657.51 881.866 1653.33 881.944 1649.25 881.299C1645.17 880.655 1641.38 879.278 1637.88 877.17C1634.38 875.063 1631.4 872.169 1628.93 868.488C1626.45 864.807 1624.72 860.327 1623.73 855.046C1622.87 850.479 1622.87 846.119 1623.71 841.967C1624.56 837.817 1626.16 834.061 1628.51 830.703C1630.85 827.345 1633.84 824.513 1637.46 822.204C1641.08 819.897 1645.2 818.308 1649.83 817.439C1652.44 816.949 1655.05 816.768 1657.65 816.892C1660.25 817.019 1662.76 817.44 1665.16 818.154Z" fill="white"/>
<path d="M1716.43 805.118C1717.79 804.862 1719.12 805.149 1720.41 805.981C1721.7 806.813 1722.5 808.03 1722.8 809.632C1722.9 810.165 1722.93 810.729 1722.89 811.32C1722.84 811.912 1722.7 812.509 1722.44 813.109L1707.67 845.824L1708.12 839.383L1712.92 864.922C1713.21 866.465 1712.93 867.854 1712.09 869.085C1711.24 870.32 1710.14 871.064 1708.78 871.32C1707.29 871.599 1705.93 871.317 1704.7 870.472C1703.47 869.631 1702.71 868.437 1702.42 866.894L1697.75 842.067L1699 844.781L1674.98 822.853C1674.24 822.193 1673.69 821.53 1673.32 820.861C1672.95 820.194 1672.71 819.565 1672.59 818.971C1672.29 817.369 1672.67 815.949 1673.73 814.705C1674.79 813.463 1675.96 812.719 1677.27 812.474C1678.93 812.163 1680.54 812.72 1682.1 814.146L1703.61 834.518L1701.05 834.63L1712.48 808.625C1713.39 806.609 1714.7 805.441 1716.43 805.118Z" fill="white"/>
<path d="M571.496 982.633C517.74 1091.55 549.428 1213.83 549.428 1213.83C549.428 1213.83 609.362 1344.2 720.164 1416.93V1600.07H1162.22L1159.96 1416.93C1159.96 1416.93 1225.69 1219.62 1131.99 1078.59C1038.28 937.565 571.496 982.633 571.496 982.633Z" fill="#F59068"/>
<path d="M918.352 1186.95H667.878C627.31 1186.95 594.263 1153.9 594.263 1113.33V501.165C594.263 460.597 627.31 427.55 667.878 427.55H918.352C958.92 427.55 991.968 460.597 991.968 501.165V1113.33C991.968 1153.9 958.921 1186.95 918.352 1186.95Z" fill="#333333"/>
<path d="M667.878 1171C635.97 1171 610.216 1145.01 610.216 1113.33V501.164C610.216 469.256 636.198 443.503 667.878 443.503H918.352C950.26 443.503 976.014 469.485 976.014 501.164V1113.33C976.014 1145.24 950.032 1171 918.352 1171H667.878Z" fill="white"/>
<path d="M908.251 987.39H685.885C668.304 987.39 654.052 973.138 654.052 955.557C654.052 937.976 668.304 923.725 685.885 923.725H908.252C925.833 923.725 940.085 937.977 940.085 955.557C940.084 973.138 925.832 987.39 908.251 987.39Z" fill="#429AD0"/>
<path d="M775.719 941.138C778.511 941.138 780.59 941.792 781.957 943.101C783.324 944.41 784.007 946.344 784.007 948.903C784.007 950.271 783.672 951.47 783.004 952.502C782.335 953.535 781.346 954.335 780.038 954.902C778.729 955.469 777.115 955.752 775.195 955.752L775.37 953.789C776.271 953.789 777.304 953.913 778.467 954.16C779.63 954.407 780.757 954.844 781.848 955.469C782.939 956.095 783.84 956.967 784.553 958.086C785.265 959.206 785.622 960.638 785.622 962.383C785.622 964.302 785.309 965.873 784.684 967.094C784.058 968.315 783.237 969.261 782.219 969.93C781.2 970.599 780.11 971.057 778.947 971.304C777.783 971.551 776.663 971.675 775.588 971.675H764.725C763.968 971.675 763.336 971.421 762.827 970.911C762.318 970.403 762.064 969.77 762.064 969.013V943.798C762.064 943.042 762.318 942.409 762.827 941.901C763.336 941.392 763.968 941.137 764.725 941.137L775.719 941.138ZM774.933 946.286H767.168L767.735 945.588V953.484L767.211 953.091H775.064C775.907 953.091 776.663 952.815 777.332 952.262C778.001 951.71 778.335 950.91 778.335 949.863C778.335 948.613 778.022 947.703 777.397 947.136C776.772 946.569 775.951 946.286 774.933 946.286ZM775.282 958.239H767.342L767.735 957.89V967.095L767.298 966.658H775.587C776.924 966.658 777.986 966.303 778.772 965.589C779.557 964.877 779.95 963.808 779.95 962.383C779.95 961.074 779.688 960.13 779.165 959.547C778.642 958.966 778.016 958.602 777.289 958.457C776.561 958.312 775.893 958.239 775.282 958.239Z" fill="white"/>
<path d="M812.32 941.095C813.076 941.095 813.687 941.35 814.152 941.858C814.617 942.367 814.85 943 814.85 943.756V959.548C814.85 961.962 814.333 964.1 813.301 965.961C812.268 967.822 810.85 969.277 809.048 970.323C807.244 971.37 805.151 971.894 802.766 971.894C800.381 971.894 798.28 971.371 796.462 970.323C794.644 969.276 793.219 967.822 792.187 965.961C791.154 964.1 790.638 961.963 790.638 959.548V943.756C790.638 943 790.9 942.367 791.423 941.858C791.946 941.35 792.615 941.095 793.43 941.095C794.098 941.095 794.702 941.35 795.24 941.858C795.778 942.367 796.047 943 796.047 943.756V959.548C796.047 961.002 796.36 962.26 796.985 963.322C797.61 964.384 798.439 965.205 799.472 965.787C800.504 966.369 801.602 966.659 802.765 966.659C804.015 966.659 805.179 966.369 806.255 965.787C807.331 965.205 808.203 964.384 808.873 963.322C809.542 962.261 809.877 961.003 809.877 959.548V943.756C809.877 943 810.095 942.367 810.531 941.858C810.967 941.35 811.563 941.095 812.32 941.095Z" fill="white"/>
<path d="M840.414 941.007C841.083 941.007 841.686 941.262 842.224 941.771C842.762 942.28 843.031 942.927 843.031 943.712C843.031 943.974 842.994 944.243 842.922 944.519C842.849 944.796 842.726 945.065 842.551 945.326L832.648 959.504L833.433 956.494V969.015C833.433 969.772 833.178 970.404 832.67 970.913C832.161 971.422 831.572 971.677 830.903 971.677C830.176 971.677 829.558 971.423 829.049 970.913C828.54 970.405 828.286 969.772 828.286 969.015V956.844L828.635 958.24L819.212 945.719C818.921 945.341 818.717 944.977 818.601 944.629C818.485 944.28 818.427 943.96 818.427 943.669C818.427 942.884 818.732 942.244 819.343 941.75C819.954 941.256 820.579 941.008 821.219 941.008C822.033 941.008 822.746 941.416 823.357 942.23L831.733 953.791L830.511 953.617L838.233 942.318C838.844 941.443 839.57 941.007 840.414 941.007Z" fill="white"/>
<path d="M671.398 691.481L707.633 705.992L731.07 823.889H856.891L888.346 730.478L745.564 724.734" stroke="#333333" stroke-width="9.5665" stroke-miterlimit="10" stroke-linecap="round" stroke-linejoin="round"/>
<path d="M744.146 823.89L732.458 854.498H857.122" stroke="#333333" stroke-width="9.5665" stroke-miterlimit="10" stroke-linecap="round" stroke-linejoin="round"/>
<path d="M754.128 889.07C761.92 889.07 768.237 882.878 768.237 875.24C768.237 867.602 761.92 861.41 754.128 861.41C746.335 861.41 740.019 867.602 740.019 875.24C740.019 882.878 746.335 889.07 754.128 889.07Z" stroke="#333333" stroke-width="9.5665" stroke-miterlimit="10" stroke-linecap="round" stroke-linejoin="round"/>
<path d="M834.637 889.07C842.43 889.07 848.746 882.878 848.746 875.24C848.746 867.602 842.43 861.41 834.637 861.41C826.845 861.41 820.528 867.602 820.528 875.24C820.528 882.878 826.845 889.07 834.637 889.07Z" stroke="#333333" stroke-width="9.5665" stroke-miterlimit="10" stroke-linecap="round" stroke-linejoin="round"/>
<path d="M1072.06 574.355C1072.06 596.548 1047.09 614.563 1016.33 614.563C985.577 614.563 960.609 596.547 960.609 574.355H1072.06Z" fill="#429AD0"/>
<path d="M960.609 574.355C960.609 596.548 935.64 614.563 904.882 614.563C874.124 614.563 849.157 596.547 849.157 574.355H960.609Z" fill="#65B5E5"/>
<path d="M849.157 574.355C849.157 596.548 824.188 614.563 793.431 614.563C762.674 614.563 737.706 596.547 737.706 574.355H849.157Z" fill="#429AD0"/>
<path d="M737.706 574.355C737.706 596.548 712.737 614.563 681.98 614.563C651.223 614.563 626.255 596.547 626.255 574.355H737.706Z" fill="#65B5E5"/>
<path d="M986.564 471.784L1072.06 574.355H960.609L909.311 471.784H986.564Z" fill="#65B5E5"/>
<path d="M909.311 471.784L960.609 574.355H849.157L832.058 471.784H909.311Z" fill="#8ACEF5"/>
<path d="M832.058 471.784L849.157 574.355H737.706L754.805 471.784H832.058Z" fill="#65B5E5"/>
<path d="M754.805 471.784L737.706 574.355H626.254L677.552 471.784H754.805Z" fill="#8ACEF5"/>
<path d="M677.552 471.784L626.254 574.355H514.802L600.299 471.784H677.552Z" fill="#65B5E5"/>
<path d="M626.254 574.355C626.254 596.548 601.285 614.563 570.528 614.563C539.771 614.563 514.803 596.547 514.803 574.355H626.254Z" fill="#429AD0"/>
<path d="M945.644 423.534H641.443C618.72 423.534 600.299 441.955 600.299 464.678V471.784H986.788V464.678C986.788 441.955 968.367 423.534 945.644 423.534Z" fill="#429AD0"/>
<path d="M940.632 1305.65C910.586 1212.27 939.13 1129.86 954.153 1105.82C954.153 1105.82 876.035 1017.19 907.582 900.007C939.13 782.829 1023.26 794.848 1039.78 827.898C1056.31 860.948 1041.28 930.053 1084.85 1000.66C1128.42 1071.27 1227.57 1199.23 1159.96 1416.93L940.632 1305.65Z" fill="#F59068"/>
<path d="M594.263 664.784C569.802 647.828 460.798 607.086 447.277 664.172C431.82 729.433 555.628 798.76 594.263 809.62V664.784Z" fill="#F59068"/>
<path d="M494.513 787.275C549.609 787.374 638.35 827.257 663.189 844.136C698.136 867.883 716.598 959.811 604.505 953.802C492.412 947.793 449.381 898.897 440.322 880.19C429.772 858.407 437.37 787.172 494.513 787.275Z" fill="#F59068"/>
<path d="M482.168 920.778C537.148 924.01 638.348 969.579 663.188 984.998C698.136 1006.69 716.599 1090.67 604.502 1085.18C492.404 1079.69 449.372 1035.02 440.312 1017.94C429.762 998.035 437.876 918.174 482.168 920.778Z" fill="#F59068"/>
<path d="M481.002 1048.01C527.158 1048.15 610.777 1083.11 631.565 1099.39C660.812 1122.3 676.264 1210.97 582.451 1205.18C488.638 1199.38 452.625 1152.22 445.043 1134.17C436.213 1113.16 445.469 1047.9 481.002 1048.01Z" fill="#F59068"/>
<path d="M968.424 1402.19C1006.73 1447.39 1111.87 1457.36 1144.92 1427.21" stroke="#D16944" stroke-width="7.621" stroke-miterlimit="10" stroke-linecap="round" stroke-linejoin="round"/>
<path d="M551.653 1203.42C584.196 1209.3 619.991 1205.9 643.028 1187.12" stroke="#D16944" stroke-width="7.621" stroke-miterlimit="10" stroke-linecap="round" stroke-linejoin="round"/>
<path d="M477.932 1052.04C505.539 1061.07 600.618 1085.44 600.618 1085.44" stroke="#D16944" stroke-width="7.621" stroke-miterlimit="10" stroke-linecap="round" stroke-linejoin="round"/>
<path d="M486.925 923.567C514.154 931.786 592.609 951.735 592.609 951.735" stroke="#D16944" stroke-width="7.621" stroke-miterlimit="10" stroke-linecap="round" stroke-linejoin="round"/>
<path d="M353.236 1600.07H1688.17" stroke="#0F6CA0" stroke-width="23.9426" stroke-miterlimit="10" stroke-linecap="round" stroke-linejoin="round"/>
<path d="M1607.45 1591.92C1563.31 1611.07 1492.28 1610.19 1440.74 1591.56C1435.3 1589.6 1431.7 1584.41 1431.7 1578.63V1153.81H1615.54V1579.39C1615.54 1584.79 1612.41 1589.77 1607.45 1591.92Z" fill="#8ACEF5"/>
<path d="M1623.5 1138.06H1416.78V1110.44C1416.78 1105.87 1420.49 1102.16 1425.06 1102.16H1615.23C1619.8 1102.16 1623.5 1105.87 1623.5 1110.44L1623.5 1138.06Z" fill="#DCF2FF"/>
<path d="M1631.94 1153.81H1408.34C1406.7 1153.81 1405.38 1152.48 1405.38 1150.84V1147.35H1634.9V1150.84C1634.91 1152.48 1633.58 1153.81 1631.94 1153.81Z" fill="#8ACEF5"/>
<path opacity="0.4" d="M1631.94 1153.81H1408.34C1406.7 1153.81 1405.38 1152.48 1405.38 1150.84V1147.35H1634.9V1150.84C1634.91 1152.48 1633.58 1153.81 1631.94 1153.81Z" fill="#C5EAFF"/>
<path d="M1634.9 1147.35H1405.38V1140.95C1405.38 1139.35 1406.67 1138.06 1408.26 1138.06H1632.02C1633.61 1138.06 1634.9 1139.35 1634.9 1140.95L1634.9 1147.35Z" fill="#DCF2FF"/>
<path d="M1438.55 1109.47V1131.62" stroke="#65B5E5" stroke-width="3.8105" stroke-miterlimit="10" stroke-linecap="round" stroke-linejoin="round"/>
<path d="M1458.99 1109.47V1131.62" stroke="#65B5E5" stroke-width="3.8105" stroke-miterlimit="10" stroke-linecap="round" stroke-linejoin="round"/>
<path d="M1479.44 1109.47V1131.62" stroke="#65B5E5" stroke-width="3.8105" stroke-miterlimit="10" stroke-linecap="round" stroke-linejoin="round"/>
<path d="M1499.88 1109.47V1131.62" stroke="#65B5E5" stroke-width="3.8105" stroke-miterlimit="10" stroke-linecap="round" stroke-linejoin="round"/>
<path d="M1520.32 1109.47V1131.62" stroke="#65B5E5" stroke-width="3.8105" stroke-miterlimit="10" stroke-linecap="round" stroke-linejoin="round"/>
<path d="M1540.76 1109.47V1131.62" stroke="#65B5E5" stroke-width="3.8105" stroke-miterlimit="10" stroke-linecap="round" stroke-linejoin="round"/>
<path d="M1561.2 1109.47V1131.62" stroke="#65B5E5" stroke-width="3.8105" stroke-miterlimit="10" stroke-linecap="round" stroke-linejoin="round"/>
<path d="M1581.65 1109.47V1131.62" stroke="#65B5E5" stroke-width="3.8105" stroke-miterlimit="10" stroke-linecap="round" stroke-linejoin="round"/>
<path d="M1602.09 1109.47V1131.62" stroke="#65B5E5" stroke-width="3.8105" stroke-miterlimit="10" stroke-linecap="round" stroke-linejoin="round"/>
<path d="M1420.8 1138.06H1619.84" stroke="#65B5E5" stroke-width="3.8105" stroke-miterlimit="10" stroke-linecap="round" stroke-linejoin="round"/>
<path d="M1601.4 1209.24C1605.49 1198.06 1599.74 1185.68 1588.55 1181.59C1577.37 1177.51 1564.99 1183.26 1560.9 1194.45C1556.81 1205.63 1562.57 1218.01 1573.75 1222.1C1584.94 1226.18 1597.32 1220.43 1601.4 1209.24Z" fill="#DFECF2"/>
<path d="M1584.35 1226.16C1595.92 1223.33 1603.01 1211.67 1600.18 1200.1C1597.36 1188.53 1585.69 1181.44 1574.13 1184.26C1562.56 1187.09 1555.47 1198.75 1558.29 1210.32C1561.11 1221.89 1572.78 1228.98 1584.35 1226.16Z" fill="white"/>
<path d="M1598.29 1215.25L1560.9 1193.84" stroke="#DFECF2" stroke-width="1.7064" stroke-miterlimit="10"/>
<path d="M1575.87 1431.6C1580.91 1420.81 1576.26 1407.98 1565.47 1402.93C1554.68 1397.89 1541.85 1402.55 1536.81 1413.33C1531.76 1424.12 1536.42 1436.95 1547.21 1442C1557.99 1447.04 1570.83 1442.38 1575.87 1431.6Z" fill="#DFECF2"/>
<path d="M1574.63 1427.9C1579.67 1417.12 1575.01 1404.28 1564.23 1399.24C1553.44 1394.2 1540.61 1398.85 1535.56 1409.64C1530.52 1420.43 1535.18 1433.26 1545.96 1438.3C1556.75 1443.35 1569.58 1438.69 1574.63 1427.9Z" fill="white"/>
<path d="M1544.19 1400.29L1564.58 1438.25" stroke="#DFECF2" stroke-width="1.7064" stroke-miterlimit="10"/>
<path d="M1577.24 1422.43C1578.02 1410.38 1570.91 1403.87 1568.04 1401.67C1563.42 1398.11 1557.51 1395.5 1546.83 1398.97" stroke="#DFECF2" stroke-width="1.7064" stroke-miterlimit="10" stroke-linecap="round" stroke-linejoin="round"/>
<path d="M1493.32 1406.18C1501.05 1397.12 1499.97 1383.51 1490.91 1375.78C1481.85 1368.05 1468.24 1369.13 1460.51 1378.19C1452.79 1387.25 1453.86 1400.86 1462.92 1408.59C1471.98 1416.32 1485.59 1415.24 1493.32 1406.18Z" fill="#DFECF2"/>
<path d="M1490.24 1413.61C1500.64 1407.82 1504.37 1394.69 1498.58 1384.28C1492.79 1373.88 1479.65 1370.15 1469.25 1375.94C1458.85 1381.73 1455.11 1394.86 1460.91 1405.27C1466.7 1415.67 1479.83 1419.41 1490.24 1413.61Z" fill="white"/>
<path d="M1498.52 1405.41L1461.98 1382.58" stroke="#DFECF2" stroke-width="1.7064" stroke-miterlimit="10"/>
<path d="M1467.22 1383.27C1478.49 1379.42 1484.51 1367.17 1480.66 1355.9C1476.81 1344.63 1464.56 1338.61 1453.29 1342.46C1442.02 1346.3 1436 1358.56 1439.85 1369.83C1443.7 1381.1 1455.95 1387.11 1467.22 1383.27Z" fill="#DFECF2"/>
<path d="M1478.91 1368.49C1473.66 1379.18 1460.74 1383.59 1450.05 1378.34C1439.36 1373.1 1434.85 1360.12 1440.2 1349.49C1445.67 1338.63 1458.46 1334.32 1469.06 1339.64C1479.7 1344.97 1484.16 1357.8 1478.91 1368.49Z" fill="white"/>
<path d="M1451.72 1338.91L1465.8 1379.62" stroke="#DFECF2" stroke-width="1.7064" stroke-miterlimit="10"/>
<path d="M1473.06 1342.27C1475.78 1344.66 1483.67 1350.84 1480.82 1366.02" stroke="#DFECF2" stroke-width="1.7064" stroke-miterlimit="10" stroke-linecap="round" stroke-linejoin="round"/>
<path d="M1591.71 1331.72C1592.57 1319.84 1583.65 1309.52 1571.77 1308.65C1559.89 1307.79 1549.56 1316.72 1548.7 1328.59C1547.84 1340.47 1556.77 1350.8 1568.64 1351.66C1580.52 1352.53 1590.85 1343.6 1591.71 1331.72Z" fill="#DFECF2"/>
<path d="M1585.2 1341.06C1590.96 1330.64 1587.17 1317.52 1576.75 1311.76C1566.33 1306.01 1553.21 1309.79 1547.45 1320.22C1541.7 1330.64 1545.48 1343.76 1555.9 1349.51C1566.33 1355.27 1579.45 1351.48 1585.2 1341.06Z" fill="white"/>
<path d="M1545.67 1336.83L1587.35 1325.93" stroke="#DFECF2" stroke-width="1.7064" stroke-miterlimit="10"/>
<path d="M1600.08 1418.4C1610.98 1413.6 1615.92 1400.87 1611.12 1389.97C1606.31 1379.08 1593.58 1374.14 1582.69 1378.94C1571.79 1383.75 1566.86 1396.47 1571.66 1407.37C1576.46 1418.26 1589.19 1423.2 1600.08 1418.4Z" fill="#DFECF2"/>
<path d="M1608.03 1407.28C1614.91 1397.56 1612.61 1384.1 1602.89 1377.23C1593.16 1370.35 1579.71 1372.65 1572.83 1382.37C1565.95 1392.09 1568.26 1405.55 1577.98 1412.43C1587.7 1419.3 1601.15 1417 1608.03 1407.28Z" fill="white"/>
<path d="M1602.16 1376.75L1577.42 1412.02" stroke="#DFECF2" stroke-width="1.7064" stroke-miterlimit="10"/>
<path d="M1536.34 1386.2C1548.24 1386.2 1557.9 1376.55 1557.9 1364.64C1557.9 1352.73 1548.24 1343.08 1536.34 1343.08C1524.43 1343.08 1514.78 1352.73 1514.78 1364.64C1514.78 1376.55 1524.43 1386.2 1536.34 1386.2Z" fill="#DFECF2"/>
<path d="M1533.17 1388.47C1545.08 1388.47 1554.73 1378.81 1554.73 1366.91C1554.73 1355 1545.08 1345.35 1533.17 1345.35C1521.26 1345.35 1511.61 1355 1511.61 1366.91C1511.61 1378.81 1521.26 1388.47 1533.17 1388.47Z" fill="white"/>
<path d="M1518.6 1382.79L1548.94 1352.21" stroke="#DFECF2" stroke-width="1.7064" stroke-miterlimit="10"/>
<path d="M1528.59 1355.83C1539.75 1351.67 1545.42 1339.25 1541.26 1328.1C1537.1 1316.94 1524.69 1311.26 1513.53 1315.42C1502.37 1319.58 1496.7 1332 1500.86 1343.16C1505.02 1354.32 1517.43 1359.99 1528.59 1355.83Z" fill="#DFECF2"/>
<path d="M1515.94 1354.51C1505.11 1349.56 1500.34 1336.77 1505.29 1325.94C1510.24 1315.1 1523.08 1310.23 1533.86 1315.28C1544.87 1320.45 1549.53 1333.11 1544.51 1343.86C1539.47 1354.65 1526.77 1359.46 1515.94 1354.51Z" fill="white"/>
<path d="M1544.76 1326.5L1504.45 1341.71" stroke="#DFECF2" stroke-width="1.7064" stroke-miterlimit="10"/>
<path d="M1546.11 1332.97C1548.42 1342.34 1539.81 1356.46 1519.51 1356.85" stroke="#DFECF2" stroke-width="1.7064" stroke-miterlimit="10" stroke-linecap="round" stroke-linejoin="round"/>
<path d="M1489.98 1336.97C1493.5 1325.6 1487.13 1313.52 1475.76 1310C1464.38 1306.48 1452.31 1312.85 1448.79 1324.23C1445.27 1335.6 1451.64 1347.68 1463.01 1351.2C1474.39 1354.72 1486.46 1348.35 1489.98 1336.97Z" fill="#DFECF2"/>
<path d="M1476.99 1353.46C1488.68 1351.22 1496.34 1339.92 1494.09 1328.22C1491.85 1316.53 1480.55 1308.87 1468.85 1311.11C1457.16 1313.36 1449.5 1324.66 1451.74 1336.35C1453.99 1348.05 1465.29 1355.71 1476.99 1353.46Z" fill="white"/>
<path d="M1493.69 1337.73L1452.48 1325.16" stroke="#DFECF2" stroke-width="1.7064" stroke-miterlimit="10"/>
<path d="M1453.77 1344.14C1461.07 1353.82 1471.34 1355.78 1481.93 1351.8C1490.13 1348.71 1493.09 1339.61 1493.09 1339.61" stroke="#DFECF2" stroke-width="1.7064" stroke-miterlimit="10" stroke-linecap="round" stroke-linejoin="round"/>
<path d="M1596.75 1369.71C1603.91 1360.19 1601.99 1346.67 1592.47 1339.52C1582.95 1332.37 1569.44 1334.28 1562.28 1343.8C1555.13 1353.32 1557.04 1366.84 1566.56 1373.99C1576.08 1381.15 1589.6 1379.23 1596.75 1369.71Z" fill="#DFECF2"/>
<path d="M1601.58 1369.2C1606.83 1358.52 1602.43 1345.6 1591.74 1340.34C1581.05 1335.09 1568.13 1339.49 1562.88 1350.18C1557.63 1360.86 1562.03 1373.79 1572.71 1379.04C1583.4 1384.29 1596.32 1379.89 1601.58 1369.2Z" fill="white"/>
<path d="M1599.99 1371.82L1565.45 1346.08" stroke="#DFECF2" stroke-width="1.7064" stroke-miterlimit="10"/>
<path d="M1560.69 1365.77C1565.08 1377.01 1574.28 1379.9 1577.81 1380.68C1583.51 1381.95 1589.96 1381.81 1598.17 1374.13" stroke="#DFECF2" stroke-width="1.7064" stroke-miterlimit="10" stroke-linecap="round" stroke-linejoin="round"/>
<path d="M1562.4 1326.87C1569.07 1317.01 1566.48 1303.61 1556.62 1296.93C1546.76 1290.26 1533.36 1292.85 1526.68 1302.71C1520.01 1312.57 1522.59 1325.98 1532.46 1332.65C1542.32 1339.32 1555.72 1336.74 1562.4 1326.87Z" fill="#DFECF2"/>
<path d="M1548.79 1332.49C1560.06 1328.63 1566.05 1316.37 1562.19 1305.1C1558.33 1293.84 1546.06 1287.84 1534.8 1291.71C1523.54 1295.57 1517.54 1307.83 1521.4 1319.1C1525.27 1330.36 1537.53 1336.36 1548.79 1332.49Z" fill="white"/>
<path d="M1542.02 1290.57L1539.81 1333.6" stroke="#DFECF2" stroke-width="1.7064" stroke-miterlimit="10"/>
<path d="M1543.63 1290.64C1549 1290.82 1559.21 1296.74 1562.38 1303.6" stroke="#DFECF2" stroke-width="1.7064" stroke-miterlimit="10" stroke-linecap="round" stroke-linejoin="round"/>
<path d="M1520.28 1314.8C1521.12 1321.65 1525.67 1329.07 1536.99 1334.04" stroke="#DFECF2" stroke-width="1.7064" stroke-miterlimit="10" stroke-linecap="round" stroke-linejoin="round"/>
<path d="M1509.43 1236.86C1516.1 1227 1513.52 1213.59 1503.66 1206.92C1493.79 1200.25 1480.39 1202.83 1473.72 1212.69C1467.04 1222.56 1469.63 1235.96 1479.49 1242.63C1489.35 1249.31 1502.76 1246.72 1509.43 1236.86Z" fill="#DFECF2"/>
<path d="M1499.46 1240.82C1509.79 1234.89 1513.35 1221.71 1507.43 1211.38C1501.5 1201.06 1488.32 1197.49 1477.99 1203.42C1467.67 1209.35 1464.1 1222.53 1470.03 1232.85C1475.96 1243.18 1489.14 1246.74 1499.46 1240.82Z" fill="white"/>
<path d="M1489.05 1200.55L1486.84 1243.58" stroke="#DFECF2" stroke-width="1.7064" stroke-miterlimit="10"/>
<path d="M1490.66 1200.63C1496.03 1200.8 1506.24 1206.72 1509.41 1213.59" stroke="#DFECF2" stroke-width="1.7064" stroke-miterlimit="10" stroke-linecap="round" stroke-linejoin="round"/>
<path d="M1467.46 1218.96C1466.07 1227.05 1469.37 1237.59 1484.02 1244.02" stroke="#DFECF2" stroke-width="1.7064" stroke-miterlimit="10" stroke-linecap="round" stroke-linejoin="round"/>
<path d="M1502.73 1323.05C1513.51 1317.99 1518.14 1305.14 1513.07 1294.37C1508.01 1283.59 1495.17 1278.96 1484.39 1284.02C1473.61 1289.09 1468.98 1301.93 1474.04 1312.71C1479.11 1323.48 1491.95 1328.12 1502.73 1323.05Z" fill="#DFECF2"/>
<path d="M1473.94 1304.4C1475.34 1292.58 1486.05 1284.12 1497.88 1285.51C1509.71 1286.9 1518.28 1297.63 1516.77 1309.45C1515.22 1321.51 1504.6 1329.82 1492.84 1328.34C1481.02 1326.85 1472.55 1316.23 1473.94 1304.4Z" fill="white"/>
<path d="M1509.43 1323.25L1482.6 1289.54" stroke="#DFECF2" stroke-width="1.7064" stroke-miterlimit="10"/>
<path d="M1488.19 1327.18C1484.82 1325.84 1475.33 1322.63 1472.97 1307.37" stroke="#DFECF2" stroke-width="1.7064" stroke-miterlimit="10" stroke-linecap="round" stroke-linejoin="round"/>
<path d="M1515.07 1317.29C1513.13 1319.77 1504.91 1327.75 1496.52 1329.27" stroke="#DFECF2" stroke-width="1.7064" stroke-miterlimit="10" stroke-linecap="round" stroke-linejoin="round"/>
<path d="M1606.7 1302.8C1607.43 1290.92 1598.39 1280.69 1586.51 1279.95C1574.62 1279.22 1564.39 1288.26 1563.66 1300.14C1562.92 1312.03 1571.96 1322.26 1583.85 1322.99C1595.73 1323.73 1605.96 1314.69 1606.7 1302.8Z" fill="#DFECF2"/>
<path d="M1605.03 1317.15C1612.19 1307.63 1610.27 1294.12 1600.75 1286.96C1591.23 1279.81 1577.71 1281.72 1570.56 1291.24C1563.41 1300.76 1565.32 1314.28 1574.84 1321.43C1584.36 1328.59 1597.88 1326.67 1605.03 1317.15Z" fill="white"/>
<path d="M1605.58 1316.44L1571.04 1290.7" stroke="#DFECF2" stroke-width="1.7064" stroke-miterlimit="10"/>
<path d="M1566.27 1310.39C1570.67 1321.64 1579.87 1324.52 1583.4 1325.3C1589.09 1326.57 1597.67 1325.01 1603.76 1318.75C1606.73 1315.7 1611.25 1306.72 1609.15 1301.22" stroke="#DFECF2" stroke-width="1.7064" stroke-miterlimit="10" stroke-linecap="round" stroke-linejoin="round"/>
<path d="M1470.96 1278.68C1481.18 1272.55 1484.49 1259.31 1478.36 1249.1C1472.23 1238.88 1458.99 1235.57 1448.78 1241.7C1438.57 1247.83 1435.26 1261.07 1441.38 1271.28C1447.51 1281.49 1460.75 1284.8 1470.96 1278.68Z" fill="#DFECF2"/>
<path d="M1474.16 1274.75C1484.02 1268.06 1486.58 1254.66 1479.9 1244.8C1473.21 1234.95 1459.81 1232.38 1449.95 1239.07C1440.1 1245.75 1437.53 1259.16 1444.22 1269.01C1450.9 1278.87 1464.31 1281.44 1474.16 1274.75Z" fill="white"/>
<path d="M1470.73 1237.21L1451.99 1276.01" stroke="#DFECF2" stroke-width="1.7064" stroke-miterlimit="10"/>
<path d="M1459.29 1315.24C1471.08 1313.62 1479.34 1302.75 1477.73 1290.95C1476.11 1279.15 1465.24 1270.9 1453.44 1272.51C1441.64 1274.13 1433.39 1285 1435 1296.8C1436.61 1308.59 1447.49 1316.85 1459.29 1315.24Z" fill="#DFECF2"/>
<path d="M1468.1 1309.48C1457.56 1315.02 1444.52 1310.97 1438.98 1300.43C1433.43 1289.89 1437.43 1276.75 1448.02 1271.31C1458.84 1265.76 1471.7 1269.81 1477.14 1280.36C1482.6 1290.94 1478.63 1303.93 1468.1 1309.48Z" fill="white"/>
<path d="M1463.56 1269.55L1450.95 1310.75" stroke="#DFECF2" stroke-width="1.7064" stroke-miterlimit="10"/>
<path d="M1478.82 1284.84C1479.62 1288.37 1482.34 1298.02 1471.1 1308.6" stroke="#DFECF2" stroke-width="1.7064" stroke-miterlimit="10" stroke-linecap="round" stroke-linejoin="round"/>
<path d="M1503.09 1271.49C1510.66 1262.3 1509.35 1248.71 1500.16 1241.14C1490.98 1233.56 1477.39 1234.87 1469.81 1244.06C1462.24 1253.25 1463.55 1266.84 1472.73 1274.41C1481.92 1281.99 1495.51 1280.68 1503.09 1271.49Z" fill="#DFECF2"/>
<path d="M1510.56 1265.91C1514.08 1254.53 1507.71 1242.46 1496.34 1238.94C1484.96 1235.42 1472.89 1241.79 1469.37 1253.16C1465.85 1264.54 1472.21 1276.61 1483.59 1280.13C1494.97 1283.65 1507.04 1277.28 1510.56 1265.91Z" fill="white"/>
<path d="M1510.78 1264.91L1469.57 1252.35" stroke="#DFECF2" stroke-width="1.7064" stroke-miterlimit="10"/>
<path d="M1516.49 1219.52C1528.18 1217.26 1535.83 1205.95 1533.57 1194.26C1531.3 1182.57 1519.99 1174.92 1508.3 1177.19C1496.61 1179.45 1488.97 1190.76 1491.23 1202.45C1493.49 1214.14 1504.8 1221.78 1516.49 1219.52Z" fill="#DFECF2"/>
<path d="M1521.33 1221.74C1532.76 1218.4 1539.31 1206.42 1535.97 1194.99C1532.63 1183.57 1520.65 1177.01 1509.22 1180.35C1497.79 1183.69 1491.24 1195.67 1494.58 1207.1C1497.92 1218.53 1509.9 1225.08 1521.33 1221.74Z" fill="white"/>
<path d="M1529.05 1184.44L1500.25 1216.48" stroke="#DFECF2" stroke-width="1.7064" stroke-miterlimit="10"/>
<path d="M1541.98 1236.09C1553.88 1236.09 1563.54 1226.44 1563.54 1214.53C1563.54 1202.62 1553.88 1192.97 1541.98 1192.97C1530.07 1192.97 1520.42 1202.62 1520.42 1214.53C1520.42 1226.44 1530.07 1236.09 1541.98 1236.09Z" fill="#DFECF2"/>
<path d="M1557.21 1233.7C1565.7 1225.35 1565.81 1211.69 1557.45 1203.21C1549.1 1194.72 1535.45 1194.61 1526.96 1202.97C1518.47 1211.32 1518.37 1224.97 1526.72 1233.46C1535.07 1241.94 1548.72 1242.05 1557.21 1233.7Z" fill="white"/>
<path d="M1546.92 1239.43L1538.85 1197.11" stroke="#DFECF2" stroke-width="1.7064" stroke-miterlimit="10"/>
<path d="M1497.52 1195.97C1503.42 1185.63 1499.81 1172.46 1489.47 1166.57C1479.12 1160.67 1465.95 1164.27 1460.06 1174.62C1454.16 1184.97 1457.77 1198.13 1468.11 1204.03C1478.46 1209.93 1491.62 1206.32 1497.52 1195.97Z" fill="#DFECF2"/>
<path d="M1494.19 1197.99C1500.09 1187.65 1496.48 1174.48 1486.14 1168.59C1475.79 1162.69 1462.62 1166.3 1456.73 1176.64C1450.83 1186.99 1454.44 1200.15 1464.78 1206.05C1475.13 1211.95 1488.29 1208.34 1494.19 1197.99Z" fill="white"/>
<path d="M1459.71 1202.1L1492.28 1173.9" stroke="#DFECF2" stroke-width="1.7064" stroke-miterlimit="10"/>
<path d="M1611.2 1279.18C1615.92 1268.25 1610.89 1255.56 1599.96 1250.84C1589.02 1246.12 1576.33 1251.15 1571.61 1262.08C1566.89 1273.01 1571.93 1285.7 1582.86 1290.42C1593.79 1295.15 1606.48 1290.11 1611.2 1279.18Z" fill="#DFECF2"/>
<path d="M1601.74 1285.13C1611.86 1278.87 1615 1265.58 1608.73 1255.45C1602.47 1245.32 1589.18 1242.19 1579.06 1248.45C1568.93 1254.72 1565.8 1268 1572.06 1278.13C1578.32 1288.26 1591.61 1291.39 1601.74 1285.13Z" fill="white"/>
<path d="M1602.16 1248.67L1577.42 1283.94" stroke="#DFECF2" stroke-width="1.7064" stroke-miterlimit="10"/>
<path d="M1570.83 1287.93C1575.15 1276.83 1569.66 1264.33 1558.56 1260.01C1547.46 1255.7 1534.96 1261.19 1530.65 1272.29C1526.33 1283.39 1531.82 1295.89 1542.92 1300.2C1554.02 1304.52 1566.52 1299.03 1570.83 1287.93Z" fill="#DFECF2"/>
<path d="M1573.15 1291.06C1577.47 1279.96 1571.97 1267.46 1560.88 1263.15C1549.78 1258.83 1537.28 1264.32 1532.96 1275.42C1528.65 1286.52 1534.14 1299.02 1545.24 1303.34C1556.34 1307.65 1568.84 1302.16 1573.15 1291.06Z" fill="white"/>
<path d="M1569.07 1297.57L1538 1267.72" stroke="#DFECF2" stroke-width="1.7064" stroke-miterlimit="10"/>
<path d="M1556.94 1304.44C1561.9 1304.7 1573.84 1297.71 1574.11 1284.96" stroke="#DFECF2" stroke-width="1.7064" stroke-miterlimit="10" stroke-linecap="round" stroke-linejoin="round"/>
<path d="M1531.59 1286C1537.41 1275.62 1533.71 1262.48 1523.32 1256.65C1512.94 1250.83 1499.8 1254.53 1493.97 1264.92C1488.15 1275.31 1491.85 1288.45 1502.24 1294.27C1512.63 1300.09 1525.77 1296.39 1531.59 1286Z" fill="#DFECF2"/>
<path d="M1508.01 1294.37C1497.1 1289.6 1492.13 1276.88 1496.9 1265.97C1501.67 1255.07 1514.44 1249.98 1525.3 1254.87C1536.39 1259.85 1541.25 1272.44 1536.4 1283.26C1531.54 1294.13 1518.92 1299.14 1508.01 1294.37Z" fill="white"/>
<path d="M1536.37 1265.9L1496.31 1281.76" stroke="#DFECF2" stroke-width="1.7064" stroke-miterlimit="10"/>
<path d="M1518.38 1265.89C1530.28 1265.49 1539.61 1255.52 1539.21 1243.62C1538.81 1231.72 1528.83 1222.39 1516.93 1222.79C1505.03 1223.19 1495.71 1233.17 1496.11 1245.07C1496.51 1256.97 1506.48 1266.29 1518.38 1265.89Z" fill="#DFECF2"/>
<path d="M1521.88 1267.56C1533.78 1267.17 1543.11 1257.2 1542.71 1245.3C1542.31 1233.39 1532.34 1224.07 1520.44 1224.47C1508.54 1224.87 1499.22 1234.83 1499.61 1246.74C1500.01 1258.64 1509.98 1267.96 1521.88 1267.56Z" fill="white"/>
<path d="M1527.65 1266.65L1516.44 1225.05" stroke="#DFECF2" stroke-width="1.7064" stroke-miterlimit="10"/>
<path d="M1473.9 1226.73C1479.41 1216.17 1475.33 1203.15 1464.78 1197.63C1454.22 1192.12 1441.2 1196.2 1435.68 1206.75C1430.17 1217.3 1434.25 1230.33 1444.8 1235.85C1455.35 1241.36 1468.38 1237.28 1473.9 1226.73Z" fill="#DFECF2"/>
<path d="M1436.75 1224.04C1434.12 1212.43 1441.4 1200.88 1453.01 1198.24C1464.62 1195.61 1476.29 1202.86 1478.8 1214.5C1481.37 1226.39 1474.13 1237.77 1462.54 1240.3C1450.91 1242.84 1439.38 1235.65 1436.75 1224.04Z" fill="white"/>
<path d="M1476.49 1229.97L1439.95 1207.14" stroke="#DFECF2" stroke-width="1.7064" stroke-miterlimit="10"/>
<path d="M1457.78 1240.76C1454.16 1240.62 1444.14 1240.76 1436.82 1227.16" stroke="#DFECF2" stroke-width="1.7064" stroke-miterlimit="10" stroke-linecap="round" stroke-linejoin="round"/>
<path d="M1581.92 1248.03C1586.64 1237.1 1581.61 1224.41 1570.68 1219.68C1559.74 1214.96 1547.05 1219.99 1542.33 1230.92C1537.61 1241.85 1542.64 1254.54 1553.57 1259.27C1564.5 1263.99 1577.19 1258.96 1581.92 1248.03Z" fill="#DFECF2"/>
<path d="M1586.38 1242.79C1586.65 1230.88 1577.21 1221.02 1565.3 1220.76C1553.4 1220.5 1543.53 1229.94 1543.27 1241.84C1543.01 1253.75 1552.45 1263.61 1564.35 1263.87C1576.26 1264.13 1586.12 1254.7 1586.38 1242.79Z" fill="white"/>
<path d="M1582.51 1254.54L1547.96 1228.8" stroke="#DFECF2" stroke-width="1.7064" stroke-miterlimit="10"/>
<path d="M1543.2 1248.49C1547.6 1259.73 1556.79 1262.62 1560.33 1263.4C1566.02 1264.67 1572.48 1264.53 1580.68 1256.85" stroke="#DFECF2" stroke-width="1.7064" stroke-miterlimit="10" stroke-linecap="round" stroke-linejoin="round"/>
<path d="M1583.7 1463.12C1594.97 1459.27 1600.99 1447.01 1597.14 1435.74C1593.29 1424.47 1581.04 1418.46 1569.77 1422.31C1558.5 1426.15 1552.48 1438.41 1556.33 1449.68C1560.18 1460.95 1572.43 1466.96 1583.7 1463.12Z" fill="#DFECF2"/>
<path d="M1557.95 1437.02C1563.2 1426.33 1576.12 1421.92 1586.81 1427.17C1597.5 1432.42 1602.02 1445.39 1596.66 1456.03C1591.19 1466.89 1578.41 1471.19 1567.81 1465.88C1557.16 1460.54 1552.71 1447.71 1557.95 1437.02Z" fill="white"/>
<path d="M1585.15 1466.61L1571.06 1425.89" stroke="#DFECF2" stroke-width="1.7064" stroke-miterlimit="10"/>
<path d="M1563.81 1463.25C1561.08 1460.86 1553.2 1454.68 1556.05 1439.5" stroke="#DFECF2" stroke-width="1.7064" stroke-miterlimit="10" stroke-linecap="round" stroke-linejoin="round"/>
<path d="M1462.52 1493.15C1474.06 1490.18 1481 1478.43 1478.04 1466.9C1475.07 1455.37 1463.32 1448.42 1451.79 1451.39C1440.25 1454.35 1433.31 1466.1 1436.27 1477.64C1439.24 1489.17 1450.99 1496.11 1462.52 1493.15Z" fill="#DFECF2"/>
<path d="M1466.41 1492.81C1477.94 1489.84 1484.89 1478.09 1481.92 1466.56C1478.96 1455.03 1467.2 1448.08 1455.67 1451.05C1444.14 1454.01 1437.19 1465.76 1440.16 1477.3C1443.12 1488.83 1454.87 1495.77 1466.41 1492.81Z" fill="white"/>
<path d="M1481.71 1465.6L1440.03 1476.5" stroke="#DFECF2" stroke-width="1.7064" stroke-miterlimit="10"/>
<path d="M1440.78 1406.75C1445.09 1395.65 1457.58 1390.14 1468.68 1394.45C1479.78 1398.75 1485.29 1411.24 1480.98 1422.35C1476.68 1433.45 1464.19 1438.95 1453.08 1434.65C1441.98 1430.34 1436.48 1417.85 1440.78 1406.75Z" fill="#DFECF2"/>
<path d="M1479.41 1430.73C1486.29 1421.01 1483.98 1407.56 1474.26 1400.68C1464.54 1393.8 1451.09 1396.1 1444.21 1405.82C1437.33 1415.54 1439.64 1429 1449.36 1435.88C1459.08 1442.76 1472.53 1440.45 1479.41 1430.73Z" fill="white"/>
<path d="M1450.17 1436.44L1474.91 1401.17" stroke="#DFECF2" stroke-width="1.7064" stroke-miterlimit="10"/>
<path d="M1534.79 1429.44C1538.14 1418.01 1531.6 1406.03 1520.17 1402.68C1508.75 1399.33 1496.76 1405.87 1493.41 1417.3C1490.06 1428.72 1496.6 1440.7 1508.03 1444.05C1519.45 1447.41 1531.43 1440.86 1534.79 1429.44Z" fill="#DFECF2"/>
<path d="M1533.25 1429.88C1535.04 1418.11 1526.95 1407.12 1515.18 1405.33C1503.41 1403.54 1492.41 1411.63 1490.62 1423.4C1488.83 1435.17 1496.93 1446.17 1508.7 1447.96C1520.47 1449.75 1531.46 1441.65 1533.25 1429.88Z" fill="white"/>
<path d="M1504.01 1446.6L1521.53 1407.24" stroke="#DFECF2" stroke-width="1.7064" stroke-miterlimit="10"/>
<path d="M1555.23 1456.87C1563.27 1448.09 1562.67 1434.45 1553.89 1426.41C1545.11 1418.37 1531.47 1418.96 1523.43 1427.74C1515.39 1436.53 1515.98 1450.16 1524.76 1458.21C1533.54 1466.25 1547.18 1465.65 1555.23 1456.87Z" fill="#DFECF2"/>
<path d="M1544.4 1423.42C1555.23 1428.37 1560 1441.16 1555.05 1451.99C1550.1 1462.82 1537.26 1467.7 1526.48 1462.64C1515.47 1457.48 1510.81 1444.82 1515.83 1434.07C1520.87 1423.28 1533.57 1418.47 1544.4 1423.42Z" fill="white"/>
<path d="M1515.58 1451.43L1555.89 1436.21" stroke="#DFECF2" stroke-width="1.7064" stroke-miterlimit="10"/>
<path d="M1514.23 1444.95C1511.92 1435.58 1521.27 1421.93 1533.62 1421.55" stroke="#DFECF2" stroke-width="1.7064" stroke-miterlimit="10" stroke-linecap="round" stroke-linejoin="round"/>
<path d="M1610.22 1478.84C1613.74 1467.46 1607.37 1455.39 1596 1451.87C1584.62 1448.35 1572.55 1454.71 1569.03 1466.09C1565.51 1477.47 1571.87 1489.54 1583.25 1493.06C1594.63 1496.58 1606.7 1490.21 1610.22 1478.84Z" fill="#DFECF2"/>
<path d="M1602.63 1484.33C1610.26 1475.18 1609.04 1461.59 1599.89 1453.96C1590.75 1446.33 1577.16 1447.55 1569.53 1456.69C1561.9 1465.84 1563.12 1479.43 1572.26 1487.06C1581.4 1494.69 1595 1493.47 1602.63 1484.33Z" fill="white"/>
<path d="M1565.25 1465.13L1606.46 1477.7" stroke="#DFECF2" stroke-width="1.7064" stroke-miterlimit="10"/>
<path d="M1605.17 1458.72C1597.88 1449.04 1587.6 1447.08 1577.01 1451.06C1568.81 1454.15 1565.85 1463.24 1565.85 1463.24" stroke="#DFECF2" stroke-width="1.7064" stroke-miterlimit="10" stroke-linecap="round" stroke-linejoin="round"/>
<path d="M1507.7 1448.74C1510.37 1437.13 1503.13 1425.56 1491.52 1422.89C1479.92 1420.22 1468.35 1427.47 1465.68 1439.07C1463.01 1450.68 1470.25 1462.25 1481.86 1464.92C1493.46 1467.59 1505.04 1460.34 1507.7 1448.74Z" fill="#DFECF2"/>
<path d="M1505.01 1445.92C1507.68 1434.31 1500.44 1422.74 1488.83 1420.07C1477.23 1417.4 1465.66 1424.65 1462.99 1436.25C1460.32 1447.86 1467.56 1459.43 1479.17 1462.1C1490.77 1464.77 1502.34 1457.52 1505.01 1445.92Z" fill="white"/>
<path d="M1466.13 1428.87L1500.67 1454.62" stroke="#DFECF2" stroke-width="1.7064" stroke-miterlimit="10"/>
<path d="M1505.44 1434.92C1501.05 1423.68 1491.85 1420.79 1488.31 1420.01C1482.62 1418.75 1476.16 1418.88 1467.96 1426.56" stroke="#DFECF2" stroke-width="1.7064" stroke-miterlimit="10" stroke-linecap="round" stroke-linejoin="round"/>
<path d="M1548.66 1472.99C1550.61 1461.25 1542.67 1450.14 1530.92 1448.19C1519.17 1446.24 1508.07 1454.19 1506.12 1465.93C1504.17 1477.68 1512.11 1488.78 1523.86 1490.73C1535.61 1492.68 1546.71 1484.74 1548.66 1472.99Z" fill="#DFECF2"/>
<path d="M1524.85 1489.66C1536.74 1489.03 1545.86 1478.88 1545.23 1466.99C1544.6 1455.09 1534.44 1445.97 1522.55 1446.6C1510.66 1447.24 1501.54 1457.39 1502.17 1469.28C1502.8 1481.17 1512.96 1490.3 1524.85 1489.66Z" fill="white"/>
<path d="M1514.9 1448.42L1530.86 1488.44" stroke="#DFECF2" stroke-width="1.7064" stroke-miterlimit="10"/>
<path d="M1516.4 1447.82C1521.35 1445.73 1533.1 1446.85 1538.85 1451.77" stroke="#DFECF2" stroke-width="1.7064" stroke-miterlimit="10" stroke-linecap="round" stroke-linejoin="round"/>
<path d="M1502.97 1474.16C1505.08 1482.1 1512.48 1490.29 1528.48 1490.02" stroke="#DFECF2" stroke-width="1.7064" stroke-miterlimit="10" stroke-linecap="round" stroke-linejoin="round"/>
<path d="M1548.97 1515.16C1560.88 1515.16 1570.54 1505.51 1570.54 1493.6C1570.54 1481.69 1560.88 1472.04 1548.97 1472.04C1537.07 1472.04 1527.41 1481.69 1527.41 1493.6C1527.41 1505.51 1537.07 1515.16 1548.97 1515.16Z" fill="#DFECF2"/>
<path d="M1568.51 1492.71C1567.11 1504.53 1556.4 1512.99 1544.57 1511.6C1532.74 1510.21 1524.17 1499.48 1525.68 1487.66C1527.22 1475.6 1537.85 1467.29 1549.61 1468.77C1561.43 1470.26 1569.9 1480.88 1568.51 1492.71Z" fill="white"/>
<path d="M1533.02 1473.86L1559.85 1507.57" stroke="#DFECF2" stroke-width="1.7064" stroke-miterlimit="10"/>
<path d="M1525.56 1488.89C1527.88 1475.71 1536.58 1469.91 1547.6 1468.12" stroke="#DFECF2" stroke-width="1.7064" stroke-miterlimit="10" stroke-linecap="round" stroke-linejoin="round"/>
<path d="M1490.05 1506.46C1501.94 1506 1511.22 1495.98 1510.76 1484.09C1510.31 1472.19 1500.29 1462.91 1488.39 1463.37C1476.49 1463.82 1467.21 1473.84 1467.67 1485.74C1468.13 1497.64 1478.15 1506.92 1490.05 1506.46Z" fill="#DFECF2"/>
<path d="M1498.23 1500.13C1508.16 1493.55 1510.87 1480.17 1504.3 1470.25C1497.72 1460.32 1484.34 1457.61 1474.41 1464.18C1464.49 1470.76 1461.77 1484.14 1468.35 1494.06C1474.93 1503.99 1488.3 1506.7 1498.23 1500.13Z" fill="white"/>
<path d="M1468.64 1469.91L1503.18 1495.65" stroke="#DFECF2" stroke-width="1.7064" stroke-miterlimit="10"/>
<path d="M1507.95 1475.95C1503.55 1464.71 1494.35 1461.83 1490.82 1461.04C1485.13 1459.78 1476.55 1461.34 1470.46 1467.59C1467.48 1470.65 1462.96 1479.63 1465.07 1485.13" stroke="#DFECF2" stroke-width="1.7064" stroke-miterlimit="10" stroke-linecap="round" stroke-linejoin="round"/>
<path d="M1581.53 1511.42C1590.6 1503.7 1591.69 1490.09 1583.97 1481.02C1576.24 1471.96 1562.64 1470.87 1553.57 1478.59C1544.51 1486.31 1543.42 1499.92 1551.14 1508.98C1558.86 1518.05 1572.47 1519.14 1581.53 1511.42Z" fill="#DFECF2"/>
<path d="M1584.33 1509.28C1590.32 1498.98 1586.83 1485.79 1576.53 1479.8C1566.24 1473.81 1553.04 1477.3 1547.05 1487.59C1541.06 1497.88 1544.55 1511.08 1554.85 1517.07C1565.14 1523.06 1578.34 1519.57 1584.33 1509.28Z" fill="white"/>
<path d="M1558.82 1518.92L1573.94 1478.58" stroke="#DFECF2" stroke-width="1.7064" stroke-miterlimit="10"/>
<path d="M1606.41 1526.89C1616.47 1520.53 1619.48 1507.21 1613.12 1497.15C1606.76 1487.08 1593.44 1484.07 1583.37 1490.43C1573.31 1496.79 1570.3 1510.11 1576.66 1520.18C1583.02 1530.24 1596.34 1533.25 1606.41 1526.89Z" fill="#DFECF2"/>
<path d="M1583.14 1493.1C1593.67 1487.55 1606.71 1491.6 1612.26 1502.14C1617.8 1512.68 1613.81 1525.82 1603.21 1531.26C1592.39 1536.81 1579.53 1532.76 1574.09 1522.22C1568.64 1511.63 1572.6 1498.64 1583.14 1493.1Z" fill="white"/>
<path d="M1587.68 1533.02L1600.29 1491.83" stroke="#DFECF2" stroke-width="1.7064" stroke-miterlimit="10"/>
<path d="M1572.41 1517.73C1571.62 1514.2 1568.89 1504.56 1580.14 1493.97" stroke="#DFECF2" stroke-width="1.7064" stroke-miterlimit="10" stroke-linecap="round" stroke-linejoin="round"/>
<path d="M1606.99 1540.67C1607.05 1528.76 1597.45 1519.06 1585.54 1519C1573.64 1518.94 1563.93 1528.54 1563.87 1540.45C1563.81 1552.36 1573.42 1562.06 1585.32 1562.12C1597.23 1562.18 1606.93 1552.58 1606.99 1540.67Z" fill="#DFECF2"/>
<path d="M1598.57 1552.65C1606.14 1543.46 1604.84 1529.88 1595.65 1522.3C1586.46 1514.73 1572.87 1516.03 1565.3 1525.22C1557.72 1534.41 1559.03 1548 1568.22 1555.57C1577.41 1563.15 1590.99 1561.84 1598.57 1552.65Z" fill="white"/>
<path d="M1561.08 1533.37L1602.29 1545.93" stroke="#DFECF2" stroke-width="1.7064" stroke-miterlimit="10"/>
<path d="M1533.24 1582.6C1538.75 1572.04 1534.67 1559.02 1524.12 1553.5C1513.56 1547.99 1500.54 1552.07 1495.02 1562.62C1489.51 1573.17 1493.59 1586.2 1504.14 1591.72C1514.69 1597.23 1527.72 1593.15 1533.24 1582.6Z" fill="#DFECF2"/>
<path d="M1529.59 1581.31C1535.87 1571.19 1532.76 1557.9 1522.64 1551.62C1512.53 1545.34 1499.23 1548.45 1492.95 1558.57C1486.67 1568.68 1489.78 1581.98 1499.9 1588.26C1510.02 1594.54 1523.31 1591.43 1529.59 1581.31Z" fill="white"/>
<path d="M1497.54 1586.55L1526.34 1554.51" stroke="#DFECF2" stroke-width="1.7064" stroke-miterlimit="10"/>
<path d="M1488.22 1576.89C1494.35 1566.68 1491.03 1553.43 1480.82 1547.31C1470.6 1541.19 1457.36 1544.5 1451.24 1554.72C1445.11 1564.93 1448.43 1578.17 1458.64 1584.29C1468.86 1590.42 1482.1 1587.1 1488.22 1576.89Z" fill="#DFECF2"/>
<path d="M1481.72 1579.1C1489.95 1570.49 1489.64 1556.84 1481.03 1548.61C1472.43 1540.39 1458.78 1540.7 1450.55 1549.3C1442.32 1557.91 1442.63 1571.56 1451.24 1579.79C1459.85 1588.01 1473.5 1587.7 1481.72 1579.1Z" fill="white"/>
<path d="M1445.37 1558.7L1486.57 1571.26" stroke="#DFECF2" stroke-width="1.7064" stroke-miterlimit="10"/>
<path d="M1464.2 1522.63C1475.1 1517.82 1480.03 1505.1 1475.23 1494.2C1470.43 1483.31 1457.7 1478.37 1446.8 1483.17C1435.91 1487.98 1430.97 1500.7 1435.77 1511.6C1440.58 1522.49 1453.3 1527.43 1464.2 1522.63Z" fill="#DFECF2"/>
<path d="M1452.89 1485.4C1464.63 1483.39 1475.77 1491.28 1477.78 1503.02C1479.79 1514.75 1471.9 1525.9 1460.17 1527.91C1448.43 1529.92 1437.28 1522.03 1435.28 1510.29C1433.27 1498.56 1441.15 1487.41 1452.89 1485.4Z" fill="white"/>
<path d="M1444.85 1524.77L1469.59 1489.5" stroke="#DFECF2" stroke-width="1.7064" stroke-miterlimit="10"/>
<path d="M1529.38 1514.2C1533.71 1503.11 1528.23 1490.61 1517.14 1486.27C1506.05 1481.94 1493.54 1487.42 1489.21 1498.52C1484.88 1509.61 1490.36 1522.11 1501.45 1526.44C1512.55 1530.77 1525.05 1525.29 1529.38 1514.2Z" fill="#DFECF2"/>
<path d="M1522.23 1518.45C1530.65 1510.03 1530.65 1496.38 1522.23 1487.96C1513.81 1479.54 1500.16 1479.54 1491.74 1487.96C1483.32 1496.38 1483.32 1510.03 1491.74 1518.45C1500.16 1526.87 1513.81 1526.87 1522.23 1518.45Z" fill="white"/>
<path d="M1490.89 1488.89L1521.95 1518.73" stroke="#DFECF2" stroke-width="1.7064" stroke-miterlimit="10"/>
<path d="M1503.01 1482.02C1498.05 1481.76 1486.11 1488.75 1485.84 1501.5" stroke="#DFECF2" stroke-width="1.7064" stroke-miterlimit="10" stroke-linecap="round" stroke-linejoin="round"/>
<path d="M1555.9 1540.06C1566 1533.75 1569.07 1520.45 1562.76 1510.35C1556.45 1500.25 1543.15 1497.18 1533.05 1503.49C1522.95 1509.8 1519.88 1523.1 1526.19 1533.2C1532.5 1543.3 1545.8 1546.37 1555.9 1540.06Z" fill="#DFECF2"/>
<path d="M1549.72 1502.95C1560.55 1507.9 1565.32 1520.69 1560.37 1531.52C1555.42 1542.35 1542.58 1547.23 1531.8 1542.17C1520.79 1537.01 1516.13 1524.35 1521.15 1513.6C1526.18 1502.81 1538.89 1498 1549.72 1502.95Z" fill="white"/>
<path d="M1520.9 1530.96L1561.21 1515.75" stroke="#DFECF2" stroke-width="1.7064" stroke-miterlimit="10"/>
<path d="M1518.76 1523.93C1519.37 1516.26 1524.96 1503.95 1537.87 1501.5" stroke="#DFECF2" stroke-width="1.7064" stroke-miterlimit="10" stroke-linecap="round" stroke-linejoin="round"/>
<path d="M1551.36 1551.54C1554.89 1540.17 1548.53 1528.09 1537.16 1524.55C1525.79 1521.02 1513.71 1527.38 1510.17 1538.75C1506.64 1550.12 1513 1562.2 1524.37 1565.74C1535.74 1569.27 1547.82 1562.91 1551.36 1551.54Z" fill="#DFECF2"/>
<path d="M1528.18 1565.4C1540.07 1564.77 1549.19 1554.61 1548.56 1542.72C1547.93 1530.83 1537.77 1521.7 1525.88 1522.34C1513.99 1522.97 1504.86 1533.13 1505.5 1545.02C1506.13 1556.91 1516.28 1566.03 1528.18 1565.4Z" fill="white"/>
<path d="M1518.23 1524.16L1534.19 1564.18" stroke="#DFECF2" stroke-width="1.7064" stroke-miterlimit="10"/>
<path d="M1581.84 1575.92C1584.61 1564.34 1577.47 1552.71 1565.89 1549.94C1554.31 1547.16 1542.67 1554.3 1539.9 1565.88C1537.13 1577.46 1544.27 1589.1 1555.85 1591.87C1567.43 1594.64 1579.07 1587.5 1581.84 1575.92Z" fill="#DFECF2"/>
<path d="M1579 1563.48C1581.64 1575.09 1574.36 1586.64 1562.74 1589.27C1551.13 1591.9 1539.46 1584.65 1536.95 1573.01C1534.38 1561.12 1541.62 1549.74 1553.21 1547.22C1564.84 1544.68 1576.37 1551.86 1579 1563.48Z" fill="white"/>
<path d="M1539.26 1557.55L1575.8 1580.37" stroke="#DFECF2" stroke-width="1.7064" stroke-miterlimit="10"/>
<path d="M1557.98 1546.75C1561.6 1546.89 1571.61 1546.75 1578.93 1560.35" stroke="#DFECF2" stroke-width="1.7064" stroke-miterlimit="10" stroke-linecap="round" stroke-linejoin="round"/>
<path d="M1502.19 1546.82C1509.35 1537.3 1507.43 1523.79 1497.91 1516.63C1488.39 1509.48 1474.87 1511.39 1467.72 1520.91C1460.57 1530.43 1462.48 1543.95 1472 1551.1C1481.52 1558.26 1495.04 1556.34 1502.19 1546.82Z" fill="#DFECF2"/>
<path d="M1496.61 1547.34C1505.52 1539.44 1506.33 1525.82 1498.43 1516.91C1490.53 1508 1476.9 1507.18 1468 1515.08C1459.09 1522.98 1458.27 1536.61 1466.17 1545.52C1474.07 1554.43 1487.7 1555.24 1496.61 1547.34Z" fill="white"/>
<path d="M1464.5 1518.91L1499.04 1544.65" stroke="#DFECF2" stroke-width="1.7064" stroke-miterlimit="10"/>
<path d="M1503.8 1524.96C1499.41 1513.71 1490.21 1510.83 1486.67 1510.05C1480.98 1508.78 1474.53 1508.92 1466.32 1516.6" stroke="#DFECF2" stroke-width="1.7064" stroke-miterlimit="10" stroke-linecap="round" stroke-linejoin="round"/>
<path d="M1535.93 1565.04C1536.93 1562.06 1542.03 1551.8 1549.43 1547.56" stroke="#DFECF2" stroke-width="1.7064" stroke-miterlimit="10" stroke-linecap="round" stroke-linejoin="round"/>
<path d="M1519.73 1523.55C1524.68 1521.47 1536.43 1522.59 1542.18 1527.5" stroke="#DFECF2" stroke-width="1.7064" stroke-miterlimit="10" stroke-linecap="round" stroke-linejoin="round"/>
<path d="M1506.3 1549.9C1508.41 1557.83 1515.8 1566.03 1531.8 1565.76" stroke="#DFECF2" stroke-width="1.7064" stroke-miterlimit="10" stroke-linecap="round" stroke-linejoin="round"/>
<path d="M1536.57 1565.76C1535.75 1568.09 1536.87 1575.61 1538.34 1578.96" stroke="#DFECF2" stroke-width="1.7064" stroke-miterlimit="10" stroke-linecap="round" stroke-linejoin="round"/>
<path d="M1572.84 1519.29C1583.86 1516.69 1593.71 1517.28 1601 1526.95" stroke="#DFECF2" stroke-width="1.7064" stroke-miterlimit="10" stroke-linecap="round" stroke-linejoin="round"/>
<path d="M1500.57 1381.4C1512.38 1379.91 1520.76 1369.14 1519.28 1357.32C1517.8 1345.51 1507.02 1337.13 1495.2 1338.61C1483.39 1340.09 1475.01 1350.87 1476.49 1362.68C1477.97 1374.5 1488.75 1382.88 1500.57 1381.4Z" fill="#DFECF2"/>
<path d="M1518.55 1373.23C1523.75 1362.51 1519.27 1349.61 1508.56 1344.42C1497.85 1339.22 1484.95 1343.7 1479.75 1354.41C1474.56 1365.13 1479.03 1378.02 1489.75 1383.22C1500.46 1388.41 1513.36 1383.94 1518.55 1373.23Z" fill="white"/>
<path d="M1510.08 1382.36L1489.69 1344.41" stroke="#DFECF2" stroke-width="1.7064" stroke-miterlimit="10"/>
<path d="M1477.03 1360.23C1476.25 1372.27 1483.36 1378.78 1486.23 1380.99C1490.85 1384.55 1496.76 1387.16 1507.44 1383.68" stroke="#DFECF2" stroke-width="1.7064" stroke-miterlimit="10" stroke-linecap="round" stroke-linejoin="round"/>
<path d="M1528.5 1414.52C1539.89 1411.06 1546.32 1399.02 1542.86 1387.63C1539.4 1376.23 1527.35 1369.8 1515.96 1373.26C1504.57 1376.73 1498.14 1388.77 1501.6 1400.16C1505.06 1411.56 1517.1 1417.99 1528.5 1414.52Z" fill="#DFECF2"/>
<path d="M1537.63 1412.96C1527.59 1419.37 1514.26 1416.42 1507.85 1406.38C1501.45 1396.34 1504.4 1383.01 1514.43 1376.61C1524.47 1370.2 1537.8 1373.15 1544.21 1383.19C1550.61 1393.23 1547.67 1406.56 1537.63 1412.96Z" fill="white"/>
<path d="M1529.77 1373.55L1520.64 1415.66" stroke="#DFECF2" stroke-width="1.7064" stroke-miterlimit="10"/>
<path d="M1579.75 1394.64C1586.12 1384.58 1583.13 1371.26 1573.07 1364.9C1563 1358.53 1549.69 1361.52 1543.32 1371.58C1536.95 1381.64 1539.94 1394.96 1550 1401.33C1560.06 1407.7 1573.38 1404.7 1579.75 1394.64Z" fill="#DFECF2"/>
<path d="M1583.6 1395.26C1589.97 1385.2 1586.97 1371.88 1576.91 1365.52C1566.85 1359.15 1553.53 1362.14 1547.16 1372.2C1540.8 1382.26 1543.79 1395.58 1553.85 1401.95C1563.91 1408.32 1577.23 1405.32 1583.6 1395.26Z" fill="white"/>
<path d="M1587.06 1382.7L1543.98 1383.06" stroke="#DFECF2" stroke-width="1.7064" stroke-miterlimit="10"/>
<path d="M1544.1 1500.26C1543.21 1496.6 1544.29 1485.13 1554.78 1478.58" stroke="#DFECF2" stroke-width="1.7064" stroke-miterlimit="10" stroke-linecap="round" stroke-linejoin="round"/>
<path d="M1522.6 1416.07C1528.6 1416.89 1544.77 1412.56 1547.59 1398.73" stroke="#DFECF2" stroke-width="1.7064" stroke-miterlimit="10" stroke-linecap="round" stroke-linejoin="round"/>
<path d="M1518.88 1355.11C1520.71 1359.27 1521.6 1367.5 1517.66 1374.12" stroke="#DFECF2" stroke-width="1.7064" stroke-miterlimit="10" stroke-linecap="round" stroke-linejoin="round"/>
<path d="M1537.13 1267.72C1539.27 1273.25 1539.27 1283.94 1532.32 1289.54" stroke="#DFECF2" stroke-width="1.7064" stroke-miterlimit="10" stroke-linecap="round" stroke-linejoin="round"/>
<path d="M1534.41 1294.26C1536.37 1298 1542.02 1305.62 1556.94 1304.44" stroke="#DFECF2" stroke-width="1.7064" stroke-miterlimit="10" stroke-linecap="round" stroke-linejoin="round"/>
<path d="M1471.64 1202.71C1476.06 1206.28 1483.31 1218.94 1475.44 1231.72C1470.73 1239.36 1459.11 1240.81 1459.11 1240.81" stroke="#DFECF2" stroke-width="1.7064" stroke-miterlimit="10" stroke-linecap="round" stroke-linejoin="round"/>
<path d="M1476.83 1209.1C1483.05 1209.14 1489.05 1207.11 1493.16 1201.02" stroke="#DFECF2" stroke-width="1.7064" stroke-miterlimit="10" stroke-linecap="round" stroke-linejoin="round"/>
<path d="M1529.58 1226.36C1532.06 1227.42 1539.27 1232.12 1541.17 1237.87" stroke="#DFECF2" stroke-width="1.7064" stroke-miterlimit="10" stroke-linecap="round" stroke-linejoin="round"/>
<path d="M1510.78 1264.91C1514.91 1266.68 1524.47 1270.12 1534.06 1263.91" stroke="#DFECF2" stroke-width="1.7064" stroke-miterlimit="10" stroke-linecap="round" stroke-linejoin="round"/>
<path opacity="0.4" d="M1607.45 1591.92C1563.31 1611.07 1492.28 1610.19 1440.74 1591.56C1435.3 1589.6 1431.7 1584.41 1431.7 1578.63V1153.81H1615.54V1579.39C1615.54 1584.79 1612.41 1589.77 1607.45 1591.92Z" fill="#C5EAFF"/>
<path d="M1597.85 1295.06H1444.3V1481.87H1597.85V1295.06Z" fill="#65B5E5"/>
<path d="M1484.16 1378.27H1584.58" stroke="white" stroke-width="3.8105" stroke-miterlimit="10" stroke-linecap="round" stroke-linejoin="round"/>
<path d="M1484.16 1360.34H1584.58" stroke="white" stroke-width="3.8105" stroke-miterlimit="10" stroke-linecap="round" stroke-linejoin="round"/>
<path d="M1484.16 1396.2H1584.58" stroke="white" stroke-width="3.8105" stroke-miterlimit="10" stroke-linecap="round" stroke-linejoin="round"/>
<path d="M1478.15 1304.12H1458.79V1326.71H1478.15V1304.12Z" fill="white"/>
<path d="M1301.22 1568.5C1301.22 1571.31 1298.6 1573.87 1294.24 1575.83C1293.63 1576.11 1293 1576.37 1292.32 1576.62C1292.04 1576.72 1291.75 1576.83 1291.45 1576.93C1286.37 1578.67 1279.72 1579.73 1272.39 1579.73C1264.44 1579.73 1257.23 1578.48 1252.02 1576.45H1252.01C1246.8 1574.42 1243.58 1571.61 1243.58 1568.51C1243.58 1565.81 1246 1563.35 1250.03 1561.43C1250.87 1561.02 1251.77 1560.64 1252.75 1560.3C1257.89 1558.42 1264.8 1557.28 1272.39 1557.28C1288.32 1557.28 1301.22 1562.3 1301.22 1568.5Z" fill="#C5EAFF"/>
<path d="M1301.22 1568.5L1300.76 1584.56C1300.76 1590.76 1287.87 1595.79 1271.95 1595.79C1256.03 1595.79 1243.12 1590.76 1243.12 1584.56L1243.58 1568.5C1243.58 1571.61 1246.8 1574.42 1252.01 1576.45H1252.02C1257.23 1578.47 1264.43 1579.73 1272.39 1579.73C1280.14 1579.73 1287.15 1578.54 1292.32 1576.61C1297.81 1574.57 1301.22 1571.7 1301.22 1568.5Z" fill="#65B5E5"/>
<path d="M1296.37 1576.62L1295.67 1578.51L1291.44 1576.93L1250.03 1561.43C1250.87 1561.02 1251.77 1560.64 1252.74 1560.29L1294.24 1575.83L1296.37 1576.62Z" fill="#65B5E5"/>
<path d="M676.986 1567.37C676.986 1570.17 674.362 1572.73 670.007 1574.7C669.396 1574.97 668.759 1575.23 668.088 1575.48C667.799 1575.59 667.511 1575.7 667.209 1575.8C662.136 1577.53 655.479 1578.59 648.158 1578.59C640.199 1578.59 632.992 1577.34 627.785 1575.31H627.772C622.565 1573.28 619.343 1570.47 619.343 1567.37C619.343 1564.68 621.759 1562.21 625.792 1560.29C626.631 1559.89 627.537 1559.5 628.51 1559.16C633.65 1557.28 640.562 1556.14 648.159 1556.14C664.089 1556.14 676.986 1561.16 676.986 1567.37Z" fill="#C5EAFF"/>
<path d="M676.985 1567.37L676.527 1583.43C676.527 1589.62 663.63 1594.65 647.711 1594.65C631.792 1594.65 618.883 1589.62 618.883 1583.43L619.341 1567.37C619.341 1570.47 622.562 1573.28 627.771 1575.31H627.783C632.991 1577.34 640.198 1578.59 648.158 1578.59C655.906 1578.59 662.913 1577.41 668.086 1575.48C673.576 1573.43 676.985 1570.56 676.985 1567.37Z" fill="#65B5E5"/>
<path d="M672.134 1575.49L671.429 1577.37L667.208 1575.8L625.79 1560.3C626.629 1559.89 627.535 1559.5 628.508 1559.16L670.006 1574.7L672.134 1575.49Z" fill="#65B5E5"/>
<path d="M607.324 1539.44C609.549 1541.14 609.979 1544.78 608.887 1549.43C608.733 1550.09 608.553 1550.75 608.341 1551.43C608.251 1551.73 608.16 1552.02 608.056 1552.32C606.346 1557.41 603.133 1563.33 598.675 1569.14C593.829 1575.45 588.445 1580.41 583.666 1583.3L583.658 1583.31C578.874 1586.21 574.683 1587.05 572.223 1585.16C570.088 1583.52 569.606 1580.11 570.539 1575.74C570.725 1574.82 570.973 1573.87 571.294 1572.89C572.934 1567.67 576.238 1561.49 580.863 1555.47C590.565 1542.83 602.401 1535.66 607.324 1539.44Z" fill="#C5EAFF"/>
<path d="M607.323 1539.44L619.783 1549.58C624.698 1553.35 620.836 1566.65 611.143 1579.27C601.45 1591.9 589.597 1599.08 584.682 1595.3L572.222 1585.16C574.684 1587.05 578.874 1586.21 583.659 1583.31L583.666 1583.31C588.442 1580.41 593.828 1575.45 598.675 1569.14C603.393 1563 606.718 1556.71 608.338 1551.44C610.059 1545.83 609.859 1541.38 607.323 1539.44Z" fill="#65B5E5"/>
<path d="M610.811 1548.23L611.877 1549.94L608.056 1552.32L570.54 1575.74C570.726 1574.82 570.974 1573.87 571.295 1572.89L608.887 1549.43L610.811 1548.23Z" fill="#65B5E5"/>
<path d="M1386.98 1530.55C1389.56 1531.65 1390.87 1535.07 1390.96 1539.85C1390.97 1540.52 1390.96 1541.21 1390.92 1541.92C1390.91 1542.23 1390.89 1542.54 1390.86 1542.86C1390.46 1548.2 1388.81 1554.74 1385.92 1561.46C1382.78 1568.78 1378.78 1574.9 1374.86 1578.89L1374.86 1578.9C1370.93 1582.88 1367.08 1584.73 1364.23 1583.51C1361.76 1582.45 1360.45 1579.26 1360.28 1574.79C1360.23 1573.86 1360.24 1572.88 1360.31 1571.85C1360.61 1566.38 1362.29 1559.58 1365.29 1552.6C1371.57 1537.97 1381.27 1528.1 1386.98 1530.55Z" fill="#C5EAFF"/>
<path d="M1386.98 1530.55L1401.55 1537.31C1407.24 1539.75 1406.78 1553.59 1400.5 1568.21C1394.21 1582.84 1384.5 1592.72 1378.8 1590.27L1364.23 1583.51C1367.08 1584.74 1370.93 1582.89 1374.86 1578.9L1374.86 1578.89C1378.78 1574.9 1382.77 1568.78 1385.92 1561.46C1388.97 1554.35 1390.65 1547.44 1390.92 1541.92C1391.2 1536.07 1389.91 1531.81 1386.98 1530.55Z" fill="#65B5E5"/>
<path d="M1392.52 1538.21L1393.98 1539.6L1390.86 1542.85L1360.27 1574.79C1360.23 1573.86 1360.24 1572.88 1360.31 1571.85L1390.96 1539.85L1392.52 1538.21Z" fill="#65B5E5"/>
</g>
<defs>
<clipPath id="clip0_48_254">
<rect width="2000" height="2000" fill="white"/>
</clipPath>
</defs>
</svg>
