<svg width="2059" height="1716" viewBox="0 0 2059 1716" fill="none" xmlns="http://www.w3.org/2000/svg">
<path d="M1935.15 1052.68C1934.84 1055.18 1934.43 1057.68 1933.9 1060.16C1929.62 1081.26 1918.54 1101.16 1903.75 1114.8C1896.12 1121.85 1888.64 1129.1 1881.27 1136.47C1866.87 1150.84 1852.84 1165.61 1838.57 1180.11C1857.14 1195.77 1871.47 1211.76 1882.15 1227.87C1988.49 1388.1 1735.78 1561.13 1734.71 1564.88C1728.7 1571.19 1711.89 1576.52 1686.36 1580.97H339.36C332.408 1574.52 325.935 1567.59 320.014 1560.48C295.959 1531.66 277.314 1496.04 268.543 1458.17C261.88 1429.4 260.679 1397.93 274.465 1371.24C286.168 1348.54 301.283 1328.33 317.175 1308.81C316.984 1302.26 317.217 1295.7 317.897 1289.19C308.277 1291.64 298.594 1293.77 288.888 1295.55C271.998 1299.04 254.98 1300.35 237.824 1299.5C232.583 1298.27 227.343 1297.06 222.102 1295.85C211.896 1291.02 213.576 1283.31 218.031 1276.35C206.21 1272.67 194.677 1268.06 183.642 1262.41C168.038 1254.4 150.68 1243.12 138.678 1227.87C133.565 1221.36 129.419 1214.12 126.794 1206.11C119.692 1184.45 129.834 1159.15 148.68 1148.76C155.344 1145.1 161.722 1140.97 167.877 1136.47C176.338 1130.28 184.396 1123.42 192.145 1116.16C204.529 1103.22 216.424 1089.71 228.563 1076.49C232.581 1071.27 236.992 1066.69 241.765 1062.7C235.418 1062.49 229.115 1061.73 223.131 1060.15C217.093 1058.57 211.364 1056.16 206.229 1052.68C205.878 1052.43 205.527 1052.19 205.189 1051.94C187.734 1039.38 190.264 1017.4 199.406 1000.11C204.019 991.401 209.845 983.289 216.424 975.783C212.704 971.489 209.664 966.631 207.463 961.272C204.54 954.074 203.169 945.975 203.87 937.13C206.295 918.684 213.214 902.431 224.641 888.397C231.892 880.605 239.14 872.802 246.379 865.009C249.398 862.682 252.299 860.225 255.138 857.674C266.895 843.035 277.227 827.175 287.433 811.175C282.309 812.759 277.185 814.291 272.008 815.777C255.723 820.445 239.204 823.697 222.451 825.558L207.581 825.293C190.276 821.944 212.365 805.754 215.479 803.5C221.559 799.099 227.894 795.048 234.4 791.243C258.423 766.516 277.037 735.824 298.17 708.204C293.502 703.782 289.495 698.776 286.519 693.088C277.059 675.058 287.687 654.891 303.718 646.896C320.386 638.572 335.715 627.548 350.095 615.26C409.677 558.629 454.672 486.146 503.379 418.991C518.186 398.569 547.588 391.287 569.507 387.439C604.745 381.263 641.556 382.74 676.561 389.927C677.528 390.117 678.506 390.32 679.484 390.532C689.072 380.89 698.884 371.482 708.971 362.382C719.505 358.789 729.391 360.192 738.607 366.592C747.387 363.51 756.464 361.426 765.533 360.267C768.286 359.916 771.061 359.65 773.836 359.459C784.2 346.414 794.713 333.552 805.843 321.41C823.456 302.179 852.253 304.464 873.874 311.492C901.575 320.507 926.746 338.484 947.974 359.883C962.782 344.862 979.524 332.806 998.2 323.728C1009.9 319.392 1021.59 315.053 1033.28 310.727C1064.11 302.871 1098.7 303.18 1127.63 318.764C1152.56 332.201 1170.22 357.482 1171.84 388.248C1172.18 402.504 1170.1 416.091 1165.65 428.997C1166.59 429.805 1167.51 430.613 1168.42 431.411C1171.48 434.111 1174.46 436.917 1177.38 439.81C1189.18 433.409 1201.81 430.421 1215.28 430.889C1225.05 431.495 1234.81 432.102 1244.57 432.697C1263.72 435.312 1282.75 440.15 1301.24 446.73C1311.68 434.59 1334.37 437.789 1346.7 439.32C1379.35 443.38 1411.56 454.606 1441.9 467.916C1472.24 481.204 1502.59 497.427 1528.71 519.115C1539.97 527.375 1548.9 537.901 1555.49 550.668C1555.74 554.761 1556.02 558.853 1556.27 562.947C1550.17 573.991 1543.09 584.422 1536.12 594.819C1528.23 606.588 1520.21 618.228 1512.09 629.794C1528.15 620.397 1542.45 607.564 1556.62 595.232C1575.15 583.549 1595.15 577.213 1616.6 576.256C1628.17 576.957 1639.76 577.659 1651.34 578.361C1687.07 584.621 1721.69 602.801 1747.43 630.643C1768.9 653.862 1785.09 685.435 1784.56 719.23C1784.09 740.715 1777.43 759.648 1764.61 776.01C1757.26 782.696 1749.92 789.384 1742.57 796.092C1738.61 799.536 1734.64 803.012 1730.63 806.414C1733.95 806.935 1737.28 807.531 1740.56 808.211C1765.49 813.367 1794.63 824.637 1809.48 848.938C1821.43 868.457 1819.02 898.01 1802.88 914.371C1793.89 923.459 1784.96 932.624 1776.09 941.83C1779.15 941.086 1782.21 940.342 1785.28 939.598C1819.5 935.058 1855.94 940.385 1886.3 958.977C1887.51 959.722 1888.71 960.477 1889.89 961.274C1913.21 976.741 1931.95 1001.13 1935.37 1031.53C1936.16 1038.53 1936.04 1045.63 1935.15 1052.68Z" fill="#B9F9F9"/>
<path d="M285.83 1346.42C281.256 1353.52 276.959 1360.82 273.048 1368.4C259.262 1395.1 260.463 1426.56 267.127 1455.33C275.896 1493.21 294.541 1528.82 318.597 1557.64C324.518 1564.75 330.992 1571.69 337.944 1578.14H1684.94C1710.47 1573.68 1727.28 1568.36 1733.3 1562.05C1734.09 1559.24 1875.08 1462.13 1902.31 1346.42H285.83Z" fill="#4BA3B7"/>
<path d="M229.093 1071.27C228.441 1072.06 227.781 1072.84 227.148 1073.66C215.009 1086.88 203.114 1100.39 190.73 1113.33C182.981 1120.59 174.923 1127.45 166.462 1133.64C160.307 1138.14 153.929 1142.27 147.265 1145.93C128.417 1156.32 118.277 1181.62 125.379 1203.28C128.004 1211.29 132.15 1218.53 137.263 1225.04C143.036 1232.37 150.053 1238.78 157.512 1244.36H1891.82C1888.68 1237.9 1885 1231.46 1880.73 1225.04C1870.05 1208.93 1855.72 1192.94 1837.15 1177.28C1851.43 1162.78 1865.46 1148 1879.85 1133.64C1887.23 1126.26 1894.7 1119.01 1902.33 1111.97C1913.81 1101.38 1923.04 1087.03 1928.6 1071.27H229.093Z" fill="#4BA3B7"/>
<path d="M1029.5 1615.88C1491.22 1615.88 1865.51 1598.31 1865.51 1576.64C1865.51 1554.97 1491.22 1537.4 1029.5 1537.4C567.782 1537.4 193.486 1554.97 193.486 1576.64C193.486 1598.31 567.782 1615.88 1029.5 1615.88Z" fill="#84A5A4"/>
<path d="M524.134 899.254V941.485C524.134 942.399 523.777 943.223 523.207 943.803C522.663 944.351 521.938 944.686 521.133 944.686H484.623C482.965 944.686 481.62 943.254 481.62 941.483V899.252C481.62 897.483 482.963 896.05 484.623 896.05H521.133C522.792 896.051 524.134 897.485 524.134 899.254Z" fill="#14A7D2"/>
<path d="M524.134 915.409H481.62V930.538H524.134V915.409Z" fill="#C3E1E1"/>
<path opacity="0.7" d="M524.134 899.254V941.485C524.134 942.399 523.777 943.223 523.207 943.803C522.663 944.349 521.938 944.686 521.133 944.686H509.822C511.48 944.686 512.823 943.252 512.823 941.483V899.252C512.823 897.483 511.48 896.05 509.822 896.05H521.133C522.792 896.051 524.134 897.485 524.134 899.254Z" fill="#14A7D2"/>
<path d="M523.541 884.428H519.127C520.117 885.275 520.688 886.599 520.688 888.031V898.664C520.688 900.432 519.789 901.881 518.372 902.837H523.539C525.99 902.837 527.979 900.83 527.979 898.376V888.874C527.979 886.418 525.991 884.428 523.541 884.428Z" fill="#AAC1C0"/>
<path d="M520.688 898.664V888.031C520.688 886.599 520.115 885.273 519.127 884.428H481.823C479.369 884.428 477.349 886.418 477.349 888.874V898.376C477.349 900.83 479.371 902.837 481.823 902.837H518.373C519.789 901.879 520.688 900.432 520.688 898.664Z" fill="#C3E1E1"/>
<path d="M486.744 896.367C486.744 897.966 485.45 899.261 483.852 899.261H483.759C482.158 899.261 480.865 897.967 480.865 896.367V891.03C480.865 889.429 482.158 888.135 483.759 888.135H483.852C485.45 888.135 486.744 889.431 486.744 891.03V896.367Z" fill="#E2F7F6"/>
<path d="M568.939 877.738L561.113 867.67H540.894L533.068 877.738C531.437 880.478 530.574 883.608 530.574 886.799V936.967C530.574 937.68 530.676 938.366 530.846 939.026C531.76 942.533 534.937 945.124 538.731 945.124H563.276C567.07 945.124 570.247 942.533 571.162 939.026C571.333 938.368 571.433 937.68 571.433 936.967V886.797C571.431 883.609 570.572 880.478 568.939 877.738Z" fill="#511709"/>
<path d="M537.912 861.724V861.981C537.912 863.775 540.904 865.229 540.904 865.229V867.669H561.113V865.229C561.113 865.229 564.249 863.775 564.249 861.981V861.724H537.912Z" fill="#796BBF"/>
<path d="M571.435 886.797V936.966C571.435 937.679 571.333 938.366 571.16 939.025C570.244 942.529 567.067 945.122 563.275 945.122H538.732C536.29 945.122 534.098 944.049 532.607 942.34C531.785 941.398 531.172 940.269 530.846 939.024C530.674 938.366 530.571 937.678 530.571 936.965V886.795C530.571 883.606 531.435 880.474 533.064 877.735L540.628 868.002L540.888 867.668H561.113L568.939 877.735C570.569 880.476 571.435 883.608 571.435 886.797Z" fill="#796BBF"/>
<path d="M549.138 861.723H537.756C537.095 861.723 536.558 861.187 536.558 860.524C536.558 859.862 537.095 859.327 537.756 859.327H549.138C549.8 859.327 550.335 859.862 550.335 860.524C550.335 861.185 549.8 861.723 549.138 861.723Z" fill="#FCE9BB"/>
<path d="M564.231 861.723H557.652C556.989 861.723 556.454 861.187 556.454 860.524C556.454 859.862 556.99 859.327 557.652 859.327H564.231C564.892 859.327 565.431 859.862 565.431 860.524C565.429 861.185 564.892 861.723 564.231 861.723Z" fill="#F9E19B"/>
<path d="M565.429 860.526C565.429 861.185 564.894 861.724 564.231 861.724H537.757C537.096 861.724 536.561 861.185 536.561 860.526C536.561 859.863 537.096 859.326 537.757 859.326H538.845V843.331C538.845 841.944 539.522 840.714 540.565 839.957C540.921 839.695 541.322 839.49 541.752 839.355C542.152 839.228 542.577 839.158 543.02 839.158H558.875C559.438 839.158 559.974 839.271 560.464 839.473C560.902 839.654 561.305 839.907 561.654 840.217C562.509 840.983 563.047 842.094 563.047 843.333V859.327H564.231C564.893 859.326 565.429 859.863 565.429 860.526Z" fill="#F9E19B"/>
<path d="M553.779 904.202H530.573V917.886H553.779V904.202Z" fill="#F9E19B"/>
<path opacity="0.6" d="M571.435 886.797V936.967C571.435 937.681 571.333 938.368 571.159 939.026C570.245 942.53 567.067 945.122 563.275 945.122H553.008C553.979 945.122 554.905 944.954 555.766 944.642C558.276 943.737 560.212 941.631 560.889 939.026C561.062 938.368 561.165 937.681 561.165 936.967V886.797C561.165 883.61 560.299 880.476 558.671 877.737L550.843 867.67H561.116L568.942 877.737C570.569 880.476 571.435 883.61 571.435 886.797Z" fill="#380E06"/>
<path opacity="0.4" d="M552.763 849.969C552.763 854.461 551.581 858.567 549.626 861.722H537.757C537.096 861.722 536.561 861.183 536.561 860.524C536.561 859.861 537.096 859.324 537.757 859.324H538.845V843.329C538.845 841.942 539.522 840.712 540.565 839.955C540.921 839.693 541.322 839.488 541.752 839.353C542.152 839.226 542.577 839.156 543.02 839.156H550.172C551.799 842.167 552.763 845.913 552.763 849.969Z" fill="#F9E19B"/>
<path d="M469.541 937.998L477.869 972.713H654.188L664.302 937.998H469.541Z" fill="#B7B7B7"/>
<path d="M1694.09 1570.27C1694.09 1578.38 1400.35 1584.95 1038.01 1584.95C675.657 1584.95 381.915 1578.38 381.915 1570.27C381.915 1562.16 675.657 1555.59 1038.01 1555.59C1400.35 1555.59 1694.09 1562.16 1694.09 1570.27Z" fill="#5B7574"/>
<path d="M598.902 996.09H472.849V1566.7H598.902V996.09Z" fill="#BCBCBC"/>
<path d="M1250.34 996.09V1566.7H860.13V1129.09H491.269V1566.7H465.527V996.09H1250.34Z" fill="#E6E7E9"/>
<path d="M1250.34 996.09H929.785V1566.7H1250.34V996.09Z" fill="#BCBCBC"/>
<path d="M1280.75 989.12C1280.75 998.376 1277.1 1005.87 1272.6 1005.87H443.268C438.771 1005.87 435.118 998.376 435.118 989.12C435.118 984.485 436.032 980.303 437.507 977.267C438.983 974.244 441.019 972.367 443.268 972.367H1272.6C1277.1 972.366 1280.75 979.863 1280.75 989.12Z" fill="#E6E7E9"/>
<path d="M1280.75 989.12C1280.75 998.376 1275.37 1005.87 1268.74 1005.87H885.758C879.127 1005.87 873.75 998.376 873.75 989.12C873.75 984.485 875.095 980.303 877.267 977.267C879.44 974.244 882.442 972.367 885.756 972.367H1268.74C1275.37 972.366 1280.75 979.863 1280.75 989.12Z" fill="#BCBCBC"/>
<path d="M1177.69 1005.77H446.993V1018.37H1177.69V1005.77Z" fill="#BCBCBC"/>
<path d="M1238.02 901.798C1237.98 903.55 1237.8 905.245 1237.49 906.885C1236.77 910.765 1235.35 914.311 1233.3 917.548C1231.35 920.651 1228.83 923.466 1225.83 926.026C1221.88 929.385 1217.11 932.299 1211.66 934.826C1153.36 961.814 1018.43 943.891 1015.27 941.698C1009.27 937.531 1012.55 923.71 1010.53 917.181C1032.43 908.203 1128.05 888.12 1158.59 877.069C1159.91 876.604 1161.12 876.138 1162.18 875.694C1162.84 875.428 1163.45 875.162 1163.99 874.907C1165.03 874.418 1165.88 873.964 1166.54 873.532L1198.41 886.136L1238.02 901.798Z" fill="#FFB278"/>
<path d="M1021.55 915.922C1002.39 919.678 997.592 914.24 976.578 922.647C961.764 915.267 943.796 925.168 935.779 927.36C930.524 928.797 929.351 913.722 920.261 918.444C916.377 920.461 920.589 929.801 920.873 933.389C938.473 938.306 957.542 947.529 974.897 943.944C985.176 941.819 995.09 939.514 1005.15 937.395C1013.65 935.608 1027.9 935.545 1034.15 931.054L1021.55 915.922Z" fill="#FFB278"/>
<path d="M1034.3 915.922C1015.15 919.678 1010.34 914.24 989.33 922.647C974.516 915.267 956.548 925.168 948.532 927.36C943.276 928.797 942.103 913.722 933.013 918.444C929.129 920.461 933.341 929.801 933.625 933.389C951.225 938.306 970.292 947.529 987.649 943.944C997.928 941.819 1007.84 939.514 1017.91 937.395C1026.4 935.608 1040.65 935.545 1046.91 931.054L1034.3 915.922Z" fill="#FFB278"/>
<path d="M1047.65 915.315C1028.5 919.072 1023.7 913.634 1002.69 922.039C987.873 914.66 969.907 924.56 961.887 926.752C956.632 928.189 955.459 913.114 946.372 917.836C942.486 919.853 946.699 929.192 946.981 932.781C964.583 937.698 983.65 946.921 1001.01 943.336C1011.28 941.211 1021.2 938.906 1031.26 936.787C1039.76 934.998 1054.01 934.939 1060.26 930.447L1047.65 915.315Z" fill="#FFB278"/>
<path d="M978.898 908.481C964.324 913.946 956.055 905.158 949.75 913.339C950.966 918.804 960.719 919.44 968.171 921.031C974.51 922.384 977.87 924.61 984.064 926.998C999.36 932.893 1014.85 924.406 1026.87 924.27V910.91C1011.61 911.028 992.587 903.349 978.898 908.481Z" fill="#FFB278"/>
<path d="M1259.65 840.716C1255.35 858.029 1249.69 881.282 1240.6 900.668C1239.6 902.796 1238.58 904.87 1237.49 906.887C1235.78 910.078 1233.97 913.127 1232.04 915.964C1232 916.008 1231.97 916.041 1231.95 916.086L1218.44 911.941L1192.07 903.862L1148.83 890.594C1153.16 887.769 1157.05 883.444 1160.6 878.17C1161.14 877.373 1161.67 876.542 1162.18 875.699C1162.41 875.343 1162.63 874.989 1162.84 874.635C1164.89 871.222 1166.82 867.508 1168.63 863.606C1169.28 862.232 1169.9 860.835 1170.53 859.417C1178.49 841.119 1184.38 819.948 1189.84 807.468C1197.66 789.536 1208.96 762.524 1227.52 753.158C1270.13 731.652 1263.88 823.714 1259.65 840.716Z" fill="#FFB278"/>
<path d="M1301.62 729.668C1299.47 717.667 1291.46 705.925 1269.02 704.388C1246.07 702.815 1237.92 713.285 1230.14 724.022C1218.53 740.05 1171.6 827.013 1157.32 847.014C1157.32 847.014 1240.89 884.399 1246.14 877.364C1260.78 857.769 1306.08 754.54 1301.62 729.668Z" fill="#425B28"/>
<path d="M1168.1 827.157L1151.5 850.42C1166.73 861.374 1238.7 888.359 1246.15 877.363C1250.9 870.346 1256.76 857.87 1260.5 850.635C1244.93 846.428 1177.31 834.196 1168.1 827.157Z" fill="#6B8E43"/>
<path d="M1240.6 900.667C1239.6 902.795 1238.57 904.868 1237.49 906.885C1236.77 910.765 1235.35 914.311 1233.3 917.548C1232.89 917.016 1232.47 916.484 1232.04 915.963C1223.81 905.887 1213.84 897.486 1202.79 890.769C1190.83 883.498 1177.61 878.211 1163.99 874.909C1163.6 874.809 1163.22 874.72 1162.84 874.631C1164.89 871.218 1166.82 867.503 1168.63 863.602C1169.28 862.227 1169.9 860.831 1170.53 859.413C1197.3 866.276 1222.03 880.33 1240.6 900.667Z" fill="#306E87"/>
<path d="M1225.83 926.027C1221.88 929.386 1217.11 932.3 1211.66 934.827C1206.52 923.4 1199.99 913.015 1192.07 903.859C1183.26 893.663 1172.76 885.007 1160.6 878.168C1159.93 877.803 1159.27 877.436 1158.59 877.071C1159.91 876.606 1161.12 876.14 1162.18 875.697C1162.4 875.341 1162.63 874.987 1162.84 874.633C1164.89 871.219 1166.82 867.505 1168.63 863.604C1179.68 869.744 1189.67 877.336 1198.41 886.138C1199.91 887.645 1201.37 889.186 1202.79 890.771C1208.66 897.276 1213.9 904.359 1218.44 911.94C1221.17 916.463 1223.64 921.172 1225.83 926.027Z" fill="#306E87"/>
<path d="M1131.77 953.581C1131.77 964.126 1123.75 972.675 1113.87 972.675H839.283C829.394 972.675 821.376 964.126 821.376 953.581C821.376 943.035 829.394 934.486 839.283 934.486H1113.87C1123.75 934.486 1131.77 943.035 1131.77 953.581Z" fill="#FFFF97"/>
<path d="M1251.16 953.581C1251.16 964.126 1244.43 972.675 1236.14 972.675H1005.92C997.622 972.675 990.899 964.126 990.899 953.581C990.899 943.035 997.622 934.486 1005.92 934.486H1236.14C1244.43 934.486 1251.16 943.035 1251.16 953.581Z" fill="#E0DD85"/>
<path d="M1027.62 841.085C1017.33 835.538 1010.18 840.183 1005.31 851.248C1003.7 854.91 1000.72 863.533 1002.32 867.149C1004.49 872.057 1014.16 875.358 1018.63 877.475C1028.85 882.31 1041.82 886.943 1052.78 884.682L1053.52 852.908C1047.15 855.184 1033.62 844.317 1027.62 841.085Z" fill="#FFB278"/>
<path d="M1116.31 848.214C1103.54 842.909 1089.6 851.233 1078.25 856.645L1041.05 888.684C1061.46 884.299 1081.92 895.067 1102.39 888.715C1111.99 885.734 1121.15 881.388 1124.69 870.802C1127.72 861.74 1125.59 852.071 1116.31 848.214Z" fill="#EDEFEA"/>
<path d="M1109.23 835.895C1104.61 835.89 1099.03 834.627 1094.64 835.226C1089.51 835.921 1085.1 839.498 1080.75 841.838C1074.27 845.325 1067.83 849.024 1061.41 852.423C1057.27 854.613 1051.63 858.919 1047.39 859.086L1073.97 869.586C1079.6 867.324 1104.24 851.718 1111.59 851.127C1119.96 850.453 1121.35 858.39 1129.42 860.744C1142.53 864.572 1135.38 852.092 1132.75 846.121C1128.45 836.339 1118.98 835.904 1109.23 835.895Z" fill="white"/>
<path d="M1130.29 856.626L1130.49 859.934C1128.67 866.049 1122.21 870.605 1119.32 876.249C1114.61 885.45 1124.05 883.436 1129.77 880.005C1134.77 877.008 1140.96 872.645 1141.42 866.182C1141.77 861.246 1135.03 851.222 1130.29 856.626Z" fill="white"/>
<path d="M1133.16 868.661L1131.55 871.556C1126.72 875.725 1118.83 876.085 1113.35 879.283C1104.42 884.498 1113.46 887.885 1120.13 888.078C1125.96 888.248 1133.53 887.908 1137.39 882.707C1140.35 878.737 1140.06 866.658 1133.16 868.661Z" fill="white"/>
<path d="M1125.9 874.396L1124.29 877.288C1119.46 881.459 1111.56 881.816 1106.09 885.016C1097.16 890.23 1106.2 893.616 1112.87 893.81C1118.7 893.978 1126.26 893.64 1130.13 888.44C1133.08 884.47 1132.8 872.391 1125.9 874.396Z" fill="white"/>
<path d="M1074.26 908.433L1073.62 907.659L1097.39 888.086L1098.03 888.86L1074.26 908.433Z" fill="#CCCCCC"/>
<path d="M1125.1 861.435L1089.53 890.746L1093.8 895.927L1129.37 866.617L1125.1 861.435Z" fill="#FFFFDE"/>
<path d="M1122.81 856.518L1120.4 858.508L1131.49 871.983L1133.9 869.994L1122.81 856.518Z" fill="#FFFFDE"/>
<path d="M1120.43 868.516C1117.68 863.001 1105.22 859.513 1100.25 856.053C1086.03 846.128 1061.45 860.209 1048.24 847.01C1039.73 857.335 1036.57 874.277 1040.73 886.484C1040.73 886.484 1059.6 895.345 1062.72 894.803C1067.84 893.917 1071.78 889.623 1075.95 886.553C1079.7 883.791 1081.16 874.157 1086.45 873.836C1090.64 873.583 1096.63 876.831 1100.85 877.815C1107.01 879.249 1126.23 880.186 1120.43 868.516Z" fill="white"/>
<path d="M1122.73 847.03L1122.95 850.335C1121.14 856.457 1114.7 861.034 1111.82 866.69C1107.14 875.907 1116.57 873.859 1122.29 870.411C1127.28 867.397 1133.46 863.015 1133.89 856.549C1134.22 851.612 1127.45 841.609 1122.73 847.03Z" fill="white"/>
<path d="M1038 847.732C1026 857.518 1012.29 867.572 999.912 877.436C996.742 879.952 993.662 882.469 990.712 884.962C971.507 865.466 953.675 839.486 944.211 808.695C934.49 777.073 931.798 743.179 927.176 710.616L955.314 621.137L992.01 504.47C1004.63 530.15 1009.65 548.122 1006.97 575.954C1004.06 605.968 987.522 660.084 989.052 690.665C990.548 720.636 993.253 751.28 998.705 780.431C1001.09 793.221 1003.8 805.49 1010.3 817.006C1014.46 824.39 1033.31 843.366 1038 847.732Z" fill="white"/>
<path d="M999.912 877.436C996.742 879.952 993.662 882.468 990.712 884.961C960.421 866.886 936.638 826.19 927.175 795.399C917.455 763.777 931.798 743.179 927.176 710.616L955.314 621.137L960.424 615.718C942.049 651.696 944.294 724.4 950.446 765.475C957.429 812.172 974.067 842.024 999.912 877.436Z" fill="#DFEAE8"/>
<path d="M881.311 899.63C851.265 972.73 847.939 1117.36 857.913 1124.01C832.854 1126.15 626.854 1110.71 601.472 1071.98C626.14 986.364 716.592 914.23 749.285 830.895C767.22 785.171 783.04 738.501 798.905 691.786C800.78 686.244 802.672 680.692 804.558 675.152C817.443 637.289 824.306 595.319 839.494 559.268L977.561 477.873C978.948 482.828 996.108 495.248 1000.45 505.264C1006.08 518.252 1001.31 539.332 998.895 552.712C992.445 588.304 977.274 645.312 966.792 680.453C942.156 762.991 913.969 820.176 881.311 899.63Z" fill="white"/>
<path d="M786.072 1127.01C785.76 1127.45 785.444 1127.89 785.113 1128.34C760.053 1130.47 738.063 1120.79 714.625 1111.43C693.196 1102.89 623.572 1080.76 601.472 1071.98C626.14 986.366 716.592 914.232 749.285 830.897C767.22 785.173 783.04 738.503 798.905 691.788L954.116 612.934C951.518 623.606 943.797 632.844 938.507 642.252C930.775 656.03 923.068 670.212 916.468 684.566C901.779 716.541 890.62 749.853 879.189 783.432C852.419 862.092 831.548 941.775 812.844 1022.11C804.724 1057 796.33 1092.24 786.072 1127.01Z" fill="#C7D3D1"/>
<path d="M713.861 1555.55C707.046 1550.6 690.797 1540.03 684.135 1533.09C683.319 1525.32 681.533 1517.5 681.304 1512.85C680.405 1494.69 679.304 1476.24 679.294 1458.19C679.287 1446.53 688.742 1393.61 683.359 1389.82L638.625 1456.92C638.625 1474.68 641.738 1491.43 645.488 1508.78C646.249 1512.3 647.522 1518.56 649.473 1525.43C649.526 1535.43 648.765 1545.66 648.793 1555.55C648.815 1564.16 643.836 1569.92 650.802 1573.85C656.767 1577.22 669.293 1578.78 676.243 1579.98C690.965 1582.53 725.234 1584.2 739.277 1578.94C760.712 1570.91 723.48 1562.55 713.861 1555.55Z" fill="#FFB278"/>
<path d="M757.067 1579.58C734.406 1590.88 652.618 1582.35 643.71 1577.92C641.676 1570.8 645.613 1557.67 645.741 1555.55C646.235 1547.56 685.837 1537.76 685.837 1537.76C693.073 1549.95 692.081 1526.87 701.66 1537.25C709.707 1545.98 728.575 1559.8 743.467 1561.5C750.837 1562.33 755.763 1564.76 758.518 1567.62C759.649 1568.81 760.411 1570.07 760.822 1571.32C761.904 1574.6 760.538 1577.85 757.067 1579.58Z" fill="white"/>
<path d="M699.409 1532.17C696.323 1525.7 692.954 1523.48 682.852 1524.2C674.776 1524.77 668.057 1532.56 669.24 1539.27C670.241 1544.95 667.589 1548.09 669.77 1552.92L714.149 1554.27C706.38 1546.35 702.435 1538.52 699.409 1532.17Z" fill="white"/>
<path d="M868.521 1556.52C861.708 1551.56 845.458 1540.99 838.795 1534.06C837.981 1526.29 836.194 1518.47 835.966 1513.82C835.064 1495.66 833.965 1477.2 833.954 1459.16C833.947 1447.5 843.402 1394.58 838.02 1390.79L793.284 1457.9C793.284 1475.65 796.4 1492.4 800.149 1509.75C800.91 1513.27 802.183 1519.53 804.136 1526.4C804.187 1536.4 803.426 1546.63 803.452 1556.52C803.477 1565.13 798.495 1570.89 805.461 1574.82C811.428 1578.19 823.955 1579.74 830.901 1580.95C845.624 1583.5 879.896 1585.17 893.938 1579.91C915.379 1571.87 878.146 1563.51 868.521 1556.52Z" fill="#FFB278"/>
<path d="M911.731 1580.55C889.066 1591.85 807.282 1583.32 798.372 1578.89C796.339 1571.77 800.278 1558.63 800.406 1556.52C800.9 1548.52 840.505 1538.73 840.505 1538.73C847.738 1550.91 846.749 1527.84 856.323 1538.21C864.375 1546.95 883.24 1560.77 898.134 1562.46C905.504 1563.3 910.43 1565.73 913.183 1568.59C914.314 1569.78 915.078 1571.04 915.49 1572.29C916.568 1575.58 915.202 1578.82 911.731 1580.55Z" fill="white"/>
<path d="M854.071 1533.14C850.987 1526.67 847.615 1524.45 837.513 1525.17C829.437 1525.74 822.72 1533.53 823.901 1540.25C824.902 1545.92 822.25 1549.06 824.434 1553.88L868.812 1555.23C861.042 1547.32 857.096 1539.49 854.071 1533.14Z" fill="white"/>
<path d="M843.232 1380.32C842.656 1438.85 841.622 1485.85 839.99 1506.99C810.352 1507.93 782.323 1509.37 755.033 1505.77C750.906 1401.43 747.463 1178.04 735.587 1008.46C729.138 916.266 720.194 839.979 707.292 807.364L829.733 828.143C822.579 833.603 839.157 912.513 840.575 930.726C842.835 959.767 844.84 1215.7 843.232 1380.32Z" fill="#50A393"/>
<path d="M843.232 1380.32C842.656 1438.85 841.622 1485.85 839.99 1506.99C810.352 1507.93 782.323 1509.37 755.033 1505.77C750.906 1401.43 747.463 1178.04 735.586 1008.46C735.898 992.339 736.663 976.282 738.316 960.32L739.917 918.751C751.118 933.123 751.782 978.04 752.793 999.068C754.394 1032.38 755.46 1064.76 757.421 1097.86C761.591 1168.02 767.113 1239.82 783.05 1307.36C790.607 1339.4 810.809 1386 843.232 1380.32Z" fill="#3E7F73"/>
<path d="M777.654 792.747C746.783 866.675 724.777 1177.11 712.432 1379.46C709.436 1428.66 707.005 1471.48 705.158 1502.94C677.816 1506.05 649.809 1504.09 620.192 1502.62C615.489 1421.94 617.738 1129.98 617.738 1058.03C617.738 1025.05 623.837 983.752 628.111 948.238C629.028 940.658 629.86 933.345 630.532 926.438C632.29 908.259 650.361 829.657 643.325 824.083L777.654 792.747Z" fill="#50A393"/>
<path d="M712.432 1379.46C709.436 1428.66 707.005 1471.48 705.158 1502.94C677.816 1506.05 649.809 1504.09 620.192 1502.62C615.489 1421.94 617.738 1129.98 617.738 1058.03C617.738 1025.05 623.837 983.753 628.111 948.24L663.164 899.559C667.973 934.989 655.201 983.011 653.57 1021.46C651.514 1070.17 651.801 1119.52 650.372 1168.23C649.275 1205.66 648.461 1244.36 650.285 1281.78C651.565 1308.11 652.939 1337.83 671.513 1358.54C682.655 1370.96 697.142 1376.55 712.432 1379.46Z" fill="#3E7F73"/>
<path d="M978.358 478.81L909.706 417.187C899.508 422.239 886.577 421.912 874.848 423.127C880.538 452.369 636.042 740.754 616.572 860.978C608.842 908.693 793.937 946.248 839.628 952.78C847.245 950.895 867.353 774.158 889.726 734.285C950.753 625.521 985.418 482.611 978.358 478.81Z" fill="#71D3C0"/>
<path d="M952.533 348.488C948.423 361.611 941.385 374.05 933.088 385.876C922.172 401.478 910.352 412.322 896.542 420.763C897.549 491.62 945.316 541.933 945.316 541.933C945.316 541.933 972.242 511.029 980.76 474.436C980.972 473.511 981.841 472.809 982.423 471.94C986.819 465.415 992.645 457.053 995.516 452.86L954.34 345.784L953.755 344.259C953.388 345.682 952.978 347.09 952.533 348.488Z" fill="#FFB278"/>
<path d="M952.533 348.488C948.423 361.61 950.256 361.843 941.955 373.669C914.805 440.671 974.413 473.65 982.423 471.94C986.819 465.414 992.645 457.053 995.517 452.859L954.34 345.784C953.742 346.676 953.137 347.58 952.533 348.488Z" fill="#E5804E"/>
<path d="M981.64 472.507C979.113 473.287 864.563 786.533 859.576 858.02C879.523 788.196 987.853 556.84 987.853 556.84C987.853 556.84 980.557 538.255 978.619 524.411C983.46 524.772 999.062 516.391 1003.96 516.145C1004.04 502.659 981.64 472.507 981.64 472.507Z" fill="#DFEAE8"/>
<path d="M798.818 761.768C785.96 788.522 772.427 814.75 758.764 840.002C694.233 959.359 697.055 1094.47 686.698 1122.35C594.612 1110.87 564.271 1080.39 535.428 1052.53C580.31 829.76 665.359 698.956 750.79 459.242C770.377 404.278 816.75 418.142 868.52 418.376L881.51 421.334C897.522 519.827 854.603 645.685 798.818 761.768Z" fill="white"/>
<path d="M834.283 696.762C823.788 721.344 812.827 745.031 801.766 766.876C787.005 796.048 772.065 821.939 757.847 842.324C770.048 811.986 780.844 782.693 790.275 754.762C803.131 716.678 813.448 681.101 821.35 648.813C842.241 563.414 846.23 500.969 835.503 475.666C844.868 472.507 855.562 471.465 864.174 467.198C858.688 451.537 852.727 434.235 848.669 418.497C864.129 417.465 913.77 407.202 913.77 407.202C914.665 472.452 878.692 592.697 834.283 696.762Z" fill="#DFEAE8"/>
<path d="M639.468 834.393C633.533 843.004 627.079 851.325 620.633 859.658C637.895 872.021 658.132 882.271 679.77 889.638C685.702 891.657 691.745 893.454 697.855 895.028C703.602 885.848 709.18 876.559 714.458 867.048C686.476 861.354 659.982 849.749 639.468 834.393Z" fill="#DFEAE8"/>
<path d="M864.633 600.84L855.921 596.82L863.792 566.398L885.087 576.226L864.633 600.84Z" fill="#8C8C8C"/>
<path d="M836.373 583.113L822.974 612.159L874.278 635.83L887.677 606.784L836.373 583.113Z" fill="white"/>
<path d="M874.841 637.254L821.597 612.685L835.89 581.705L889.129 606.272L874.841 637.254ZM824.428 611.641L873.797 634.421L886.302 607.316L836.933 584.535L824.428 611.641Z" fill="#8C8C8C"/>
<path d="M839.721 596.4L838.38 599.306L874.197 615.835L875.537 612.93L839.721 596.4Z" fill="#8C8C8C"/>
<path d="M862.52 509.051C865.737 465.491 881.279 432.393 907.865 412.83C909.676 411.498 911.972 410.163 914.455 408.912C915.677 407.204 917.45 405.272 917.553 403.69C911.95 405.225 907.917 407.575 905.374 409.444C889.933 420.81 877.996 436.667 869.894 456.573C863.622 471.993 859.742 489.601 858.315 509.056C859.714 508.902 861.126 508.902 862.52 509.051Z" fill="#2B3F44"/>
<path d="M879.858 520.623C877.98 530.599 868.365 537.165 858.392 535.282C848.416 533.404 841.853 523.791 843.734 513.815C845.612 503.839 855.222 497.274 865.197 499.154C875.172 501.032 881.739 510.645 879.858 520.623Z" fill="#C6C6C6"/>
<path d="M874.247 519.563C872.951 526.443 866.325 530.967 859.447 529.672C852.569 528.376 848.048 521.749 849.343 514.871C850.641 507.994 857.264 503.467 864.143 504.763C871.017 506.061 875.542 512.687 874.247 519.563Z" fill="#9B9B9B"/>
<path d="M869.644 518.697C868.83 523.033 864.651 525.887 860.313 525.069C855.98 524.252 853.13 520.076 853.946 515.74C854.76 511.404 858.937 508.552 863.272 509.368C867.612 510.185 870.46 514.361 869.644 518.697Z" fill="#C6C6C6"/>
<path d="M980.67 462.562C985.577 484.894 981.194 508.785 967.973 532.91L971.593 533.981C975.167 527.361 978.112 520.725 980.411 514.1C986.672 496.032 987.987 478.42 984.32 461.754C983.722 459.016 982.398 455.077 979.551 450.761C978.69 451.881 978.746 454.211 978.562 456.073C979.49 458.37 980.241 460.611 980.67 462.562Z" fill="#2B3F44"/>
<path d="M928.812 601.243C922.966 600.97 920.127 598.584 918.756 596.446C915.615 591.572 916.88 583.718 922.408 573.737C925.754 567.698 932.208 559.354 936.921 553.257C939.226 550.281 941.611 547.206 941.862 546.588C941.789 546.769 941.775 547.181 942.052 547.529L943.826 546.112C944.506 546.963 943.845 547.863 942.53 549.654C941.603 550.916 940.266 552.647 938.716 554.647C934.047 560.683 927.65 568.946 924.393 574.835C919.364 583.911 918.04 591.15 920.661 595.218C922.503 598.077 926.437 599.358 932.037 598.914L932.215 601.177C930.979 601.272 929.85 601.291 928.812 601.243Z" fill="#9B9B9B"/>
<path d="M938.532 600.534C938.43 602.726 935.896 604.384 932.873 604.242C929.85 604.102 927.482 602.211 927.583 600.023C927.688 597.832 930.222 596.173 933.245 596.313C936.27 596.456 938.638 598.344 938.532 600.534Z" fill="#1C1818"/>
<path d="M949.892 608.444C954.221 612.381 957.919 612.696 960.402 612.16C966.065 610.924 970.716 604.474 973.856 593.501C975.753 586.863 977.079 576.397 978.044 568.753C978.515 565.02 979.007 561.156 979.259 560.544C979.185 560.724 978.904 561.025 978.459 561.075L978.21 558.82C977.127 558.942 976.959 560.043 976.623 562.238C976.388 563.787 976.113 565.956 975.793 568.467C974.839 576.037 973.524 586.406 971.674 592.875C968.826 602.85 964.648 608.909 959.916 609.942C956.596 610.664 952.907 608.79 949.257 604.521L947.534 605.993C948.335 606.934 949.123 607.747 949.892 608.444Z" fill="#9B9B9B"/>
<path d="M943.511 601.076C942.038 602.699 942.659 605.663 944.899 607.7C947.139 609.736 950.148 610.07 951.622 608.449C953.094 606.827 952.477 603.861 950.235 601.827C947.997 599.789 944.985 599.456 943.511 601.076Z" fill="#1C1818"/>
<path d="M979.223 570.816C979.074 570.791 978.924 570.704 978.782 570.737C975.835 571.443 975.115 570.654 973.209 570.941C973.625 568.509 973.848 566.23 973.903 564.099C974.385 543.771 959.105 537.403 944.762 549.915C942.703 551.706 940.67 553.884 938.705 556.466C936.468 554.58 936.87 555.009 934.573 553.199C941.466 542.747 964.581 520.612 973.564 522.906C984.649 525.731 980.136 557.937 979.223 570.816Z" fill="#2B3F44"/>
<g opacity="0.5">
<path d="M973.903 564.099C974.385 543.771 959.105 537.403 944.762 549.916C951.714 541.372 966.97 526.378 972.194 527.712C979.631 529.603 975.006 560.886 973.903 564.099Z" fill="#1D6693"/>
<path d="M972.679 567.677C972.693 567.789 972.68 567.914 972.635 568.04C971.824 570.285 972.049 569.543 972.679 567.677Z" fill="#FF981D"/>
</g>
<path d="M1127.19 348.732C1132.08 331.025 1125.92 304.076 1105.05 299.884L1073.77 317.908C1081.65 324.387 1087.42 332.059 1090.37 341.991C1092.73 349.963 1094.56 359.791 1093.25 368.029C1091.23 380.707 1085.51 394.075 1078.48 404.394C1080.85 403.045 1082.85 401.187 1085.01 399.671C1102.35 387.509 1121.37 369.837 1127.19 348.732Z" fill="#3A1818"/>
<path d="M1053.7 418.513C1056.71 413.899 1061.57 408.515 1061.57 408.515C1069.79 399.205 1086.31 398.063 1088.68 407.231C1091.06 416.437 1084.87 427.018 1079.05 432.255C1073.3 437.43 1059.88 444.623 1052.53 437.603C1046.25 431.611 1050.47 423.458 1053.7 418.513Z" fill="#FFB278"/>
<path d="M1064.75 411.742C1065.54 410.659 1070.32 408.321 1071.52 407.681C1080.75 402.773 1087.43 410.08 1082.96 418.832C1084.3 409.693 1075.8 412.481 1070.4 414.603C1073.05 416.183 1071.2 422.091 1069.45 423.818C1066.34 426.86 1062.91 425.85 1059.49 424.546L1059.7 424.273C1061.79 421.889 1066.98 420.284 1066.92 415.587C1066.89 413.013 1063.27 413.753 1064.75 411.742Z" fill="#E5804E"/>
<path d="M1092.62 377.333C1116.58 340.796 1106.51 278.922 1055.89 266.773C1045.15 264.196 1025.47 265.453 1014.97 270.938C1014.97 270.938 995.259 289.14 969.679 326.112C955.829 346.13 955.207 350.732 941.859 377.921C925.838 410.552 954.667 458.13 986.99 469.039C1010.31 476.909 1032.92 452.636 1045.33 443.622C1062.78 430.958 1081.06 394.953 1092.62 377.333Z" fill="#FFB278"/>
<path d="M1016.07 357.986C1016.19 353.687 1014.96 349.654 1011.6 348.258C1007.48 346.551 1001.88 346.843 997.705 348.022C995.868 348.54 992.608 350.042 990.078 351.493C984.953 354.428 984.227 357.651 984.227 357.651C984.997 358.402 987.728 355.218 988.692 356.034C993.884 360.473 1001.51 365.558 1008.34 368.104C1009.74 368.627 1011.1 369.04 1012.41 369.327C1014.47 366.865 1015.94 362.295 1016.07 357.986Z" fill="#E5804E"/>
<path d="M1010.39 373.581C1009.12 373.226 1007.79 372.756 1006.42 372.191C999.702 369.439 992.013 364.46 986.697 360.242C985.715 359.468 984.818 358.721 984.016 358.011C984.016 358.011 985.606 357.307 987.623 356.498C989.959 355.563 992.875 354.488 994.576 354.203C998.446 353.56 1003.75 353.794 1007.81 355.599C1011.13 357.076 1012.64 360.61 1012.9 364.254C1013.15 367.904 1012.14 371.666 1010.39 373.581Z" fill="white"/>
<path d="M1012.25 365.447C1010.67 368.213 1008.65 370.496 1006.42 372.19C999.704 369.438 992.015 364.458 986.699 360.24C986.888 359.011 987.194 357.75 987.624 356.498C989.961 355.563 992.876 354.488 994.578 354.203C998.448 353.56 1003.75 353.794 1007.81 355.599C1011.13 357.076 1012.64 360.61 1012.9 364.254C1012.7 364.65 1012.48 365.053 1012.25 365.447Z" fill="#260F0E"/>
<path d="M996.919 360.919C996.384 361.854 995.289 362.228 994.475 361.763C993.658 361.295 993.433 360.163 993.965 359.228C994.504 358.295 995.595 357.919 996.411 358.386C997.223 358.851 997.454 359.988 996.919 360.919Z" fill="white"/>
<path d="M1076.34 390.284C1076.61 386.066 1075.59 382.158 1072.49 380.908C1068.68 379.379 1063.4 379.863 1059.45 381.163C1057.71 381.737 1054.59 383.318 1052.17 384.828C1047.25 387.885 1046.45 391.072 1046.45 391.072C1047.16 391.781 1049.83 388.565 1050.7 389.329C1055.42 393.494 1062.41 398.213 1068.73 400.467C1070.02 400.931 1071.29 401.288 1072.51 401.524C1074.53 399.045 1076.08 394.51 1076.34 390.284Z" fill="#E5804E"/>
<path d="M1070.47 405.765C1069.29 405.463 1068.05 405.049 1066.78 404.544C1060.58 402.084 1053.53 397.472 1048.69 393.524C1047.79 392.8 1046.97 392.097 1046.25 391.435C1046.25 391.435 1047.76 390.688 1049.69 389.825C1051.91 388.824 1054.69 387.671 1056.3 387.336C1059.95 386.566 1064.92 386.609 1068.68 388.236C1071.74 389.566 1073.03 392.973 1073.14 396.541C1073.25 400.107 1072.17 403.828 1070.47 405.765Z" fill="white"/>
<path d="M1072.5 397.73C1070.91 400.497 1068.94 402.801 1066.78 404.544C1060.58 402.084 1053.53 397.472 1048.69 393.524C1048.9 392.31 1049.24 391.066 1049.68 389.825C1051.91 388.824 1054.69 387.671 1056.3 387.336C1059.95 386.566 1064.92 386.609 1068.68 388.236C1071.73 389.566 1073.03 392.973 1073.14 396.541C1072.94 396.933 1072.72 397.338 1072.5 397.73Z" fill="#260F0E"/>
<path d="M1058.26 393.831C1057.72 394.764 1056.68 395.173 1055.93 394.741C1055.19 394.313 1055.01 393.207 1055.54 392.274C1056.08 391.343 1057.12 390.934 1057.87 391.365C1058.62 391.794 1058.79 392.898 1058.26 393.831Z" fill="white"/>
<path d="M1030.11 392.032C1027.71 393.762 1018.26 413.225 1017.22 417.434C1013.42 418.222 1007.36 414.467 1003.49 415.069C1007.75 418.101 1012.44 421.512 1020.29 422.008L1030.11 392.032Z" fill="#E5804E"/>
<path d="M981.59 404.098C984.237 420.184 992.512 430.073 998.34 433.416C1001.97 435.496 1005.52 436.7 1008.96 437.115C1014.43 437.767 1019.59 436.394 1024.24 433.262C1024.24 433.262 1020.65 432.206 1015.08 429.543C1006.58 425.473 993.481 417.654 981.59 404.098Z" fill="#E5804E"/>
<path d="M981.59 404.098C984.237 420.184 992.512 430.073 998.34 433.416C1001.97 435.496 1005.52 436.7 1008.96 437.115C1010.68 434.332 1012.8 431.878 1015.08 429.541C1006.58 425.473 993.481 417.654 981.59 404.098Z" fill="white"/>
<path d="M992.308 326.484L985.579 335.657C996.706 345.543 1013 349.561 1024.29 360.377C1027.39 357.056 1032.3 350.808 1034.76 347.287C1024.14 337.053 1006.05 330.826 992.308 326.484Z" fill="#260F0E"/>
<path d="M1056.4 361.03L1049.45 371.357C1059.05 381.111 1073.91 384.185 1083.59 394.92C1086.72 391.127 1091.76 384.07 1094.31 380.111C1085.2 369.953 1068.85 364.645 1056.4 361.03Z" fill="#260F0E"/>
<path d="M1001.56 388.073H1001.55C1001.22 387.926 1000.88 387.762 1000.55 387.586L979.94 376.618C971.966 372.372 969.641 361.138 974.718 351.508C976.116 347.324 979.647 337.85 983.405 336.256C989.293 333.76 998.181 334.716 1007.79 338.878C1018.67 343.59 1030.47 352.653 1032.29 362.283C1033.05 366.28 1027.11 374.473 1024.39 377.958C1019.44 387.046 1009.44 391.489 1001.56 388.073ZM1006.16 342.629C997.732 338.978 989.855 338.005 985.088 340.028C983.735 340.629 980.708 346.688 978.611 352.998L978.557 353.16L978.477 353.311C974.361 360.987 975.885 369.827 981.873 373.016L1002.48 383.986C1008.5 387.188 1016.72 383.469 1020.81 375.844L1021 375.557C1025.09 370.315 1028.46 364.44 1028.21 362.985C1026.9 356.052 1017.83 347.681 1006.16 342.629Z" fill="white"/>
<path d="M1059.22 419.731C1058.92 419.6 1058.63 419.457 1058.33 419.299L1040.22 409.406C1033.21 405.579 1031.59 394.648 1036.57 384.981C1038.02 380.814 1041.6 371.365 1045.06 369.643C1050.47 366.941 1058.44 367.499 1066.93 371.176C1076.55 375.341 1086.8 383.734 1088.04 393.107C1088.56 397.002 1082.85 405.295 1080.25 408.83C1075.4 417.961 1066.18 422.745 1059.22 419.731ZM1065.31 374.928C1057.86 371.7 1050.8 371.083 1046.41 373.27C1045.17 373.914 1042.18 379.992 1040.02 386.274L1039.97 386.436L1039.89 386.587C1035.85 394.298 1036.85 402.908 1042.12 405.786L1060.23 415.675C1065.53 418.569 1073.09 414.563 1077.11 406.911L1077.29 406.619C1081.2 401.3 1084.5 395.387 1084.33 393.971C1083.44 387.219 1075.62 379.39 1065.31 374.928Z" fill="white"/>
<path d="M1041.01 376.182C1040.47 372.997 1039.18 370.76 1037.18 369.532C1035.14 368.273 1032.32 368.092 1029.45 369.024L1028.36 365.15C1032.31 363.869 1036.29 364.192 1039.28 366.025C1041.33 367.289 1043.98 369.935 1044.9 375.365L1041.01 376.182Z" fill="white"/>
<path d="M1123.02 310.197C1122.78 310.749 1122.52 311.257 1122.21 311.738C1120.56 314.401 1118.07 316.026 1116.3 317.619C1108.79 324.383 1096.8 331.678 1086.52 333.026C1060.18 336.49 1036.73 309.97 1011.81 316.352C1014.36 305.986 1024.96 305.077 1032.68 301.456C1015.91 293.916 1002.55 309.782 991.99 320.815C985.247 327.871 976.987 332.416 970.834 339.741C965.749 345.793 958.419 362.443 951.12 365.332L950.57 329.672C952.961 318.179 954.196 306.284 959.673 291.703C964.827 277.951 974.061 262.574 985.943 252.96C993.486 246.861 1002.13 242.631 1011.23 240.142C1028.6 235.374 1047.62 236.947 1063.75 243.912C1086.38 253.665 1107.25 267.793 1119.01 289.851C1120.86 293.288 1122.1 296.256 1122.87 298.826C1124.43 303.969 1124.15 307.543 1123.02 310.197Z" fill="#3A1818"/>
<path d="M1123.02 310.197C1122.75 310.722 1122.49 311.234 1122.21 311.738C1120.56 314.401 1118.07 316.026 1116.3 317.619C1108.79 324.383 1096.8 331.678 1086.52 333.026C1060.18 336.49 1036.73 309.97 1011.81 316.352C1014.36 305.986 1024.96 305.077 1032.68 301.456C1015.91 293.916 1002.55 309.782 991.99 320.815C985.247 327.871 976.987 332.416 970.834 339.741C965.749 345.793 958.419 362.442 951.12 365.332L950.57 329.672C952.961 318.179 954.196 306.284 959.673 291.703C964.827 277.951 974.061 262.574 985.943 252.96C993.486 246.861 1002.13 242.631 1011.23 240.142C1001.74 250.371 988.189 271.232 992.369 285.315C998.836 274.239 1018 281.09 1026.41 285.091C1034.35 288.874 1041.55 293.37 1049.26 297.234C1056.07 300.627 1064.57 300.958 1070.79 304.975C1066.92 306.05 1061.89 306.112 1058.57 309.028C1061.38 314.477 1072.19 317.018 1077.68 318.449C1085.27 320.424 1092.74 320.137 1100.26 318.326C1112.01 315.496 1117.91 307.874 1122.87 298.824C1124.43 303.969 1124.15 307.543 1123.02 310.197Z" fill="#140808"/>
<path d="M957.901 358.141C960.531 352.872 962.861 345.485 962.861 345.485C967.006 332.882 959.139 317.04 949.411 319.808C939.648 322.584 933.24 334.002 931.552 342.195C929.892 350.288 930.504 366.534 940.942 369.523C949.857 372.074 955.085 363.784 957.901 358.141Z" fill="#FFB278"/>
<path d="M958.182 344.3C958.748 342.98 958.325 337.319 958.261 335.86C957.804 324.705 947.462 322.491 941.812 331.343C949.509 325.17 951.529 334.516 952.493 340.635C949.602 339.047 945.152 343.932 944.511 346.487C943.385 350.988 946.163 353.605 949.212 356.054L949.356 355.716C950.423 352.504 949.105 346.849 953.46 344.373C955.853 343.018 957.124 346.749 958.182 344.3Z" fill="#E5804E"/>
<path d="M993.011 443.296C994.888 444.285 996.543 445.639 997.892 447.248C999.415 444.636 1000.85 441.324 1001.38 439.232C1001.28 439.212 1001.19 439.201 1001.09 439.179C999.717 438.678 998.342 438.176 996.969 437.674C995.567 437.062 994.142 436.17 993.172 435.051C993.01 434.863 992.857 434.686 992.71 434.52C991.57 436.25 988.901 439.067 986.753 441.472C988.925 441.657 991.063 442.268 993.011 443.296Z" fill="#E5804E"/>
<path d="M767.791 450.216C767.735 449.938 767.671 449.681 767.588 449.464L767.791 450.216Z" fill="#DFEAE8"/>
<path d="M834.283 696.761C823.788 721.344 812.827 745.031 801.766 766.876C797.687 763.219 793.853 759.15 790.275 754.762C767.29 726.665 754.267 685.721 749.856 655.618C744.438 618.665 744.083 579.661 747.695 542.076C749.678 521.361 770.017 461.432 767.788 450.216L821.35 648.812L834.283 696.761Z" fill="#DFEAE8"/>
<path d="M945.65 837.553C937.108 825.847 929.429 814.774 922.745 801.941C918.377 793.556 912.472 779.658 907.229 773.846L845.167 770.89C860.186 795.619 871.637 823.713 891.18 845.338C906.903 862.738 922.318 881.983 941.234 896.321C949.492 902.58 951.852 903.181 961.736 900.014C969.866 897.412 979.342 894.336 984.877 887.637C971.629 871.149 958.166 854.71 945.65 837.553Z" fill="#FFB278"/>
<path d="M1073.95 903.135C1074.27 897.246 1069.66 894.161 1064.71 892.98C1074.21 893.549 1064.9 885.312 1056.48 883.943C1048.53 882.651 1034.11 878.522 1025.79 877.152C1016.7 875.651 1008.61 874.442 999.288 875.993C978.16 879.509 969.292 867.688 969.292 867.688C967.977 869.881 968.314 888.613 964.449 890.871C957.938 894.671 949.527 898.741 942.014 899.39C947.256 910.085 964.32 919.27 975.744 921.309C992.539 924.306 1009.68 920.84 1026.68 924.766C1035.49 926.801 1042.33 926.787 1051.08 925.217C1057.31 924.102 1068.89 923.521 1073.04 918.392C1071.11 913.678 1063.83 915.98 1060.75 913.35C1065.67 913.823 1073.81 915.26 1078.48 913.066C1086.58 909.255 1079.49 904.483 1073.95 903.135Z" fill="white"/>
<path d="M913.66 880.617C925.699 875.815 948.95 865.797 960.426 837.392C926.645 798.863 889.696 724.746 874.379 632.587C867.256 589.747 852.567 538.532 844.727 495.816C839.78 468.87 834.796 425.181 807.882 422.385C779.459 419.435 748.204 450.718 748.204 500.591C748.203 557.672 818.341 803.273 913.66 880.617Z" fill="white"/>
<path d="M1076.06 899.591C1076.42 902.547 1081.09 904.488 1082.94 901.61C1085.72 897.274 1077.34 898.811 1076.06 899.591Z" fill="#F91510"/>
<path d="M1092.3 895.164C1092.3 895.162 1092.31 895.159 1092.31 895.157C1092.29 894.961 1092.28 894.76 1092.3 894.554V895.164Z" fill="#F91510"/>
<path d="M1572.27 1183.15H1204.88C1248.69 1167.7 1299.33 922.562 1318.53 855.373C1344.15 765.657 1428.33 725.217 1496.07 747.112C1512.17 752.31 1527.33 761.023 1540.56 773.429C1625.13 852.73 1595.37 1131.81 1572.27 1183.15Z" fill="#D0D7E2"/>
<path d="M1118.48 1574.88L1170.35 1180.51L1130.7 1183.02L1104.93 1574.88H1118.48Z" fill="#4C4C4C"/>
<path d="M1452.83 1574.88L1400.96 1180.51L1440.61 1183.02L1466.38 1574.88H1452.83Z" fill="#4C4C4C"/>
<path d="M1577.06 1574.88L1525.19 1180.51L1564.83 1183.02L1590.61 1574.88H1577.06Z" fill="#4C4C4C"/>
<path d="M1304.82 1574.88L1252.94 1180.51L1292.59 1183.02L1318.36 1574.88H1304.82Z" fill="#4C4C4C"/>
<path d="M1572.27 1183.15H1475.87C1516.29 1100.51 1535.25 998.41 1535.26 908.235C1535.27 865.435 1532.4 822.652 1516.03 784.009C1512.5 775.682 1505.3 761.41 1496.07 747.112C1512.17 752.31 1527.33 761.023 1540.56 773.429C1625.13 852.731 1595.37 1131.81 1572.27 1183.15Z" fill="white"/>
<path d="M1577.72 1183.15C1577.72 1190.45 1571.8 1196.37 1564.5 1196.37H1252.62C1245.32 1196.37 1239.4 1190.45 1239.4 1183.15C1239.4 1175.85 1245.32 1169.93 1252.62 1169.93H1564.5C1571.8 1169.94 1577.72 1175.85 1577.72 1183.15Z" fill="#D0D7E2"/>
<path d="M1456.14 1183.15C1456.14 1190.45 1450.22 1196.37 1442.92 1196.37H1131.03C1123.73 1196.37 1117.81 1190.45 1117.81 1183.15C1117.81 1175.85 1123.73 1169.93 1131.03 1169.93H1442.92C1450.22 1169.94 1456.14 1175.85 1456.14 1183.15Z" fill="white"/>
<path d="M985.808 1576.73C987.454 1577.94 990.644 1578.88 994.89 1579.6C1013.76 1582.8 1053.45 1581.51 1070.35 1579.03C1070.41 1579.02 1070.47 1579.01 1070.53 1579C1071.96 1578.79 1073.21 1578.56 1074.24 1578.32C1075.64 1577.98 1076.65 1577.61 1077.21 1577.22C1077.28 1577.17 1077.35 1577.1 1077.4 1577.05C1078.97 1575.59 1079.47 1571.54 1079.26 1565.96C1079.23 1565.1 1079.18 1564.19 1079.11 1563.25C1078.85 1559.46 1078.32 1555.14 1077.61 1550.54C1074.38 1529.62 1067.42 1503.13 1064.58 1496.41L1035.86 1499.52C1027.23 1519.97 1014.25 1531.88 1003.56 1541.64C994.369 1550.02 986.869 1556.82 985.238 1566.08C984.664 1569.28 984.802 1572.77 985.808 1576.73Z" fill="#301F23"/>
<path d="M985.808 1576.73C987.454 1577.94 990.644 1578.88 994.89 1579.6C1017.52 1581.88 1056.01 1580.68 1073.26 1578.45C1073.32 1578.44 1073.39 1578.43 1073.45 1578.42C1073.72 1578.39 1073.98 1578.35 1074.24 1578.32C1075.64 1577.98 1076.65 1577.61 1077.21 1577.22C1077.28 1577.17 1077.35 1577.1 1077.4 1577.05C1078.97 1575.59 1079.47 1571.54 1079.26 1565.96C1077.14 1566.06 1075.07 1566.16 1073.68 1566.35C1073.62 1566.36 1073.55 1566.37 1073.49 1566.38C1053.34 1568.98 1004.23 1570.18 985.236 1566.08C984.663 1569.28 984.802 1572.77 985.808 1576.73Z" fill="#140D0F"/>
<path d="M1248.6 1581.04C1250.29 1582.29 1253.56 1583.25 1257.9 1583.99C1277.23 1587.26 1317.88 1585.94 1335.18 1583.41C1335.25 1583.39 1335.31 1583.38 1335.37 1583.38C1336.83 1583.16 1338.11 1582.92 1339.17 1582.67C1340.61 1582.33 1341.64 1581.95 1342.21 1581.55C1342.29 1581.5 1342.36 1581.43 1342.41 1581.38C1344.01 1579.88 1344.53 1575.73 1344.31 1570.02C1344.28 1569.14 1344.23 1568.2 1344.16 1567.25C1343.89 1563.36 1343.35 1558.93 1342.62 1554.23C1339.31 1532.8 1332.18 1505.67 1329.28 1498.78L1299.86 1501.97C1291.02 1522.92 1277.73 1535.12 1266.78 1545.11C1257.37 1553.69 1249.68 1560.65 1248.01 1570.14C1247.43 1573.41 1247.57 1577 1248.6 1581.04Z" fill="#301F23"/>
<path d="M1248.6 1581.05C1250.29 1582.29 1253.56 1583.25 1257.9 1583.99C1281.08 1586.32 1320.5 1585.09 1338.16 1582.81C1338.23 1582.8 1338.3 1582.78 1338.37 1582.78C1338.64 1582.75 1338.9 1582.7 1339.17 1582.67C1340.61 1582.33 1341.64 1581.95 1342.21 1581.55C1342.29 1581.5 1342.36 1581.43 1342.41 1581.38C1344.01 1579.88 1344.53 1575.73 1344.31 1570.02C1342.14 1570.12 1340.02 1570.22 1338.6 1570.42C1338.53 1570.42 1338.47 1570.43 1338.4 1570.45C1317.77 1573.11 1267.47 1574.34 1248.01 1570.14C1247.43 1573.42 1247.57 1577 1248.6 1581.05Z" fill="#140D0F"/>
<path d="M1474.66 1070.89C1474.66 1070.89 1390.43 1085.67 1325.04 1074.58C1269.14 1065.11 1243.03 1049.83 1243.03 1049.83C1181.51 1064.72 1159.9 1068.04 1123.32 1078.02C1058.48 1095.71 1021.92 1116.26 1035.23 1149.51C1052.89 1193.66 1194.81 1181.1 1417.03 1174.46C1429.55 1174.08 1450.25 1166.3 1456.92 1154.38C1465.76 1138.56 1475.4 1090.1 1474.66 1070.89Z" fill="#381E1A"/>
<path d="M1294.01 1106.73C1281.82 1098.97 1257.85 1101.45 1246.8 1108.41C1231.92 1117.79 1224.06 1131.18 1211.84 1142.87C1199.28 1154.88 1177.55 1165.04 1161.19 1169.1C1145.54 1172.98 1123.02 1168.21 1109.04 1176.12C1129.77 1188.97 1179.51 1182.38 1204.78 1181.11C1232.11 1179.73 1276.58 1183.24 1301.2 1171.13L1294.01 1106.73Z" fill="#140808"/>
<path d="M1123.33 1164.47L1071.79 1106.28C972.055 1094.64 1035.22 1387.24 1013.62 1513.59C1029.86 1514.66 1072.66 1513.91 1088.42 1511.93C1090.84 1486.9 1129.98 1290.82 1136.63 1225.98C1137.84 1214.24 1128.32 1174.45 1123.33 1164.47Z" fill="#381E1A"/>
<path d="M1352.72 1121.24C1352.72 1121.24 1327.02 1091.73 1289.67 1092.7C1196.5 1095.14 1272.02 1492.69 1265.74 1518.55C1284.67 1522.66 1334.58 1521.26 1350.28 1516.95C1349.07 1491.22 1357.71 1332.63 1357.71 1265.88C1357.71 1201.18 1357.71 1159.48 1352.72 1121.24Z" fill="#381E1A"/>
<path d="M1478.4 998.292C1478.4 999.347 1478.4 1000.38 1478.39 1001.39C1478.39 1001.88 1478.38 1002.37 1478.38 1002.85C1478.37 1004.18 1478.35 1005.48 1478.34 1006.77C1478.32 1007.34 1478.32 1007.91 1478.3 1008.48C1478.28 1009.74 1478.26 1010.99 1478.24 1012.21C1478.2 1013.83 1478.16 1015.4 1478.11 1016.96C1478.05 1019.16 1477.97 1021.3 1477.88 1023.37C1477.85 1024.28 1477.8 1025.18 1477.76 1026.07C1477.7 1027.19 1477.65 1028.3 1477.59 1029.38C1477.57 1029.87 1477.55 1030.35 1477.51 1030.81C1477.47 1031.59 1477.43 1032.35 1477.37 1033.09C1477.33 1033.85 1477.28 1034.59 1477.23 1035.32C1477.17 1036.05 1477.13 1036.77 1477.07 1037.48C1477.02 1038.19 1476.96 1038.89 1476.9 1039.59C1476.89 1039.82 1476.87 1040.05 1476.85 1040.29C1476.74 1041.55 1476.63 1042.77 1476.52 1043.96C1476.52 1043.96 1476.53 1043.96 1476.52 1043.97C1476.41 1045.15 1476.28 1046.32 1476.16 1047.45C1475.9 1049.93 1475.61 1052.27 1475.3 1054.48C1475.22 1055.03 1475.14 1055.57 1475.06 1056.11C1475.03 1056.31 1475 1056.53 1474.96 1056.74V1056.79C1473.73 1064.93 1472.24 1071.28 1470.57 1076.56C1470.45 1076.96 1470.32 1077.34 1470.2 1077.73C1469.93 1078.52 1469.67 1079.29 1469.4 1080.05C1454.12 1083.74 1438.09 1086.16 1421.7 1087.35C1421.69 1087.35 1421.69 1087.35 1421.68 1087.35C1418.55 1086.84 1415.43 1086.35 1412.3 1085.9C1411.36 1085.76 1410.41 1085.62 1409.45 1085.49C1408.03 1085.28 1406.6 1085.08 1405.19 1084.89C1403.98 1084.72 1402.78 1084.57 1401.57 1084.41C1401.24 1084.37 1400.92 1084.32 1400.59 1084.28C1397.85 1083.93 1395.1 1083.59 1392.36 1083.27C1386.65 1082.61 1380.94 1082.01 1375.2 1081.47C1374.14 1081.37 1373.07 1081.27 1372 1081.17C1353.67 1079.53 1335.28 1078.82 1316.88 1078.8C1291.09 1072.67 1266.29 1063.58 1243.89 1051.58C1244.63 1047.67 1245.32 1043.66 1245.96 1039.54C1246.07 1038.83 1246.18 1038.11 1246.29 1037.39C1246.98 1032.83 1247.6 1028.18 1248.17 1023.42C1248.32 1022.1 1248.48 1020.77 1248.62 1019.44C1248.92 1016.78 1249.19 1014.09 1249.44 1011.37C1249.57 1010.02 1249.69 1008.66 1249.82 1007.29C1250.02 1004.93 1250.22 1002.55 1250.38 1000.16C1250.42 999.791 1250.44 999.415 1250.46 999.05C1250.56 997.732 1250.65 996.412 1250.74 995.093C1250.92 992.244 1251.08 989.374 1251.23 986.503C1251.28 985.385 1251.34 984.276 1251.38 983.155C1251.46 981.46 1251.52 979.753 1251.58 978.057C1251.69 975.231 1251.77 972.404 1251.82 969.566C1251.86 968.148 1251.88 966.729 1251.9 965.322C1251.9 965.134 1251.9 964.946 1251.91 964.757C1251.94 962.108 1251.97 959.459 1251.97 956.821C1251.99 918.506 1248.37 880.799 1240.82 853.156C1232.48 822.653 1229.21 791.653 1226.29 760.43C1223.96 735.548 1230.66 720.384 1243.78 706.907C1246.99 703.594 1250.6 700.39 1254.55 697.154C1255.67 696.245 1256.8 695.337 1257.98 694.438C1260.81 692.211 1263.79 689.972 1266.93 687.666L1267.55 687.256L1267.72 687.167L1268.05 686.946L1281.39 678.278L1310.65 659.259L1324.16 650.448L1350.1 633.6L1352.58 631.993L1352.92 631.761C1357.54 635.806 1363.02 640.161 1368.86 644.351C1375.03 648.785 1381.64 653.03 1388.13 656.488C1394.66 659.958 1402.46 661.953 1410.07 664.059C1414.35 665.234 1418.55 666.463 1422.46 667.993C1425.44 669.168 1428.24 670.519 1430.73 672.194C1444.95 681.693 1453.79 704.159 1458.98 725.916C1462.24 739.494 1464.07 752.806 1464.91 762.515C1467.07 787.564 1468.94 810.594 1470.54 831.765C1476.35 908.803 1478.55 961.408 1478.4 998.292Z" fill="#425B28"/>
<path d="M1353.8 700.459C1318.71 727.215 1304.73 734.395 1291.43 736.548C1283.33 737.858 1279.73 715.324 1274.54 703.691C1267.46 687.801 1261 669.593 1253.92 659.161C1252.15 656.547 1250.34 654.417 1248.48 652.94L1304.77 603.996L1331.02 581.169C1332.55 585.445 1334.08 589.783 1335.59 594.164C1348.34 631.111 1385.3 676.451 1353.8 700.459Z" fill="#FFB278"/>
<path d="M1315.75 668.906C1305.41 683.934 1289.17 688.883 1269.09 690.258C1262.01 674.368 1260.99 669.591 1253.92 659.159L1304.77 603.994L1333.23 573.106C1333.28 580.401 1334.34 587.334 1335.59 594.163C1337.61 605.185 1325.95 654.105 1315.75 668.906Z" fill="#E5804E"/>
<path d="M1368.75 643.64C1363.26 639.766 1352.79 626.737 1348.84 624.056C1360.89 681.724 1291.43 736.546 1291.43 736.546C1302.28 743.042 1341.2 706.272 1349.24 715.132C1362.58 729.816 1374.71 715.202 1383.58 715.202C1384.91 685.368 1369.04 648.098 1368.75 643.64Z" fill="#6B8E43"/>
<path d="M1295.26 737.919C1277.66 735.735 1282.82 708.801 1266.35 684.255C1259.94 690.052 1256.98 688.812 1254.4 697.686C1259.03 713.105 1250.41 720.639 1253.45 737.596C1259.08 726.785 1295.26 737.919 1295.26 737.919Z" fill="#6B8E43"/>
<path d="M1305.82 778.391C1306.55 780.613 1305.34 783.006 1303.12 783.739C1300.91 784.472 1298.51 783.268 1297.78 781.048C1297.04 778.83 1298.25 776.435 1300.47 775.702C1302.69 774.967 1305.08 776.173 1305.82 778.391Z" fill="#6B8E43"/>
<path d="M1330.95 883.346C1331.68 885.566 1330.48 887.959 1328.26 888.694C1326.04 889.427 1323.64 888.223 1322.91 886.003C1322.18 883.785 1323.38 881.39 1325.6 880.657C1327.82 879.922 1330.21 881.127 1330.95 883.346Z" fill="#6B8E43"/>
<path d="M1344.54 982.255C1345.27 984.475 1344.07 986.868 1341.85 987.602C1339.63 988.335 1337.23 987.132 1336.5 984.912C1335.77 982.694 1336.97 980.299 1339.19 979.566C1341.41 978.831 1343.81 980.037 1344.54 982.255Z" fill="#6B8E43"/>
<path d="M1300.44 736.11C1300.53 736.725 1300.32 737.374 1299.62 737.82C1298.44 738.557 1297.26 739.291 1296.21 740.19C1286.25 748.617 1285.75 762.258 1286.07 774.357C1286.43 788.581 1288.5 802.669 1291.49 816.566C1297.55 844.894 1306.62 872.492 1312.31 900.918C1317.68 927.685 1318.78 955.289 1319.71 982.533C1320.35 1001.39 1319.2 1047.64 1316.8 1078.79C1314.51 1078.79 1312.21 1078.8 1309.92 1078.83C1313.23 1044.18 1316.4 987.668 1315.07 964.016C1314.32 950.461 1313.89 936.723 1312.2 923.25C1310.39 908.709 1307.28 894.391 1303.71 880.205C1296.78 852.731 1288.13 825.477 1284.23 797.339C1281.44 777.163 1271.17 749.643 1291.08 736.773L1291.11 736.759C1291.22 736.68 1291.32 736.613 1291.43 736.544L1297.52 734.666C1298.2 734.243 1298.88 734.302 1299.4 734.611C1299.96 734.914 1300.35 735.496 1300.44 736.11Z" fill="#6B8E43"/>
<path d="M1211.63 524.093L1182.82 519.659C1172.32 522.111 1177.8 552.48 1180.6 559.559C1184.96 570.609 1196.31 586.031 1208.01 591.054C1205.22 581.303 1202.39 571.359 1202.93 561.038C1203.22 555.478 1207.12 525.299 1211.63 524.093Z" fill="#685851"/>
<path d="M1422.47 667.99C1378.02 693.605 1381.96 748.57 1385.47 797.355C1385.73 801.072 1386 804.744 1386.24 808.365C1387.71 830.564 1390 853.572 1392.2 875.81C1397.97 933.795 1403.94 993.754 1397.07 1051.05C1396.32 1057.3 1394.62 1064.68 1392.98 1071.84C1391.66 1077.62 1390.32 1083.51 1389.49 1088.67C1388.84 1092.71 1388.53 1096.3 1388.8 1099L1378.88 1100C1378.54 1096.58 1378.82 1092.56 1379.48 1088.12C1380.32 1082.45 1381.77 1076.13 1383.26 1069.61C1384.84 1062.72 1386.48 1055.58 1387.16 1049.87C1393.9 993.657 1387.99 934.249 1382.27 876.804C1380.06 854.479 1377.77 831.392 1376.29 809.028C1376.05 805.418 1375.78 801.757 1375.51 798.074C1373.56 770.79 1371.53 742.586 1377.09 717.088C1382.17 693.741 1393.03 676.246 1410.08 664.053C1414.35 665.234 1418.56 666.455 1422.47 667.99Z" fill="#381E1A"/>
<path d="M1270.96 872.214C1281.64 929.501 1292.71 988.73 1290.74 1046.4C1290.53 1052.69 1289.47 1060.19 1288.45 1067.45C1287.45 1074.55 1286.43 1081.81 1286.24 1087.64C1286.14 1090.44 1286.23 1092.91 1286.6 1094.88L1276.8 1096.73C1276.31 1094.15 1276.16 1091.18 1276.25 1087.92C1276.41 1081.48 1277.48 1073.91 1278.58 1066.07C1279.56 1059.05 1280.58 1051.81 1280.78 1046.07C1282.7 989.491 1271.74 930.796 1261.15 874.045C1257.04 851.988 1252.79 829.189 1249.4 807.029C1248.86 803.453 1248.28 799.826 1247.7 796.179C1243.43 769.166 1239.01 741.233 1242.37 715.359C1242.74 712.462 1243.21 709.652 1243.78 706.911C1247 703.593 1250.61 700.387 1254.56 697.153C1255.67 696.249 1256.81 695.339 1257.98 694.438C1246.32 723.611 1252.17 760.63 1257.55 794.611C1258.13 798.293 1258.71 801.931 1259.26 805.517C1262.62 827.512 1266.86 850.235 1270.96 872.214Z" fill="#381E1A"/>
<path d="M1338.6 572.612C1339.38 582.554 1339.06 592.235 1337.69 601.16C1333.73 626.968 1313.39 672.383 1278.56 678.881C1256.21 683.05 1241.46 665.028 1228.96 646.737C1218.62 631.628 1211.45 613.782 1207.11 601.369C1202.51 588.184 1193.29 544.586 1192.09 530.496C1187.31 474.528 1277.69 467.951 1302.13 490.823C1324.52 511.772 1336.32 543.295 1338.6 572.612Z" fill="#FFB278"/>
<path d="M1274.83 583.491C1274.6 590.335 1280.44 596.408 1285.99 597.389C1292.1 598.47 1297.38 595.029 1300.54 589.463C1302.06 586.778 1303.91 582.566 1303.47 579.316L1274.83 583.491Z" fill="#E5804E"/>
<path d="M1303.78 579.522C1301.57 582.388 1299.47 584.639 1297.48 586.38C1290.08 592.898 1284.28 592.422 1280.51 590.576C1277.91 589.321 1276.29 587.417 1275.77 586.703C1275.1 585.141 1274.75 583.063 1274.71 580.833C1274.66 578.876 1274.87 576.797 1275.34 574.873C1275.37 574.758 1275.4 574.643 1275.43 574.535C1276.45 570.568 1278.58 567.284 1281.9 566.944C1286.11 566.527 1291.13 568.443 1294.63 570.775C1294.68 570.8 1294.71 570.827 1294.75 570.861C1296.07 571.761 1298.01 573.583 1299.75 575.335C1300.06 575.658 1300.39 575.983 1300.7 576.295C1301.34 576.942 1301.92 577.554 1302.41 578.07C1302.41 578.07 1302.42 578.078 1302.43 578.087C1302.77 578.457 1303.07 578.78 1303.3 579.015C1303.3 579.023 1303.3 579.023 1303.3 579.023C1303.6 579.34 1303.78 579.522 1303.78 579.522Z" fill="white"/>
<path d="M1297.48 586.38C1290.08 592.898 1284.28 592.422 1280.51 590.577C1279.79 589.075 1279.13 587.497 1278.53 585.834C1277.8 583.797 1277.15 581.629 1276.61 579.402C1276.52 579.042 1275.98 576.819 1275.43 574.537C1276.45 570.57 1278.58 567.286 1281.9 566.946C1286.11 566.529 1291.14 568.445 1294.64 570.777C1294.68 570.802 1294.72 570.829 1294.76 570.863C1296.62 574.751 1297.81 579.371 1297.48 586.38Z" fill="#3A2E2E"/>
<path d="M1292.68 584.045C1292.92 585.066 1293.61 585.775 1294.22 585.631C1294.82 585.486 1295.11 584.541 1294.87 583.522C1294.63 582.502 1293.94 581.792 1293.34 581.935C1292.73 582.081 1292.43 583.024 1292.68 584.045Z" fill="white"/>
<path d="M1291.46 574.892C1295.5 574.727 1300.06 578.377 1303.78 579.524C1303.2 577.713 1301.49 572.169 1299.43 569.487C1286.74 552.977 1274.52 563.996 1273.74 569.034C1273.17 572.76 1273.11 575.983 1273.7 578.925C1279.4 576.783 1285.25 575.145 1291.46 574.892Z" fill="#E5804E"/>
<path d="M1214.53 597.166C1214.3 604.01 1220.15 610.083 1225.69 611.062C1231.8 612.145 1237.08 608.704 1240.24 603.135C1241.76 600.453 1243.61 596.238 1243.18 592.988L1214.53 597.166Z" fill="#E5804E"/>
<path d="M1243.48 593.197C1241.28 596.065 1239.18 598.316 1237.19 600.058C1229.79 606.574 1223.99 606.097 1220.21 604.253C1217.62 602.997 1216 601.091 1215.48 600.38C1214.81 598.82 1214.45 596.74 1214.41 594.511C1214.37 592.555 1214.58 590.475 1215.05 588.55C1215.08 588.436 1215.11 588.321 1215.13 588.213C1216.16 584.248 1218.29 580.961 1221.61 580.621C1225.81 580.204 1230.84 582.12 1234.34 584.454C1234.38 584.479 1234.42 584.502 1234.46 584.538C1235.78 585.438 1237.71 587.259 1239.46 589.012C1239.77 589.335 1240.09 589.659 1240.4 589.973C1241.04 590.617 1241.62 591.232 1242.11 591.748C1242.11 591.748 1242.12 591.756 1242.14 591.765C1242.48 592.132 1242.77 592.456 1243 592.692C1243.01 592.701 1243.01 592.701 1243.01 592.701C1243.3 593.015 1243.48 593.197 1243.48 593.197Z" fill="white"/>
<path d="M1237.19 600.057C1229.79 606.573 1223.99 606.096 1220.21 604.252C1219.5 602.751 1218.84 601.171 1218.24 599.508C1217.51 597.47 1216.86 595.302 1216.32 593.078C1216.23 592.716 1215.69 590.493 1215.13 588.21C1216.16 584.245 1218.29 580.958 1221.61 580.618C1225.82 580.201 1230.84 582.117 1234.34 584.451C1234.38 584.476 1234.42 584.499 1234.46 584.535C1236.33 588.427 1237.52 593.046 1237.19 600.057Z" fill="#3A2E2E"/>
<path d="M1232.38 597.72C1232.63 598.74 1233.32 599.45 1233.92 599.306C1234.53 599.163 1234.82 598.218 1234.58 597.199C1234.33 596.177 1233.65 595.469 1233.04 595.611C1232.44 595.756 1232.14 596.701 1232.38 597.72Z" fill="white"/>
<path d="M1225.62 589.583C1231.84 589.413 1237.54 590.834 1242.58 593.477C1242.88 593.383 1243.18 593.29 1243.48 593.198C1243.48 593.198 1243.36 588.653 1239.13 583.159C1226.45 566.651 1214.22 577.671 1213.44 582.707C1212.93 586.069 1212.82 589.025 1213.23 591.733C1217.24 590.402 1221.5 589.694 1225.62 589.583Z" fill="#E5804E"/>
<path d="M1292.34 549.371C1282.81 550.076 1275.1 553.476 1267.18 558.451C1266.27 559.021 1265.04 560.109 1263.81 561.477C1265.99 565.617 1267.95 569.887 1269.9 574.054C1270.07 574.412 1270.22 574.773 1270.39 575.13C1270.64 575.052 1270.89 574.971 1271.11 574.894C1280.03 571.823 1288.19 566.063 1297.44 563.691C1301.41 562.677 1304.9 562.191 1308.39 562.159C1308.49 559.064 1308.58 555.962 1308.65 552.863C1304.2 550.53 1298.7 548.9 1292.34 549.371Z" fill="#87756C"/>
<path d="M1211.55 567.598C1220.49 564.219 1228.91 564.051 1238.19 565.224C1239.25 565.36 1240.83 565.823 1242.53 566.547C1242.29 571.221 1242.31 575.918 1242.3 580.52C1242.3 580.916 1242.31 581.309 1242.31 581.704C1242.05 581.738 1241.79 581.769 1241.56 581.793C1232.18 582.766 1222.35 580.986 1212.96 582.737C1208.94 583.489 1205.56 584.523 1202.38 585.963C1200.99 583.192 1199.6 580.422 1198.23 577.643C1201.29 573.651 1205.58 569.853 1211.55 567.598Z" fill="#87756C"/>
<path d="M1250.19 614.818C1254.27 624.554 1266.6 621.524 1270.23 613.359L1250.19 614.818Z" fill="#E5804E"/>
<path d="M1206.39 547.435C1206.39 547.435 1206.68 547.252 1207.23 546.901C1207.5 546.726 1207.83 546.511 1208.23 546.26C1208.63 546.018 1209.11 545.767 1209.64 545.475C1209.9 545.33 1210.18 545.176 1210.48 545.017C1210.78 544.87 1211.09 544.72 1211.42 544.564C1212.08 544.254 1212.78 543.892 1213.57 543.588C1215.12 542.928 1216.9 542.249 1218.9 541.674C1219.4 541.528 1219.91 541.38 1220.42 541.231C1220.95 541.106 1221.49 540.976 1222.03 540.847C1223.11 540.564 1224.26 540.377 1225.43 540.167C1227.78 539.778 1230.27 539.488 1232.84 539.232C1235.42 538.967 1238.07 538.714 1240.75 538.338C1242.09 538.17 1243.42 537.917 1244.77 537.685C1246.11 537.388 1247.42 537.128 1248.75 536.735C1251.36 535.98 1253.91 534.944 1256.38 533.853C1258.87 532.764 1261.3 531.644 1263.72 530.694C1266.13 529.735 1268.57 529.011 1270.91 528.566C1273.27 528.128 1275.51 527.936 1277.59 527.868C1281.74 527.744 1285.19 528.094 1287.59 528.256C1289.99 528.454 1291.37 528.566 1291.37 528.566C1291.37 528.566 1289.99 528.513 1287.58 528.421C1285.17 528.328 1281.72 528.153 1277.61 528.353C1275.56 528.465 1273.33 528.702 1271.04 529.178C1268.73 529.669 1266.38 530.434 1263.99 531.387C1259.21 533.281 1254.35 535.97 1248.98 537.561C1247.66 537.944 1246.27 538.212 1244.92 538.499C1243.56 538.727 1242.21 538.967 1240.85 539.128C1238.15 539.49 1235.49 539.724 1232.92 539.97C1230.35 540.221 1227.86 540.441 1225.53 540.78C1224.36 540.964 1223.23 541.123 1222.15 541.38C1221.61 541.496 1221.07 541.613 1220.55 541.725C1220.04 541.862 1219.52 542 1219.03 542.132C1218.03 542.379 1217.1 542.705 1216.2 542.986C1215.3 543.246 1214.48 543.592 1213.68 543.876C1212.9 544.151 1212.19 544.485 1211.52 544.772C1211.19 544.917 1210.87 545.054 1210.56 545.19C1210.27 545.34 1209.98 545.482 1209.72 545.616C1209.18 545.892 1208.69 546.123 1208.28 546.343C1207.87 546.577 1207.53 546.776 1207.25 546.937C1206.69 547.263 1206.39 547.435 1206.39 547.435Z" fill="#E5804E"/>
<path d="M1213.15 553.924C1213.15 553.924 1213.4 553.76 1213.87 553.456C1214.34 553.143 1215.04 552.69 1215.98 552.199C1216.44 551.934 1216.95 551.662 1217.54 551.397C1218.12 551.124 1218.73 550.806 1219.42 550.537C1220.78 549.954 1222.33 549.358 1224.08 548.854C1224.52 548.725 1224.96 548.595 1225.42 548.463C1225.88 548.352 1226.34 548.241 1226.82 548.126C1227.77 547.878 1228.78 547.711 1229.8 547.524C1231.86 547.182 1234.03 546.924 1236.29 546.703C1238.54 546.469 1240.86 546.251 1243.2 545.915C1245.55 545.602 1247.9 545.163 1250.2 544.511C1252.47 543.851 1254.71 542.948 1256.87 541.995C1259.04 541.045 1261.17 540.064 1263.29 539.234C1265.4 538.394 1267.54 537.764 1269.59 537.379C1271.66 536.995 1273.62 536.834 1275.44 536.775C1279.08 536.675 1282.09 536.989 1284.19 537.134C1286.3 537.313 1287.5 537.418 1287.5 537.418C1287.5 537.418 1286.29 537.376 1284.19 537.302C1282.08 537.224 1279.06 537.081 1275.46 537.259C1273.67 537.359 1271.72 537.572 1269.72 537.99C1267.7 538.422 1265.65 539.093 1263.56 539.928C1259.38 541.586 1255.14 543.94 1250.42 545.34C1248.08 545.984 1245.67 546.411 1243.31 546.706C1240.94 547.024 1238.61 547.227 1236.36 547.442C1234.11 547.658 1231.94 547.848 1229.89 548.138C1228.88 548.299 1227.88 548.438 1226.94 548.659C1226.46 548.761 1226 548.862 1225.54 548.959C1225.09 549.08 1224.65 549.201 1224.21 549.314C1222.47 549.782 1220.91 550.308 1219.54 550.829C1218.84 551.069 1218.22 551.36 1217.64 551.608C1217.05 551.848 1216.53 552.096 1216.06 552.344C1215.59 552.579 1215.17 552.79 1214.8 552.973C1214.45 553.177 1214.14 553.352 1213.9 553.492C1213.41 553.776 1213.15 553.924 1213.15 553.924Z" fill="#E5804E"/>
<path d="M1221.59 560.263C1221.59 560.263 1221.8 560.127 1222.19 559.876C1222.57 559.618 1223.13 559.247 1223.89 558.846C1224.26 558.628 1224.68 558.406 1225.16 558.188C1225.62 557.965 1226.12 557.703 1226.68 557.481C1227.78 557.004 1229.05 556.512 1230.47 556.099C1231.18 555.879 1231.91 555.672 1232.69 555.5C1233.47 555.297 1234.28 555.157 1235.12 555.004C1236.79 554.722 1238.56 554.503 1240.39 554.324C1244.04 553.932 1247.95 553.603 1251.68 552.534C1253.52 552.006 1255.33 551.271 1257.09 550.499C1258.85 549.73 1260.59 548.932 1262.31 548.26C1264.03 547.577 1265.78 547.067 1267.45 546.761C1269.13 546.454 1270.73 546.324 1272.21 546.282C1275.17 546.205 1277.61 546.477 1279.32 546.603C1281.03 546.761 1282.01 546.85 1282.01 546.85C1282.01 546.85 1281.03 546.82 1279.32 546.77C1277.6 546.714 1275.15 546.613 1272.23 546.767C1270.77 546.854 1269.19 547.031 1267.57 547.374C1265.93 547.73 1264.28 548.279 1262.58 548.954C1259.2 550.3 1255.74 552.221 1251.91 553.366C1250 553.887 1248.03 554.235 1246.11 554.473C1244.19 554.726 1242.29 554.893 1240.46 555.063C1238.64 555.243 1236.87 555.386 1235.21 555.62C1234.39 555.748 1233.58 555.859 1232.81 556.038C1232.04 556.185 1231.3 556.367 1230.6 556.564C1229.19 556.938 1227.92 557.359 1226.8 557.778C1226.24 557.971 1225.73 558.203 1225.26 558.403C1224.78 558.598 1224.35 558.796 1223.97 558.994C1223.2 559.359 1222.61 559.685 1222.21 559.918C1221.81 560.141 1221.59 560.263 1221.59 560.263Z" fill="#E5804E"/>
<path d="M1334.31 595.943C1329.48 587.064 1325.91 577.604 1323.04 568.199C1319.73 557.411 1326 552.354 1315.17 549.948C1294.21 545.287 1302.85 505.29 1285.27 502.666C1271.8 500.658 1246.98 519.658 1227.19 526.08C1213.59 530.497 1188.94 535.339 1177.99 526.027C1177.99 526.027 1165.2 509.143 1166.86 485.25C1166.92 484.375 1167.08 483.548 1167.33 482.759C1170.92 471.174 1193.33 468.218 1203.62 466.117C1239.42 458.801 1255.4 459.328 1282.13 455.946C1303.14 453.289 1323.78 465.777 1337.11 482.991C1341.92 489.196 1345.78 496.008 1348.37 502.95C1359.26 532.166 1347.53 567.893 1334.31 595.943Z" fill="#87756C"/>
<path d="M1250.68 640.454C1255.57 644.637 1264.58 648.151 1271.11 646.761C1278.44 645.201 1281.9 638.367 1284.05 632.398L1250.68 640.454Z" fill="#E5804E"/>
<path d="M1288.52 618.296C1279.18 616.336 1256.32 623.415 1256.32 623.415C1249.97 625.88 1241.32 627.174 1236.95 633.597C1233.73 638.355 1234.01 644.718 1231.09 649.225C1235.86 649.762 1246.48 652.167 1267.63 638.13C1283.07 641.501 1303.61 637.207 1309.97 620.806C1302.66 624.811 1296.17 619.897 1288.52 618.296Z" fill="#87756C"/>
<path d="M1334.31 595.943C1329.48 587.064 1325.91 577.604 1323.04 568.198C1319.73 557.411 1326 552.354 1315.17 549.948C1294.21 545.287 1302.85 505.29 1285.27 502.666C1271.8 500.658 1246.98 519.657 1227.19 526.08C1213.59 530.496 1188.94 535.339 1177.99 526.027C1177.99 526.027 1165.2 509.143 1166.86 485.25C1166.92 484.375 1167.08 483.548 1167.33 482.759C1170.87 487.983 1176.41 492.648 1180.08 495.098C1193.13 503.813 1211.11 502.909 1225.78 499.718C1247.63 494.974 1268.78 481.84 1291.46 486.42C1298.37 487.818 1305.65 492.721 1311.19 497.254C1315.77 501.025 1318.2 509.304 1324.42 506.917C1333.8 503.326 1336.72 493.396 1337.11 482.991C1341.92 489.195 1345.79 496.008 1348.37 502.95C1359.26 532.166 1347.53 567.893 1334.31 595.943Z" fill="#685851"/>
<path d="M1329.48 587.923C1329.04 581.854 1329.47 573.863 1329.47 573.863C1330.06 560.172 1340.85 548.01 1347.5 554.419C1354.17 560.854 1355.67 574.284 1354.51 582.794C1353.36 591.199 1348.02 606.551 1339.1 605.39C1331.49 604.398 1329.96 594.425 1329.48 587.923Z" fill="#FFB278"/>
<path d="M1333.42 574.535C1333.38 573.053 1335.4 567.784 1335.89 566.406C1339.59 555.879 1348.19 557.748 1349.88 568.423C1345.82 559.526 1341.46 567.715 1338.89 573.216C1341.58 572.807 1343.54 579.214 1343.26 581.911C1342.78 586.666 1339.86 588.101 1336.78 589.279L1336.77 588.898C1336.92 585.405 1339.63 580.488 1337.02 576.428C1335.59 574.201 1333.5 577.292 1333.42 574.535Z" fill="#E5804E"/>
<path d="M1247.03 597.46C1246.39 596.507 1245.68 595.625 1244.91 594.841C1244.4 594.32 1243.87 593.836 1243.31 593.398C1243.28 593.365 1243.24 593.346 1243.21 593.315C1243.2 593.309 1243.19 593.299 1243.17 593.295C1243.07 593.212 1242.96 593.121 1242.84 593.042C1240.91 591.633 1238.76 590.742 1236.51 590.501C1236 590.435 1235.49 590.415 1234.97 590.427C1234.79 590.434 1234.61 590.438 1234.44 590.454C1233.84 590.493 1233.23 590.588 1232.63 590.732L1216.68 594.508L1214.72 594.973C1214.62 594.995 1214.52 595.017 1214.43 595.048C1211.33 595.88 1208.74 597.947 1206.99 600.996C1206.76 601.377 1206.56 601.784 1206.36 602.21C1204.65 605.904 1204.28 610.331 1205.32 614.688C1207.04 621.975 1212.32 627.371 1218.27 628.237C1218.92 628.342 1219.58 628.387 1220.24 628.37C1221.02 628.346 1221.8 628.246 1222.57 628.067L1240.49 623.811C1244.12 622.952 1247.08 620.381 1248.84 616.576C1250.55 612.893 1250.92 608.464 1249.88 604.108C1249.3 601.641 1248.3 599.394 1247.03 597.46ZM1247 604.796C1247.88 608.506 1247.58 612.253 1246.15 615.334C1244.78 618.289 1242.53 620.286 1239.8 620.932L1221.88 625.176C1221.32 625.309 1220.74 625.384 1220.17 625.401C1218.96 625.434 1217.74 625.187 1216.58 624.713C1212.73 623.142 1209.41 619.074 1208.21 613.997C1207.48 610.919 1207.55 607.807 1208.43 605.077C1208.61 604.522 1208.82 603.987 1209.06 603.461C1210.28 600.809 1212.21 598.951 1214.53 598.12L1214.78 598.039C1214.99 597.968 1215.19 597.914 1215.4 597.864L1217.52 597.357L1224.39 595.731L1233.32 593.608C1233.88 593.476 1234.46 593.401 1235.04 593.39C1235.7 593.373 1236.36 593.441 1237.02 593.583C1237.27 593.628 1237.53 593.703 1237.78 593.777C1239.06 594.162 1240.3 594.825 1241.43 595.72C1241.91 596.092 1242.37 596.514 1242.82 596.97C1243.13 597.302 1243.43 597.649 1243.73 598.004C1243.88 598.188 1244.03 598.385 1244.18 598.588C1245.45 600.358 1246.45 602.469 1247 604.796Z" fill="white"/>
<path d="M1301.47 573.15C1301.13 573.136 1300.79 573.131 1300.44 573.141C1299.55 573.158 1298.66 573.251 1297.8 573.431C1297.59 573.468 1297.39 573.512 1297.18 573.56L1295.98 573.839L1291.57 574.894L1276.39 578.488L1275.48 578.705C1275.23 578.766 1274.99 578.825 1274.75 578.905C1269.19 580.508 1265.12 585.003 1263.67 590.468C1263.38 591.558 1263.2 592.701 1263.13 593.87C1263.02 595.547 1263.16 597.274 1263.57 599.005C1265.43 606.843 1272.36 612.4 1280.08 612.217C1281.17 612.197 1282.26 612.049 1283.33 611.801L1300.47 607.726L1301.57 607.472L1305.03 606.646C1311.54 605.1 1316.17 599.645 1317.21 593.182C1317.36 592.23 1317.43 591.252 1317.42 590.269C1317.41 588.97 1317.25 587.664 1316.94 586.344C1315.17 578.867 1308.75 573.459 1301.47 573.15ZM1312.91 596.91C1311.36 599.97 1308.71 602.383 1305.36 603.479L1305.2 603.533C1304.92 603.615 1304.63 603.687 1304.35 603.76L1282.65 608.907C1281.78 609.117 1280.9 609.23 1280.01 609.247C1273.7 609.392 1268 604.809 1266.46 598.327C1264.8 591.302 1268.46 584.301 1274.76 582.019C1275.21 581.849 1275.69 581.713 1276.17 581.596L1277.12 581.366L1296.79 576.702L1297.4 576.552L1297.86 576.443C1298.74 576.239 1299.62 576.126 1300.51 576.109L1300.52 576.106C1301.24 576.089 1301.97 576.136 1302.68 576.239C1308.09 577.05 1312.69 581.309 1314.05 587.032C1314.61 589.404 1314.57 591.772 1314.02 593.959C1313.76 594.999 1313.38 595.982 1312.91 596.91Z" fill="white"/>
<path d="M1263.67 590.466C1260.51 588.149 1256.71 587.282 1253.11 588.132C1249.52 588.979 1246.63 591.376 1244.91 594.84C1244.73 595.218 1244.56 595.616 1244.39 596.02L1244.14 595.957C1244.11 596.02 1244.07 596.065 1244.03 596.109C1243.84 596.385 1243.38 597.024 1243.66 597.853C1243.68 597.91 1243.69 597.959 1243.74 598.009C1243.83 598.243 1243.98 598.436 1244.18 598.592C1244.39 598.778 1244.67 598.909 1245 599.012L1246.4 599.43L1246.84 598.034C1246.9 597.843 1246.97 597.651 1247.03 597.461C1248.24 594.093 1250.69 591.767 1253.8 591.025C1257.01 590.262 1260.44 591.323 1263.13 593.87C1263.27 594.004 1263.41 594.148 1263.56 594.291L1265.7 592.237C1265.06 591.578 1264.38 590.984 1263.67 590.466ZM1245.76 596.374L1245.83 596.162C1245.9 596.191 1246.09 596.296 1246.25 596.497L1245.76 596.374Z" fill="white"/>
<g opacity="0.4">
<path d="M1478.4 998.292C1478.4 999.347 1478.4 1000.38 1478.39 1001.4C1478.39 1001.88 1478.38 1002.37 1478.38 1002.85C1478.37 1004.18 1478.35 1005.48 1478.33 1006.77C1478.32 1007.34 1478.32 1007.91 1478.3 1008.48C1478.28 1009.74 1478.26 1010.99 1478.24 1012.21C1478.2 1013.83 1478.16 1015.4 1478.11 1016.96C1478.05 1019.16 1477.97 1021.3 1477.88 1023.37C1477.85 1024.28 1477.8 1025.18 1477.76 1026.07C1477.71 1027.2 1477.66 1028.3 1477.59 1029.38C1477.57 1029.87 1477.55 1030.35 1477.51 1030.81C1477.47 1031.59 1477.43 1032.35 1477.37 1033.09C1477.33 1033.85 1477.28 1034.59 1477.23 1035.32C1477.17 1036.05 1477.13 1036.77 1477.07 1037.48C1477.02 1038.19 1476.96 1038.89 1476.9 1039.59C1476.89 1039.82 1476.87 1040.05 1476.85 1040.29C1476.74 1041.55 1476.63 1042.77 1476.52 1043.96C1476.52 1043.96 1476.53 1043.96 1476.52 1043.97C1476.41 1045.15 1476.29 1046.32 1476.16 1047.45C1475.9 1049.93 1475.61 1052.27 1475.3 1054.48C1475.22 1055.03 1475.14 1055.57 1475.06 1056.11C1475.03 1056.34 1475 1056.57 1474.96 1056.79C1473.73 1064.93 1472.24 1071.28 1470.57 1076.55C1470.45 1076.95 1470.32 1077.34 1470.2 1077.73C1469.93 1078.52 1469.67 1079.29 1469.4 1080.05C1454.12 1083.73 1438.09 1086.16 1421.7 1087.35C1421.69 1087.35 1421.69 1087.35 1421.68 1087.35C1418.55 1086.84 1415.43 1086.35 1412.3 1085.9C1411.36 1085.75 1410.41 1085.62 1409.45 1085.49C1408.03 1085.28 1406.6 1085.08 1405.19 1084.89C1403.98 1084.72 1402.78 1084.57 1401.57 1084.41C1401.24 1084.37 1400.92 1084.32 1400.59 1084.28C1397.85 1083.93 1395.1 1083.59 1392.36 1083.27C1386.65 1082.61 1380.94 1082.01 1375.2 1081.47C1374.14 1081.37 1373.07 1081.27 1372 1081.17C1353.67 1079.53 1335.28 1078.82 1316.88 1078.79C1291.09 1072.67 1266.29 1063.58 1243.89 1051.58C1244.63 1047.67 1245.32 1043.66 1245.96 1039.54C1246.07 1038.83 1246.18 1038.1 1246.29 1037.38C1246.98 1032.83 1247.6 1028.17 1248.17 1023.42C1248.32 1022.1 1248.48 1020.77 1248.62 1019.44C1248.92 1016.78 1249.19 1014.09 1249.44 1011.37C1249.57 1010.02 1249.69 1008.66 1249.82 1007.29C1250.02 1004.93 1250.22 1002.55 1250.38 1000.16C1250.42 999.79 1250.44 999.414 1250.46 999.049C1250.56 997.731 1250.65 996.411 1250.74 995.091C1250.92 992.243 1251.08 989.372 1251.23 986.502C1251.28 985.383 1251.34 984.274 1251.38 983.154C1251.46 981.458 1251.52 979.752 1251.58 978.056C1251.69 975.229 1251.77 972.402 1251.82 969.565C1251.86 968.147 1251.88 966.727 1251.9 965.32C1251.9 965.133 1251.9 964.944 1251.91 964.755C1251.94 962.106 1251.97 959.458 1251.97 956.82C1271.29 960.932 1292.07 963.37 1311.74 962.638C1348.66 961.264 1366.16 969.621 1394.85 944.904C1415.15 927.426 1401.06 846.038 1405.94 820.767C1411.39 792.559 1446.52 807.29 1450.21 778.65C1452.3 762.434 1455.52 745.964 1458.27 729.849C1458.49 728.562 1458.73 727.244 1458.98 725.913C1462.24 739.491 1464.07 752.803 1464.91 762.512C1467.07 787.561 1468.94 810.591 1470.54 831.762C1476.35 908.803 1478.55 961.408 1478.4 998.292Z" fill="#425B28"/>
</g>
<path d="M1475.4 1051.67C1475.19 1053.47 1475.05 1055.15 1474.97 1056.74V1056.79C1474.51 1064.78 1475.09 1070.66 1472.12 1079.39C1471.22 1079.61 1470.31 1079.85 1469.4 1080.05C1454.12 1083.74 1438.09 1086.16 1421.7 1087.35C1421.69 1087.35 1421.69 1087.35 1421.68 1087.35C1387.26 1089.88 1351.2 1086.96 1316.88 1078.79C1291.1 1072.67 1266.29 1063.58 1243.9 1051.58C1243.48 1051.38 1243.08 1051.16 1242.67 1050.94L1248 1023.17C1248.05 1023.25 1248.11 1023.33 1248.17 1023.42C1267 1050.78 1384.06 1073.41 1475.4 1051.67Z" fill="#7A3920"/>
<path d="M1291.54 1062.04C1291.09 1065.89 1287.61 1068.65 1283.76 1068.2C1279.91 1067.75 1277.15 1064.26 1277.6 1060.41L1279.49 1044.27C1279.94 1040.42 1283.42 1037.66 1287.27 1038.11C1291.12 1038.56 1293.88 1042.04 1293.43 1045.9L1291.54 1062.04Z" fill="#4C2622"/>
<path d="M1395.72 1078.3C1395.27 1082.15 1391.78 1084.9 1387.93 1084.45C1384.08 1084 1381.33 1080.52 1381.78 1076.67L1383.66 1060.52C1384.11 1056.67 1387.6 1053.91 1391.45 1054.36C1395.3 1054.81 1398.05 1058.3 1397.61 1062.15L1395.72 1078.3Z" fill="#4C2622"/>
<path d="M1505.66 861.899C1504.62 840.953 1495.76 837.391 1495.68 818.673L1415.89 817.01C1423.92 840.038 1428.14 872.618 1429.28 896.723C1430.48 922.307 1435.32 953.973 1429.56 978.64C1424.6 999.815 1375.99 1051.42 1349.4 1064.72C1356.98 1075.12 1348.36 1090.2 1355.2 1101.09C1394.58 1086.94 1454.28 1065.36 1484.05 1028.15C1510.64 994.897 1508.38 916.663 1505.66 861.899Z" fill="#FFB278"/>
<path d="M1439.85 678.694C1427.81 670.864 1413.59 672.681 1399.71 690.244C1384.52 709.469 1390.26 752.137 1392.56 767.325C1395.99 789.997 1418.56 866.2 1423 894.334C1423 894.334 1518.22 864.309 1516.84 854.239C1513 826.187 1481.8 705.986 1439.85 678.694Z" fill="#425B28"/>
<path d="M1415.92 868.944L1421.09 901.665C1441.7 899.805 1519.59 869.409 1516.84 854.241C1515.07 844.561 1513.7 832.972 1510.97 823.861C1495.39 831.861 1428.7 868.182 1415.92 868.944Z" fill="#6B8E43"/>
<path d="M1349.39 1064.72C1330.33 1064.64 1298.84 1066.95 1282.54 1075.9C1271.06 1082.21 1241.22 1116.57 1262.95 1114.6C1271.05 1113.86 1281.95 1105.16 1289.55 1102.97C1297.31 1100.73 1308.96 1109.38 1317.85 1111.27C1335.69 1115.06 1364.06 1111.27 1369.34 1089.66L1349.39 1064.72Z" fill="#FFB278"/>
<path d="M1265.2 1112.21C1253.44 1140.4 1291.83 1108.94 1299.55 1102.29L1309.53 1081.23C1289.35 1072.57 1272.12 1095.62 1265.2 1112.21Z" fill="#FFB278"/>
<path d="M1282.93 1114.43C1271.18 1142.62 1309.56 1111.15 1317.29 1104.51L1327.26 1083.45C1307.08 1074.79 1289.85 1097.83 1282.93 1114.43Z" fill="#FFB278"/>
<path d="M1305.1 1113.32C1293.34 1141.51 1331.73 1110.05 1339.45 1103.4L1349.42 1082.34C1329.25 1073.68 1312.02 1096.73 1305.1 1113.32Z" fill="#FFB278"/>
</svg>
