<svg width="486" height="558" viewBox="0 0 486 558" fill="none" xmlns="http://www.w3.org/2000/svg">
<path opacity="0.03" d="M457.024 542.242H19.4006C14.0087 542.242 9.59717 538.003 9.59717 532.823V519.426C9.59717 514.246 14.0087 510.008 19.4006 510.008H457.024C462.416 510.008 466.828 514.246 466.828 519.426V532.823C466.828 538.003 462.416 542.242 457.024 542.242Z" fill="#003D3D"/>
<path d="M339.183 391.168H251.075L312.294 246.149C313.815 242.546 318.366 240.089 323.517 240.089H387.036C394.945 240.089 400.594 245.696 398.259 251.227L339.183 391.168Z" fill="#99A1A9"/>
<path d="M305.834 405.274H190.404C185.779 405.274 182.029 401.671 182.029 397.227V386.603C182.029 382.159 185.779 378.556 190.404 378.556H305.834C310.459 378.556 314.209 382.159 314.209 386.603V397.227C314.208 401.671 310.459 405.274 305.834 405.274Z" fill="#99A1A9"/>
<path d="M342.141 405.274H276.788C272.163 405.274 268.413 401.671 268.413 397.227V386.603C268.413 382.159 272.163 378.556 276.788 378.556H342.141C346.767 378.556 350.517 382.159 350.517 386.603V397.227C350.517 401.671 346.767 405.274 342.141 405.274Z" fill="#C5CBD1"/>
<path d="M337.277 391.671L335.091 391.235C329.95 390.208 326.919 386.326 328.321 382.561L379.471 245.249C380.873 241.486 386.177 239.266 391.318 240.293L393.504 240.729C398.645 241.756 401.676 245.638 400.274 249.402L349.125 386.715C347.723 390.479 342.418 392.698 337.277 391.671Z" fill="#C5CBD1"/>
<path d="M270.45 405.274H261.78V503.467H270.45V405.274Z" fill="#AFB5BA"/>
<path d="M329.791 503.467H203.483V508.272H329.791V503.467Z" fill="#AFB5BA"/>
<path d="M433.662 254.524C434.975 245.397 436.287 236.272 437.6 227.145L425.887 229.021L423.284 254.588C426.743 254.567 430.203 254.545 433.662 254.524Z" fill="#19B251"/>
<path d="M425.887 229.021L444.433 246.838L437.6 227.145L425.887 229.021Z" fill="#0F9146"/>
<path d="M418.078 228.52L423.284 254.086H405.868L418.078 228.52Z" fill="#0F9146"/>
<path d="M411.245 254.086L399.207 226.644C403.648 226.063 408.088 225.482 412.529 224.901C412.101 234.63 411.673 244.358 411.245 254.086Z" fill="#19B251"/>
<path d="M411.245 254.086H423.284L431.743 234.615H418.078L411.245 254.086Z" fill="#0B9848"/>
<path d="M399.207 226.644L385.866 250.97L412.529 224.901L399.207 226.644Z" fill="#0F9146"/>
<path d="M418.078 234.615L430.442 248.681L431.743 234.615H418.078Z" fill="#5CBA47"/>
<path d="M428.49 254.086C432.155 254.041 435.819 253.995 439.484 253.95C437.837 262.594 436.191 271.239 434.544 279.883C431.278 279.883 428.011 279.883 424.745 279.883C425.993 271.284 427.241 262.685 428.49 254.086Z" fill="#FED007"/>
<path d="M399.207 254.086C401.041 262.685 402.877 271.284 404.712 279.884C411.39 279.884 418.067 279.884 424.745 279.884C425.993 271.285 427.241 262.686 428.49 254.086H399.207Z" fill="#FFDC1E"/>
<path d="M457.1 300.533H383.421V315.009H457.1V300.533Z" fill="#79192F"/>
<path d="M448.026 290.421H383.421V300.533H448.026V290.421Z" fill="#DAEDD6"/>
<path d="M454.922 285.195H391.769V290.421H454.922V285.195Z" fill="#859B3B"/>
<path d="M450.567 278.914H387.414V285.259H450.567V278.914Z" fill="#FCEB91"/>
<path d="M454.923 302.755H428.044V312.806H454.923V302.755Z" fill="#E0DDCE"/>
<path d="M393.218 290.421H391.769V300.691H393.218V290.421Z" fill="#D73230"/>
<path d="M398.286 290.421H396.837V300.691H398.286V290.421Z" fill="#D73230"/>
<path d="M466.828 316.978H9.59717V328.539H466.828V316.978Z" fill="#EEF1F4"/>
<path d="M59.5605 328.539H36.3181V519.558H59.5605V328.539Z" fill="#99A1A9"/>
<path d="M445.534 328.539H422.292V519.558H445.534V328.539Z" fill="#99A1A9"/>
<path d="M115.015 328.539H91.7722V519.558H115.015V328.539Z" fill="#99A1A9"/>
<path d="M391.222 328.539H367.979V519.558H391.222V328.539Z" fill="#99A1A9"/>
<path d="M459.405 328.539H17.5144V354.406H459.405V328.539Z" fill="#EEF1F4"/>
<path d="M459.405 328.539H17.5144V337.692H459.405V328.539Z" fill="#B7E3E5"/>
<path d="M115.015 354.406H91.7722V373.098H115.015V354.406Z" fill="#99A1A9"/>
<path d="M391.222 354.406H367.979V373.098H391.222V354.406Z" fill="#99A1A9"/>
<path d="M59.5605 354.406H36.3181V366.743H59.5605V354.406Z" fill="#99A1A9"/>
<path d="M445.534 354.406H422.292V366.743H445.534V354.406Z" fill="#99A1A9"/>
<path d="M466.828 315.009H9.59717V319.386H466.828V315.009Z" fill="#E9ECF1"/>
<path d="M55.4637 229.06C52.7474 216.53 50.0318 204 47.3154 191.47C48.1561 191.297 48.9959 191.124 49.8366 190.952C52.468 203.429 55.0986 215.905 57.73 228.383C56.9743 228.608 56.2186 228.834 55.4637 229.06Z" fill="#DAEDD6"/>
<path d="M47.3153 191.47L46.4837 187.735L45.9666 185.414C46.0817 185.286 46.5572 184.792 47.3472 184.708C47.8831 184.652 48.3014 184.811 48.4877 184.896C48.937 186.914 49.3863 188.933 49.8356 190.952L47.3153 191.47Z" fill="#F9EF66"/>
<path d="M49.4857 188.336L46.5442 188.941L47.6905 194.088L50.632 193.484L49.4857 188.336Z" fill="#AAB696"/>
<path d="M43.6546 189.874C47.6928 202.071 51.7302 214.267 55.7684 226.464C54.9506 226.718 54.1329 226.973 53.3151 227.228C49.3676 215.075 45.42 202.923 41.4717 190.77C42.1996 190.471 42.9275 190.172 43.6546 189.874Z" fill="#D73230"/>
<path d="M43.6546 189.874C42.7388 188.387 41.8229 186.9 40.908 185.413C41.0959 187.198 41.2846 188.985 41.4725 190.77C41.5484 190.817 42.0525 191.117 42.6603 190.943C43.1619 190.799 43.5435 190.386 43.6546 189.874Z" fill="#EBEAA6"/>
<path d="M54.4383 189.044C55.8598 201.77 57.2805 214.496 58.7012 227.221C57.8475 227.314 56.993 227.407 56.1392 227.499C54.797 214.834 53.4555 202.17 52.1133 189.504C52.8886 189.351 53.663 189.197 54.4383 189.044Z" fill="#ACD037"/>
<path d="M54.4383 189.044C53.85 187.412 53.2627 185.779 52.6744 184.146C52.4874 185.932 52.3003 187.718 52.114 189.504C52.1786 189.565 52.6099 189.956 53.2414 189.901C53.7626 189.857 54.2226 189.526 54.4383 189.044Z" fill="#EBEAA6"/>
<path d="M58.6024 190.409C59.1727 203.196 59.7437 215.983 60.3139 228.77C59.4553 228.81 58.5967 228.849 57.7381 228.889C57.2422 216.168 56.7471 203.446 56.2512 190.725C57.0355 190.62 57.819 190.514 58.6024 190.409Z" fill="#35411E"/>
<path d="M58.6023 190.409C58.1244 188.744 57.6465 187.078 57.1686 185.413C56.863 187.183 56.5575 188.954 56.252 190.726C56.3124 190.79 56.7168 191.207 57.3508 191.191C57.8744 191.178 58.3548 190.876 58.6023 190.409Z" fill="#EBEAA6"/>
<path d="M74.033 193.869C70.6892 205.353 67.3454 216.837 64.0024 228.322C63.2304 228.119 62.4576 227.915 61.6855 227.712C65.0759 216.306 68.4663 204.901 71.8566 193.495C72.5821 193.62 73.3076 193.744 74.033 193.869Z" fill="#77489C"/>
<path d="M74.0332 193.869C74.1108 192.261 74.1892 190.653 74.2668 189.044C73.4629 190.528 72.6598 192.012 71.856 193.495C71.8903 193.569 72.1231 194.05 72.6893 194.214C73.1574 194.348 73.6737 194.214 74.0332 193.869Z" fill="#EBEAA6"/>
<path d="M46.6382 208.441H70.2743C68.6984 217.558 67.1225 226.676 65.5474 235.793C63.9176 236.42 60.9741 237.302 57.2749 237.031C54.9834 236.863 53.1158 236.306 51.7956 235.793C50.0768 226.675 48.3579 217.558 46.6382 208.441Z" fill="#83CEC6"/>
<path d="M108.519 282.554H37.4229C38.0797 274.329 38.7357 266.105 39.3925 257.88C38.7357 250.5 38.0797 243.12 37.4229 235.74C61.1219 235.74 84.8202 235.74 108.519 235.74C106.557 245.552 104.595 255.364 102.632 265.176C104.595 270.969 106.557 276.762 108.519 282.554Z" fill="#C9D9E3"/>
<path d="M37.4229 235.74L107.752 239.577L108.519 235.74H37.4229Z" fill="#E1F4FD"/>
<path d="M37.4228 235.74H85.3724L77.6448 258.327C82.1536 266.402 86.6632 274.479 91.172 282.554C72.7529 282.554 54.3346 282.554 35.9155 282.554L37.4228 235.74Z" fill="#E1F4FD"/>
<path d="M103.737 268.493C89.9293 268.228 76.1211 267.963 62.3137 267.697C75.7535 266.858 89.1924 266.017 102.632 265.177C103 266.282 103.368 267.387 103.737 268.493Z" fill="#C9D9E3"/>
<path d="M39.3925 257.881L96.2804 258.544L39.0771 261.836L39.3925 257.881Z" fill="#C9D9E3"/>
<path d="M37.5281 279.418H106.134L107.1 281.845H37.3345L37.5281 279.418Z" fill="#C9D9E3"/>
<path d="M86.2833 283.419H30.5505V297.89H86.2833V283.419Z" fill="#FED007"/>
<path d="M121.933 281.972H30.5505V283.419H121.933V281.972Z" fill="#FFDC1E"/>
<path d="M121.933 296.443H30.5505V297.89H121.933V296.443Z" fill="#E7B61A"/>
<path d="M120.614 283.419H86.2832V296.443H120.614V283.419Z" fill="#C3DAE8"/>
<path d="M44.6095 283.84H42.3499V294.616H44.6095V283.84Z" fill="#252533"/>
<path d="M39.8696 283.759H37.6099V294.534H39.8696V283.759Z" fill="#252533"/>
<path d="M89.19 298.899H27.884V314.818H89.19V298.899Z" fill="#FED007"/>
<path d="M128.404 297.308H27.884V298.899H128.404V297.308Z" fill="#FFDC1E"/>
<path d="M128.404 313.226H27.884V314.818H128.404V313.226Z" fill="#E7B61A"/>
<path d="M126.954 298.899H89.1899V313.225H126.954V298.899Z" fill="#C3DAE8"/>
<path d="M43.3489 300.226H40.8638V312.078H43.3489V300.226Z" fill="#252533"/>
<path d="M38.1343 300.136H35.6492V311.989H38.1343V300.136Z" fill="#252533"/>
<path d="M271.645 59.2273C271.645 59.2273 271.497 54.8658 272.932 55.106C274.368 55.3462 276.587 55.6499 276.326 58.2572C276.065 60.8637 275.055 66.4496 273.994 67.732C272.932 69.0145 271.102 69.3904 271.102 69.3904L271.645 59.2273Z" fill="#FBB78C"/>
<path d="M221.146 56.0989C219.697 56.2426 217.513 56.7614 217.865 59.3585C218.218 61.9556 219.424 67.5053 220.53 68.7524C221.636 69.9996 223.477 70.3159 223.477 70.3159C224.997 70.1785 223.73 55.8439 221.146 56.0989Z" fill="#FBB78C"/>
<path d="M230.053 122.808H263.279V84.9205H230.053V122.808Z" fill="#FBB78C"/>
<path opacity="0.3" d="M230.053 97.1022C230.053 97.1022 241.686 99.7982 246.9 103.434C252.114 107.071 263.278 110.645 263.278 110.645V84.9204H230.052V97.1022H230.053Z" fill="#FBB78C"/>
<path d="M221.594 38.4042C222.315 28.9804 272.083 30.58 272.225 38.4042C272.243 39.3837 271.758 83.8711 268.153 86.5553C266.206 88.6242 256.646 92.5744 255.23 94.2673C253.813 95.9602 246.909 96.1478 246.909 96.1478C246.909 96.1478 240.005 95.9594 238.588 94.2673C237.172 92.5744 227.613 88.6249 225.665 86.5553C223.718 84.4864 221.348 41.6143 221.594 38.4042Z" fill="#FBB78C"/>
<path d="M245.867 77.8277C245.943 77.8779 246.322 78.1628 246.838 78.162C247.253 78.1612 247.556 77.9752 247.664 77.9156C249.446 76.9337 254.061 79.6909 254.507 79.8479C254.508 79.8487 254.512 79.8494 254.512 79.851C254.511 79.9005 251.224 79.8887 246.88 79.851C244.307 79.851 241.734 79.851 239.163 79.851C243.823 77.739 245.402 77.5176 245.867 77.8277Z" fill="#FBB78C"/>
<path d="M256.866 78.6597C256.705 79.0552 256.3 79.242 255.905 79.359C255.506 79.483 255.083 79.5473 254.66 79.5999C254.234 79.6447 253.806 79.6847 253.374 79.7012C252.944 79.7247 252.511 79.7404 252.077 79.7451C251.643 79.7593 251.209 79.76 250.774 79.7624L249.466 79.7702L248.153 79.7804L247.494 79.7977L247.164 79.8056L246.998 79.815L246.915 79.8205L246.872 79.8244L246.861 79.826L246.851 79.8275C246.858 79.833 246.831 79.8118 246.842 79.8628C246.845 79.8652 246.847 79.8652 246.849 79.866C246.862 79.8691 246.867 79.8683 246.874 79.8699L246.881 79.8377L246.864 79.8338L246.866 79.8354C246.875 79.8762 246.854 79.8581 246.861 79.8628C246.859 79.8628 246.859 79.8628 246.861 79.8628H246.871L246.911 79.8644L246.992 79.8699L247.156 79.8825L247.483 79.9076L248.139 79.9547C248.576 79.9845 249.014 80.0096 249.451 80.03C250.327 80.0701 251.205 80.0905 252.082 80.0763C252.959 80.0536 253.838 80.0026 254.704 79.8581C255.136 79.7828 255.566 79.6863 255.973 79.5222C256.175 79.439 256.373 79.3386 256.543 79.2004C256.713 79.0647 256.854 78.8818 256.897 78.6691L256.866 78.6597Z" fill="#E2714A"/>
<path d="M236.918 78.2892C236.923 78.396 236.918 78.5106 236.96 78.6173L236.987 78.6989C236.999 78.7248 237.016 78.7484 237.03 78.7735C237.061 78.8214 237.085 78.8763 237.124 78.9195C237.268 79.1024 237.458 79.2436 237.655 79.3645C238.057 79.5952 238.497 79.7295 238.936 79.8346C239.816 80.0379 240.71 80.1078 241.596 80.1407C242.484 80.1627 243.368 80.1431 244.249 80.0858C244.689 80.0607 245.128 80.0222 245.566 79.9853C246.005 79.9382 246.44 79.9006 246.88 79.8841L246.885 79.8511C246.444 79.8024 246.004 79.8111 245.564 79.8111L244.245 79.8268C243.366 79.837 242.486 79.8417 241.608 79.8111C240.73 79.786 239.851 79.7318 238.988 79.5788C238.559 79.4963 238.128 79.3951 237.737 79.2083C237.544 79.1133 237.357 78.9995 237.209 78.8465C237.066 78.6911 236.972 78.4964 236.954 78.2885L236.918 78.2892Z" fill="#E2714A"/>
<path d="M251.259 82.7848C250.564 83.0909 249.849 83.3319 249.116 83.4889C248.384 83.6427 247.637 83.7228 246.89 83.7031C245.394 83.6796 243.922 83.2848 242.563 82.6177C243.169 83.0666 243.865 83.4104 244.598 83.6482C245.331 83.8899 246.106 84.0139 246.884 84.032C247.661 84.0461 248.441 83.9472 249.183 83.7369C249.926 83.5281 250.634 83.2095 251.259 82.7848Z" fill="#E2714A"/>
<path opacity="0.12" d="M223.448 70.3182C223.881 77.7045 224.371 82.4113 225.484 86.3105C225.701 87.7491 236.523 92.1537 238.518 94.1528C239.667 96.0333 247.021 96.2232 247.021 96.2232L247.023 96.1439C247.945 96.111 254.346 95.8222 255.412 94.0774C257.27 92.2432 267.459 88.0795 268.446 86.2351C270.975 82.6177 271.597 59.3733 271.882 53.7247C272.084 46.3031 272.36 41.4283 272.226 38.8532C272.365 37.4005 271.305 36.3707 269.864 35.6777C265.101 32.5257 246.935 31.9347 246.935 31.9347V32.0053C238.029 31.2197 225.715 33.3835 222.499 36.2593C220.618 36.5756 222.221 55.0488 223.448 70.3182ZM227.759 58.3099C227.759 58.3099 225.044 47.8979 227.763 41.2525C230.482 34.6064 263.542 34.761 266.168 41.1772C268.887 47.8226 266.171 58.2345 266.171 58.2345C266.171 58.2345 267.955 59.1081 267.377 62.118C266.799 65.1271 265.232 66.7573 265.232 66.7573C265.232 66.7573 264.058 83.8978 263.666 84.9197C263.275 85.9424 255.248 90.9576 254.693 92.0862C254.138 93.2149 239.731 93.1646 239.238 92.1616C238.683 91.033 230.656 86.0169 230.264 84.995C229.873 83.9724 228.698 66.8318 228.698 66.8318C228.698 66.8318 227.132 65.2017 226.554 62.1926C225.974 59.1842 227.759 58.3099 227.759 58.3099Z" fill="#FBB78C"/>
<path d="M242.43 74.5171C242.407 74.4535 242.412 74.375 242.443 74.2879C242.788 72.9937 243.135 71.6987 243.48 70.4044C244.409 61.8848 245 57.6356 245.255 57.6536C245.538 57.674 245.407 62.9349 244.862 73.4332C245.098 73.4662 245.38 73.514 245.727 73.5815C246.045 73.6428 247.822 73.6428 248.14 73.5815C249.06 73.4034 249.528 73.361 249.871 73.3681C251.146 73.3963 251.882 74.6293 251.188 74.6686C250.716 74.6952 250.275 74.419 250.303 74.335L250.3 74.3381C250.103 74.2212 249.812 74.0917 249.472 74.1145C249.007 74.1458 248.794 74.4362 248.319 74.6442C248.021 74.7745 245.846 74.7745 245.549 74.6442C245.074 74.437 244.861 74.1458 244.396 74.1145C244.055 74.0917 243.764 74.2212 243.568 74.3381L243.564 74.335C243.593 74.419 243.152 74.6952 242.68 74.6686C242.542 74.6607 242.462 74.605 242.43 74.5218C242.43 74.5202 242.43 74.5187 242.43 74.5171Z" fill="#FBB78C"/>
<path d="M254.628 58.9181C254.856 59.2194 255.213 59.6331 255.737 60.0482C256.192 60.4085 258.177 61.8793 260.955 61.7294C264.767 61.523 266.817 58.4424 266.904 58.3066C266.156 60.5576 263.843 62.2278 261.169 62.4688C258.284 62.7278 255.562 61.2695 254.628 58.9181Z" fill="#402A20"/>
<path d="M240.481 59.035C240.23 59.3184 239.84 59.7037 239.284 60.0789C238.801 60.4038 236.704 61.7224 233.945 61.3645C230.161 60.8739 228.367 57.649 228.292 57.5077C228.855 59.8081 231.026 61.6455 233.671 62.0858C236.528 62.5598 239.36 61.3088 240.481 59.035Z" fill="#402A20"/>
<path d="M250.974 50.8451C251.575 51.6857 252.832 50.7988 256.436 50.4166C257.859 50.2659 257.293 50.4425 261.569 50.2502C263.497 50.1631 263.874 50.1152 264.518 50.3059C266.309 50.8365 267.5 52.4305 268.21 53.6541C268.014 52.0562 267.462 49.3602 265.662 48.0824C264.52 47.2717 263.438 47.431 260.991 47.5016C259.345 47.5495 256.956 47.5613 254.001 47.3643C253.67 47.65 253.34 47.9356 253.01 48.2205C252.864 47.8446 252.718 47.4687 252.571 47.0919C252.175 47.15 251.779 47.2081 251.383 47.2654C250.489 49.536 250.68 50.4346 250.974 50.8451Z" fill="#6B372B"/>
<path d="M242.127 50.8451C241.526 51.6857 240.269 50.7988 236.664 50.4166C235.242 50.2659 235.808 50.4425 231.532 50.2502C229.605 50.1631 229.227 50.1152 228.583 50.3059C226.792 50.8365 225.6 52.4305 224.891 53.6541C225.088 52.0562 225.639 49.3602 227.439 48.0824C228.581 47.2717 229.663 47.431 232.11 47.5016C233.756 47.5495 236.145 47.5613 239.1 47.3643C239.431 47.65 239.761 47.9356 240.091 48.2205C240.237 47.8446 240.383 47.4687 240.53 47.0919C240.926 47.15 241.322 47.2081 241.718 47.2654C242.611 49.536 242.42 50.4346 242.127 50.8451Z" fill="#6B372B"/>
<path opacity="0.3" d="M246.933 89.0142C250.433 88.9075 250.729 91.7102 250.729 91.7102H246.965H246.9H243.135C243.135 91.7102 243.433 88.9075 246.933 89.0142Z" fill="#FBB78C"/>
<path opacity="0.3" d="M249.906 73.3626C249.89 73.3688 249.877 73.3681 249.871 73.3673C249.491 73.3218 248.14 73.5807 248.14 73.5807L247.03 73.6192L247.031 73.6263L246.934 73.6231L246.836 73.6263L246.837 73.6192C246.385 73.6498 246.052 73.6231 245.829 73.591C245.696 73.5713 245.335 73.5125 245.291 73.5054C245.113 73.4756 244.964 73.4505 244.863 73.4332C244.876 73.0502 244.891 72.6672 244.905 72.2842C245.395 72.1398 246.081 71.9922 246.91 71.9773C247.64 71.9647 248.259 72.0597 248.722 72.1657C248.849 70.9797 249.005 70.6383 249.146 70.6297C249.545 70.6054 250.234 73.2276 249.906 73.3626Z" fill="#FBB78C"/>
<path opacity="0.3" d="M265.95 56.0988C265.904 56.1451 265.314 55.4905 264.253 54.9074C262.522 53.9569 260.978 53.9899 260.99 53.9043C261.002 53.8164 262.653 53.6351 264.188 54.4686C265.324 55.0863 266.002 56.0462 265.95 56.0988Z" fill="#FBB78C"/>
<path opacity="0.3" d="M227.974 56.1082C228.02 56.1545 228.61 55.5 229.671 54.9168C231.402 53.9663 232.947 53.9993 232.934 53.9138C232.922 53.8259 231.271 53.6453 229.737 54.4781C228.6 55.0958 227.922 56.0549 227.974 56.1082Z" fill="#FBB78C"/>
<path d="M222.278 60.4022C223.198 72.1311 222.069 79.8196 225.884 87.7498C241.931 102.023 246.334 100.823 247.046 100.447C247.759 100.822 252.161 102.022 268.21 87.7498C272.025 79.8188 270.896 72.1311 271.816 60.4022H269.655C269.655 60.4022 269.07 71.3675 267.492 74.7416C265.915 78.1157 261.722 78.7067 258.683 84.9204C258.683 84.9204 263.156 74.2738 247.046 75.0532C230.937 74.2746 235.41 84.9204 235.41 84.9204C232.371 78.7067 228.178 78.1157 226.6 74.7416C225.023 71.3675 224.438 60.4022 224.438 60.4022H222.278ZM257.203 84.9353C252.719 90.2669 247.045 85.4431 247.045 85.4431C247.045 85.4431 241.373 90.2669 236.889 84.9353C233.047 73.9363 260.589 73.9889 257.203 84.9353Z" fill="#6B372B"/>
<path d="M247.047 28.1524C259.553 25.2359 272.929 36.3165 272.929 36.3165L271.815 60.4023H269.654C273.01 29.2175 249.68 31.6215 247.158 31.9708V32.0045C247.158 32.0045 247.117 31.9975 247.046 31.9873C246.975 31.9983 246.934 32.0045 246.934 32.0045V31.9708C244.412 31.6215 221.083 29.2175 224.439 60.4023H222.278C221.48 54.26 221.302 49.1741 221.302 45.5347C221.302 39.6098 221.772 37.8282 222.498 36.2585C224.885 31.0862 229.806 28.6987 231.442 27.9986C238.857 24.827 245.827 27.6376 247.047 28.1524Z" fill="#986453"/>
<path d="M226.282 33.6669C235.154 39.8563 242.011 40.7502 246.666 40.3978C252.901 39.9254 257.833 37.0159 264.817 38.9812C268.224 39.9395 270.709 41.6615 272.226 42.9039C272.677 42.2156 274.242 39.6907 273.726 36.3174C273.483 34.7304 271.103 31.0102 271.103 31.0102C271.103 31.0102 274.035 32.4276 274.589 34.3756C275.142 36.3244 277.554 28.3534 276.348 26.582C276.348 26.582 273.19 21.7991 263.472 23.7479C264.343 23.3013 265.432 22.868 266.726 22.609C271.201 21.7127 274.929 23.5469 276.248 24.2792C276.035 23.3664 275.595 21.9207 274.6 20.4185C267.99 10.4327 243.766 8.29322 232.531 19.8157C230.73 21.6617 227.245 25.9282 226.282 33.6669Z" fill="#6B372B"/>
<path opacity="0.3" d="M272.225 42.903C272.225 42.903 273.857 40.5594 273.791 38.4379C273.791 38.4379 267.582 28.7073 252.187 33.4894C236.791 38.2715 226.282 33.6668 226.282 33.6668C228.194 35.0976 231.17 37.0283 235.178 38.5376C235.459 38.6436 237.78 39.51 240.141 40.0139C249.701 42.053 254.905 37.0644 263.188 38.5965C265.364 38.9999 268.586 40.0069 272.225 42.903Z" fill="#6B372B"/>
<path opacity="0.3" d="M276.347 26.5811C276.347 26.5811 264.917 18.7875 244.862 29.5926C244.862 29.5926 269.581 23.3852 275.772 33.0429C276.216 31.5234 277.17 27.9538 276.347 26.5811Z" fill="#6B372B"/>
<path d="M114.274 200.408C115.058 198.967 123.561 201.463 126.983 202.647C142.763 208.106 152.938 221.078 151.342 222.796C148.795 225.536 112.539 203.596 114.274 200.408Z" fill="#FBBA83"/>
<path d="M116.927 201.298C114.388 197.235 112.143 196.304 110.566 196.198C108.932 196.089 107.968 196.864 104.872 197.372C102.606 197.743 100.707 197.723 99.5001 197.657C99.4961 197.961 99.5083 199.491 100.724 200.364C101.958 201.249 103.696 200.93 104.243 200.83C105.623 200.577 106.112 199.99 106.586 200.224C106.956 200.406 107.272 201.064 106.748 203.396C104.83 204.669 102.911 205.94 100.993 207.212C99.9364 205.895 98.8801 204.579 97.8238 203.263C98.6963 201.651 100.403 198.266 99.5001 197.657C98.7902 197.177 96.4594 198.758 95.1017 200.371C94.3811 201.228 93.4457 202.34 93.4318 203.839C93.4187 205.258 94.2455 205.426 95.7323 208.666C96.5362 210.418 96.4995 210.815 97.1579 211.454C98.309 212.571 99.9674 212.86 101.158 212.932C101.497 213.227 102.056 213.634 102.852 213.898C104.523 214.451 106.019 213.971 106.46 213.812C106.537 213.896 107.367 214.77 108.671 214.672C109.724 214.592 110.338 213.937 110.451 213.811C110.964 214.322 111.742 214.913 112.741 214.983C114.209 215.086 114.977 213.982 117.275 212.446C120.382 210.371 121.152 210.939 122.584 209.379C122.87 209.068 125.266 206.458 124.064 204.431C123.176 202.935 120.9 202.72 120.542 202.691C119.337 202.226 118.132 201.762 116.927 201.298Z" fill="#FBBA83"/>
<path d="M106.46 213.811C103.378 215.268 101.157 212.932 101.157 212.932C101.157 212.932 98.1919 207.625 98.607 206.389C99.022 205.153 105.531 206.504 105.531 206.504" fill="#FBBA83"/>
<path d="M106.459 213.811C106.058 214.068 105.617 214.307 105.125 214.43C104.639 214.566 104.113 214.613 103.594 214.559C103.076 214.505 102.556 214.378 102.081 214.161C101.599 213.935 101.174 213.686 100.737 213.301L100.706 213.274L100.656 213.191C100.037 212.169 99.4639 211.14 98.9672 210.054C98.709 209.517 98.4811 208.964 98.2883 208.383C98.1878 208.095 98.1012 207.796 98.0285 207.481C98.0016 207.311 97.9501 207.175 97.9468 206.978L97.9337 206.701C97.9313 206.608 97.9591 206.47 97.9795 206.358C97.9942 206.295 97.9967 206.249 98.0261 206.174C98.0628 206.092 98.1069 206.011 98.1568 205.938C98.2613 205.811 98.3839 205.704 98.4942 205.644C98.7221 205.509 98.9198 205.459 99.1044 205.419C99.4729 205.346 99.8038 205.332 100.13 205.341C100.776 205.366 101.392 205.431 101.999 205.544C103.211 205.76 104.389 206.078 105.531 206.504C104.309 206.46 103.102 206.391 101.912 206.365C101.318 206.362 100.726 206.347 100.164 206.402C99.8871 206.431 99.6118 206.464 99.3936 206.526C99.2866 206.556 99.1935 206.599 99.169 206.624C99.1469 206.638 99.1673 206.638 99.1731 206.621C99.1878 206.612 99.1992 206.596 99.2025 206.579C99.2049 206.571 99.209 206.601 99.2098 206.609C99.2164 206.64 99.2017 206.646 99.209 206.696L99.2327 206.853C99.2352 206.948 99.2834 207.091 99.3054 207.207C99.37 207.456 99.4508 207.715 99.5497 207.975C99.74 208.495 99.9704 209.017 100.193 209.543C100.662 210.585 101.153 211.64 101.662 212.672L101.581 212.562C101.818 212.834 102.181 213.13 102.54 213.348C102.908 213.571 103.303 213.76 103.728 213.873C104.152 213.987 104.602 214.061 105.061 214.031C105.524 214.032 105.986 213.927 106.459 213.811Z" fill="#F79A69"/>
<path d="M109.674 206.409C105.915 205.437 104.933 205.916 104.626 206.332C104.243 206.854 104.813 207.417 105.355 209.426C106.068 212.074 105.495 212.864 106.46 213.811C107.119 214.457 108.357 215.057 109.401 214.685C109.953 214.488 110.28 214.08 110.452 213.81" fill="#FBBA83"/>
<path d="M109.674 206.409C108.91 206.363 108.16 206.282 107.421 206.263C106.7 206.231 105.924 206.245 105.388 206.438C105.121 206.54 105.06 206.693 105.096 206.708C105.1 206.817 105.256 207.197 105.397 207.517C105.683 208.197 105.922 208.923 106.109 209.653C106.281 210.386 106.381 211.159 106.423 211.887C106.44 212.249 106.452 212.589 106.52 212.84C106.58 213.092 106.713 213.3 106.924 213.534C107.359 213.976 107.957 214.357 108.596 214.475C109.233 214.62 109.938 214.371 110.453 213.811C110.319 214.154 110.092 214.484 109.755 214.725C109.422 214.972 108.985 215.091 108.556 215.113C107.687 215.124 106.873 214.802 106.203 214.277C105.87 214.018 105.531 213.629 105.387 213.18C105.232 212.739 105.198 212.351 105.145 211.995C105.065 211.283 104.968 210.619 104.79 209.946C104.641 209.267 104.43 208.611 104.194 207.936C104.098 207.575 103.917 207.282 103.913 206.663C103.922 206.33 104.125 205.988 104.353 205.814C104.589 205.62 104.844 205.529 105.076 205.471C106 205.281 106.765 205.462 107.521 205.633C108.267 205.835 108.985 206.085 109.674 206.409Z" fill="#F79A69"/>
<path d="M114.623 208.019C114.802 208.646 115.078 209.276 115.493 209.319C116.251 209.397 117.568 207.54 117.109 206.356C116.323 204.336 110.205 203.863 109.102 205.541C108.661 206.209 109.397 206.643 109.793 209.015C110.244 211.728 109.544 212.733 110.453 213.811C110.86 214.294 111.672 214.885 113.472 215.057" fill="#FBBA83"/>
<path d="M114.623 208.019C114.73 208.266 114.848 208.512 114.997 208.728C115.133 208.94 115.338 209.15 115.502 209.138C115.662 209.128 115.869 208.979 116.028 208.803C116.19 208.624 116.333 208.419 116.44 208.197C116.667 207.766 116.803 207.276 116.759 206.862C116.715 206.46 116.463 206.188 116.069 205.94C115.279 205.464 114.199 205.256 113.179 205.176C112.163 205.119 111.05 205.154 110.236 205.509C109.838 205.66 109.566 205.954 109.631 206.001C109.638 206.114 109.73 206.373 109.821 206.623C109.913 206.88 110.007 207.149 110.08 207.422C110.364 208.518 110.521 209.627 110.486 210.741C110.474 211.293 110.423 211.843 110.399 212.341C110.368 212.845 110.448 213.248 110.732 213.635C111.291 214.424 112.4 214.811 113.472 215.058C112.375 215.082 111.134 214.924 110.222 214.045C109.77 213.616 109.54 212.929 109.511 212.369C109.46 211.799 109.474 211.281 109.429 210.765C109.341 209.745 109.169 208.724 108.848 207.766L108.588 207.044C108.499 206.791 108.375 206.55 108.313 206.132C108.286 205.92 108.313 205.645 108.415 205.423C108.511 205.202 108.647 205.063 108.784 204.913C108.918 204.746 109.072 204.666 109.224 204.561C109.378 204.449 109.53 204.385 109.685 204.322C110.307 204.067 110.917 203.969 111.517 203.926C112.119 203.874 112.713 203.897 113.302 203.954C113.889 204.038 114.472 204.134 115.043 204.322C115.614 204.492 116.18 204.733 116.691 205.125C116.948 205.304 117.191 205.556 117.372 205.85C117.561 206.15 117.658 206.51 117.643 206.841C117.609 207.499 117.348 208.051 117.006 208.53C116.832 208.769 116.624 208.985 116.383 209.173C116.141 209.345 115.855 209.554 115.445 209.495C115.039 209.379 114.923 209.061 114.814 208.816C114.717 208.551 114.666 208.285 114.623 208.019Z" fill="#F79A69"/>
<path d="M120.542 202.69C120.216 202.841 119.772 203.105 119.492 203.565C119.204 204.036 119.294 204.373 119.063 204.993C118.944 205.31 118.721 205.756 118.259 206.243" fill="#FBBA83"/>
<path d="M120.542 202.69C120.325 203.089 120.16 203.389 120.064 203.657C119.965 203.954 119.966 204.077 119.903 204.444C119.841 204.819 119.665 205.271 119.373 205.585C119.092 205.912 118.721 206.158 118.26 206.243C118.303 205.794 118.373 205.449 118.427 205.13L118.569 204.214C118.609 203.869 118.851 203.28 119.243 203.022C119.619 202.726 120.084 202.603 120.542 202.69Z" fill="#F79A69"/>
<path d="M211.917 274.373C203.036 274.691 195.795 274.878 190.337 275.177C190.337 275.177 182.463 275.374 177.588 273.481C177.155 273.313 176.772 273.136 176.399 272.948C172.824 271.152 171.941 270.309 171.038 270.635C170.007 271.008 169.923 272.657 169.918 272.812C169.844 274.761 171.824 275.88 171.912 275.927C171.161 275.455 170.302 275.379 169.74 275.725C169.208 276.052 169.119 276.646 169.104 276.777C168.985 277.817 170.145 278.977 171.978 279.714C170.884 279.061 169.65 279.175 169.119 279.77C168.714 280.223 168.651 281.03 169.034 281.39C169.298 281.638 169.628 281.537 170.433 281.773C170.904 281.911 171.262 282.085 171.482 282.202C170.984 282.632 170.52 282.874 170.185 283.017C169.64 283.249 169.208 283.312 169.064 283.639C168.951 283.894 169.079 284.164 169.137 284.285C169.754 285.543 172.435 285.989 172.385 286.204C172.345 286.375 170.684 285.93 170.126 286.58C169.869 286.879 169.881 287.371 170.104 287.681C170.582 288.344 172.012 288.203 172.577 288.16C174.819 287.991 173.501 288.637 180.226 288.98C187.15 289.332 194.56 288.976 194.657 288.971C194.705 288.969 194.596 288.978 194.658 288.971C200.419 288.282 208.401 287.699 219.02 287.25C213.676 285.157 210.326 281.332 210.619 277.67C210.681 276.884 210.943 275.713 211.917 274.373Z" fill="#FBB78C"/>
<path d="M285.815 229.947C286.725 231.511 287.731 233.102 288.843 234.709C294.664 243.122 301.596 249.355 307.906 253.898C299.207 263.327 290.19 268.034 283.815 270.514C255.679 281.46 219.405 272.203 190.347 248.142C196.26 241.522 202.173 234.901 208.087 228.28C220.776 230.487 236.195 232.192 253.736 232.105C265.581 232.045 276.346 231.178 285.815 229.947Z" fill="#344359"/>
<path d="M217.37 277.347C220.8 291.967 358.013 288.246 363.44 262.915C364.985 255.702 355.736 247.242 349.624 243.522C339.076 237.104 327.473 238.477 306.698 241.223C292.097 243.152 272.808 245.858 249.762 256.6C231.273 265.218 216.175 272.255 217.37 277.347Z" fill="#445268"/>
<path d="M309.937 287.571C290.708 290.43 261.885 292.888 227.681 288.518C190.816 283.807 131.966 269.15 131.471 250.734C131.306 244.591 137.94 238.097 144.229 235.502C153.336 231.744 163.241 235.574 169.549 237.838C187.644 244.332 207.198 246.837 225.81 251.995C249.259 258.493 276.685 266.294 307.401 275.409C308.246 279.463 309.092 283.517 309.937 287.571Z" fill="#536177"/>
<path d="M305.577 274.869C314.418 274.038 321.614 273.289 327.064 272.881C327.064 272.881 334.89 272.06 339.417 269.558C339.819 269.336 340.17 269.111 340.51 268.878C343.767 266.639 344.508 265.691 345.454 265.897C346.533 266.133 346.874 267.755 346.904 267.908C347.284 269.827 345.499 271.189 345.42 271.247C346.089 270.684 346.927 270.497 347.538 270.768C348.117 271.023 348.297 271.6 348.333 271.728C348.614 272.742 347.648 274.038 345.949 275.006C346.93 274.219 348.169 274.172 348.788 274.693C349.26 275.089 349.449 275.88 349.127 276.285C348.904 276.565 348.563 276.507 347.803 276.845C347.359 277.043 347.031 277.26 346.833 277.405C347.394 277.766 347.891 277.946 348.245 278.044C348.821 278.204 349.258 278.21 349.453 278.515C349.605 278.754 349.52 279.037 349.481 279.163C349.068 280.489 346.485 281.276 346.569 281.482C346.636 281.646 348.209 280.991 348.864 281.562C349.165 281.826 349.23 282.314 349.058 282.649C348.689 283.367 347.252 283.412 346.686 283.442C344.441 283.564 345.846 284.033 339.243 285.24C332.4 286.49 324.956 287.092 324.956 287.092C320.82 287.427 315.458 287.718 309.142 287.687C309.305 285.358 309.17 281.796 307.382 277.963C306.831 276.785 306.205 275.755 305.577 274.869Z" fill="#FBB78C"/>
<path opacity="0.3" d="M307.266 287.955C271.533 289.81 242.445 286.981 222.134 283.865C222.134 283.865 170.271 275.909 148.835 259.179C148.717 259.086 147.966 258.485 146.85 257.807C143.705 255.899 141.034 255.44 139.839 255.037C137.657 254.301 135.022 251.938 133.377 244.532C132.345 246.141 131.392 248.265 131.471 250.732C131.937 265.264 167.696 275.473 182.454 279.686C193.976 282.976 203.093 284.568 210.836 285.92C233.161 289.817 250.242 290.549 253.927 290.691C267.668 291.225 285.918 290.969 307.266 287.955Z" fill="#536177"/>
<path d="M211.925 223.505C217.022 226.398 223.775 229.438 232.071 231.273C255.549 236.468 275.231 228.444 282.676 224.934C283.925 227.14 285.173 229.345 286.421 231.551C280.153 234.55 270.525 238.196 258.262 239.319C233.57 241.58 214.806 232.091 208.087 228.279L211.925 223.505Z" fill="#121B24"/>
<path opacity="0.3" d="M168.778 253.499C179.276 261.2 275.096 276.32 275.962 270.567C276.889 264.408 138.068 230.972 168.778 253.499Z" fill="#536177"/>
<path d="M381.836 199.928C381.354 199.19 379.417 198.832 372.353 201.251C371.774 201.4 369.72 202.002 368.615 203.878C367.24 206.213 367.86 209.628 369.547 210.346C370.179 210.614 371.137 210.579 373.641 208.973C377.592 206.436 382.913 201.576 381.836 199.928Z" fill="#FBBA83"/>
<path d="M379.182 200.818C381.722 196.755 383.967 195.823 385.544 195.718C387.178 195.609 388.142 196.384 391.237 196.892C393.504 197.263 395.403 197.243 396.61 197.176C396.614 197.481 396.602 199.011 395.386 199.883C394.152 200.769 392.414 200.45 391.866 200.35C390.487 200.097 389.998 199.51 389.523 199.744C389.154 199.926 388.838 200.583 389.362 202.916C391.28 204.188 393.199 205.46 395.117 206.732C396.173 205.415 397.23 204.099 398.286 202.783C397.414 201.171 395.708 197.786 396.61 197.176C397.32 196.697 399.65 198.278 401.008 199.891C401.729 200.748 402.664 201.86 402.678 203.359C402.691 204.778 401.864 204.946 400.377 208.186C399.574 209.938 399.61 210.335 398.952 210.975C397.801 212.092 396.142 212.381 394.952 212.452C394.613 212.748 394.054 213.155 393.258 213.418C391.587 213.972 390.091 213.491 389.65 213.333C389.572 213.417 388.742 214.29 387.439 214.192C386.386 214.113 385.772 213.458 385.658 213.332C385.145 213.842 384.368 214.434 383.369 214.504C381.9 214.607 381.133 213.502 378.834 211.966C375.727 209.891 374.958 210.459 373.526 208.9C373.24 208.588 370.844 205.979 372.046 203.951C372.934 202.455 375.21 202.24 375.568 202.211C376.772 201.746 377.977 201.282 379.182 200.818Z" fill="#FBBA83"/>
<path d="M389.649 213.331C392.731 214.788 394.951 212.451 394.951 212.451C394.951 212.451 397.917 207.145 397.502 205.909C397.086 204.673 390.577 206.023 390.577 206.023" fill="#FBBA83"/>
<path d="M389.649 213.331C390.051 213.588 390.491 213.827 390.983 213.95C391.469 214.085 391.995 214.132 392.514 214.078C393.033 214.025 393.553 213.898 394.028 213.68C394.51 213.454 394.935 213.206 395.372 212.821L395.403 212.793L395.453 212.71C396.071 211.688 396.645 210.659 397.141 209.574C397.4 209.036 397.628 208.484 397.82 207.902C397.921 207.615 398.007 207.316 398.08 207C398.107 206.831 398.159 206.694 398.162 206.498L398.175 206.222C398.177 206.128 398.15 205.99 398.129 205.878C398.114 205.815 398.112 205.77 398.083 205.694C398.046 205.613 398.002 205.532 397.952 205.458C397.847 205.332 397.725 205.224 397.614 205.165C397.387 205.03 397.189 204.979 397.004 204.939C396.636 204.866 396.305 204.852 395.979 204.862C395.333 204.886 394.717 204.952 394.11 205.065C392.897 205.281 391.72 205.599 390.577 206.024C391.799 205.98 393.007 205.911 394.197 205.885C394.791 205.883 395.383 205.867 395.945 205.922C396.222 205.952 396.497 205.984 396.715 206.047C396.822 206.077 396.915 206.119 396.94 206.145C396.962 206.158 396.941 206.158 396.936 206.142C396.921 206.132 396.909 206.117 396.906 206.099C396.904 206.092 396.9 206.121 396.899 206.129C396.892 206.161 396.907 206.166 396.9 206.216L396.876 206.373C396.874 206.469 396.825 206.611 396.803 206.727C396.739 206.976 396.658 207.236 396.559 207.496C396.369 208.015 396.138 208.537 395.914 209.063C395.446 210.105 394.954 211.161 394.446 212.192L394.527 212.082C394.289 212.355 393.927 212.651 393.568 212.869C393.2 213.092 392.805 213.281 392.379 213.393C391.957 213.508 391.506 213.582 391.047 213.552C390.585 213.552 390.123 213.446 389.649 213.331Z" fill="#F79A69"/>
<path d="M386.435 205.929C390.194 204.957 391.176 205.435 391.483 205.852C391.866 206.373 391.296 206.937 390.755 208.946C390.041 211.594 390.615 212.384 389.65 213.331C388.992 213.977 387.752 214.577 386.709 214.205C386.158 214.008 385.83 213.6 385.658 213.33" fill="#FBBA83"/>
<path d="M386.435 205.929C387.2 205.883 387.949 205.802 388.688 205.782C389.41 205.751 390.185 205.765 390.722 205.957C390.988 206.06 391.049 206.212 391.014 206.227C391.009 206.337 390.853 206.717 390.713 207.037C390.427 207.717 390.188 208.443 390.001 209.173C389.829 209.906 389.728 210.679 389.687 211.407C389.67 211.768 389.657 212.109 389.59 212.36C389.529 212.612 389.397 212.819 389.186 213.054C388.751 213.496 388.153 213.877 387.514 213.995C386.876 214.14 386.171 213.891 385.657 213.33C385.791 213.673 386.018 214.004 386.354 214.245C386.688 214.492 387.125 214.61 387.554 214.633C388.423 214.644 389.237 214.322 389.907 213.797C390.24 213.538 390.579 213.149 390.723 212.699C390.878 212.259 390.911 211.87 390.964 211.515C391.044 210.802 391.141 210.138 391.319 209.466C391.468 208.787 391.679 208.131 391.915 207.456C392.011 207.095 392.192 206.802 392.196 206.183C392.187 205.85 391.984 205.508 391.756 205.333C391.52 205.14 391.265 205.049 391.033 204.99C390.108 204.801 389.344 204.982 388.588 205.153C387.841 205.355 387.124 205.606 386.435 205.929Z" fill="#F79A69"/>
<path d="M381.486 207.539C381.306 208.166 381.031 208.796 380.615 208.839C379.858 208.918 378.54 207.061 379 205.876C379.785 203.856 385.903 203.384 387.008 205.061C387.448 205.73 386.712 206.164 386.317 208.535C385.865 211.248 386.566 212.253 385.657 213.331C385.248 213.814 384.438 214.405 382.637 214.577" fill="#FBBA83"/>
<path d="M381.486 207.539C381.378 207.787 381.261 208.032 381.112 208.248C380.976 208.46 380.771 208.67 380.606 208.659C380.447 208.648 380.24 208.499 380.081 208.324C379.919 208.145 379.776 207.939 379.669 207.718C379.441 207.286 379.306 206.796 379.35 206.382C379.395 205.981 379.646 205.708 380.039 205.46C380.829 204.984 381.911 204.777 382.93 204.696C383.946 204.639 385.059 204.674 385.873 205.029C386.271 205.179 386.542 205.474 386.478 205.52C386.471 205.633 386.379 205.892 386.288 206.142C386.196 206.399 386.102 206.668 386.029 206.941C385.745 208.038 385.588 209.147 385.623 210.261C385.635 210.812 385.686 211.363 385.71 211.86C385.741 212.365 385.661 212.767 385.377 213.154C384.818 213.944 383.708 214.331 382.637 214.577C383.734 214.602 384.975 214.443 385.887 213.564C386.339 213.136 386.569 212.449 386.598 211.888C386.649 211.319 386.635 210.801 386.68 210.285C386.768 209.265 386.939 208.244 387.261 207.286L387.521 206.563C387.61 206.31 387.733 206.069 387.796 205.651C387.823 205.44 387.796 205.165 387.693 204.942C387.598 204.721 387.461 204.582 387.325 204.431C387.191 204.265 387.037 204.185 386.885 204.079C386.731 203.968 386.578 203.903 386.424 203.84C385.802 203.585 385.192 203.486 384.591 203.443C383.989 203.391 383.396 203.414 382.806 203.472C382.22 203.556 381.637 203.652 381.066 203.84C380.494 204.011 379.929 204.251 379.418 204.643C379.161 204.823 378.918 205.073 378.737 205.368C378.547 205.668 378.45 206.028 378.466 206.359C378.499 207.018 378.761 207.569 379.103 208.048C379.277 208.287 379.486 208.503 379.726 208.691C379.968 208.863 380.253 209.072 380.664 209.013C381.07 208.897 381.186 208.579 381.295 208.335C381.392 208.071 381.443 207.805 381.486 207.539Z" fill="#F79A69"/>
<path d="M375.566 202.21C375.892 202.36 376.337 202.625 376.617 203.084C376.905 203.555 376.815 203.892 377.046 204.512C377.164 204.829 377.387 205.275 377.85 205.763" fill="#FBBA83"/>
<path d="M375.566 202.21C375.784 202.608 375.949 202.909 376.045 203.176C376.145 203.474 376.144 203.596 376.206 203.964C376.268 204.338 376.445 204.79 376.736 205.104C377.017 205.431 377.389 205.678 377.851 205.763C377.808 205.314 377.738 204.968 377.683 204.65L377.541 203.734C377.501 203.388 377.259 202.8 376.867 202.542C376.49 202.246 376.025 202.122 375.566 202.21Z" fill="#F79A69"/>
<path d="M372.353 201.251C372.353 201.251 322.317 204.639 319.003 202.256C319.003 202.256 308.509 119.221 294.149 117.629C279.79 116.038 216.437 116.444 202.077 118.036C187.717 119.628 177.223 202.662 177.223 202.662C173.909 205.045 123.872 201.657 123.872 201.657C129.383 203.034 122.585 209.379 122.585 209.379C134.605 222.56 182.193 234.77 190.347 232.866C198.501 230.962 208.087 170.566 208.087 170.566C210.784 174.812 211.925 184.697 211.925 184.697V223.506C217.292 226.778 231.904 234.713 251.854 233.775C266.375 233.092 277.174 228.017 282.677 224.936C283.219 211.388 283.76 197.839 284.301 184.291C284.301 184.291 285.442 174.405 288.139 170.16C288.139 170.16 297.725 230.556 305.879 232.46C314.033 234.364 361.621 222.154 373.641 208.973C373.641 208.973 366.842 202.627 372.353 201.251Z" fill="#19AEB3"/>
<path d="M230.053 105.433L221.636 117.045L241.083 125.829L247.046 117.074L253.511 125.829L270.498 116.712L263.278 106.428C263.278 106.428 243.048 113.791 230.053 105.433Z" fill="#00878B"/>
<path d="M247.046 117.074L241.083 125.829L247.254 136.474L253.51 125.829L247.046 117.074Z" fill="#344359"/>
<path d="M247.254 136.474L241.083 214.86L247.297 223.032L253.51 214.86L247.254 136.474Z" fill="#344359"/>
<path d="M256.23 241.393H239.997V232.5H256.23V241.393ZM242.447 239.038H253.778V234.854H242.447V239.038Z" fill="white"/>
<path d="M284.509 311.551L295.129 255.362H375.989L361.328 311.551V315.028H247.316V311.551H284.509Z" fill="#838C9B"/>
<path d="M322.429 284.683C322.429 285.361 327.065 285.91 332.785 285.91C338.504 285.91 343.141 285.361 343.141 284.683C343.141 284.006 338.504 283.457 332.785 283.457C327.065 283.457 322.429 284.006 322.429 284.683Z" fill="#E1F4FD"/>
<path d="M295.129 255.362H293.693L284.509 311.551L295.129 255.362Z" fill="#E1F4FD"/>
<path d="M203.483 522.474C207.619 522.474 210.972 519.253 210.972 515.279C210.972 511.306 207.619 508.084 203.483 508.084C199.347 508.084 195.994 511.306 195.994 515.279C195.994 519.253 199.347 522.474 203.483 522.474Z" fill="#AFB5BA"/>
<path d="M266.115 522.474C270.251 522.474 273.604 519.253 273.604 515.279C273.604 511.306 270.251 508.084 266.115 508.084C261.979 508.084 258.626 511.306 258.626 515.279C258.626 519.253 261.979 522.474 266.115 522.474Z" fill="#AFB5BA"/>
<path d="M329.792 522.474C333.928 522.474 337.281 519.253 337.281 515.279C337.281 511.306 333.928 508.084 329.792 508.084C325.655 508.084 322.302 511.306 322.302 515.279C322.302 519.253 325.655 522.474 329.792 522.474Z" fill="#AFB5BA"/>
</svg>
