<svg width="519" height="528" viewBox="0 0 519 528" fill="none" xmlns="http://www.w3.org/2000/svg">
<g clip-path="url(#clip0_94_537)">
<g opacity="0.3">
<path d="M13.4463 380.578C16.537 390.863 20.0253 400.497 23.78 409.303C23.9272 409.274 24.0744 409.244 24.2316 409.225C24.693 409.137 25.1642 409.068 25.6355 408.999H25.6551C178.04 409.296 216.635 409.369 248.717 409.431C262.446 409.457 467.811 409.846 481.519 409.872C484.633 410.636 488.259 411.945 490.276 412.923C491.307 413.394 492.288 413.904 493.201 414.444C496.689 403.584 499 392.16 500.251 380.578H13.4463Z" fill="#0DB3B8"/>
</g>
<g opacity="0.2">
<path d="M489.096 434.126C489.493 434.239 489.881 434.379 490.25 434.561C498.701 436.589 504.127 439.738 504.127 443.274C504.127 449.405 487.905 454.364 467.903 454.364C466.503 454.364 465.123 454.336 463.762 454.287C466.891 455.542 468.687 457.064 468.687 458.72C468.687 461.729 462.826 464.542 453.827 466.366C443.451 468.493 430.292 469.011 419.786 468.183C397.335 472.071 364.882 472.003 342.9 468.129C342.037 467.977 341.142 468.059 340.344 468.345C338.98 468.833 337.529 469.293 336.14 469.697C333.612 470.433 332.98 472.789 334.832 474.263C335.795 475.03 336.306 475.831 336.306 476.657C336.306 482.219 313.042 486.736 284.342 486.736C268.29 486.736 253.931 485.32 244.402 483.103C233.456 486.323 217.811 488.539 200.464 488.939C170.47 489.613 145.627 484.618 141.165 477.485C140.226 475.992 140.253 474.395 141.051 473.03C135.796 473.521 130.256 473.851 124.546 473.977C101.812 474.489 82.0355 471.753 71.8546 467.299C67.7992 465.524 61.5696 461.336 66.1261 456.644C69.4343 453.241 75.758 453.706 77.5548 448.563C79.1619 443.491 73.3104 438.82 66.4191 439.352C64.604 439.493 62.7417 439.563 60.8322 439.563C42.1435 439.563 26.9995 432.618 26.9995 424.061C26.9995 416.786 37.9462 410.663 52.7215 409H52.7404C76.8905 409.037 468.776 409.632 491.687 409.667C492.727 409.87 493.748 410.101 494.712 410.34C504.524 412.76 511 416.927 511 421.669C511 426.838 503.267 431.335 491.885 433.608C490.267 434.079 489.801 433.967 489.096 434.126Z" fill="#0DB3B8"/>
</g>
<g opacity="0.19">
<path d="M422.271 401.394L183.195 399.15C141.832 399.258 101.202 375.276 76.4395 338.15C51.678 301.027 42.802 251.88 51.0114 206.831C59.2208 161.781 83.9486 121.267 117.422 94.5399C138.05 78.0677 162.165 66.5495 187.479 63.4369C212.792 60.3243 239.288 65.9372 260.961 81.0874C298.703 107.471 319.066 159.569 359.518 180.316C378.359 189.98 399.548 191.663 419.561 197.637C458.955 209.396 496.349 243.212 501.489 288.202C505.26 321.216 495.597 345.805 475.675 371.813C459.197 393.324 446.145 403.829 422.271 401.394Z" fill="#1EA3A7"/>
</g>
<path d="M495.797 408.769H55.1867C53.9989 408.769 53.0356 407.805 53.0356 406.615C53.0356 405.426 53.9989 404.461 55.1867 404.461H495.797C496.985 404.461 497.948 405.425 497.948 406.615C497.949 407.805 496.986 408.769 495.797 408.769Z" fill="#25B4B9"/>
<path d="M433.981 315.351C444.426 316.198 453.678 315.98 463.923 315.952C471.8 315.93 480.745 315.163 487.917 311.901C496.147 308.156 502.137 300.538 505.66 292.206C509.182 283.873 510.501 274.793 511.531 265.803C513.154 251.641 514.138 237.33 512.814 223.137C510.629 225.473 510.37 228.958 510.161 232.15C509.403 243.74 507.77 255.271 505.28 266.614C503.726 273.692 502.501 281.113 498.943 287.424C495.881 292.857 492.728 296.903 488.26 301.254C486.525 302.944 482.984 304.938 480.886 306.147C478.599 307.466 476.033 308.21 473.474 308.86C462.245 311.713 450.608 312.956 439.029 312.54C437.78 312.496 436.501 312.435 435.31 312.818C434.12 313.201 433.02 314.134 432.824 315.37" fill="#1EA3A7"/>
<path d="M436.452 401.969C436.452 403.702 435.049 405.106 433.318 405.106C431.587 405.106 430.185 403.702 430.185 401.969C430.185 400.237 431.587 398.833 433.318 398.833C435.049 398.833 436.452 400.237 436.452 401.969Z" fill="#1EA3A7"/>
<path d="M473.056 402.398C473.056 404.131 471.653 405.535 469.922 405.535C468.191 405.535 466.789 404.131 466.789 402.398C466.789 400.666 468.191 399.262 469.922 399.262C471.653 399.262 473.056 400.666 473.056 402.398Z" fill="#1EA3A7"/>
<path d="M509.659 401.969C509.659 403.702 508.256 405.106 506.526 405.106C504.795 405.106 503.392 403.702 503.392 401.969C503.392 400.237 504.795 398.833 506.526 398.833C508.256 398.833 509.659 400.237 509.659 401.969Z" fill="#1EA3A7"/>
<path d="M507.431 399.939C502.303 392.72 496.295 386.983 489.236 382.642C486.043 380.678 482.78 379.003 479.391 377.586C477.04 376.604 474.583 375.519 472.107 374.931C472.11 374.871 472.121 374.817 472.121 374.753C472.121 354.997 472.121 335.24 472.121 315.484C472.121 312.807 468.622 312.802 468.622 315.484C468.622 335.24 468.622 354.997 468.622 374.753C468.622 374.8 468.631 374.839 468.633 374.884C466.087 375.456 463.56 376.576 461.145 377.586C457.754 379.003 454.492 380.678 451.3 382.642C444.24 386.983 438.233 392.72 433.104 399.939C431.901 401.633 433.952 404.095 435.164 402.389C440.146 395.376 445.911 389.852 452.77 385.633C455.817 383.759 458.916 382.173 462.152 380.831C464.289 379.945 466.512 378.971 468.757 378.381C468.705 386.807 468.654 395.233 468.602 403.659C468.59 405.687 471.738 405.69 471.751 403.659C471.803 395.244 471.854 386.827 471.906 378.411C474.108 379.005 476.287 379.961 478.383 380.831C481.62 382.173 484.72 383.76 487.766 385.633C494.626 389.851 500.39 395.376 505.372 402.389C506.583 404.095 508.635 401.632 507.431 399.939Z" fill="#1EA3A7"/>
<path d="M78.7506 357.733C84.2669 352.758 86.9608 343.771 85.2734 336.535C83.5848 329.298 78.7434 323.08 72.8427 318.57C68.262 315.069 62.5259 312.397 56.8582 313.448C55.2296 313.749 53.6574 314.355 52.2462 315.223C50.5528 316.267 49.0647 317.733 48.2924 319.567C47.0109 322.617 47.9045 326.217 49.6856 329.005C50.4195 330.153 51.307 331.234 51.731 332.528C52.2486 334.113 52.0144 335.83 52.0889 337.495C52.2787 341.733 54.5306 345.677 57.5284 348.674C60.5273 351.672 62.3493 352.803 66.0821 354.811C68.9334 356.347 75.5246 357.986 78.7506 357.733Z" fill="#1EA3A7"/>
<g opacity="0.55">
<path d="M85.2734 336.535C84.5576 333.466 83.2701 330.583 81.5802 327.934C81.3436 329.584 81.0374 331.223 80.6891 332.831C79.9504 336.243 79.237 340.014 77.9147 343.252C76.6296 346.397 73.9044 347.06 70.9511 345.892C69.266 345.226 67.7624 344.243 66.0137 343.757C64.1905 343.251 62.9606 342.775 61.6407 341.329C59.3215 338.788 58.2742 335.566 57.5176 332.278C56.6444 328.482 55.4722 325.105 53.9337 321.527C53.1362 319.672 52.1009 317.624 51.743 315.555C50.2609 316.569 48.9854 317.918 48.2924 319.569C47.0109 322.618 47.9045 326.219 49.6856 329.006C50.4195 330.154 51.307 331.235 51.731 332.53C52.2486 334.114 52.0144 335.832 52.0889 337.497C52.2787 341.734 54.5306 345.678 57.5284 348.675C60.5273 351.673 62.3493 352.804 66.0821 354.813C68.9334 356.347 75.5246 357.986 78.7506 357.733C84.2669 352.758 86.9608 343.771 85.2734 336.535Z" fill="#25B4B9"/>
</g>
<path d="M80.6864 378.043C81.078 371.226 80.4258 364.352 78.7504 357.733C78.3672 356.219 77.9169 354.724 77.4292 353.242C77.3368 352.943 77.2383 352.648 77.1422 352.351C77.1278 352.309 77.1158 352.265 77.1014 352.223C77.1002 352.221 77.099 352.221 77.099 352.219C76.4936 350.371 75.8283 348.544 75.0908 346.745C74.4002 345.06 73.6496 343.4 72.8485 341.765C72.8869 341.733 72.9134 341.685 72.917 341.621C73.013 339.594 72.7836 337.565 72.2408 335.611C72.1699 335.356 71.7748 335.463 71.8456 335.718C72.3321 337.468 72.547 339.272 72.5122 341.085C71.113 338.296 69.5577 335.585 67.8474 332.976C65.001 328.63 61.739 324.56 58.1154 320.838C57.9317 320.648 57.6398 320.937 57.8236 321.127C59.8485 323.207 61.763 325.395 63.5513 327.682C64.5446 328.951 65.4934 330.253 66.4086 331.579C65.2664 331.34 64.1086 331.184 62.9424 331.128C62.6782 331.115 62.677 331.525 62.94 331.538C64.2227 331.6 65.4946 331.777 66.7449 332.068C68.6377 334.856 70.3588 337.76 71.8925 340.76C73.0455 343.015 74.0892 345.325 75.0236 347.677C72.7524 346.846 70.4609 346.017 68.3218 344.883C68.0888 344.76 67.8798 345.113 68.1128 345.237C70.3804 346.438 72.8173 347.304 75.2217 348.186C75.737 349.507 76.2126 350.842 76.6582 352.188C76.6017 352.259 79.9874 362.2 80.2288 372.327C80.2745 374.222 80.2517 376.116 80.1424 378.008C80.1207 378.357 80.666 378.396 80.6864 378.043Z" fill="#04137A"/>
<path d="M91.5066 354.79C84.6247 341.819 84.2836 325.67 90.2107 312.236C93.4787 304.827 98.8509 297.992 106.288 294.802C108.857 293.701 111.66 293.054 114.448 293.249C117.236 293.444 120.007 294.528 121.978 296.511C125.657 300.214 125.88 306.097 125.175 311.271C123.814 321.255 119.838 330.839 113.939 339.005C108.042 347.172 100.305 349.894 91.5066 354.79Z" fill="#25B4B9"/>
<path d="M86.514 325.343C86.9235 327.989 87.7882 330.595 89.1947 333.137C93.0199 340.047 99.0227 335.672 104.06 332.808C110.018 329.422 115.492 325.877 118.47 319.448C121.827 312.201 121.512 303.889 121.496 296.075C121.659 296.218 121.825 296.358 121.978 296.511C125.657 300.214 125.88 306.097 125.175 311.271C123.814 321.255 119.838 330.839 113.94 339.005C108.041 347.171 100.304 349.893 91.5054 354.79C86.759 345.843 85.1256 335.382 86.514 325.343Z" fill="#78ADF9"/>
<path d="M91.1537 377.459C90.0764 368.551 90.361 359.484 92.0088 350.663C92.386 348.646 92.8532 346.649 93.3684 344.663C93.4657 344.266 93.569 343.869 93.6711 343.472C93.6867 343.416 93.6987 343.358 93.7143 343.301C93.7143 343.299 93.7167 343.298 93.7179 343.295C94.3581 340.823 95.0787 338.372 95.8966 335.952C96.6628 333.685 97.5096 331.445 98.4247 329.233C98.3719 329.194 98.3335 329.134 98.3239 329.051C98.0296 326.401 98.1617 323.721 98.713 321.112C98.7851 320.773 99.3123 320.879 99.2402 321.219C98.7466 323.554 98.6157 325.939 98.8103 328.313C100.415 324.539 102.23 320.856 104.256 317.291C107.628 311.356 111.568 305.747 116.011 300.566C116.237 300.303 116.643 300.656 116.417 300.919C113.934 303.815 111.606 306.843 109.449 309.992C108.253 311.738 107.115 313.525 106.025 315.34C107.502 314.931 109.008 314.632 110.532 314.46C110.877 314.421 110.913 314.959 110.57 314.997C108.893 315.186 107.24 315.524 105.624 316.008C103.373 319.821 101.355 323.772 99.5934 327.834C98.2686 330.886 97.0916 334.002 96.0611 337.165C98.97 335.887 101.908 334.609 104.618 332.945C104.914 332.764 105.217 333.21 104.921 333.391C102.047 335.155 98.9232 336.493 95.8425 337.848C95.2768 339.623 94.7628 341.414 94.2908 343.217C94.3713 343.306 90.755 356.622 91.2786 369.923C91.3759 372.41 91.5633 374.894 91.8623 377.365C91.92 377.822 91.2089 377.919 91.1537 377.459Z" fill="#04137A"/>
<path d="M104.383 375.721C104.495 375.144 104.053 374.606 103.464 374.606H68.0805C67.4896 374.606 67.0476 375.147 67.1629 375.727L68.1622 380.724C68.3075 381.448 68.944 381.971 69.6827 381.971H101.697C102.556 381.971 103.295 381.362 103.458 380.517L104.383 375.721Z" fill="#FEBD9F"/>
<path d="M69.9663 381.641L74.3633 403.638C74.4426 404.036 74.7921 404.323 75.198 404.323H96.5343C96.9427 404.323 97.2934 404.033 97.3703 403.632L101.616 381.641H69.9663Z" fill="#FEBD9F"/>
<path d="M97.6981 401.942L101.617 381.641H69.9663L70.1429 382.523C80.5462 386.562 93.6026 390.875 97.6981 401.942Z" fill="#F2A486"/>
<path d="M408.604 253.117C425.377 303.09 442.728 352.852 460.657 402.401C461.572 404.929 465.555 403.835 464.629 401.277C446.7 351.728 429.348 301.967 412.576 251.993C411.717 249.437 407.737 250.535 408.604 253.117Z" fill="#A3C9EC"/>
<path d="M486.366 253.985H95.2492C94.31 253.985 93.5474 253.223 93.5474 252.282V249.963C93.5474 249.023 94.3088 248.26 95.2492 248.26H486.365C487.305 248.26 488.067 249.022 488.067 249.963V252.282C488.067 253.223 487.306 253.985 486.366 253.985Z" fill="#1EA3A7"/>
<path d="M174.91 253.117C158.138 303.09 140.787 352.852 122.858 402.401C121.942 404.929 117.96 403.835 118.886 401.277C136.815 351.728 154.166 301.967 170.938 251.993C171.797 249.437 175.777 250.535 174.91 253.117Z" fill="#1EA3A7"/>
<path d="M299.751 232.3H210.781C209.263 232.3 208.033 231.069 208.033 229.549V169.093C208.033 167.573 209.263 166.342 210.781 166.342H299.751C301.269 166.342 302.499 167.573 302.499 169.093V229.549C302.499 231.069 301.268 232.3 299.751 232.3Z" fill="#1EA3A7"/>
<path opacity="0.17" d="M248.411 166.342C239.16 183.025 221.034 216.094 213.596 232.3H258.839L277.164 166.342H248.411Z" fill="white"/>
<path d="M271.55 207.036H241.266V248.261H271.55V207.036Z" fill="#8CB8ED"/>
<path d="M258.805 194.342C258.805 196.298 257.22 197.884 255.266 197.884C253.312 197.884 251.728 196.298 251.728 194.342C251.728 192.387 253.312 190.801 255.266 190.801C257.22 190.801 258.805 192.387 258.805 194.342Z" fill="#8CB8ED"/>
<path d="M424.177 200.985C429.693 196.011 432.387 187.024 430.7 179.788C429.011 172.551 424.17 166.333 418.269 161.822C413.688 158.322 407.952 155.65 402.284 156.7C400.656 157.002 399.084 157.608 397.672 158.476C395.979 159.519 394.491 160.986 393.719 162.82C392.437 165.87 393.331 169.47 395.112 172.258C395.846 173.406 396.733 174.486 397.157 175.781C397.675 177.365 397.441 179.083 397.515 180.748C397.705 184.985 399.957 188.929 402.955 191.927C405.954 194.925 407.776 196.057 411.508 198.064C414.36 199.598 420.951 201.238 424.177 200.985Z" fill="#1EA3A7"/>
<g opacity="0.55">
<path d="M430.7 179.786C429.984 176.717 428.696 173.835 427.007 171.185C426.77 172.836 426.464 174.474 426.115 176.084C425.377 179.495 424.663 183.266 423.341 186.505C422.056 189.65 419.331 190.313 416.377 189.145C414.692 188.479 413.189 187.495 411.44 187.01C409.617 186.504 408.387 186.028 407.067 184.581C404.748 182.04 403.7 178.819 402.944 175.531C402.071 171.735 400.898 168.358 399.36 164.78C398.562 162.925 397.527 160.876 397.169 158.808C395.687 159.822 394.412 161.171 393.719 162.821C392.437 165.871 393.331 169.471 395.112 172.259C395.846 173.407 396.733 174.488 397.157 175.782C397.675 177.367 397.441 179.084 397.515 180.749C397.705 184.987 399.957 188.931 402.955 191.929C405.954 194.927 407.776 196.058 411.508 198.065C414.36 199.599 420.951 201.239 424.177 200.985C429.693 196.011 432.387 187.023 430.7 179.786Z" fill="#25B4B9"/>
</g>
<path d="M426.113 221.296C426.504 214.479 425.852 207.605 424.177 200.985C423.794 199.472 423.343 197.976 422.856 196.494C422.762 196.196 422.665 195.9 422.569 195.603C422.554 195.561 422.542 195.518 422.528 195.476C422.527 195.474 422.525 195.474 422.525 195.471C421.92 193.624 421.255 191.796 420.517 189.998C419.827 188.313 419.076 186.653 418.275 185.018C418.313 184.985 418.34 184.937 418.343 184.874C418.439 182.847 418.21 180.818 417.666 178.863C417.595 178.61 417.2 178.715 417.271 178.97C417.757 180.72 417.972 182.525 417.937 184.337C416.538 181.549 414.983 178.838 413.273 176.228C410.426 171.883 407.164 167.812 403.542 164.091C403.357 163.901 403.066 164.189 403.25 164.379C405.275 166.459 407.189 168.647 408.978 170.934C409.971 172.204 410.92 173.505 411.835 174.831C410.693 174.591 409.535 174.437 408.369 174.379C408.105 174.366 408.103 174.776 408.366 174.789C409.649 174.852 410.921 175.03 412.171 175.319C414.064 178.107 415.785 181.011 417.319 184.012C418.472 186.267 419.516 188.576 420.45 190.929C418.179 190.098 415.887 189.268 413.747 188.135C413.514 188.011 413.305 188.364 413.538 188.488C415.806 189.689 418.242 190.556 420.647 191.437C421.161 192.758 421.638 194.094 422.083 195.44C422.027 195.511 425.413 205.451 425.654 215.578C425.7 217.473 425.676 219.367 425.568 221.26C425.547 221.608 426.092 221.648 426.113 221.296Z" fill="#04137A"/>
<path d="M436.986 206.12C432.787 198.206 432.579 188.354 436.194 180.155C438.188 175.636 441.467 171.464 446.004 169.518C447.572 168.846 449.282 168.452 450.984 168.571C452.686 168.69 454.377 169.351 455.579 170.562C457.824 172.82 457.961 176.411 457.53 179.568C456.7 185.66 454.274 191.508 450.674 196.491C447.076 201.472 442.355 203.132 436.986 206.12Z" fill="#25B4B9"/>
<path d="M433.94 188.153C434.19 189.767 434.717 191.358 435.576 192.908C437.91 197.125 441.573 194.455 444.646 192.708C448.282 190.641 451.622 188.479 453.439 184.555C455.487 180.133 455.294 175.061 455.286 170.293C455.384 170.381 455.487 170.465 455.58 170.559C457.825 172.818 457.962 176.408 457.531 179.565C456.701 185.657 454.275 191.505 450.675 196.488C447.076 201.471 442.356 203.132 436.987 206.119C434.089 200.661 433.092 194.278 433.94 188.153Z" fill="#78ADF9"/>
<path d="M436.77 219.952C436.112 214.517 436.286 208.984 437.291 203.602C437.52 202.371 437.806 201.152 438.121 199.942C438.18 199.699 438.243 199.457 438.306 199.214C438.316 199.18 438.323 199.145 438.332 199.11L438.335 199.106C438.725 197.598 439.165 196.102 439.664 194.625C440.132 193.241 440.648 191.875 441.206 190.526C441.174 190.502 441.15 190.464 441.145 190.414C440.966 188.797 441.047 187.161 441.383 185.571C441.426 185.364 441.749 185.429 441.705 185.636C441.403 187.06 441.324 188.515 441.443 189.964C442.422 187.662 443.529 185.415 444.766 183.239C446.825 179.618 449.228 176.195 451.939 173.034C452.077 172.873 452.324 173.09 452.186 173.251C450.671 175.018 449.251 176.865 447.935 178.786C447.204 179.851 446.51 180.942 445.846 182.05C446.748 181.8 447.667 181.618 448.596 181.513C448.807 181.489 448.828 181.817 448.619 181.841C447.596 181.956 446.587 182.162 445.601 182.457C444.227 184.785 442.997 187.195 441.921 189.674C441.113 191.537 440.395 193.437 439.765 195.367C441.54 194.586 443.332 193.806 444.987 192.792C445.167 192.681 445.352 192.953 445.172 193.063C443.419 194.139 441.513 194.955 439.633 195.783C439.288 196.866 438.975 197.958 438.687 199.058C438.736 199.112 436.528 207.237 436.848 215.352C436.908 216.871 437.022 218.385 437.205 219.894C437.238 220.173 436.805 220.233 436.77 219.952Z" fill="#04137A"/>
<path d="M449.81 218.973C449.922 218.395 449.48 217.859 448.892 217.859H413.507C412.916 217.859 412.474 218.4 412.589 218.979L413.588 223.976C413.734 224.701 414.37 225.224 415.109 225.224H447.124C447.982 225.224 448.721 224.615 448.884 223.77L449.81 218.973Z" fill="#FEBD9F"/>
<path d="M415.393 224.893L419.79 246.89C419.869 247.288 420.218 247.576 420.624 247.576H441.961C442.369 247.576 442.72 247.286 442.797 246.884L447.042 224.893H415.393Z" fill="#FEBD9F"/>
<path d="M443.124 245.194L447.043 224.893H415.393L415.569 225.776C425.972 229.815 439.029 234.128 443.124 245.194Z" fill="#F2A486"/>
<path d="M363.262 164.855C363.262 166.49 364.586 167.816 366.22 167.816C367.853 167.816 369.178 166.49 369.178 164.855C369.178 163.22 367.853 161.894 366.22 161.894C364.586 161.894 363.262 163.219 363.262 164.855Z" fill="#1EA3A7"/>
<path d="M331.136 242.558H362.061C364.972 242.558 367.332 245.262 367.332 248.596H325.864C325.864 245.262 328.224 242.558 331.136 242.558Z" fill="#1EA3A7"/>
<path d="M349.195 244.031L367.52 164.561L367.16 164.106L325.282 111.323L323.401 112.818L364.919 165.149L346.855 243.49L349.195 244.031Z" fill="#8CB8ED"/>
<path d="M303.849 136.687C308.317 136.687 311.94 133.061 311.94 128.589C311.94 124.117 308.317 120.492 303.849 120.492C299.381 120.492 295.759 124.117 295.759 128.589C295.759 133.061 299.381 136.687 303.849 136.687Z" fill="#8CB8ED"/>
<path d="M310.774 124.417C311.509 125.636 311.941 127.06 311.941 128.589C311.941 133.061 308.318 136.687 303.85 136.687C299.681 136.687 296.25 133.529 295.81 129.472C301.456 130.824 307.508 129.746 310.774 124.417Z" fill="#8CB8ED"/>
<path d="M319.926 115.667C321.005 116.994 322.955 117.195 324.281 116.114L328.311 112.833C329.637 111.753 329.837 109.802 328.758 108.474C327.679 107.147 325.73 106.946 324.404 108.027L320.374 111.308C319.047 112.389 318.848 114.34 319.926 115.667Z" fill="#1EA3A7"/>
<path d="M326.538 150.467C326.538 150.467 336.69 126.123 319.089 111.145C302.722 97.2174 285.327 107.899 282.613 108.43L326.538 150.467Z" fill="#1EA3A7"/>
<path d="M358.194 211.915C350.995 215.694 346.61 224.23 347.729 232.289C348.1 234.965 349.018 237.614 348.739 240.302C348.397 243.612 346.312 246.432 344.633 249.305C342.222 253.431 340.533 258.021 340.064 262.777C339.596 267.534 340.39 272.459 342.656 276.666C344.542 280.167 347.579 283.209 351.398 284.309C352.976 284.765 354.679 284.874 356.261 284.433C357.838 283.994 359.236 283.023 360.335 281.809C363.764 278.02 364.105 272.306 363.107 267.291C362.109 262.277 366.525 263.373 365.642 258.337C363.742 247.5 361.182 230.302 358.537 219.623" fill="#071330"/>
<path d="M461.465 370.109C460.449 367.251 467.388 365.056 464.486 363.993C453.519 359.976 431.536 359.651 419.843 360.322C418.263 360.412 416.688 360.535 415.116 360.681C411.253 361.042 407.49 359.355 405.129 356.275C399.727 349.229 394.697 344.591 393.497 343.389C368.108 348.611 350.369 343.664 350.369 343.664C346.155 348.038 342.69 352.377 339.924 356.256C337.911 359.08 334.568 360.633 331.109 360.399C330.732 360.373 330.355 360.349 329.977 360.328C317.894 359.633 290.86 360.459 279.527 364.617C276.53 365.717 288.019 367.499 286.969 370.458C286.001 373.186 287.269 376.3 289.376 378.323C291.484 380.346 294.293 381.492 297.058 382.504C318.95 390.519 342.893 393.116 366.049 389.986C369.893 389.466 373.748 388.768 377.455 387.66C379.922 388.219 382.429 388.637 384.932 388.975C407.342 391.999 430.513 389.492 451.7 381.747C454.376 380.768 457.095 379.662 459.135 377.706C461.174 375.754 462.401 372.745 461.465 370.109Z" fill="#0F1C43"/>
<path d="M437.641 382.875C442.465 380.355 454.684 374.35 451.921 369.657C451.012 368.112 450.508 366.166 448.92 365.339C442.147 361.815 422.928 365.26 415.294 365.237C368.465 365.099 359.605 376.299 332.419 367.429C328.038 365.999 323.648 364.331 319.046 364.113C314.444 363.896 292.327 361.75 289.683 365.527C289.683 365.527 304.231 371.752 324.29 379.982C378.185 402.094 437.641 382.875 437.641 382.875Z" fill="#061230"/>
<path d="M360.61 392.509C374.433 388.715 387.987 384.177 401.168 378.931C411.275 374.909 421.194 370.459 431.711 367.335C442.229 364.212 453.519 362.445 464.488 363.992C469.974 364.766 475.896 366.815 478.097 371.261C479.607 374.313 478.989 377.9 477.398 380.921C474.916 385.631 470.297 389.243 465.332 392.097C455.308 397.857 443.536 401.011 431.644 402.466C419.753 403.921 407.68 403.741 395.683 403.274C378.35 402.598 361.048 401.327 343.83 399.465" fill="#0F1C43"/>
<path d="M386.287 392.772C386.287 392.772 390.145 392.436 393.31 390.138C396.474 387.841 399.631 388.273 401.209 391.91C402.787 395.548 403.313 399.426 409.913 403.302C416.512 407.18 418.857 412.301 417.661 413.068C416.464 413.834 412.984 410.612 409.602 409.453C404.131 407.579 394.034 403.063 392.6 402.249C391.165 401.436 384.087 400.954 384.087 400.954" fill="#F59074"/>
<path d="M401.146 398.773C402.884 401.466 405.864 403.018 408.681 404.331C410.978 405.402 413.181 406.448 415.296 407.587C413.999 406.166 412.222 404.66 409.914 403.304C403.314 399.427 402.788 395.549 401.21 391.911C400.856 391.095 400.419 390.45 399.924 389.951C399.809 393.086 399.204 395.767 401.146 398.773Z" fill="#E26240"/>
<path d="M386.105 401.136C368.351 402.998 371.707 402.599 353.835 403.275C341.466 403.742 329.018 403.921 316.757 402.467C304.496 401.012 292.358 397.858 282.022 392.098C276.903 389.244 272.14 385.632 269.582 380.922C267.941 377.901 267.303 374.314 268.861 371.262C271.13 366.815 277.237 364.767 282.894 363.993C294.203 362.446 305.844 364.213 316.687 367.336C327.531 370.459 337.758 374.909 348.18 378.931C361.77 384.177 372.975 388.894 387.226 392.688C387.226 392.688 386.632 394.75 386.294 397.169C385.958 399.59 386.105 401.136 386.105 401.136Z" fill="#0F1C43"/>
<path d="M351.767 275.333C353.866 279.075 356.12 282.978 359.337 285.79C363.764 289.658 368.992 289.934 374.672 289.766C383.545 289.504 388.557 281.282 391.185 273.596C390.028 273.315 388.88 273 387.743 272.644C385.675 271.997 383.587 271.193 382.004 269.711C379.528 267.393 377.582 263.746 377.622 260.353C377.66 256.96 377.151 253.649 377.353 250.262H371.119C372.027 254.322 375.176 273.954 351.767 275.333Z" fill="#F3885B"/>
<path d="M351.76 275.321C376.009 273.802 380.427 252.377 379.517 248.312L363.177 250.143C363.379 253.531 363.812 257.06 363.851 260.452C363.889 263.845 362.346 267.392 359.869 269.71C358.287 271.191 356.199 271.995 354.131 272.643C353.023 272.99 351.904 273.3 350.777 273.577C351.104 274.151 351.431 274.734 351.76 275.321Z" fill="#E26240"/>
<path d="M359.798 223.14C353.587 225.711 353.278 240.012 355.986 247.669C357.156 250.976 358.756 254.203 361.219 256.696C363.683 259.19 367.11 260.884 370.609 260.682C373.747 260.5 376.671 258.813 378.819 256.516C380.967 254.218 382.41 251.347 383.519 248.401C386.942 239.305 387.345 229.1 384.653 219.761" fill="#F3885B"/>
<path d="M355.35 241.245C355.421 240.184 354.681 239.213 353.787 238.638C353.321 238.338 352.787 238.113 352.232 238.121C351.308 238.136 350.485 238.823 350.117 239.671C349.749 240.519 349.777 241.493 349.982 242.395C350.472 244.545 352.075 246.495 354.204 247.064C355.058 247.292 356.052 247.27 356.729 246.699" fill="#F3885B"/>
<path d="M352.07 240.001C350.965 240.763 350.673 242.48 351.464 243.565C351.703 243.892 352.226 244.151 352.473 243.83C352.629 243.627 352.545 243.338 352.502 243.086C352.412 242.557 352.548 241.993 352.868 241.564C353.065 241.301 353.333 241.074 353.416 240.756C353.499 240.438 353.28 239.429 352.07 240.001Z" fill="#E26240"/>
<path d="M364.802 233.545C363.356 233.087 361.179 233.016 359.675 233.25C358.17 233.485 356.93 233.921 356.217 235.126C356.742 235.105 357.664 234.854 358.153 234.781C359.467 234.585 360.865 234.347 362.168 234.609C363.112 234.799 364.293 235.134 365.092 234.981C365.461 234.912 365.7 234.904 365.884 234.612C366.065 234.32 365.843 233.944 364.802 233.545Z" fill="#0F1C43"/>
<path d="M373.903 233.545C375.349 233.087 377.526 233.016 379.031 233.25C380.535 233.485 381.775 233.921 382.488 235.126C381.963 235.105 381.041 234.854 380.552 234.781C379.238 234.585 377.84 234.347 376.537 234.609C375.593 234.799 374.413 235.134 373.613 234.981C373.244 234.912 373.004 234.904 372.821 234.612C372.639 234.32 372.862 233.944 373.903 233.545Z" fill="#0F1C43"/>
<path d="M363.784 239.096C362.122 240.543 359.343 240.719 358.025 238.933C357.789 238.612 357.495 238.015 357.123 238.233C356.806 238.418 357.084 238.891 357.323 239.214C358.212 240.418 359.04 241.278 360.534 241.479C362.097 241.688 363.65 241.172 364.832 240.144C365.133 239.881 365.101 239.365 364.832 239.097C364.531 238.796 364.086 238.833 363.784 239.096Z" fill="#E26240"/>
<path d="M375.152 239.07C376.814 240.517 379.593 240.692 380.911 238.906C381.148 238.585 381.442 237.99 381.813 238.207C382.13 238.392 381.853 238.864 381.614 239.187C380.725 240.393 379.896 241.251 378.402 241.452C376.839 241.661 375.287 241.146 374.105 240.118C373.803 239.855 373.836 239.339 374.105 239.07C374.405 238.77 374.849 238.806 375.152 239.07Z" fill="#E26240"/>
<path d="M369.4 245.664C369.176 245.659 369.159 245.652 368.905 245.581C368.691 245.521 368.516 245.456 368.337 245.37C368.207 245.307 368.087 245.228 367.964 245.153C369.243 243.849 369.63 242.268 369.725 240.434C369.745 240.034 369.718 239.535 369.332 239.535C368.914 239.535 369.019 240.128 368.998 240.528C368.912 242.214 367.735 243.577 366.339 244.688C366.007 244.953 366.108 245.458 366.339 245.736C367.032 246.571 368.329 247.125 369.401 247.146C370.352 247.166 370.352 245.685 369.4 245.664Z" fill="#E26240"/>
<path d="M366.861 250.415C367.772 251.086 368.922 251.422 370.05 251.348C371.178 251.273 372.274 250.789 373.089 250.005" fill="#F4321E"/>
<path opacity="0.43" d="M364.187 246.121C364.187 247.582 362.522 248.766 360.467 248.766C358.412 248.766 356.748 247.582 356.748 246.121C356.748 244.661 358.413 243.476 360.467 243.476C362.521 243.476 364.187 244.661 364.187 246.121Z" fill="#E26240"/>
<path opacity="0.43" d="M382.714 246.121C382.714 247.582 381.049 248.766 378.994 248.766C376.94 248.766 375.275 247.582 375.275 246.121C375.275 244.661 376.941 243.476 378.994 243.476C381.048 243.476 382.714 244.661 382.714 246.121Z" fill="#E26240"/>
<path d="M303.219 350.92C303.219 350.92 288.601 354.948 285.936 357.29C283.271 359.632 272.82 364.337 268.861 359.387C264.902 354.436 265.396 350.419 267.47 347.74C269.544 345.061 271.667 342.425 272.301 343.277C272.934 344.128 273.012 346.525 272.384 347.991C271.757 349.456 271.153 351.149 272.53 352.313C273.908 353.478 278.031 351.989 277.794 350.712C277.558 349.436 272.977 346.178 272.907 343.495C272.838 340.812 274.662 342.942 275.918 343.744C277.175 344.546 282.35 345.561 284.346 347.993C284.346 347.993 295.897 344.675 297.621 342.824" fill="#F59074"/>
<path d="M441.026 350.405C441.026 350.405 455.644 354.433 458.309 356.774C460.974 359.116 471.426 363.821 475.384 358.872C479.343 353.922 478.849 349.903 476.776 347.225C474.702 344.547 472.579 341.911 471.946 342.762C471.313 343.613 471.235 346.01 471.863 347.475C472.49 348.94 473.094 350.633 471.716 351.798C470.339 352.964 466.216 351.473 466.452 350.197C466.689 348.92 471.27 345.662 471.339 342.979C471.409 340.296 469.584 342.426 468.328 343.228C467.073 344.03 461.897 345.046 459.901 347.477C459.901 347.477 448.349 344.16 446.626 342.308" fill="#F59074"/>
<path d="M432.12 326.615C427.589 323.281 424.133 318.706 422.164 313.433C418.606 303.902 412.749 288.722 409.923 284.195C406.171 278.186 402.512 275.844 401.743 275.397C401.747 275.351 401.749 275.321 401.749 275.321L387.743 272.643C370.788 291.065 357.347 271.406 357.347 271.406L342.657 275.827C342.657 275.827 338.542 277.952 334.323 284.712C331.497 289.239 325.641 304.418 322.082 313.95C320.114 319.222 316.657 323.796 312.127 327.131L285.978 346.38L290.246 356.892C290.246 356.892 325.133 352.387 338.636 337.932C341.957 334.377 343.882 328.813 344.905 322.446C344.91 322.632 344.915 322.825 344.919 323.008C345.293 339.622 350.367 343.664 350.367 343.664C370.444 352.681 383.802 344.965 393.494 343.389C397.188 342.788 399.765 337.243 401.415 330.183C402.468 333.04 403.836 335.519 405.608 337.416C419.112 351.871 453.998 356.377 453.998 356.377L458.266 345.864L432.12 326.615Z" fill="#FF624D"/>
<path d="M401.103 330.872C394.508 338.071 382.584 339.94 373.781 336.285C368.066 333.912 362.478 334.667 356.704 332.838C352.252 331.428 348.244 328.406 345.125 324.915C345.088 324.958 345.046 324.994 345.009 325.036C345.737 339.916 350.368 343.666 350.368 343.666C370.445 352.682 383.803 344.966 393.496 343.39C397.111 342.803 399.655 337.473 401.308 330.627C401.239 330.707 401.177 330.791 401.103 330.872Z" fill="#EF3420"/>
<path d="M431.713 345.016C421.326 341.035 411.91 335.894 402.678 329.708C402.502 329.592 402.344 329.467 402.185 329.342C401.993 329.697 401.772 330.048 401.503 330.392C402.545 333.159 403.883 335.567 405.61 337.417C419.115 351.872 454 356.378 454 356.378L456.049 351.333C447.575 352.35 439.896 348.151 431.713 345.016Z" fill="#EF3420"/>
<path d="M334.239 333.401C328.842 337.434 324.579 341.77 318.545 345.028C312.373 348.359 305.747 351.013 299.245 353.598C294.986 355.292 291.943 354.981 288.835 353.418L290.247 356.893C290.247 356.893 325.133 352.388 338.636 337.933C341.349 335.029 343.118 330.767 344.237 325.835C341.349 328.774 337.654 330.848 334.239 333.401Z" fill="#EF3420"/>
<path d="M372.266 280.217C372.271 282.679 371.576 286.857 369.878 288.639C368.15 290.453 364.674 291.433 362.38 290.424C360.087 289.417 358.615 288.118 357.277 285.999C354.553 281.682 353.105 277.494 353.134 272.389L357.993 270.802C357.993 270.802 365.528 279.875 372.266 280.217Z" fill="white"/>
<path d="M372.266 280.217C372.354 282.677 373.208 286.826 374.971 288.543C376.768 290.291 380.277 291.137 382.531 290.043C384.784 288.949 386.206 287.597 387.463 285.428C390.021 281.01 391.311 276.772 391.089 271.67L386.173 270.27C386.172 270.267 378.985 279.62 372.266 280.217Z" fill="white"/>
<g opacity="0.54">
<path d="M372.171 288.699C374.242 303.136 372.589 317.727 372.305 332.221C372.225 336.275 372.254 340.333 372.491 344.382C372.531 345.064 373.596 345.068 373.555 344.382C372.702 329.795 374.608 315.228 374.202 300.637C374.088 296.547 373.778 292.466 373.197 288.415C373.101 287.739 372.075 288.027 372.171 288.699Z" fill="white"/>
</g>
<path d="M344.697 288.941C346.067 288.941 346.07 286.809 344.697 286.809C343.328 286.809 343.325 288.941 344.697 288.941Z" fill="white"/>
<path d="M336.432 303.754C337.803 303.754 337.805 301.623 336.432 301.623C335.062 301.623 335.06 303.754 336.432 303.754Z" fill="white"/>
<path d="M353.731 313.757C355.101 313.757 355.104 311.625 353.731 311.625C352.36 311.626 352.358 313.757 353.731 313.757Z" fill="white"/>
<path d="M363.534 298.559C364.904 298.559 364.906 296.427 363.534 296.427C362.163 296.428 362.161 298.559 363.534 298.559Z" fill="white"/>
<path d="M328.935 318.181C330.306 318.181 330.307 316.05 328.935 316.05C327.566 316.05 327.564 318.181 328.935 318.181Z" fill="white"/>
<path d="M356.999 329.147C358.369 329.147 358.372 327.016 356.999 327.016C355.629 327.017 355.626 329.147 356.999 329.147Z" fill="white"/>
<path d="M353.347 341.845C354.717 341.845 354.719 339.713 353.347 339.713C351.976 339.713 351.974 341.845 353.347 341.845Z" fill="white"/>
<path d="M368.531 342.999C369.902 342.999 369.904 340.867 368.531 340.867C367.161 340.867 367.158 342.999 368.531 342.999Z" fill="white"/>
<path d="M367.954 317.412C369.325 317.412 369.327 315.281 367.954 315.281C366.584 315.281 366.582 317.412 367.954 317.412Z" fill="white"/>
<path d="M383.716 299.137C385.086 299.137 385.088 297.005 383.716 297.005C382.345 297.005 382.343 299.137 383.716 299.137Z" fill="white"/>
<path d="M380.256 317.797C381.626 317.797 381.629 315.665 380.256 315.665C378.887 315.665 378.884 317.797 380.256 317.797Z" fill="white"/>
<path d="M392.557 323.183C393.928 323.183 393.93 321.052 392.557 321.052C391.187 321.053 391.185 323.183 392.557 323.183Z" fill="white"/>
<path d="M382.755 337.227C384.125 337.227 384.128 335.096 382.755 335.096C381.384 335.096 381.382 337.227 382.755 337.227Z" fill="white"/>
<path d="M397.171 302.983C398.541 302.983 398.544 300.852 397.171 300.852C395.8 300.853 395.798 302.983 397.171 302.983Z" fill="white"/>
<path d="M402.937 286.631C404.307 286.631 404.31 284.5 402.937 284.5C401.567 284.5 401.564 286.631 402.937 286.631Z" fill="white"/>
<path d="M412.546 308.947C413.917 308.947 413.919 306.816 412.546 306.816C411.177 306.817 411.175 308.947 412.546 308.947Z" fill="white"/>
<path d="M401.975 321.837C403.345 321.837 403.348 319.706 401.975 319.706C400.606 319.706 400.603 321.837 401.975 321.837Z" fill="white"/>
<path d="M414.085 337.997C415.455 337.997 415.458 335.865 414.085 335.865C412.714 335.865 412.712 337.997 414.085 337.997Z" fill="white"/>
<path d="M422.926 325.685C424.296 325.685 424.299 323.554 422.926 323.554C421.557 323.554 421.554 325.685 422.926 325.685Z" fill="white"/>
<path d="M435.036 339.343C436.406 339.343 436.409 337.212 435.036 337.212C433.666 337.212 433.663 339.343 435.036 339.343Z" fill="white"/>
<path d="M426.002 347.039C427.372 347.039 427.375 344.907 426.002 344.907C424.631 344.907 424.63 347.039 426.002 347.039Z" fill="white"/>
<path d="M445.8 350.501C447.17 350.501 447.172 348.369 445.8 348.369C444.429 348.371 444.427 350.501 445.8 350.501Z" fill="white"/>
<path d="M339.122 326.454C340.493 326.454 340.495 324.323 339.122 324.323C337.752 324.323 337.751 326.454 339.122 326.454Z" fill="white"/>
<path d="M327.783 342.037C329.153 342.037 329.155 339.906 327.783 339.906C326.412 339.906 326.41 342.037 327.783 342.037Z" fill="white"/>
<path d="M323.938 330.11C325.308 330.11 325.31 327.978 323.938 327.978C322.569 327.978 322.566 330.11 323.938 330.11Z" fill="white"/>
<path d="M309.33 333.572C310.7 333.572 310.703 331.44 309.33 331.44C307.961 331.442 307.958 333.572 309.33 333.572Z" fill="white"/>
<path d="M311.06 345.308C312.431 345.308 312.433 343.176 311.06 343.176C309.69 343.176 309.688 345.308 311.06 345.308Z" fill="white"/>
<path d="M296.644 343.191C298.015 343.191 298.017 341.06 296.644 341.06C295.274 341.06 295.272 343.191 296.644 343.191Z" fill="white"/>
<path d="M292.608 352.81C293.978 352.81 293.981 350.679 292.608 350.679C291.237 350.679 291.236 352.81 292.608 352.81Z" fill="white"/>
<path d="M354.891 216.306C355.919 220.019 358.35 223.323 361.588 225.409C367.869 229.454 376.772 228.972 381.83 234.472C384.131 236.974 385.252 240.527 384.78 243.894C383.9 250.172 378.095 254.696 376.369 260.795C375.573 263.611 375.698 266.62 376.248 269.496C376.914 272.979 378.24 276.414 380.585 279.074C384.445 283.453 391.103 285.185 396.531 283.042C401.958 280.899 405.67 274.922 404.981 269.123C404.693 266.694 403.719 264.38 403.492 261.944C403.128 258.051 404.682 254.272 405.951 250.574C407.219 246.875 408.212 242.761 406.777 239.125C405.377 235.579 401.952 233.236 400.073 229.918C397.533 225.433 398.095 219.722 395.705 215.155C393.889 211.685 390.549 209.255 387.05 207.5C378.891 203.407 368.733 202.508 360.739 206.914C357.59 208.65 354.686 211.499 354.371 215.083" fill="#071330"/>
<path d="M192.259 34.2941C192.259 34.2941 193.783 36.6346 196.058 40.1423C196.199 40.0197 196.337 39.8995 196.479 39.7757C198.828 37.7237 200.952 35.4349 203.072 33.1438C202.498 32.5692 201.977 32.0727 201.535 31.694C195.417 26.4445 191.254 15.3913 189.665 7.69678C188.076 0.00221968 185.887 3.80441 185.887 3.80441C185.887 3.80441 186.922 22.8515 186.597 27.3088C186.272 31.7662 192.259 34.2941 192.259 34.2941Z" fill="#F3885B"/>
<path d="M181.302 34.2941C181.302 34.2941 179.778 36.6346 177.503 40.1423C177.363 40.0197 177.225 39.8995 177.083 39.7757C174.734 37.7237 172.609 35.4349 170.489 33.1438C171.063 32.5692 171.585 32.0727 172.027 31.694C178.145 26.4445 182.307 15.3913 183.896 7.69678C185.485 0.00221968 187.675 3.80441 187.675 3.80441C187.675 3.80441 186.64 22.8515 186.965 27.3088C187.29 31.7662 181.302 34.2941 181.302 34.2941Z" fill="#F3885B"/>
<path d="M177.675 93.1147C178.649 96.0165 180.113 101.468 178.551 104.101C176.99 106.732 175.837 108.715 167.564 110.149C169.068 114.383 174.7 126.952 178.931 128.452C183.162 129.953 190.014 129.725 193.748 127.232C195.972 125.748 200.175 112.575 202 110.619C197.686 109.962 193.561 107.897 192.339 104.935C191.119 101.973 191.232 98.4892 192.643 95.6126" fill="#F3885B"/>
<g opacity="0.5">
<path d="M170.845 109.595C178.086 109.328 190.034 107.82 191.601 98.8484C191.899 97.1451 192.175 95.8829 193.163 95.0631L177.674 93.1157C178.648 96.0175 180.112 101.469 178.551 104.102C176.989 106.733 175.836 108.716 167.563 110.15C167.595 110.237 167.638 110.349 167.672 110.443C168.62 109.941 169.695 109.637 170.845 109.595Z" fill="#E06338"/>
</g>
<path d="M205.223 79.1152C205.03 78.204 204.597 77.2663 203.773 76.8336C202.837 76.3419 201.744 76.6533 200.814 77.2375C200.814 72.351 199.818 67.4465 198.234 62.8353L170.537 63.9869C170.189 66.9645 169.257 73.8476 169.389 76.83C168.671 76.5487 167.917 76.479 167.242 76.8324C166.418 77.2652 165.984 78.2028 165.792 79.114C165.343 81.2356 165.929 83.5424 167.3 85.2218C168.338 86.4936 169.806 87.3915 171.397 87.7942C172.631 91.2935 174.39 94.0343 177.936 97.2583C178.928 98.161 180.186 98.696 181.386 99.2645C183.007 100.034 184.745 100.718 186.513 100.542C187.759 100.419 188.935 99.874 190.022 99.2189C194.137 96.7378 197.177 92.6074 198.954 87.9289C200.796 87.6308 202.533 86.6679 203.714 85.2206C205.085 83.5424 205.672 81.2356 205.223 79.1152Z" fill="#F3885B"/>
<path d="M182.67 72.3763C176.834 70.632 173.984 71.8089 171.194 73.695C173.805 73.5892 174.937 73.3259 177.509 73.6553C178.112 73.7322 179.672 73.7815 180.286 73.8524C180.9 73.9233 182.07 74.0015 182.599 73.7274C183.127 73.4533 183.451 72.821 182.67 72.3763Z" fill="#003236"/>
<path d="M186.094 77.1425C185.829 79.4205 186.331 81.8259 187.74 83.6663C187.907 83.8838 188.08 84.1098 188.273 84.3045C188.419 84.4524 188.349 84.325 188.289 84.3731C188.195 84.4488 188.08 84.5077 187.973 84.5618C187.599 84.7505 187.172 84.8467 186.758 84.8924C186.394 84.9321 186.027 84.9344 185.662 84.9188C185.455 84.9104 185.246 84.8755 185.041 84.9164C184.364 85.051 184.649 86.0885 185.327 85.9538C185.077 86.0043 185.341 85.9779 185.429 85.9827C185.59 85.9923 185.752 86.0007 185.913 86.0031C186.36 86.0103 186.806 85.9779 187.247 85.9033C188.089 85.7639 189.813 85.1965 189.349 84.0413C189.124 83.4823 188.577 83.0448 188.256 82.5327C187.934 82.0194 187.68 81.4724 187.495 80.8954C187.105 79.6801 187.023 78.4071 187.17 77.1425C187.248 76.4561 186.173 76.4609 186.094 77.1425Z" fill="#E26439"/>
<g opacity="0.5">
<path d="M182.188 90.2561C183.105 91.3476 184.551 91.9703 185.974 91.8898C187.398 91.808 188.763 91.0242 189.552 89.8366" fill="#E82D1F"/>
</g>
<path d="M180.11 78.3747C179.508 79.1416 178.348 79.144 177.465 79.0238C176.427 78.882 175.415 78.4528 174.608 77.7821C174.384 77.5957 174.066 77.5633 173.847 77.7821C173.657 77.9732 173.623 78.3566 173.847 78.543C174.886 79.4073 176.125 79.9374 177.465 80.1009C178.622 80.2403 180.093 80.1285 180.87 79.1368C181.049 78.9084 181.092 78.5983 180.87 78.3759C180.684 78.1884 180.29 78.1451 180.11 78.3747Z" fill="#E26439"/>
<path d="M197.149 77.7676C196.434 78.2785 195.619 78.6331 194.753 78.8134C193.822 79.007 192.534 79.1019 191.835 78.3242C191.372 77.8085 190.613 78.5718 191.075 79.0851C192.001 80.1141 193.567 80.1117 194.826 79.8917C195.998 79.6862 197.096 79.1644 198.03 78.43C197.711 78.234 197.418 78.0116 197.149 77.7676Z" fill="#E26439"/>
<path opacity="0.35" d="M179.508 84.9585C179.508 86.3685 177.837 87.5105 175.777 87.5105C173.718 87.5105 172.047 86.3685 172.047 84.9585C172.047 83.5496 173.718 82.4065 175.777 82.4065C177.837 82.4065 179.508 83.5484 179.508 84.9585Z" fill="#F44A38"/>
<path opacity="0.35" d="M198.906 85.2013C198.906 86.6114 197.235 87.7534 195.175 87.7534C193.115 87.7534 191.445 86.6114 191.445 85.2013C191.445 83.7925 193.115 82.6493 195.175 82.6493C197.235 82.6493 198.906 83.7925 198.906 85.2013Z" fill="#F44A38"/>
<path d="M199.912 84.4741C199.488 84.3635 199.407 83.2684 199.73 82.0278C200.053 80.7873 200.658 79.8713 201.081 79.9819C201.505 80.0925 201.587 81.1876 201.264 82.4281C200.94 83.6687 200.336 84.5847 199.912 84.4741Z" fill="#E26439"/>
<path d="M170.948 84.9248C170.519 85.0114 169.967 84.063 169.713 82.8056C169.461 81.5494 169.604 80.4603 170.033 80.3738C170.462 80.2872 171.014 81.2357 171.266 82.493C171.52 83.7504 171.377 84.8383 170.948 84.9248Z" fill="#E26439"/>
<path d="M206.971 69.4888C207.035 65.2467 205.448 62.6442 203.727 61.0718C201.507 59.0463 199.692 56.6566 198.226 54.0324C196.795 51.4732 193.842 48.5809 187.746 47.243C178.219 45.1526 174.499 50.0535 173.33 52.2966C173.001 52.9265 172.404 53.3701 171.709 53.5263C162.553 55.5855 165.459 70.8965 165.459 70.8965C165.459 70.8965 167.045 77.4298 169.531 79.8737C172.597 76.9502 175.273 70.7234 174.784 66.1062C175.909 66.3754 177.036 66.9152 178.055 67.4549C180.003 68.4863 181.961 69.5249 183.698 70.8833C185.525 72.3126 187.089 74.0844 189.06 75.3082C191.151 76.6076 193.604 77.2243 196.053 77.4647C196.053 77.4647 196.231 77.4839 196.536 77.4984C196.732 77.5128 196.926 77.5284 197.123 77.5356C197.702 78.6331 198.472 79.6417 199.325 80.1994C200.108 79.2125 200.901 78.0645 201.598 76.8564C204.262 75.9825 206.901 73.9859 206.971 69.4888Z" fill="#071330"/>
<path d="M182.811 383.141C182.142 388.029 182.465 390.482 179.682 397.208C179.23 398.298 178.603 400.649 179.963 402.245C180.571 402.957 181.541 403.715 183.339 403.966C190.652 404.984 198.442 404.039 205.572 406.095C209.284 407.165 213.216 407.381 216.926 406.425C217.998 406.149 218.067 404.618 217.026 404.242C215.435 403.67 213.549 403.77 211.748 403.217C206.496 401.605 201.151 399.629 197.074 395.698C192.996 391.767 190.464 385.419 192.203 379.818" fill="#F3885B"/>
<path d="M167.238 239.32C169.65 239.672 171.652 237.501 173.49 235.775C175.327 234.049 178.195 232.637 180.032 234.365C180.723 235.016 181.085 235.988 181.301 236.953C182 240.064 181.446 243.318 181.293 246.515C180.841 255.88 183.854 265.201 182.975 274.53C178.985 269.648 178.489 262.45 175.207 256.987C173.064 253.42 169.854 250.791 166.711 248.237" fill="#F3885B"/>
<path d="M216.569 211.576C216.022 208.892 216.255 205.662 215.082 200.659C214.078 196.374 214.084 189.271 211.847 186.111C210.941 184.83 206.932 188.134 205.487 188.532C192.808 192.02 179.328 192.048 166.636 188.611C165.132 188.203 160.562 184.975 159.986 186.534C159.986 186.534 155.11 195.169 149.109 198.172C143.354 201.051 99.7222 221.441 93.5104 241.066C93.4684 241.175 93.418 241.279 93.3795 241.39C93.1657 242.015 93.0324 242.653 92.9604 243.297C92.9436 243.398 92.9111 243.501 92.8955 243.602L92.9375 243.591C92.6109 247.665 94.9168 251.896 98.1692 254.2C102.609 257.345 108.325 257.617 113.524 257.47C117.353 257.362 121.171 257.005 124.965 256.48C134.636 255.139 144.307 253.799 153.979 252.457C159.201 251.734 160.35 251.342 165.614 251.418C166.508 251.431 168.773 251.349 169.304 251.022C170.145 250.504 170.025 250.06 170.022 249.013C170.014 245.721 170.533 243.049 170.524 239.756C170.523 239.347 170.685 237.719 170.462 237.388C170.244 237.066 169.264 236.966 168.898 236.914C166.235 236.542 158.511 236.543 156.425 236.153C158.418 235.96 160.363 237.067 169.73 233.413C172.631 232.282 175.501 230.719 178.18 228.984L179.137 385.271C179.919 385.757 180.705 386.133 181.491 386.465C181.66 386.857 182.035 387.14 182.484 387.15C182.798 387.156 183.112 387.151 183.427 387.148C191.258 389.369 198.454 385.271 198.454 385.271C209.776 355.433 207.648 309.606 212.468 276.73C212.799 275.204 213.109 273.673 213.371 272.131C213.719 270.076 214.045 268.145 214.359 266.272C214.361 266.266 214.363 266.258 214.363 266.251C218.324 228.679 216.569 211.576 216.569 211.576Z" fill="#0F1C43"/>
<path d="M170.248 244.691C169.031 245.272 167.607 245.535 166.015 245.309C154.206 243.633 142.37 244.294 130.813 247.205C119.856 249.967 109.549 253.598 98.2256 254.234C102.657 257.343 108.345 257.615 113.524 257.469C117.353 257.361 121.171 257.004 124.965 256.478C134.636 255.138 144.307 253.798 153.979 252.456C159.201 251.732 160.35 251.341 165.614 251.416C166.508 251.43 168.773 251.348 169.304 251.021C170.145 250.503 170.024 250.059 170.022 249.012C170.017 247.478 170.13 246.081 170.248 244.691Z" fill="#061230"/>
<path d="M216.569 211.576C216.058 209.072 216.213 206.072 215.284 201.621C199.371 212.192 180.344 212.109 161.619 215.936C149.736 218.364 137.738 221.501 126.917 227.11C121.099 230.125 114.101 234.043 108.445 238.806C117.118 236.907 125.518 233.8 134.338 232.209C146.199 230.071 157.803 230.192 169.714 231.884C170.521 231.998 171.22 232.217 171.823 232.512C173.253 231.852 174.669 231.11 176.047 230.299C175.611 223.163 187.239 220.677 189.827 228.485C199.323 257.138 198.242 285.75 197.358 315.468C197.038 326.198 195.53 336.902 195.436 347.619C195.406 351.06 195.382 354.778 196.441 358.088C196.632 358.686 196.874 359.909 197.366 360.603C197.419 360.358 198.302 360.283 199.027 360.035C201.311 359.253 203.239 359.659 204.68 360.717C209.148 333.62 208.838 301.499 212.47 276.727C212.802 275.202 213.112 273.671 213.373 272.128C213.722 270.074 214.047 268.142 214.362 266.269C214.363 266.263 214.366 266.256 214.366 266.249C218.324 228.679 216.569 211.576 216.569 211.576Z" fill="#061230"/>
<path d="M113.893 218.51C123.89 212.211 135.286 208.09 146.666 205.108C157.709 202.215 168.859 200.741 180.131 199.122C191.517 197.486 202.683 195.035 211.461 187.118C211.682 186.918 211.907 186.74 212.134 186.576C212.041 186.416 211.949 186.256 211.847 186.112C210.941 184.832 206.932 188.135 205.487 188.533C192.808 192.021 179.328 192.049 166.636 188.612C165.131 188.205 160.562 184.976 159.986 186.535C159.986 186.535 155.11 195.171 149.108 198.173C145.613 199.923 128.148 208.136 113.577 218.711C113.683 218.644 113.789 218.577 113.893 218.51Z" fill="#061230"/>
<path d="M197.335 26.5419L190.508 36.0528L226.35 71.0299C226.35 71.0299 203.876 103.124 198.904 107.974L192.783 105.769C185.303 113.61 177.163 106.16 177.163 106.16L172.745 107.571C167.105 101.611 145.689 71.0299 145.689 71.0299L181.532 36.0528L174.706 26.5419C174.706 26.5419 120.714 59.3204 122.214 65.4522C123.714 71.5841 125.257 83.2059 148.472 115.856C154.233 123.959 155.811 145.704 155.811 145.704C157.51 160.234 157.457 188.505 157.457 188.505C176.761 199.692 212.684 188.06 212.684 188.06C212.684 188.06 214.815 162.137 215.503 147.299C215.503 147.299 215.052 128.472 223.568 115.855C245.981 82.6481 248.326 71.5829 249.826 65.451C251.327 59.3204 197.335 26.5419 197.335 26.5419Z" fill="#008D92"/>
<path opacity="0.94" d="M217.69 129.642C216.266 131.836 214.919 134.063 214.164 136.574C212.761 141.234 211.938 146.219 210.997 150.989C209.282 159.677 208.792 169.841 203.411 177.225C192.83 191.745 172.978 189.327 157.512 187.239C157.493 187.237 157.476 187.232 157.457 187.23C157.459 188.051 157.458 188.506 157.458 188.506C176.762 199.693 212.685 188.062 212.685 188.062C212.685 188.062 214.816 162.139 215.504 147.3C215.504 147.3 215.308 138.948 217.69 129.642Z" fill="#037276"/>
<path opacity="0.94" d="M155.164 57.2083C150.841 60.5718 139.203 64.9209 139.211 70.9614C139.222 78.1511 148.107 85.4309 152.744 90.0013C158.194 95.3722 163.248 101.962 170.464 104.984C170.499 104.998 170.529 105.017 170.564 105.031C162.958 95.6859 145.693 71.0323 145.693 71.0323L177.746 39.7528C169.698 44.8941 162.694 51.3506 155.164 57.2083Z" fill="#037276"/>
<path opacity="0.94" d="M224.372 85.4105C230.711 80.4254 239.407 74.7792 235.888 65.2984C233.093 57.7673 224.261 53.1188 217.308 50.2927C208.026 46.5206 199.045 43.7762 191.955 36.2716C191.629 35.9254 191.356 35.5696 191.117 35.2065L190.509 36.0528L226.352 71.0299C226.352 71.0299 211.15 92.7372 202.987 103.141C207.108 101.237 211.102 99.1816 214.314 95.8999C217.781 92.3586 220.422 88.5167 224.372 85.4105Z" fill="#037276"/>
<path d="M184.74 109.576C184.74 109.576 182.014 111.037 182.301 113.692C182.589 116.347 185.772 116.214 185.772 116.214C185.772 116.214 188.977 115.816 188.9 113.426C188.823 111.037 186.756 108.912 184.74 109.576Z" fill="white"/>
<path d="M183.87 115.828C183.87 115.828 180.464 125.434 179.14 144.791C177.847 163.71 177.747 165.701 177.747 165.701L184.08 172.767L190.381 166.299C190.381 166.299 191.027 127.167 186.6 115.019L183.87 115.828Z" fill="white"/>
<path d="M184.639 121.199C185.274 121.199 185.275 120.211 184.639 120.211C184.003 120.21 184.002 121.199 184.639 121.199Z" fill="#061230"/>
<path d="M187.717 127.092C188.352 127.092 188.353 126.104 187.717 126.104C187.08 126.104 187.08 127.092 187.717 127.092Z" fill="#061230"/>
<path d="M182.632 131.512C183.267 131.512 183.268 130.524 182.632 130.524C181.996 130.522 181.995 131.512 182.632 131.512Z" fill="#061230"/>
<path d="M186.78 139.948C187.416 139.948 187.417 138.96 186.78 138.96C186.145 138.96 186.144 139.948 186.78 139.948Z" fill="#061230"/>
<path d="M181.026 145.306C181.661 145.306 181.662 144.318 181.026 144.318C180.39 144.318 180.389 145.306 181.026 145.306Z" fill="#061230"/>
<path d="M188.118 150.529C188.753 150.529 188.755 149.541 188.118 149.541C187.483 149.541 187.482 150.529 188.118 150.529Z" fill="#061230"/>
<path d="M180.357 154.681C180.992 154.681 180.993 153.693 180.357 153.693C179.721 153.691 179.72 154.681 180.357 154.681Z" fill="#061230"/>
<path d="M185.174 158.698C185.81 158.698 185.811 157.71 185.174 157.71C184.539 157.71 184.538 158.698 185.174 158.698Z" fill="#061230"/>
<path d="M180.357 164.457C180.992 164.457 180.993 163.469 180.357 163.469C179.721 163.469 179.72 164.457 180.357 164.457Z" fill="#061230"/>
<path d="M188.251 164.457C188.887 164.457 188.888 163.469 188.251 163.469C187.616 163.469 187.615 164.457 188.251 164.457Z" fill="#061230"/>
<path d="M184.907 169.145C185.542 169.145 185.543 168.156 184.907 168.156C184.271 168.156 184.27 169.145 184.907 169.145Z" fill="#061230"/>
<path d="M186.219 113.015C186.854 113.015 186.856 112.027 186.219 112.027C185.584 112.027 185.583 113.015 186.219 113.015Z" fill="#061230"/>
<path opacity="0.94" d="M186.021 109.318L190.93 117.968L198.906 107.975L192.341 104.935L186.021 109.318Z" fill="#037276"/>
<path opacity="0.94" d="M184.921 109.356L179.874 117.769L172.746 107.572L178.171 104.735L184.921 109.356Z" fill="#037276"/>
</g>
<defs>
<clipPath id="clip0_94_537">
<rect width="519" height="528" fill="white"/>
</clipPath>
</defs>
</svg>
