<svg width="135" height="41" viewBox="0 0 135 41" fill="none" xmlns="http://www.w3.org/2000/svg">
<g clip-path="url(#clip0_94_28)">
<g clip-path="url(#clip1_94_28)">
<g clip-path="url(#clip2_94_28)">
<path d="M128 1.3999H7C3.41015 1.3999 0.5 4.31005 0.5 7.8999V33.8999C0.5 37.4898 3.41015 40.3999 7 40.3999H128C131.59 40.3999 134.5 37.4898 134.5 33.8999V7.8999C134.5 4.31005 131.59 1.3999 128 1.3999Z" fill="#99E3E5"/>
<path d="M128 1.3999H7C3.41015 1.3999 0.5 4.31005 0.5 7.8999V33.8999C0.5 37.4898 3.41015 40.3999 7 40.3999H128C131.59 40.3999 134.5 37.4898 134.5 33.8999V7.8999C134.5 4.31005 131.59 1.3999 128 1.3999Z" stroke="#1E1028"/>
<path d="M81.5259 20.1006V22.3916H80.0898V23.894H81.5259V28.999C81.5259 30.7422 82.3145 31.4394 84.2983 31.4394C84.647 31.4394 84.979 31.3979 85.2695 31.3481V29.8623C85.0205 29.8872 84.8628 29.9038 84.5889 29.9038C83.7007 29.9038 83.3106 29.4887 83.3106 28.5425V23.894H85.2695V22.3916H83.3106V20.1006H81.5259Z" fill="#1E1028"/>
<path d="M90.3232 31.5644C92.9628 31.5644 94.5815 29.7964 94.5815 26.8662C94.5815 23.9526 92.9545 22.1763 90.3232 22.1763C87.6835 22.1763 86.0566 23.9526 86.0566 26.8662C86.0566 29.7964 87.6752 31.5644 90.3232 31.5644ZM90.3232 29.979C88.7709 29.979 87.8994 28.8418 87.8994 26.8662C87.8994 24.9072 88.7709 23.7617 90.3232 23.7617C91.8671 23.7617 92.747 24.9072 92.747 26.8662C92.747 28.8335 91.8671 29.979 90.3232 29.979Z" fill="#1E1028"/>
<path d="M95.9663 31.3901H97.751V26.0527C97.751 24.7827 98.7055 23.9277 100.059 23.9277C100.374 23.9277 100.906 23.9858 101.055 24.0356V22.2759C100.864 22.2261 100.524 22.2012 100.258 22.2012C99.0791 22.2012 98.0747 22.8486 97.8174 23.7368H97.6845V22.3506H95.9663V31.3901Z" fill="#1E1028"/>
<path d="M105.486 23.6953C106.806 23.6953 107.669 24.6167 107.711 26.0361H103.145C103.245 24.625 104.166 23.6953 105.486 23.6953ZM107.703 28.9497C107.371 29.6553 106.632 30.0454 105.553 30.0454C104.125 30.0454 103.204 29.041 103.145 27.4556V27.3559H109.529V26.7334C109.529 23.8945 108.01 22.1763 105.495 22.1763C102.946 22.1763 101.328 24.0107 101.328 26.8994C101.328 29.7881 102.913 31.5644 105.503 31.5644C107.57 31.5644 109.014 30.5683 109.421 28.9497H107.703Z" fill="#1E1028"/>
<path d="M69.8223 28.0517C69.96 30.2714 71.8097 31.6909 74.5628 31.6909C77.5052 31.6909 79.3464 30.2025 79.3464 27.828C79.3464 25.961 78.2968 24.9286 75.7501 24.3349L74.3822 23.9994C72.7647 23.6208 72.1108 23.1132 72.1108 22.2271C72.1108 21.1086 73.126 20.3773 74.6489 20.3773C76.0943 20.3773 77.0923 21.0914 77.2729 22.2357H79.1485C79.0367 20.145 77.1955 18.6738 74.6747 18.6738C71.9646 18.6738 70.1578 20.145 70.1578 22.3561C70.1578 24.1801 71.1817 25.2641 73.4272 25.7889L75.0274 26.1761C76.6707 26.5633 77.3934 27.1311 77.3934 28.0775C77.3934 29.1787 76.2577 29.9788 74.7091 29.9788C73.0486 29.9788 71.8957 29.2303 71.7323 28.0517H69.8223Z" fill="#1E1028"/>
<path d="M51.335 22.2012C50.1064 22.2012 49.0439 22.8154 48.4961 23.8447H48.3633V22.3506H46.645V34.395H48.4297V30.0205H48.5708C49.0439 30.9751 50.0649 31.5395 51.3516 31.5395C53.6343 31.5395 55.0869 29.7383 55.0869 26.8662C55.0869 23.9941 53.6343 22.2012 51.335 22.2012ZM50.8286 29.9375C49.3345 29.9375 48.3965 28.7588 48.3965 26.8745C48.3965 24.9819 49.3345 23.8032 50.8369 23.8032C52.3477 23.8032 53.2524 24.957 53.2524 26.8662C53.2524 28.7837 52.3477 29.9375 50.8286 29.9375Z" fill="#1E1028"/>
<path d="M61.3316 22.2012C60.103 22.2012 59.0405 22.8154 58.4927 23.8447H58.3599V22.3506H56.6416V34.395H58.4263V30.0205H58.5674C59.0405 30.9751 60.0615 31.5395 61.3482 31.5395C63.6309 31.5395 65.0835 29.7383 65.0835 26.8662C65.0835 23.9941 63.6309 22.2012 61.3316 22.2012ZM60.8252 29.9375C59.3311 29.9375 58.3931 28.7588 58.3931 26.8745C58.3931 24.9819 59.3311 23.8032 60.8335 23.8032C62.3443 23.8032 63.249 24.957 63.249 26.8662C63.249 28.7837 62.3443 29.9375 60.8252 29.9375Z" fill="#1E1028"/>
<path d="M43.4428 31.39H45.4905L41.008 18.9751H38.9346L34.4521 31.39H36.431L37.5752 28.0949H42.3072L43.4428 31.39ZM39.8724 21.2293H40.0186L41.8168 26.4774H38.0656L39.8724 21.2293Z" fill="#1E1028"/>
<path d="M35.6514 9.61133V15.6004H37.8137C39.5984 15.6004 40.6318 14.5005 40.6318 12.5872C40.6318 10.7029 39.5901 9.61133 37.8137 9.61133H35.6514ZM36.5811 10.458H37.71C38.9509 10.458 39.6855 11.2466 39.6855 12.5996C39.6855 13.9734 38.9634 14.7537 37.71 14.7537H36.5811V10.458Z" fill="#1E1028"/>
<path d="M43.7969 15.6873C45.1167 15.6873 45.9261 14.8033 45.9261 13.3382C45.9261 11.8814 45.1126 10.9932 43.7969 10.9932C42.4771 10.9932 41.6636 11.8814 41.6636 13.3382C41.6636 14.8033 42.4729 15.6873 43.7969 15.6873ZM43.7969 14.8946C43.0208 14.8946 42.585 14.326 42.585 13.3382C42.585 12.3587 43.0208 11.7859 43.7969 11.7859C44.5689 11.7859 45.0088 12.3587 45.0088 13.3382C45.0088 14.3218 44.5689 14.8946 43.7969 14.8946Z" fill="#1E1028"/>
<path d="M52.8181 11.0806H51.9258L51.1206 14.5296H51.05L50.1204 11.0806H49.2654L48.3357 14.5296H48.2693L47.46 11.0806H46.5552L47.8003 15.6004H48.7175L49.6472 12.2717H49.7178L50.6516 15.6004H51.5771L52.8181 11.0806Z" fill="#1E1028"/>
<path d="M53.8457 15.6002H54.7381V12.9564C54.7381 12.2508 55.1573 11.8108 55.8172 11.8108C56.4771 11.8108 56.7925 12.1719 56.7925 12.8982V15.6002H57.6849V12.6741C57.6849 11.5992 57.1287 10.9932 56.1202 10.9932C55.4395 10.9932 54.9913 11.2962 54.7713 11.7984H54.7049V11.0804H53.8457V15.6002Z" fill="#1E1028"/>
<path d="M59.0903 15.6001H59.9826V9.31641H59.0903V15.6001Z" fill="#1E1028"/>
<path d="M63.3384 15.6873C64.6582 15.6873 65.4676 14.8033 65.4676 13.3382C65.4676 11.8814 64.6541 10.9932 63.3384 10.9932C62.0186 10.9932 61.2051 11.8814 61.2051 13.3382C61.2051 14.8033 62.0144 15.6873 63.3384 15.6873ZM63.3384 14.8946C62.5623 14.8946 62.1265 14.326 62.1265 13.3382C62.1265 12.3587 62.5623 11.7859 63.3384 11.7859C64.1104 11.7859 64.5503 12.3587 64.5503 13.3382C64.5503 14.3218 64.1104 14.8946 63.3384 14.8946Z" fill="#1E1028"/>
<path d="M68.1265 14.9236C67.6409 14.9236 67.2881 14.6871 67.2881 14.2803C67.2881 13.8819 67.5704 13.6702 68.1929 13.6287L69.2969 13.5582V13.9358C69.2969 14.4961 68.7989 14.9236 68.1265 14.9236ZM67.8982 15.6749C68.4917 15.6749 68.9856 15.4175 69.2554 14.9651H69.326V15.6002H70.1851V12.5123C70.1851 11.5577 69.5459 10.9932 68.4129 10.9932C67.3877 10.9932 66.6573 11.4913 66.566 12.2674H67.4292C67.5289 11.9478 67.8733 11.7652 68.3714 11.7652C68.9815 11.7652 69.2969 12.035 69.2969 12.5123V12.9024L68.0726 12.973C66.9976 13.0394 66.3916 13.5084 66.3916 14.3218C66.3916 15.1478 67.0267 15.6749 67.8982 15.6749Z" fill="#1E1028"/>
<path d="M73.2133 15.6748C73.8359 15.6748 74.363 15.3801 74.6328 14.8862H74.7033V15.6001H75.5583V9.31641H74.666V11.7983H74.5996C74.3547 11.3002 73.8317 11.0056 73.2133 11.0056C72.072 11.0056 71.3374 11.9104 71.3374 13.3381C71.3374 14.77 72.0637 15.6748 73.2133 15.6748ZM73.4665 11.8066C74.2136 11.8066 74.6826 12.4001 74.6826 13.3422C74.6826 14.2885 74.2177 14.8737 73.4665 14.8737C72.7111 14.8737 72.2587 14.2968 72.2587 13.3381C72.2587 12.3876 72.7153 11.8066 73.4665 11.8066Z" fill="#1E1028"/>
<path d="M81.3447 15.6873C82.6645 15.6873 83.4738 14.8033 83.4738 13.3382C83.4738 11.8814 82.6604 10.9932 81.3447 10.9932C80.0249 10.9932 79.2114 11.8814 79.2114 13.3382C79.2114 14.8033 80.0207 15.6873 81.3447 15.6873ZM81.3447 14.8946C80.5686 14.8946 80.1328 14.326 80.1328 13.3382C80.1328 12.3587 80.5686 11.7859 81.3447 11.7859C82.1166 11.7859 82.5566 12.3587 82.5566 13.3382C82.5566 14.3218 82.1166 14.8946 81.3447 14.8946Z" fill="#1E1028"/>
<path d="M84.6548 15.6002H85.5472V12.9564C85.5472 12.2508 85.9664 11.8108 86.6263 11.8108C87.2862 11.8108 87.6016 12.1719 87.6016 12.8982V15.6002H88.4939V12.6741C88.4939 11.5992 87.9378 10.9932 86.9292 10.9932C86.2486 10.9932 85.8003 11.2962 85.5804 11.7984H85.514V11.0804H84.6548V15.6002Z" fill="#1E1028"/>
<path d="M92.6038 9.95557V11.101H91.8857V11.8522H92.6038V14.4047C92.6038 15.2763 92.998 15.625 93.99 15.625C94.1643 15.625 94.3303 15.6042 94.4756 15.5793V14.8364C94.3511 14.8488 94.2722 14.8571 94.1352 14.8571C93.6912 14.8571 93.4961 14.6496 93.4961 14.1765V11.8522H94.4756V11.101H93.4961V9.95557H92.6038Z" fill="#1E1028"/>
<path d="M95.6733 15.6001H96.5656V12.9604C96.5656 12.2756 96.9724 11.8149 97.7028 11.8149C98.3337 11.8149 98.6699 12.1801 98.6699 12.9023V15.6001H99.5622V12.6823C99.5622 11.6074 98.9687 10.9973 98.0058 10.9973C97.3251 10.9973 96.8478 11.3002 96.6279 11.8066H96.5573V9.31641H95.6733V15.6001Z" fill="#1E1028"/>
<path d="M102.781 11.7527C103.441 11.7527 103.873 12.2134 103.894 12.9231H101.611C101.661 12.2176 102.122 11.7527 102.781 11.7527ZM103.89 14.3799C103.724 14.7327 103.354 14.9278 102.815 14.9278C102.101 14.9278 101.64 14.4256 101.611 13.6329V13.5831H104.803V13.2718C104.803 11.8523 104.043 10.9932 102.786 10.9932C101.511 10.9932 100.702 11.9105 100.702 13.3548C100.702 14.7991 101.495 15.6873 102.79 15.6873C103.823 15.6873 104.545 15.1893 104.749 14.3799H103.89Z" fill="#1E1028"/>
<path d="M24.769 21.2012C24.7907 19.5202 25.6934 17.9296 27.1256 17.0492C26.2221 15.7588 24.7088 14.9407 23.1344 14.8915C21.4552 14.7152 19.8272 15.8963 18.9715 15.8963C18.0992 15.8963 16.7817 14.909 15.363 14.9382C13.5137 14.9979 11.7898 16.0493 10.8901 17.666C8.95605 21.0145 10.3987 25.9355 12.2513 28.6421C13.1782 29.9675 14.2615 31.4479 15.6789 31.3954C17.066 31.3379 17.584 30.5109 19.2583 30.5109C20.9171 30.5109 21.4031 31.3954 22.8493 31.362C24.3377 31.3379 25.2754 30.0308 26.1698 28.6929C26.8358 27.7485 27.3483 26.7048 27.6882 25.6004C25.9391 24.8606 24.771 23.1004 24.769 21.2012Z" fill="#1E1028"/>
<path d="M22.0372 13.1112C22.8488 12.137 23.2486 10.8848 23.1517 9.62061C21.9119 9.75083 20.7667 10.3434 19.9442 11.2802C19.1399 12.1955 18.7213 13.4256 18.8005 14.6416C20.0407 14.6543 21.26 14.0778 22.0372 13.1112Z" fill="#1E1028"/>
</g>
</g>
</g>
<defs>
<clipPath id="clip0_94_28">
<rect width="135" height="40" fill="white" transform="translate(0 0.899902)"/>
</clipPath>
<clipPath id="clip1_94_28">
<rect width="135" height="40" fill="white" transform="translate(0 0.899902)"/>
</clipPath>
<clipPath id="clip2_94_28">
<rect width="135" height="40" fill="white" transform="translate(0 0.899902)"/>
</clipPath>
</defs>
</svg>
