<svg width="16" height="16" viewBox="0 0 16 16" fill="none" xmlns="http://www.w3.org/2000/svg">
<path d="M0.0510873 0.411559C-0.0529096 0.660895 0.0050887 0.947543 0.195739 1.13819L7.05754 7.99999L0.19574 14.8618C0.00508932 15.0524 -0.052909 15.3391 0.051088 15.5884C0.153741 15.8378 0.397734 15.9998 0.66707 15.9998L8.0002 15.9998C8.17754 15.9998 8.34684 15.9298 8.47153 15.8044L15.8047 8.47129C15.9347 8.34129 16 8.17064 16 7.99996C16 7.82931 15.9347 7.65863 15.8047 7.52863L8.47153 0.195503C8.34688 0.0701624 8.17754 0.000163675 8.0002 0.000163682L0.667069 0.000164003C0.397733 0.000226957 0.153741 0.162223 0.0510873 0.411559Z" fill="#02989D"/>
</svg>
