<svg width="135" height="41" viewBox="0 0 135 41" fill="none" xmlns="http://www.w3.org/2000/svg">
<g clip-path="url(#clip0_94_61)">
<g clip-path="url(#clip1_94_61)">
<path d="M130 1.3999H5C2.51472 1.3999 0.5 3.41462 0.5 5.8999V35.8999C0.5 38.3852 2.51472 40.3999 5 40.3999H130C132.485 40.3999 134.5 38.3852 134.5 35.8999V5.8999C134.5 3.41462 132.485 1.3999 130 1.3999Z" fill="#99E3E5"/>
<path d="M130 1.3999H5C2.51472 1.3999 0.5 3.41462 0.5 5.8999V35.8999C0.5 38.3852 2.51472 40.3999 5 40.3999H130C132.485 40.3999 134.5 38.3852 134.5 35.8999V5.8999C134.5 3.41462 132.485 1.3999 130 1.3999Z" stroke="#1E1028"/>
<path d="M68.136 22.6508C65.784 22.6508 63.867 24.4398 63.867 26.9038C63.867 29.3528 65.784 31.1568 68.136 31.1568C70.489 31.1568 72.406 29.3528 72.406 26.9038C72.405 24.4398 70.488 22.6508 68.136 22.6508ZM68.136 29.4828C66.847 29.4828 65.736 28.4198 65.736 26.9048C65.736 25.3738 66.848 24.3268 68.136 24.3268C69.425 24.3268 70.536 25.3738 70.536 26.9048C70.536 28.4188 69.425 29.4828 68.136 29.4828ZM58.822 22.6508C56.47 22.6508 54.553 24.4398 54.553 26.9038C54.553 29.3528 56.47 31.1568 58.822 31.1568C61.175 31.1568 63.092 29.3528 63.092 26.9038C63.092 24.4398 61.175 22.6508 58.822 22.6508ZM58.822 29.4828C57.533 29.4828 56.422 28.4198 56.422 26.9048C56.422 25.3738 57.534 24.3268 58.822 24.3268C60.111 24.3268 61.222 25.3738 61.222 26.9048C61.223 28.4188 60.111 29.4828 58.822 29.4828ZM47.744 23.9568V25.7608H52.062C51.933 26.7758 51.595 27.5168 51.079 28.0318C50.451 28.6598 49.468 29.3528 47.744 29.3528C45.086 29.3528 43.008 27.2098 43.008 24.5518C43.008 21.8938 45.086 19.7508 47.744 19.7508C49.178 19.7508 50.225 20.3148 50.998 21.0398L52.271 19.7668C51.191 18.7358 49.758 17.9468 47.744 17.9468C44.103 17.9468 41.042 20.9108 41.042 24.5518C41.042 28.1928 44.103 31.1568 47.744 31.1568C49.709 31.1568 51.192 30.5118 52.351 29.3038C53.543 28.1118 53.914 26.4358 53.914 25.0828C53.914 24.6648 53.882 24.2778 53.817 23.9558L47.744 23.9568ZM93.052 25.3578C92.698 24.4078 91.618 22.6508 89.411 22.6508C87.22 22.6508 85.399 24.3748 85.399 26.9038C85.399 29.2878 87.204 31.1568 89.62 31.1568C91.569 31.1568 92.697 29.9648 93.165 29.2718L91.715 28.3048C91.232 29.0138 90.571 29.4808 89.62 29.4808C88.67 29.4808 87.993 29.0458 87.558 28.1918L93.245 25.8398L93.052 25.3578ZM87.252 26.7758C87.204 25.1318 88.525 24.2948 89.476 24.2948C90.217 24.2948 90.845 24.6658 91.055 25.1968L87.252 26.7758ZM82.629 30.8998H84.497V18.3988H82.629V30.8998ZM79.567 23.6018H79.503C79.084 23.1018 78.278 22.6508 77.264 22.6508C75.137 22.6508 73.188 24.5198 73.188 26.9208C73.188 29.3048 75.137 31.1578 77.264 31.1578C78.279 31.1578 79.084 30.7068 79.503 30.1918H79.567V30.8038C79.567 32.4308 78.697 33.3008 77.296 33.3008C76.152 33.3008 75.443 32.4798 75.153 31.7868L73.526 32.4638C73.993 33.5908 75.233 34.9768 77.296 34.9768C79.487 34.9768 81.34 33.6878 81.34 30.5458V22.9098H79.568L79.567 23.6018ZM77.425 29.4828C76.136 29.4828 75.057 28.4028 75.057 26.9208C75.057 25.4218 76.136 24.3268 77.425 24.3268C78.697 24.3268 79.696 25.4218 79.696 26.9208C79.696 28.4028 78.697 29.4828 77.425 29.4828ZM101.806 18.3988H97.335V30.8998H99.2V26.1638H101.805C103.873 26.1638 105.907 24.6668 105.907 22.2818C105.907 19.8968 103.874 18.3988 101.806 18.3988ZM101.854 24.4238H99.2V20.1388H101.854C103.249 20.1388 104.041 21.2938 104.041 22.2818C104.041 23.2498 103.249 24.4238 101.854 24.4238ZM113.386 22.6288C112.035 22.6288 110.636 23.2238 110.057 24.5428L111.713 25.2338C112.067 24.5428 112.727 24.3168 113.418 24.3168C114.383 24.3168 115.364 24.8958 115.38 25.9248V26.0538C115.042 25.8608 114.318 25.5718 113.434 25.5718C111.649 25.5718 109.831 26.5528 109.831 28.3858C109.831 30.0588 111.295 31.1358 112.935 31.1358C114.189 31.1358 114.881 30.5728 115.315 29.9128H115.379V30.8778H117.181V26.0848C117.182 23.8668 115.524 22.6288 113.386 22.6288ZM113.16 29.4798C112.55 29.4798 111.697 29.1738 111.697 28.4178C111.697 27.4528 112.759 27.0828 113.676 27.0828C114.495 27.0828 114.882 27.2598 115.38 27.5008C115.235 28.6598 114.238 29.4798 113.16 29.4798ZM123.743 22.9018L121.604 28.3218H121.54L119.32 22.9018H117.31L120.639 30.4768L118.741 34.6908H120.687L125.818 22.9018H123.743ZM106.937 30.8998H108.802V18.3988H106.937V30.8998Z" fill="#1E1028"/>
<path d="M47.4179 11.1426C47.4179 11.9806 47.1701 12.6476 46.673 13.1456C46.109 13.7376 45.3731 14.0336 44.4691 14.0336C43.6031 14.0336 42.8661 13.7336 42.2611 13.1336C41.6551 12.5326 41.3521 11.7886 41.3521 10.9006C41.3521 10.0116 41.6551 9.2676 42.2611 8.6676C42.8661 8.0666 43.6031 7.7666 44.4691 7.7666C44.8991 7.7666 45.3101 7.8506 45.7001 8.0176C46.0911 8.1856 46.404 8.4086 46.6381 8.6876L46.111 9.2156C45.714 8.7406 45.1669 8.5036 44.4679 8.5036C43.8359 8.5036 43.2899 8.7256 42.8289 9.1696C42.3679 9.6136 42.1381 10.1906 42.1381 10.8996C42.1381 11.6086 42.3679 12.1856 42.8289 12.6296C43.2899 13.0736 43.8359 13.2956 44.4679 13.2956C45.1379 13.2956 45.6971 13.0726 46.1441 12.6256C46.4341 12.3346 46.6019 11.9296 46.6469 11.4106H44.4679V10.6896H47.375C47.405 10.8466 47.4179 10.9976 47.4179 11.1426Z" fill="#1E1028"/>
<path d="M52.0279 8.6369H49.2959V10.5389H51.7599V11.2599H49.2959V13.1619H52.0279V13.8999H48.5249V7.8999H52.0279V8.6369Z" fill="#1E1028"/>
<path d="M55.279 13.8999H54.508V8.6369H52.832V7.8999H56.955V8.6369H55.279V13.8999Z" fill="#1E1028"/>
<path d="M59.938 13.8999V7.8999H60.709V13.8999H59.938Z" fill="#1E1028"/>
<path d="M64.1281 13.8999H63.3572V8.6369H61.6812V7.8999H65.8042V8.6369H64.1281V13.8999Z" fill="#1E1028"/>
<path d="M73.6092 13.1247C73.0192 13.7307 72.2862 14.0337 71.4092 14.0337C70.5322 14.0337 69.7992 13.7307 69.2102 13.1247C68.6202 12.5187 68.3262 11.7767 68.3262 10.8996C68.3262 10.0226 68.6202 9.28065 69.2102 8.67465C69.7992 8.06865 70.5322 7.76465 71.4092 7.76465C72.2812 7.76465 73.0132 8.06965 73.6052 8.67865C74.1972 9.28765 74.4932 10.0276 74.4932 10.8996C74.4932 11.7767 74.1982 12.5187 73.6092 13.1247ZM69.7792 12.6217C70.2232 13.0717 70.7662 13.2957 71.4092 13.2957C72.0522 13.2957 72.5962 13.0707 73.0392 12.6217C73.4832 12.1717 73.7062 11.5977 73.7062 10.8996C73.7062 10.2016 73.4832 9.62765 73.0392 9.17765C72.5962 8.72765 72.0522 8.50365 71.4092 8.50365C70.7662 8.50365 70.2232 8.72865 69.7792 9.17765C69.3362 9.62765 69.1132 10.2016 69.1132 10.8996C69.1132 11.5977 69.3362 12.1717 69.7792 12.6217Z" fill="#1E1028"/>
<path d="M75.5747 13.8999V7.8999H76.5128L79.4288 12.5669H79.4617L79.4288 11.4109V7.8999H80.1997V13.8999H79.3947L76.3438 9.0059H76.3107L76.3438 10.1619V13.8999H75.5747Z" fill="#1E1028"/>
<path d="M47.4179 11.1426C47.4179 11.9806 47.1701 12.6476 46.673 13.1456C46.109 13.7376 45.3731 14.0336 44.4691 14.0336C43.6031 14.0336 42.8661 13.7336 42.2611 13.1336C41.6551 12.5326 41.3521 11.7886 41.3521 10.9006C41.3521 10.0116 41.6551 9.2676 42.2611 8.6676C42.8661 8.0666 43.6031 7.7666 44.4691 7.7666C44.8991 7.7666 45.3101 7.8506 45.7001 8.0176C46.0911 8.1856 46.404 8.4086 46.6381 8.6876L46.111 9.2156C45.714 8.7406 45.1669 8.5036 44.4679 8.5036C43.8359 8.5036 43.2899 8.7256 42.8289 9.1696C42.3679 9.6136 42.1381 10.1906 42.1381 10.8996C42.1381 11.6086 42.3679 12.1856 42.8289 12.6296C43.2899 13.0736 43.8359 13.2956 44.4679 13.2956C45.1379 13.2956 45.6971 13.0726 46.1441 12.6256C46.4341 12.3346 46.6019 11.9296 46.6469 11.4106H44.4679V10.6896H47.375C47.405 10.8466 47.4179 10.9976 47.4179 11.1426Z" stroke="#1E1028" stroke-width="0.2" stroke-miterlimit="10"/>
<path d="M52.0279 8.6369H49.2959V10.5389H51.7599V11.2599H49.2959V13.1619H52.0279V13.8999H48.5249V7.8999H52.0279V8.6369Z" stroke="#1E1028" stroke-width="0.2" stroke-miterlimit="10"/>
<path d="M55.279 13.8999H54.508V8.6369H52.832V7.8999H56.955V8.6369H55.279V13.8999Z" stroke="#1E1028" stroke-width="0.2" stroke-miterlimit="10"/>
<path d="M59.938 13.8999V7.8999H60.709V13.8999H59.938Z" stroke="#1E1028" stroke-width="0.2" stroke-miterlimit="10"/>
<path d="M64.1281 13.8999H63.3572V8.6369H61.6812V7.8999H65.8042V8.6369H64.1281V13.8999Z" stroke="#1E1028" stroke-width="0.2" stroke-miterlimit="10"/>
<path d="M73.6092 13.1247C73.0192 13.7307 72.2862 14.0337 71.4092 14.0337C70.5322 14.0337 69.7992 13.7307 69.2102 13.1247C68.6202 12.5187 68.3262 11.7767 68.3262 10.8996C68.3262 10.0226 68.6202 9.28065 69.2102 8.67465C69.7992 8.06865 70.5322 7.76465 71.4092 7.76465C72.2812 7.76465 73.0132 8.06965 73.6052 8.67865C74.1972 9.28765 74.4932 10.0276 74.4932 10.8996C74.4932 11.7767 74.1982 12.5187 73.6092 13.1247ZM69.7792 12.6217C70.2232 13.0717 70.7662 13.2957 71.4092 13.2957C72.0522 13.2957 72.5962 13.0707 73.0392 12.6217C73.4832 12.1717 73.7062 11.5977 73.7062 10.8996C73.7062 10.2016 73.4832 9.62765 73.0392 9.17765C72.5962 8.72765 72.0522 8.50365 71.4092 8.50365C70.7662 8.50365 70.2232 8.72865 69.7792 9.17765C69.3362 9.62765 69.1132 10.2016 69.1132 10.8996C69.1132 11.5977 69.3362 12.1717 69.7792 12.6217Z" stroke="#1E1028" stroke-width="0.2" stroke-miterlimit="10"/>
<path d="M75.5747 13.8999V7.8999H76.5128L79.4288 12.5669H79.4617L79.4288 11.4109V7.8999H80.1997V13.8999H79.3947L76.3438 9.0059H76.3107L76.3438 10.1619V13.8999H75.5747Z" stroke="#1E1028" stroke-width="0.2" stroke-miterlimit="10"/>
<g filter="url(#filter0_dd_94_61)">
<path d="M10.4362 8.43775C10.1452 8.74575 9.97314 9.22375 9.97314 9.84275V31.9587C9.97314 32.5787 10.1452 33.0557 10.4362 33.3637L10.5102 33.4357L22.8992 21.0467V20.9007V20.7547L10.5102 8.36475L10.4362 8.43775Z" fill="url(#paint0_linear_94_61)"/>
<path d="M27.0279 25.1775L22.8989 21.0465V20.9005V20.7545L27.0289 16.6245L27.1219 16.6775L32.0149 19.4575C33.4119 20.2515 33.4119 21.5505 32.0149 22.3455L27.1219 25.1255L27.0279 25.1775Z" fill="url(#paint1_linear_94_61)"/>
<g filter="url(#filter1_d_94_61)">
<path d="M27.122 25.1249L22.898 20.9009L10.436 33.3639C10.896 33.8519 11.657 33.9119 12.514 33.4259L27.122 25.1249Z" fill="url(#paint2_linear_94_61)"/>
</g>
<path d="M27.122 16.6766L12.514 8.3766C11.657 7.8896 10.896 7.9506 10.436 8.4386L22.899 20.9016L27.122 16.6766Z" fill="url(#paint3_linear_94_61)"/>
</g>
</g>
</g>
<defs>
<filter id="filter0_dd_94_61" x="9.97314" y="7.89053" width="23.0894" height="26.0212" filterUnits="userSpaceOnUse" color-interpolation-filters="sRGB">
<feFlood flood-opacity="0" result="BackgroundImageFix"/>
<feColorMatrix in="SourceAlpha" type="matrix" values="0 0 0 0 0 0 0 0 0 0 0 0 0 0 0 0 0 0 127 0" result="hardAlpha"/>
<feOffset dy="-0.15"/>
<feComposite in2="hardAlpha" operator="out"/>
<feColorMatrix type="matrix" values="0 0 0 0 0 0 0 0 0 0 0 0 0 0 0 0 0 0 0.12 0"/>
<feBlend mode="normal" in2="BackgroundImageFix" result="effect1_dropShadow_94_61"/>
<feColorMatrix in="SourceAlpha" type="matrix" values="0 0 0 0 0 0 0 0 0 0 0 0 0 0 0 0 0 0 127 0" result="hardAlpha"/>
<feOffset dy="0.15"/>
<feComposite in2="hardAlpha" operator="out"/>
<feColorMatrix type="matrix" values="0 0 0 0 1 0 0 0 0 1 0 0 0 0 1 0 0 0 0.25 0"/>
<feBlend mode="normal" in2="effect1_dropShadow_94_61" result="effect2_dropShadow_94_61"/>
<feBlend mode="normal" in="SourceGraphic" in2="effect2_dropShadow_94_61" result="shape"/>
</filter>
<filter id="filter1_d_94_61" x="10.436" y="20.7509" width="16.686" height="13.0108" filterUnits="userSpaceOnUse" color-interpolation-filters="sRGB">
<feFlood flood-opacity="0" result="BackgroundImageFix"/>
<feColorMatrix in="SourceAlpha" type="matrix" values="0 0 0 0 0 0 0 0 0 0 0 0 0 0 0 0 0 0 127 0" result="hardAlpha"/>
<feOffset dy="-0.15"/>
<feComposite in2="hardAlpha" operator="out"/>
<feColorMatrix type="matrix" values="0 0 0 0 0 0 0 0 0 0 0 0 0 0 0 0 0 0 0.08 0"/>
<feBlend mode="normal" in2="BackgroundImageFix" result="effect1_dropShadow_94_61"/>
<feBlend mode="normal" in="SourceGraphic" in2="effect1_dropShadow_94_61" result="shape"/>
</filter>
<linearGradient id="paint0_linear_94_61" x1="21.801" y1="9.60875" x2="5.01894" y2="26.3907" gradientUnits="userSpaceOnUse">
<stop stop-color="#00A0FF"/>
<stop offset="0.0066" stop-color="#00A1FF"/>
<stop offset="0.2601" stop-color="#00BEFF"/>
<stop offset="0.5122" stop-color="#00D2FF"/>
<stop offset="0.7604" stop-color="#00DFFF"/>
<stop offset="1" stop-color="#00E3FF"/>
</linearGradient>
<linearGradient id="paint1_linear_94_61" x1="33.8334" y1="20.9005" x2="9.63752" y2="20.9005" gradientUnits="userSpaceOnUse">
<stop stop-color="#FFE000"/>
<stop offset="0.4087" stop-color="#FFBD00"/>
<stop offset="0.7754" stop-color="#FFA500"/>
<stop offset="1" stop-color="#FF9C00"/>
</linearGradient>
<linearGradient id="paint2_linear_94_61" x1="24.8281" y1="23.1948" x2="2.06962" y2="45.9533" gradientUnits="userSpaceOnUse">
<stop stop-color="#FF3A44"/>
<stop offset="1" stop-color="#C31162"/>
</linearGradient>
<linearGradient id="paint3_linear_94_61" x1="7.29743" y1="1.07641" x2="17.4597" y2="11.2387" gradientUnits="userSpaceOnUse">
<stop stop-color="#32A071"/>
<stop offset="0.0685" stop-color="#2DA771"/>
<stop offset="0.4762" stop-color="#15CF74"/>
<stop offset="0.8009" stop-color="#06E775"/>
<stop offset="1" stop-color="#00F076"/>
</linearGradient>
<clipPath id="clip0_94_61">
<rect width="135" height="40" fill="white" transform="translate(0 0.899902)"/>
</clipPath>
<clipPath id="clip1_94_61">
<rect width="135" height="40" fill="white" transform="translate(0 0.899902)"/>
</clipPath>
</defs>
</svg>
