<svg width="36" height="36" viewBox="0 0 36 36" fill="none" xmlns="http://www.w3.org/2000/svg">
<g clip-path="url(#clip0_1568_411)">
<path d="M15.5167 10.5C15.5167 10.8283 15.5814 11.1534 15.707 11.4567C15.8327 11.76 16.0168 12.0356 16.249 12.2678C16.4811 12.4999 16.7567 12.6841 17.06 12.8097C17.3633 12.9353 17.6884 13 18.0167 13C18.345 13 18.6701 12.9353 18.9734 12.8097C19.2767 12.6841 19.5523 12.4999 19.7845 12.2678C20.0166 12.0356 20.2008 11.76 20.3264 11.4567C20.4521 11.1534 20.5167 10.8283 20.5167 10.5C20.5167 10.1717 20.4521 9.84661 20.3264 9.54329C20.2008 9.23998 20.0166 8.96438 19.7845 8.73223C19.5523 8.50009 19.2767 8.31594 18.9734 8.1903C18.6701 8.06466 18.345 8 18.0167 8C17.6884 8 17.3633 8.06466 17.06 8.1903C16.7567 8.31594 16.4811 8.50009 16.249 8.73223C16.0168 8.96438 15.8327 9.23998 15.707 9.54329C15.5814 9.84661 15.5167 10.1717 15.5167 10.5Z" fill="url(#paint0_linear_1568_411)"/>
<path d="M27.5501 16.1084C27.2957 15.8966 26.9678 15.7944 26.6382 15.8241C26.3085 15.8537 26.0042 16.0129 25.7917 16.2667C23.8334 18.6667 22.9167 14.925 19.7417 14.1834C18.5994 13.8884 17.4008 13.8884 16.2584 14.1834C13.0417 15.125 12.1667 18.5834 10.2084 16.2667C9.99512 16.0125 9.68961 15.8535 9.35907 15.8246C9.02854 15.7957 8.70006 15.8993 8.44589 16.1125C8.19173 16.3258 8.0327 16.6313 8.00379 16.9619C7.97487 17.2924 8.07845 17.6209 8.29173 17.875C9.12506 18.925 12.1751 20.675 14.7417 18.275C14.7711 18.2469 14.808 18.228 14.848 18.2206C14.888 18.2132 14.9292 18.2176 14.9667 18.2334C15.004 18.2496 15.0357 18.2765 15.0579 18.3105C15.0801 18.3446 15.0919 18.3844 15.0917 18.425V22.1667C15.0936 22.2531 15.1217 22.3368 15.1723 22.4068C15.2229 22.4767 15.2936 22.5296 15.3751 22.5584L17.7167 23.3917C17.8954 23.4502 18.0881 23.4502 18.2667 23.3917L20.6167 22.5584C20.6973 22.5293 20.7669 22.476 20.8161 22.406C20.8653 22.3359 20.8917 22.2523 20.8917 22.1667V18.425C20.8916 18.3844 20.9033 18.3446 20.9256 18.3105C20.9478 18.2765 20.9795 18.2496 21.0167 18.2334C21.0542 18.2176 21.0955 18.2132 21.1355 18.2206C21.1754 18.228 21.2124 18.2469 21.2417 18.275C23.8167 20.675 26.8167 18.925 27.6917 17.8667C27.7986 17.7423 27.8797 17.5979 27.9305 17.4419C27.9812 17.286 28.0006 17.1215 27.9874 16.958C27.9743 16.7945 27.9288 16.6353 27.8538 16.4894C27.7787 16.3436 27.6755 16.2141 27.5501 16.1084Z" fill="url(#paint1_linear_1568_411)"/>
<path d="M22.8917 22.675L19.8084 23.7666C19.768 23.7803 19.7328 23.8059 19.7075 23.8402C19.6821 23.8745 19.6679 23.9157 19.6667 23.9583C19.6674 24.002 19.6813 24.0446 19.7066 24.0803C19.7319 24.116 19.7674 24.1432 19.8084 24.1583L21.5917 24.7833C21.8789 24.8879 22.1403 25.0527 22.3584 25.2666C22.4153 25.3201 22.4855 25.3576 22.5616 25.3752C22.6377 25.3927 22.7171 25.3898 22.7917 25.3666L23.7251 25.0333C23.8799 24.9786 24.0225 24.8939 24.1446 24.7841C24.2667 24.6743 24.366 24.5415 24.4368 24.3933C24.5076 24.2451 24.5486 24.0844 24.5573 23.9204C24.566 23.7564 24.5423 23.5923 24.4876 23.4375C24.4329 23.2826 24.3482 23.1401 24.2384 23.0179C24.1286 22.8958 23.9958 22.7965 23.8476 22.7257C23.6994 22.6549 23.5387 22.614 23.3747 22.6053C23.2107 22.5966 23.0466 22.6202 22.8917 22.675Z" fill="url(#paint2_linear_1568_411)"/>
<path d="M21.3333 25.575L13.1083 22.675C12.9535 22.6202 12.7894 22.5966 12.6254 22.6053C12.4614 22.614 12.3007 22.6549 12.1525 22.7257C11.8532 22.8687 11.623 23.1247 11.5125 23.4375C11.402 23.7502 11.4202 24.094 11.5632 24.3933C11.7062 24.6926 11.9623 24.9228 12.275 25.0333L20.5 27.925C20.6306 27.974 20.7688 27.9994 20.9083 28C21.2015 27.9977 21.4845 27.8925 21.7079 27.7027C21.9313 27.5129 22.0809 27.2506 22.1306 26.9617C22.1802 26.6728 22.1267 26.3756 21.9795 26.1221C21.8322 25.8686 21.6006 25.675 21.325 25.575H21.3333Z" fill="url(#paint3_linear_1568_411)"/>
</g>
<defs>
<linearGradient id="paint0_linear_1568_411" x1="16.6422" y1="12.7697" x2="16.7053" y2="4.54529" gradientUnits="userSpaceOnUse">
<stop stop-color="#A144D1"/>
<stop offset="1" stop-color="#D63584"/>
</linearGradient>
<linearGradient id="paint1_linear_1568_411" x1="12.499" y1="22.9993" x2="12.5557" y2="7.41584" gradientUnits="userSpaceOnUse">
<stop stop-color="#A144D1"/>
<stop offset="1" stop-color="#D63584"/>
</linearGradient>
<linearGradient id="paint2_linear_1568_411" x1="20.7679" y1="25.2583" x2="20.7879" y2="20.6805" gradientUnits="userSpaceOnUse">
<stop stop-color="#A144D1"/>
<stop offset="1" stop-color="#D63584"/>
</linearGradient>
<linearGradient id="paint3_linear_1568_411" x1="13.8512" y1="27.7514" x2="13.8855" y2="18.8745" gradientUnits="userSpaceOnUse">
<stop stop-color="#A144D1"/>
<stop offset="1" stop-color="#D63584"/>
</linearGradient>
<clipPath id="clip0_1568_411">
<rect width="20" height="20" fill="white" transform="translate(8 8)"/>
</clipPath>
</defs>
</svg>
