<svg width="36" height="36" viewBox="0 0 36 36" fill="none" xmlns="http://www.w3.org/2000/svg">
<path d="M25.0786 12.4929L20.7929 8.20715C20.658 8.07322 20.4759 7.99911 20.2857 8.00001H12.4286C11.6393 8.00001 11 8.6393 11 9.42858V26.5714C11 26.95 11.1509 27.3134 11.4187 27.5813C11.6866 27.8491 12.05 28 12.4286 28H23.8571C24.2357 28 24.5991 27.8491 24.867 27.5813C25.1348 27.3134 25.2857 26.95 25.2857 26.5714V13C25.2866 12.8098 25.2125 12.6277 25.0786 12.4929ZM14.5714 13H17.4285C17.8232 13 18.1428 13.3197 18.1428 13.7143C18.1428 14.109 17.8232 14.4286 17.4285 14.4286H14.5714C14.1767 14.4286 13.8571 14.109 13.8571 13.7143C13.8571 13.3197 14.1767 13 14.5714 13ZM14.5714 15.8572H21.7142C22.1089 15.8572 22.4285 16.1768 22.4285 16.5714C22.4285 16.9661 22.1089 17.2857 21.7142 17.2857H14.5714C14.1767 17.2857 13.8571 16.9661 13.8571 16.5714C13.8571 16.1768 14.1767 15.8572 14.5714 15.8572ZM14.5714 18.7143H21.7142C22.1089 18.7143 22.4285 19.0339 22.4285 19.4286C22.4285 19.8232 22.1089 20.1429 21.7142 20.1429H14.5714C14.1767 20.1429 13.8571 19.8232 13.8571 19.4286C13.8571 19.0339 14.1767 18.7143 14.5714 18.7143ZM18.8571 23H14.5714C14.1767 23 13.8571 22.6804 13.8571 22.2857C13.8571 21.8911 14.1767 21.5714 14.5714 21.5714H18.8571C19.2517 21.5714 19.5714 21.8911 19.5714 22.2857C19.5714 22.6804 19.2517 23 18.8571 23ZM21.7142 23C21.3196 23 21 22.6804 21 22.2857C21 21.8911 21.3196 21.5714 21.7142 21.5714C22.1089 21.5714 22.4285 21.8911 22.4285 22.2857C22.4285 22.6804 22.1089 23 21.7142 23ZM21 13C20.6053 13 20.2857 12.6804 20.2857 12.2857V9.42859L23.8571 13H21Z" fill="url(#paint0_linear_1568_421)"/>
<defs>
<linearGradient id="paint0_linear_1568_421" x1="14.2155" y1="27.0788" x2="14.5689" y2="-5.81698" gradientUnits="userSpaceOnUse">
<stop stop-color="#A144D1"/>
<stop offset="1" stop-color="#D63584"/>
</linearGradient>
</defs>
</svg>
