<svg width="36" height="36" viewBox="0 0 36 36" fill="none" xmlns="http://www.w3.org/2000/svg">
<path d="M23.8333 8H13V11.3365C11.2717 11.3373 9.573 11.6228 8 12.1665V16.3333C8 17.4325 8.22125 18.4825 8.61675 19.4395C9.0285 20.4322 9.62675 21.3257 10.373 22.0737C11.12 22.8225 12.0113 23.4223 13 23.8333V28H28V12.1667L23.8333 8ZM13 21.9867C12.4693 21.6945 11.9847 21.3292 11.5525 20.8962C10.954 20.2967 10.484 19.5917 10.156 18.8007C9.83175 18.0152 9.6665 17.1845 9.6665 16.3333V13.4078C10.7483 13.1368 11.8663 13 13.004 13C14.1368 13 15.2523 13.1368 16.3333 13.4078V14.149L13 17.4825L11.3837 15.8663L10.5 16.75L13 19.25L16.3333 15.9167V16.3335C16.3333 17.1847 16.168 18.0155 15.843 18.8033C15.5158 19.5918 15.046 20.2967 14.4473 20.8962C14.0153 21.3292 13.5307 21.6945 13 21.9867ZM26.3333 26.3333H14.6667V22.8853C15.0057 22.637 15.3305 22.3707 15.627 22.074C15.858 21.842 16.0697 21.592 16.2715 21.3333H24.6667V19.6667H17.2758C17.31 19.59 17.3505 19.5167 17.3833 19.4397C17.5738 18.9797 17.72 18.498 17.8243 18H24.6667V16.3333H18V14.6665H21.3333V13H18V12.1667C16.9062 11.7887 15.7867 11.5565 14.6667 11.4355V9.66675H23V13H26.3333V26.3333Z" fill="url(#paint0_linear_1569_461)"/>
<defs>
<linearGradient id="paint0_linear_1569_461" x1="12.5017" y1="27.0788" x2="12.7542" y2="-5.81884" gradientUnits="userSpaceOnUse">
<stop stop-color="#A144D1"/>
<stop offset="1" stop-color="#D63584"/>
</linearGradient>
</defs>
</svg>
