<svg width="36" height="36" viewBox="0 0 36 36" fill="none" xmlns="http://www.w3.org/2000/svg">
<path fill-rule="evenodd" clip-rule="evenodd" d="M24.1031 9C25.0346 9 25.7842 9.34941 26.2779 9.88273C26.7715 10.416 27.0135 11.1196 27.0135 11.8145V11.8273C27.0139 11.8379 27.0139 11.8486 27.0135 11.8593V24.1471C27.0135 25.7143 25.7278 27 24.1606 27H11.8536C10.2864 27 9.00071 25.7143 9.00071 24.1471V16.951V11.8785C8.98536 11.174 9.21879 10.4554 9.71072 9.90832C10.204 9.35995 10.9641 9 11.9111 9H24.1031ZM24.1031 9.81876H11.9111C11.1641 9.81876 10.658 10.0808 10.3184 10.4584C9.98259 10.8318 9.81163 11.3387 9.81947 11.8465C9.81954 11.8507 9.81954 11.855 9.81947 11.8593V14.6418C10.144 14.2991 10.5779 14.0333 11.1052 13.8998V13.516C11.1052 12.9605 11.2818 12.4521 11.5849 12.064C11.888 11.6758 12.3357 11.4051 12.8451 11.4051H23.1691C23.6782 11.4051 24.1261 11.6696 24.4293 12.0576C24.7325 12.4456 24.909 12.9596 24.909 13.516V13.6823C25.2297 13.5736 25.479 13.3968 25.6766 13.1834C26.0163 12.8164 26.1947 12.3199 26.1947 11.8145C26.1947 11.3091 26.0163 10.8062 25.6766 10.4392C25.337 10.0723 24.8381 9.81876 24.1031 9.81876ZM26.1947 13.8294C25.7018 14.3135 24.9832 14.6226 24.1031 14.6226H11.924C11.1191 14.6226 10.6335 14.9036 10.3056 15.3262C9.97768 15.7488 9.81947 16.3482 9.81947 16.951V17.2452C9.89146 17.3039 9.97056 17.33 10.1009 17.3475C10.2666 17.3699 10.497 17.3594 10.7598 17.3667H15.5892C16.506 17.3667 17.2449 17.7326 17.7257 18.2814C18.2064 18.8303 18.4357 19.5432 18.4357 20.2516C18.4357 20.96 18.2064 21.6729 17.7257 22.2217C17.2449 22.7706 16.506 23.1364 15.5892 23.1364H10.7598C10.5197 23.1364 10.2213 23.118 9.92823 23.0469C9.89234 23.0383 9.85583 23.0317 9.81947 23.0213V24.1471C9.81947 25.2677 10.733 26.1812 11.8536 26.1812H24.1606C25.2812 26.1812 26.1947 25.2677 26.1947 24.1471V13.8294ZM15.5188 18.9659C14.8299 18.9659 14.2587 19.5294 14.2587 20.2196C14.2587 20.9109 14.8299 21.4797 15.5188 21.4797C16.2079 21.4797 16.7726 20.9097 16.7726 20.2196C16.7726 19.5306 16.2079 18.9659 15.5188 18.9659Z" fill="url(#paint0_linear_1569_457)"/>
<path fill-rule="evenodd" clip-rule="evenodd" d="M15.5183 19.7817C15.2707 19.7817 15.0786 19.973 15.0786 20.2195C15.0786 20.4689 15.2707 20.6592 15.5183 20.6592C15.7659 20.6592 15.956 20.4701 15.956 20.2195C15.956 19.9718 15.7659 19.7817 15.5183 19.7817Z" fill="url(#paint1_linear_1569_457)"/>
<defs>
<linearGradient id="paint0_linear_1569_457" x1="13.0546" y1="26.1709" x2="13.2817" y2="-3.43696" gradientUnits="userSpaceOnUse">
<stop stop-color="#A144D1"/>
<stop offset="1" stop-color="#D63584"/>
</linearGradient>
<linearGradient id="paint1_linear_1569_457" x1="15.2761" y1="20.6188" x2="15.2872" y2="19.1754" gradientUnits="userSpaceOnUse">
<stop stop-color="#A144D1"/>
<stop offset="1" stop-color="#D63584"/>
</linearGradient>
</defs>
</svg>
