<svg width="36" height="36" viewBox="0 0 36 36" fill="none" xmlns="http://www.w3.org/2000/svg">
<path d="M15.2419 21.637L16.9262 23.3213L15.4706 27.2513C15.3043 27.688 14.8884 27.9583 14.4517 27.9583C14.327 27.9583 14.2022 27.9375 14.0774 27.8959C13.516 27.688 13.2249 27.0642 13.4328 26.5027L15.2419 21.637Z" fill="url(#paint0_linear_1568_423)"/>
<path d="M12.102 17.3327L13.1001 15.4196C13.3704 14.9206 13.7655 14.5047 14.2438 14.2136C16.5519 12.8412 16.843 12.862 17.1341 12.8828L18.6937 12.9867C19.1719 13.0075 19.5046 13.1323 21.1058 15.482C21.1681 15.5652 21.2513 15.6276 21.3761 15.6484L23.2891 15.9395C23.809 16.0226 24.1625 16.5009 24.0793 17.0208C23.9961 17.5406 23.5179 17.8941 22.998 17.8109L21.085 17.5198C20.4611 17.4158 19.8997 17.0831 19.5462 16.5633C19.463 16.4385 19.4007 16.3346 19.3175 16.2306L18.0906 20.119L19.7957 21.8241C20.0453 22.0737 20.2532 22.4064 20.378 22.7391L21.688 26.5652C21.8959 27.1266 21.584 27.7504 21.0226 27.9376C20.8978 27.9791 20.7939 27.9999 20.6691 27.9999C20.2116 27.9999 19.7957 27.7088 19.6294 27.2722L18.3194 23.4461C18.2986 23.4045 18.2778 23.3837 18.257 23.3421L15.2211 20.2854C14.7844 19.8487 14.6181 19.2457 14.7428 18.6635L15.4082 15.7107C15.3458 15.7523 15.2835 15.7939 15.2003 15.8355C15.0131 15.9395 14.8676 16.1058 14.7636 16.293L13.7655 18.206C13.5992 18.5179 13.2665 18.7051 12.9338 18.7051C12.7882 18.7051 12.6426 18.6635 12.4971 18.6011C12.0396 18.3516 11.8733 17.7901 12.102 17.3327Z" fill="url(#paint1_linear_1568_423)"/>
<path d="M20.3219 10.5422C20.4474 9.38917 19.6144 8.35269 18.4613 8.22719C17.3083 8.10169 16.2718 8.93469 16.1463 10.0877C16.0208 11.2408 16.8538 12.2773 18.0069 12.4028C19.1599 12.5283 20.1964 11.6953 20.3219 10.5422Z" fill="url(#paint2_linear_1568_423)"/>
<defs>
<linearGradient id="paint0_linear_1568_423" x1="14.167" y1="27.6672" x2="14.3087" y2="17.2706" gradientUnits="userSpaceOnUse">
<stop stop-color="#A144D1"/>
<stop offset="1" stop-color="#D63584"/>
</linearGradient>
<linearGradient id="paint1_linear_1568_423" x1="14.7216" y1="27.3034" x2="14.9603" y2="2.42991" gradientUnits="userSpaceOnUse">
<stop stop-color="#A144D1"/>
<stop offset="1" stop-color="#D63584"/>
</linearGradient>
<linearGradient id="paint2_linear_1568_423" x1="20.0046" y1="11.6692" x2="13.142" y2="10.8689" gradientUnits="userSpaceOnUse">
<stop stop-color="#A144D1"/>
<stop offset="1" stop-color="#D63584"/>
</linearGradient>
</defs>
</svg>
