<svg width="36" height="36" viewBox="0 0 36 36" fill="none" xmlns="http://www.w3.org/2000/svg">
<path d="M18 18.1146L9.325 10.3063C9.68513 10.1081 10.089 10.0028 10.5 10H25.5C25.911 10.0028 26.3149 10.1081 26.675 10.3063L18 18.1146ZM25.5 26.25C26.163 26.25 26.7989 25.9866 27.2678 25.5178C27.7366 25.0489 28 24.413 28 23.75V11.875L18.625 20.3833C18.4531 20.5371 18.2306 20.6221 18 20.6221C17.7694 20.6221 17.5469 20.5371 17.375 20.3833L8 11.875V23.75C8 24.413 8.26339 25.0489 8.73223 25.5178C9.20107 25.9866 9.83696 26.25 10.5 26.25H25.5Z" fill="url(#paint0_linear_1568_430)"/>
<defs>
<linearGradient id="paint0_linear_1568_430" x1="12.5017" y1="25.5015" x2="12.6684" y2="-1.22834" gradientUnits="userSpaceOnUse">
<stop stop-color="#A144D1"/>
<stop offset="1" stop-color="#D63584"/>
</linearGradient>
</defs>
</svg>
