<svg width="36" height="36" viewBox="0 0 36 36" fill="none" xmlns="http://www.w3.org/2000/svg">
<path d="M22.9007 25.9656C23.4624 25.9656 23.9178 25.5103 23.9178 24.9485C23.9178 24.3868 23.4624 23.9314 22.9007 23.9314C22.3389 23.9314 21.8835 24.3868 21.8835 24.9485C21.8835 25.5103 22.3389 25.9656 22.9007 25.9656Z" fill="url(#paint0_linear_1568_432)"/>
<path d="M26.9693 17.1506H23.6602L27.349 12.5431C27.5077 12.3473 27.6073 12.1103 27.6362 11.8599C27.665 11.6094 27.6218 11.356 27.5117 11.1293C27.4029 10.8987 27.2298 10.7044 27.0133 10.5697C26.7969 10.435 26.5461 10.3656 26.2912 10.3698H21.5446C21.2748 10.3698 21.0161 10.477 20.8254 10.6677C20.6346 10.8585 20.5275 11.1172 20.5275 11.3869C20.5275 11.6567 20.6346 11.9154 20.8254 12.1061C21.0161 12.2969 21.2748 12.4041 21.5446 12.4041H24.8536L21.1649 17.0116C21.006 17.2091 20.9065 17.4476 20.8781 17.6994C20.8497 17.9512 20.8935 18.2059 21.0044 18.4338C21.1153 18.6617 21.2888 18.8533 21.5045 18.9863C21.7202 19.1193 21.9693 19.1882 22.2227 19.1849H26.9693C27.239 19.1849 27.4977 19.0777 27.6885 18.887C27.8792 18.6962 27.9864 18.4375 27.9864 18.1678C27.9864 17.898 27.8792 17.6393 27.6885 17.4486C27.4977 17.2578 27.239 17.1506 26.9693 17.1506Z" fill="url(#paint1_linear_1568_432)"/>
<path d="M16.798 25.9658H11.9937L17.2218 18.6493C17.3689 18.4434 17.4564 18.2008 17.4746 17.9484C17.4929 17.6959 17.4412 17.4433 17.3252 17.2184C17.2092 16.9934 17.0334 16.8048 16.8172 16.6732C16.601 16.5417 16.3526 16.4723 16.0995 16.4727H10.0171C9.74737 16.4727 9.48866 16.5798 9.29791 16.7706C9.10716 16.9613 9 17.22 9 17.4898C9 17.7595 9.10716 18.0183 9.29791 18.209C9.48866 18.3997 9.74737 18.5069 10.0171 18.5069H14.8213L9.59332 25.8234C9.4462 26.0294 9.3587 26.2719 9.34046 26.5244C9.32222 26.7768 9.37394 27.0294 9.48992 27.2544C9.60591 27.4793 9.78168 27.668 9.9979 27.7995C10.2141 27.9311 10.4624 28.0005 10.7156 28.0001H16.798C17.0677 28.0001 17.3264 27.8929 17.5172 27.7022C17.7079 27.5114 17.8151 27.2527 17.8151 26.983C17.8151 26.7132 17.7079 26.4545 17.5172 26.2637C17.3264 26.073 17.0677 25.9658 16.798 25.9658Z" fill="url(#paint2_linear_1568_432)"/>
<path d="M12.2785 9.66118C12.21 9.69562 12.1524 9.74841 12.1122 9.81367C12.072 9.87892 12.0507 9.95408 12.0507 10.0307C12.0507 10.1074 12.072 10.1826 12.1122 10.2478C12.1524 10.3131 12.21 10.3659 12.2785 10.4003L13.2346 10.8817L13.7093 11.8344C13.7438 11.9045 13.7975 11.9633 13.8641 12.0041C13.9307 12.0449 14.0075 12.066 14.0856 12.065C14.1628 12.0657 14.2386 12.0448 14.3045 12.0046C14.3704 11.9645 14.4237 11.9067 14.4585 11.8378L14.9332 10.8851L15.8995 10.4003C15.9668 10.3651 16.0231 10.312 16.062 10.2467C16.1009 10.1815 16.1209 10.1067 16.1198 10.0307C16.1205 9.95533 16.0999 9.88126 16.0603 9.81707C16.0207 9.75288 15.9638 9.70119 15.8961 9.66796L14.9298 9.18313L14.4551 8.23043C14.4205 8.16118 14.3673 8.10295 14.3014 8.06225C14.2355 8.02156 14.1596 8 14.0822 8C14.0048 8 13.9289 8.02156 13.863 8.06225C13.7971 8.10295 13.7439 8.16118 13.7093 8.23043L13.2346 9.18313L12.2785 9.66118Z" fill="url(#paint3_linear_1568_432)"/>
<defs>
<linearGradient id="paint0_linear_1568_432" x1="22.3414" y1="25.872" x2="22.3671" y2="22.5258" gradientUnits="userSpaceOnUse">
<stop stop-color="#A144D1"/>
<stop offset="1" stop-color="#D63584"/>
</linearGradient>
<linearGradient id="paint1_linear_1568_432" x1="22.2064" y1="18.779" x2="22.3379" y2="4.27905" gradientUnits="userSpaceOnUse">
<stop stop-color="#A144D1"/>
<stop offset="1" stop-color="#D63584"/>
</linearGradient>
<linearGradient id="paint2_linear_1568_432" x1="10.9841" y1="27.4691" x2="11.1744" y2="8.50866" gradientUnits="userSpaceOnUse">
<stop stop-color="#A144D1"/>
<stop offset="1" stop-color="#D63584"/>
</linearGradient>
<linearGradient id="paint3_linear_1568_432" x1="12.9666" y1="11.8778" x2="13.0178" y2="5.1913" gradientUnits="userSpaceOnUse">
<stop stop-color="#A144D1"/>
<stop offset="1" stop-color="#D63584"/>
</linearGradient>
</defs>
</svg>
